<?xml version="1.0" encoding="UTF-8"?>
<svg width="850px" height="640px" viewBox="0 0 850 640" version="1.1" xmlns="http://www.w3.org/2000/svg" xmlns:xlink="http://www.w3.org/1999/xlink">
    <!-- Generator: Sketch 49.3 (51167) - http://www.bohemiancoding.com/sketch -->
    <title>Group 3</title>
    <desc>Created with Sketch.</desc>
    <defs></defs>
    <g id="Page-1" stroke="none" stroke-width="1" fill="none" fill-rule="evenodd">
        <g id="Group-3" transform="translate(28.000000, 7.000000)">
            <g id="WordPress_logo" transform="translate(531.000000, 213.000000)" fill-rule="nonzero">
                <g id="Group">
                    <path d="M18.4753291,129.972285 C18.4753291,174.106851 44.1239572,212.247755 81.3164836,230.322092 L28.1288371,84.594433 C21.9421054,98.4615381 18.4753291,113.807433 18.4753291,129.972285 Z" id="Shape" fill="#464342"></path>
                    <path d="M205.248431,124.345669 C205.248431,110.565552 200.298621,101.02237 196.0532,93.5944727 C190.401124,84.4098494 185.103363,76.6318802 185.103363,67.4472569 C185.103363,57.1975652 192.877089,47.6565047 203.826926,47.6565047 C204.32127,47.6565047 204.790155,47.7180325 205.271769,47.745614 C185.434341,29.5715592 159.004945,18.4753291 129.976529,18.4753291 C91.0230328,18.4753291 56.7520187,38.4612731 36.8148726,68.7329768 C39.4308672,68.8114779 41.8962246,68.8666408 43.9902933,68.8666408 C55.6530039,68.8666408 73.7061247,67.4515002 73.7061247,67.4515002 C79.7167594,67.0971846 80.4253905,75.9253707 74.4211207,76.6361235 C74.4211207,76.6361235 68.3807829,77.3468762 61.6593954,77.6990702 L102.263535,198.474002 L126.664633,125.291925 L109.292562,77.6948269 C103.288292,77.3426329 97.6001481,76.6318802 97.6001481,76.6318802 C91.591635,76.2796862 92.2960229,67.0929413 98.304536,67.4472569 C98.304536,67.4472569 116.718337,68.8623975 127.674538,68.8623975 C139.335127,68.8623975 157.39037,67.4472569 157.39037,67.4472569 C163.405248,67.0929413 164.111757,75.9211274 158.105366,76.6318802 C158.105366,76.6318802 152.052298,77.3426329 145.34364,77.6948269 L185.638019,197.555328 L196.759709,160.390383 C201.580098,144.968108 205.248431,133.890973 205.248431,124.345669 Z" id="Shape" fill="#464646"></path>
                    <path d="M131.93269,139.725511 L98.4785113,236.937397 C108.46724,239.873761 119.030936,241.47985 129.976529,241.47985 C142.961027,241.47985 155.412992,239.235144 167.003566,235.159454 C166.704414,234.682083 166.432843,234.175009 166.210069,233.62338 L131.93269,139.725511 Z" id="Shape" fill="#464342"></path>
                    <path d="M227.814302,76.4769997 C228.293795,80.028642 228.565366,83.8412472 228.565366,87.9423969 C228.565366,99.2571569 226.452202,111.976449 220.087252,127.880338 L186.028403,226.352485 C219.177064,207.022131 241.473485,171.108959 241.473485,129.974407 C241.475607,110.58889 236.523675,92.3596724 227.814302,76.4769997 Z" id="Shape" fill="#464342"></path>
                    <path d="M129.976529,0 C58.3093098,0 0,58.3050665 0,129.972285 C0,201.647991 58.3093098,259.950936 129.976529,259.950936 C201.641626,259.950936 259.959422,201.647991 259.959422,129.972285 C259.957301,58.3050665 201.641626,0 129.976529,0 Z M129.976529,253.993342 C61.5957459,253.993342 5.95971515,198.357312 5.95971515,129.972285 C5.95971515,61.5915026 61.5936242,5.95971515 129.976529,5.95971515 C198.35519,5.95971515 253.986977,61.5915026 253.986977,129.972285 C253.986977,198.357312 198.35519,253.993342 129.976529,253.993342 Z" id="Shape" fill="#464342"></path>
                </g>
            </g>
            <g id="g6015" transform="translate(0.000000, 213.000000)">
                <path d="M123.425291,184.712406 C122.496201,217.929603 124.913782,244.286926 128.164014,252.416369 C131.416332,260.545039 142.141401,272.592378 166.075114,267.465111 C186.070298,263.177834 195.22813,254.882248 198.385167,236.571683 C200.710327,223.100145 203.937839,195.287714 204.512773,187.622005" id="path2466-5" stroke="#464646" stroke-width="8.36214807" stroke-linecap="round" stroke-linejoin="round"></path>
                <path d="M106.223328,14.4248449 C106.223328,14.4248449 -4.01469796,-29.8616856 1.02262007,70.8488962 C2.09397553,92.2743826 33.6158126,232.9683 68.9652881,190.471328 C90.3544548,170.537966 93.5658165,162.741892 93.5658165,162.741892" id="path2468-0" stroke="#464646" stroke-width="8.36214807" stroke-linecap="round" stroke-linejoin="round"></path>
                <path d="M157.031573,6.34184505 C153.280901,7.51783231 217.305672,-17.0632998 253.691574,29.4303126 C266.544285,45.8552644 251.65025,112.963196 216.021653,165.832548" id="path2470-7" stroke="#464646" stroke-width="8.36214807" stroke-linecap="round" stroke-linejoin="round"></path>
                <path d="M216.020958,154.975337 C216.020958,154.975337 218.342794,166.40385 252.088251,159.438494 C266.873713,156.384776 257.975605,178.865003 242.980184,185.829046 C230.673583,191.540597 203.082393,193.004206 202.631564,185.111924 C201.471651,164.748442 217.153361,160.077799 216.021653,154.975337 C214.998595,150.380039 207.98556,156.727109 203.346677,145.480426 C199.296793,135.66397 147.803419,60.3844023 217.626986,71.5647044 C220.184901,71.0353633 199.416184,5.14970709 134.071229,4.0784289 C68.7410329,3.00707344 70.8843621,84.42012 70.8843621,84.42012" id="path2472-2" stroke="#464646" stroke-width="8.36214807" stroke-linecap="round" stroke-linejoin="bevel"></path>
                <path d="M84.2663367,188.505734 C65.8456531,192.302539 76.6782128,196.037292 83.7315863,198.126064 C98.8858104,200.897184 110.858038,205.376105 125.502472,189.765334 C129.579866,184.057105 125.479289,172.438957 119.877392,170.117197 C117.171184,168.996231 113.552654,167.591429 108.901717,172.796591 C99.793727,182.970604 102.472425,184.757072 84.2663367,188.505734 Z" id="path2474-7" stroke="#464646" stroke-width="8.36214807" stroke-linecap="round" stroke-linejoin="round"></path>
                <path d="M108.305454,172.618778 C107.387724,166.636838 110.270971,159.518552 113.360932,151.190665 C118.004529,138.69551 128.718547,126.198346 120.147858,86.5621354 C113.759368,57.0255206 70.9105587,80.4152102 70.8836666,84.42012 C70.8604838,88.423716 72.8217505,104.719849 70.1680902,123.696765 C66.7051948,148.459651 85.9249131,169.40278 108.05678,167.260069" id="path2476-1" stroke="#000000" stroke-width="8.36214807" stroke-linecap="round" stroke-linejoin="round"></path>
                <path d="M98.1099586,83.8196849 C97.9167685,85.1875486 100.614167,88.8376066 104.131465,89.3253732 C107.642658,89.8153035 110.648001,86.9626573 110.838564,85.5961072 C111.029436,84.2282435 108.334974,82.7215146 104.816363,82.2318161 C101.30316,81.7411131 98.2964258,82.455144 98.1105769,83.8196849 L98.1099586,83.8196849 Z" id="path2478-4" stroke="#000000" stroke-width="2.78736044"></path>
                <path d="M205.058729,81.0310233 C205.249601,82.398887 202.555138,86.048945 199.037223,86.5366343 C195.523325,87.0265646 192.517904,84.1739184 192.325409,82.8074456 C192.139174,81.4395819 194.834332,79.932853 198.348925,79.4431545 C201.86344,78.9532242 204.868166,79.6664824 205.058729,81.0317187 L205.058729,81.0310233 Z" id="path2480-8" stroke="#000000" stroke-width="1.39368022"></path>
                <path d="M217.626986,71.5647044 C218.205784,82.2941779 215.315891,89.6024079 214.951611,101.024198 C214.412224,117.626266 222.866922,136.628607 210.127575,155.65444" id="path2482-4" stroke="#000000" stroke-width="8.36214807" stroke-linecap="round" stroke-linejoin="round"></path>
                <polygon id="path11678" fill="#464646" fill-rule="nonzero" points="86.7989054 167.132409 107.768927 166.650206 98.554837 180.141604 82.6684221 178.696078"></polygon>
                <path d="M212.300115,161.241577 C245.136495,112.517777 258.863121,50.6701046 247.01724,35.5332676 C214.700773,-5.75726954 158.759388,13.7704711 157.825816,14.2774794 C151.380914,13.0561311 144.504658,12.2962755 136.776355,12.170161 C122.70415,11.9391055 112.029929,15.8593206 103.930083,22.0016865 C103.930083,22.0016865 4.13615029,-19.1094929 8.77742845,73.7067972 C9.76478482,93.4527655 37.0788625,223.113282 69.6580681,183.950001 C81.5657698,169.629199 93.0709405,157.520579 93.0709405,157.520579 C98.7855061,161.316689 105.626602,163.253073 112.79844,162.557588 C113.182502,163.862781 113.261324,165.601956 113.578928,167.660746 C105.186051,177.037888 107.65224,178.684332 90.8745228,182.137954 C73.8977425,185.636628 83.8709151,191.86593 90.3822742,193.494136 C98.2762568,195.467767 116.538988,198.264388 128.878895,180.989786 L128.386646,182.960867 C131.67513,185.59459 133.98437,200.093513 133.597295,213.236627 C133.210142,226.380514 132.952039,235.404041 135.542952,242.452392 C138.134096,249.49997 140.716585,265.358565 162.772335,260.632361 C181.20206,256.683553 190.7523,246.448338 192.080985,229.376508 C193.02383,217.239528 195.157423,219.033878 195.292192,208.182772 L197.003548,203.044686 C198.977024,186.592533 197.317289,181.284749 208.671385,183.75341 L211.430682,183.996057 C219.787702,184.376255 230.725358,182.651917 237.144681,179.668211 C250.967747,173.253138 259.165889,162.542442 245.536321,165.356759 C214.438035,171.771214 212.300115,161.241577 212.300115,161.241577 Z" id="path2464" fill="#9E9E9E" fill-rule="nonzero"></path>
                <path d="M130.214303,174.787068 C129.358007,205.400834 130.42913,236.227804 133.424969,243.719719 C136.422276,251.212407 142.836731,265.784356 164.894413,261.058924 C183.322206,257.108572 190.027296,249.462877 192.936818,232.587329 C195.079683,220.171382 199.210939,185.690103 199.740744,178.625216" id="path2466" stroke="#FFFFFF" stroke-width="7.70667334" fill="#9E9E9E" fill-rule="nonzero" stroke-linecap="round" stroke-linejoin="round"></path>
                <path d="M103.776304,21.3175614 C103.776304,21.3175614 3.91429068,-19.4974188 8.55680526,73.318794 C9.54416163,93.0648396 36.8601712,222.729993 69.4387586,183.56447 C81.3439875,169.241891 92.1109399,158.008732 92.1109399,158.008732" id="path2468" stroke="#FFFFFF" stroke-width="7.70667334" fill="#9E9E9E" fill-rule="nonzero" stroke-linecap="round" stroke-linejoin="round"></path>
                <path d="M157.716393,13.8681481 C154.25968,14.9520223 213.265834,-7.70230828 246.799631,35.14681 C258.644893,50.2843425 244.918267,112.131938 212.082428,160.857051" id="path2470" stroke="#FFFFFF" stroke-width="7.70667334" fill="#9E9E9E" fill-rule="nonzero" stroke-linecap="round" stroke-linejoin="round"></path>
                <path d="M212.08181,160.857051 C212.08181,160.857051 214.221662,171.389702 245.321958,164.970302 C258.948434,162.155985 250.74782,172.867994 236.927844,179.286158 C225.585881,184.549972 200.157494,185.899058 199.74198,178.625447 C198.67302,159.858181 213.1255,165.559764 212.082428,160.857283 C211.139583,156.622168 204.676289,152.465642 200.401068,142.100526 C196.668634,133.053507 149.21162,63.6748175 213.561956,73.9787317 C215.919417,73.4911196 196.778675,12.769746 136.555809,11.7823896 C76.3465439,10.7950332 78.3218749,85.8264672 78.3218749,85.8264672" id="path2472" stroke="#FFFFFF" stroke-width="7.70667334" fill="#9E9E9E" fill-rule="nonzero" stroke-linecap="round" stroke-linejoin="bevel"></path>
                <path d="M113.35931,167.275215 C104.965196,176.651739 107.433935,178.298183 90.6549814,181.752965 C73.6781239,185.252334 83.6525329,191.48009 90.1619601,193.106983 C98.0558654,195.082932 116.318674,197.878781 128.658504,180.600547 C132.416284,175.339746 128.635321,166.945633 123.474438,164.805858 C120.980353,163.772755 117.645427,162.478149 113.359078,167.275215 L113.35931,167.275215 Z" id="path2474" stroke="#FFFFFF" stroke-width="7.70667334" fill="#9E9E9E" fill-rule="nonzero" stroke-linecap="round" stroke-linejoin="round"></path>
                <path d="M112.809722,167.11139 C111.963936,161.59836 114.621228,155.038008 117.468928,147.362872 C121.748477,135.847191 131.622736,124.329579 123.723808,87.8003299 C117.836144,60.5789835 78.345985,82.1352211 78.3212567,85.8262354 C78.2980739,89.5160132 80.1074158,104.534772 77.661319,122.024125 C74.4698945,144.84599 92.1830385,164.147389 112.580058,162.172676" id="path2476" stroke="#FFFFFF" stroke-width="7.70667334" fill="#9E9E9E" fill-rule="nonzero" stroke-linecap="round" stroke-linejoin="round"></path>
                <path d="M103.413338,85.2728614 C103.235603,86.5335432 105.721343,89.8974479 108.962842,90.3469628 C112.198855,90.7982551 114.968661,88.1694004 115.144232,86.9100323 C115.319649,85.6494277 112.836923,84.2607767 109.59411,83.8094844 C106.35632,83.3574194 103.585277,84.0150388 103.413956,85.2728614 L103.413338,85.2728614 Z" id="path2478" stroke="#FFFFFF" stroke-width="2.56887053" fill="#FFFFFF" fill-rule="nonzero"></path>
                <path d="M201.978891,82.7028138 C202.154307,83.9634184 199.671505,87.3274003 196.429387,87.776838 C193.190901,88.2281302 190.421095,85.5993528 190.243669,84.3399074 C190.072116,83.0793028 192.555924,81.6907291 195.795028,81.2393596 C199.034054,80.7880673 201.803242,81.4449139 201.978891,82.703432 L201.978891,82.7028138 Z" id="path2480" stroke="#FFFFFF" stroke-width="1.28443527" fill="#FFFFFF" fill-rule="nonzero"></path>
                <path d="M213.561956,73.9784998 C214.095933,83.8669778 211.432073,90.602283 211.096308,101.128752 C210.599423,116.429492 218.391169,133.942336 206.650461,151.476818" id="path2482" stroke="#FFFFFF" stroke-width="7.70667334" fill="#316192" fill-rule="nonzero" stroke-linecap="round" stroke-linejoin="round"></path>
            </g>
            <g id="if_Ruby_on_Rails_2_282804" transform="translate(292.000000, 0.000000)" fill="#464646" fill-rule="nonzero">
                <g id="layer7" transform="translate(22.860193, 212.292772)">
                    <path d="M0.135588235,0.955882353 L0.135588235,45.2247059 L11.4264706,45.2247059 L11.4264706,33.6948529 L21.7022059,43.9705882 L39.0266176,43.9705882 L25.2848529,30.2288235 C25.2848529,30.2288235 35.1705882,30.0682353 35.9180882,15.7720588 C35.9180882,2.65544118 26.0208824,0.955882353 14.5904412,0.955882353 L0.135588235,0.955882353 Z M11.9636765,12.9636765 L21.7022059,12.9636765 L21.7022059,20.8497059 L11.9636765,20.8497059 L11.9636765,12.9636765 Z" id="path3993"></path>
                    <path d="M60.8341176,1.13558824 C54.6514706,1.09926471 46.0772059,1.67279412 46.0772059,13.3230882 L46.0772059,44.0910294 L57.6663235,44.0910294 L57.6663235,36.5625 L68.8979412,36.5625 L68.8979412,43.9113235 L80.5482353,43.9113235 L80.5482353,11.6502941 C80.5482353,1.53132353 69.3051471,1.13558824 63.2830882,1.13558824 C62.5298529,1.13558824 61.7173529,1.14132353 60.8341176,1.13558824 Z M57.8460294,12.2467647 L68.7201471,12.2467647 L68.7201471,24.375 L57.8460294,24.375 L57.8460294,12.2467647 Z" id="path3997"></path>
                    <rect id="rect4001" x="92.1602941" y="1.16426471" width="11.9905882" height="42.3494118"></rect>
                    <polygon id="path4003" points="116.709265 1.72632353 116.709265 44.0757353 145.565441 44.0757353 145.565441 32.8326471 128.514412 32.8326471 128.514412 1.53897059"></polygon>
                    <path d="M183.793088,1.35161765 L183.793088,12.7820588 L164.491912,12.7820588 L164.491912,16.9038235 C164.491912,16.9038235 168.428235,16.9038235 172.735441,16.9038235 C177.042647,16.9038235 186.039412,16.7164706 186.039412,30.2097059 C186.039412,43.7010294 179.856765,44.4504412 167.302206,44.4504412 C154.745735,44.4504412 152.124706,44.4504412 152.124706,44.4504412 L152.124706,34.1422059 C152.124706,34.1422059 164.304559,34.1422059 169.550441,34.1422059 C174.796324,34.1422059 175.086912,32.4330882 175.086912,30.9457353 C175.086912,29.4583824 172.404706,28.7644118 166.948529,28.7644118 C161.492353,28.7644118 151.375294,26.0841176 151.375294,15.5904412 C151.375294,5.09676471 156.621176,1.16044118 167.114853,1.16044118 C177.608529,1.16044118 183.793088,1.35161765 183.793088,1.35161765 Z" id="path4005"></path>
                </g>
                <g id="layer6" transform="translate(0.389604, 0.086890)">
                    <path d="M22.1170588,200.628235 L121.807941,200.628235 C121.807941,200.628235 99.6964706,150.408088 105.317059,104.311618 C110.939559,58.2151471 147.291765,37.2258824 167.904412,34.9776471 C188.515147,32.7275 199.760147,45.4713235 199.760147,45.4713235 L204.258529,38.7247059 C204.258529,38.7247059 174.651029,8.7425 137.172794,12.1167647 C99.6945588,15.4891176 73.8360294,40.2235294 57.7217647,70.2057353 C41.6055882,100.189853 32.2360294,121.175294 25.8660294,152.656324 C19.4960294,184.137353 22.1170588,200.628235 22.1170588,200.628235 Z" id="path3966"></path>
                    <polygon id="path3968" points="2.25573529 150.408088 21.7442647 151.906912 18.37 171.393529 0.0075 169.145294"></polygon>
                    <polygon id="path3970" points="32.9873529 109.182794 38.2351471 94.5673529 20.9948529 87.8207353 15.3742647 103.560294"></polygon>
                    <polygon id="path3972" points="57.3470588 58.9626471 67.4660294 46.9720588 54.3494118 38.3519118 43.8557353 49.9677941"></polygon>
                    <polygon id="path3974" points="83.955 12.4914706 92.9498529 23.3598529 105.317059 16.2385294 96.3222059 6.11955882"></polygon>
                    <polygon id="path3976" points="127.805147 0.124264706 130.053382 10.9945588 145.420147 10.6198529 143.919412 0.875588235"></polygon>
                    <polygon id="path3978" points="179.898824 11.7420588 179.524118 18.4867647 190.017794 24.1073529 192.266029 20.735"></polygon>
                    <polygon id="path3980" points="177.648676 40.6001471 177.648676 46.2207353 187.767647 47.3448529 187.767647 42.8464706"></polygon>
                    <polygon id="path3982" points="145.420147 45.4713235 150.291324 54.4642647 157.412647 48.8436765 155.913824 42.8464706"></polygon>
                    <polygon id="path3984" points="130.051471 57.0910294 137.5475 68.3341176 133.049118 76.2029412 122.180735 64.2123529"></polygon>
                    <polygon id="path3986" points="115.063235 88.1954412 110.190147 97.9397059 122.932059 108.81 125.929706 96.4408824"></polygon>
                    <polygon id="path3988" points="109.815441 122.299412 109.066029 135.416029 124.805588 142.162647 124.056176 129.793529"></polygon>
                    <polygon id="path3990" points="114.311912 168.7725 118.060882 182.265735 137.922206 183.389853 130.800882 168.7725"></polygon>
                </g>
            </g>
            <g id="if_php_282805" transform="translate(205.000000, 471.000000)">
                <ellipse id="Oval" fill="#9F9F9F" cx="190.5" cy="78" rx="190.5" ry="78"></ellipse>
                <g id="Group-2" transform="translate(76.000000, 16.000000)" fill="#464646" fill-rule="nonzero" stroke="#FFFFFF" stroke-width="3">
                    <path d="M49.0299606,39.1714892 C56.675217,39.1714892 61.7704438,40.5825345 64.3180572,43.4051085 C66.8632544,46.2276824 67.469714,51.0725937 66.1379191,57.9379093 C64.7466864,65.0873669 62.0676331,70.1903254 58.0964103,73.2477515 C54.1251874,76.3056607 48.081854,77.8326824 39.9688264,77.8326824 L27.7284911,77.8326824 L35.2423077,39.1714892 L49.0299606,39.1714892 Z M0,116.970345 L20.1233432,116.970345 L24.8962525,92.4109073 L42.1327515,92.4109073 C49.7383826,92.4109073 55.9948225,91.61357 60.9064201,90.0140631 C65.818501,88.4169724 70.28214,85.7384024 74.3002367,81.9778698 C77.6722485,78.8779191 80.4005917,75.4590335 82.4900986,71.7202465 C84.5771893,67.984359 86.0602367,63.8594675 86.9368245,59.3489546 C89.0659566,48.398856 87.4592012,39.8697633 82.1213905,33.7592604 C76.7835799,27.6487574 68.2916963,24.5937475 56.650572,24.5937475 L17.9541026,24.5937475 L0,116.970345 Z" id="Shape"></path>
                    <path d="M101.716075,0.0343096647 L121.680434,0.0343096647 L116.907041,24.5937475 L134.692978,24.5937475 C145.883245,24.5937475 153.602919,26.5469822 157.851519,30.4491026 C162.099635,34.3536391 163.372475,40.6791815 161.673905,49.4237968 L153.32071,92.4109073 L133.039349,92.4109073 L140.981795,51.5379487 C141.885444,46.8882643 141.553945,43.7167949 139.984398,42.0259566 C138.414852,40.3346351 135.075217,39.4884911 129.967426,39.4884911 L114.011016,39.4884911 L103.726331,92.4104241 L83.7614892,92.4109073 L101.716075,0.0343096647 Z" id="Shape"></path>
                    <path d="M206.094773,39.1714892 C213.74003,39.1714892 218.835256,40.5825345 221.38287,43.4051085 C223.929034,46.2276824 224.53501,51.0725937 223.202732,57.9379093 C221.811499,65.0873669 219.133412,70.1903254 215.161223,73.2477515 C211.19,76.3056607 205.146667,77.8326824 197.033639,77.8326824 L184.793787,77.8326824 L192.307604,39.1714892 L206.094773,39.1714892 Z M157.065296,116.970345 L177.188639,116.970345 L181.961065,92.4109073 L199.197564,92.4109073 C206.803195,92.4109073 213.059635,91.61357 217.971716,90.0140631 C222.883314,88.4169724 227.346953,85.7384024 231.365533,81.9778698 C234.738028,78.8779191 237.465888,75.4590335 239.555394,71.7202465 C241.642002,67.984359 243.125533,63.8594675 244.001637,59.3489546 C246.130769,48.398856 244.524497,39.8697633 239.186203,33.7592604 C233.848393,27.6487574 225.356509,24.5937475 213.715385,24.5937475 L175.019882,24.5937475 L157.065296,116.970345 Z" id="Shape"></path>
                </g>
            </g>
        </g>
    </g>
</svg>