<?xml version="1.0" encoding="UTF-8"?>
<svg width="850px" height="640px" viewBox="0 0 850 640" version="1.1" xmlns="http://www.w3.org/2000/svg" xmlns:xlink="http://www.w3.org/1999/xlink">
    <!-- Generator: Sketch 49.3 (51167) - http://www.bohemiancoding.com/sketch -->
    <title>Rectangle</title>
    <desc>Created with Sketch.</desc>
    <defs></defs>
    <g id="Page-1" stroke="none" stroke-width="1" fill="none" fill-rule="evenodd">
        <g id="Web-dev-(1)" transform="translate(52.000000, 111.000000)" fill-rule="nonzero">
            <g id="layerbg8" transform="translate(43.000000, 94.000000)" fill="#F6F6F7">
                <path d="M41.7578533,266.051325 C26.5104903,261.847699 13.6383447,257.949791 13.2552452,257.567643 C12.3358062,256.574059 8.42819056,213.467782 9.27100962,212.627057 C9.57748928,212.321339 16.3966616,212.16848 24.3651327,212.244909 L38.8462965,212.474198 L39.7657355,222.027894 C40.225455,227.301534 40.6851745,232.269456 40.6851745,233.110181 C40.7617944,234.409484 42.6772922,235.17378 55.9325374,238.68954 C64.2074881,240.905997 71.4097601,242.663877 71.7928596,242.663877 C72.4824389,242.663877 102.134346,234.944491 102.594065,234.638773 C102.747305,234.562343 105.888721,201.315481 105.888721,199.78689 C105.888721,199.404742 84.818245,199.022594 56.6987365,198.946165 L7.43213168,198.716876 L3.52451605,155.53417 C1.30253854,131.764575 -0.229859743,112.122176 0.0766199142,111.740028 C0.383099571,111.43431 32.8699432,111.28145 72.2525791,111.35788 L143.815579,111.587169 L143.585719,117.701534 C143.432479,121.064435 142.89614,127.790237 142.436421,132.6053 L141.516982,141.3947 L86.8869827,141.623989 L32.180364,141.776848 L32.6400835,143.916876 C32.8699432,145.063319 33.4829025,151.254114 33.942622,157.674198 L34.862061,169.291492 L86.5038832,169.291492 C131.096673,169.291492 138.145705,169.444351 138.528805,170.437936 C138.758665,171.049372 137.226266,190.691771 135.157529,214.079219 C132.399212,244.956764 131.096673,256.803347 130.330474,257.567643 C129.027936,258.714086 73.8615973,274 71.2565202,273.92357 C70.2604613,273.847141 57.0052162,270.331381 41.7578533,266.051325 Z" id="Shape"></path>
                <path d="M559.478614,264.293445 C543.694911,259.93696 530.516286,256.039052 530.209806,255.733333 C529.443607,255.045467 525.535992,212.16848 526.072331,210.792748 C526.60867,209.417015 554.498319,209.340586 555.341138,210.716318 C555.647618,211.174895 556.337197,216.219247 556.873537,221.798605 C557.409876,227.454393 557.946215,232.269456 558.176075,232.422315 C558.329315,232.651604 565.301727,234.638773 573.576678,236.85523 L588.670801,240.982427 L604.071404,236.85523 C612.576214,234.562343 619.625246,232.575174 619.701866,232.498745 C619.778486,232.422315 620.391445,225.849372 621.081025,217.824268 C621.770604,209.875593 622.536803,202.079777 622.766663,200.551185 L623.149762,197.799721 L590.126579,197.188285 C566.604266,196.806137 556.950156,196.347559 556.796917,195.736123 C556.030718,193.596095 554.11522,168.221478 554.728179,167.610042 C555.034659,167.304324 571.201461,166.922176 590.509679,166.845746 L625.754839,166.616457 L626.674278,156.298466 C627.133998,150.642678 627.746957,144.528312 627.900197,142.770432 L628.283297,139.483961 L573.729918,139.331102 L519.253159,139.101813 L517.95062,125.344491 C517.184421,117.777964 516.801321,111.128591 516.954561,110.670014 C517.184421,109.905718 532.278544,109.67643 588.900661,109.67643 C628.283297,109.67643 660.69352,109.905718 660.92338,110.287866 C661.3831,111.128591 648.434334,255.121897 647.744755,255.733333 C647.285035,256.191911 588.900661,272.547838 588.440941,272.394979 C588.287701,272.394979 575.262316,268.72636 559.478614,264.293445 Z" id="Shape"></path>
                <path d="M300.120204,171.660809 C279.432827,165.928591 270.928017,163.177127 270.851397,162.412831 C270.085198,158.132775 266.867161,118.542259 267.250261,118.007252 C267.93984,116.860809 295.599629,117.166527 296.442448,118.312971 C296.902168,118.771548 297.591747,123.8159 298.051466,129.471688 C298.587806,135.127476 299.124145,139.866109 299.277385,140.018968 C299.430625,140.171827 306.403037,142.158996 314.754608,144.451883 L330.001971,148.50265 L345.249333,144.451883 C353.600904,142.158996 360.573316,140.171827 360.803176,139.942538 C361.186276,139.63682 364.097832,109.6 364.097832,106.08424 L364.097832,104.32636 L315.903906,104.32636 C289.316796,104.32636 267.480121,104.097071 267.326881,103.714923 C267.020401,103.256346 272.613655,37.6797768 275.448592,9.55369596 L276.368031,0 L333.832966,0 L391.297902,0 L391.834241,3.43933054 C392.98354,10.0887029 397.121015,60.7615063 396.661296,61.525802 C396.354816,61.9843794 390.838182,62.2900976 382.026892,62.2900976 C368.082068,62.2900976 367.852208,62.2900976 367.239249,60.6086471 C366.932769,59.6150628 366.16657,53.2714086 365.630231,46.4691771 C365.093891,39.6669456 364.404312,33.7818689 364.174452,33.3232915 C363.408253,32.1004184 336.361423,30.7246862 319.888142,31.106834 C311.306711,31.3361227 304.181059,31.641841 304.02782,31.7947001 C303.79796,31.9475593 302.955141,40.0490934 302.112322,49.679219 C301.192883,59.3857741 300.273444,68.8630404 300.043584,70.9266388 L299.583865,74.5188285 L347.93103,74.5188285 C387.313666,74.5188285 396.431436,74.6716876 396.737916,75.5124128 C397.197635,76.888145 389.459024,162.64212 388.769445,163.329986 C388.309725,163.788563 329.848731,180.144491 329.389011,179.915202 C329.312391,179.838773 316.133766,176.170153 300.120204,171.660809 Z" id="Shape"></path>
            </g>
            <g id="layerbg1" transform="translate(21.000000, 0.000000)" fill="#464646">
                <path d="M0.306369499,139.155702 C0.0765923747,138.618421 -6.24500451e-17,128.333333 0.0765923747,116.282895 L0.306369499,94.4078947 L8.34856884,94.4078947 L16.3907682,94.4078947 L16.6205453,101.546053 L16.8503224,108.607456 L22.1351963,108.607456 L27.4200701,108.607456 L27.6498473,101.546053 L27.8796244,94.4078947 L35.9218237,94.4078947 L43.9640231,94.4078947 L43.9640231,117.050439 L43.9640231,139.692982 L35.9218237,139.692982 L27.8796244,139.692982 L27.6498473,132.631579 L27.4200701,125.493421 L22.1351963,125.493421 L16.8503224,125.493421 L16.6205453,132.631579 L16.3907682,139.692982 L8.50175359,139.923246 C2.60414074,140.076754 0.536146623,139.846491 0.306369499,139.155702 Z" id="Shape"></path>
                <path d="M61.733454,139.616228 C61.4270845,139.309211 61.1973074,132.708333 61.1973074,125.032895 L61.1973074,110.986842 L55.2996945,110.756579 L49.3254893,110.526316 L49.3254893,102.467105 L49.3254893,94.4078947 L70.0054305,94.4078947 L90.6853716,94.4078947 L90.6853716,102.467105 L90.6853716,110.526316 L84.4047969,110.756579 L78.0476298,110.986842 L77.8944451,125.339912 L77.6646679,139.692982 L69.9288381,139.923246 C65.7162575,140 62.0398235,139.923246 61.733454,139.616228 Z" id="Shape"></path>
                <path d="M95.2809141,139.155702 C95.051137,138.618421 94.9745446,128.333333 95.051137,116.282895 L95.2809141,94.4078947 L103.629483,94.4078947 L112.054644,94.4078947 L116.267225,101.469298 L120.479805,108.530702 L124.768978,101.469298 L129.134744,94.4078947 L137.483313,94.4078947 L145.831881,94.4078947 L145.831881,117.050439 L145.831881,139.692982 L137.789682,139.692982 L129.747483,139.692982 L129.517706,130.482456 L129.287928,121.348684 L125.305125,127.412281 C123.083946,130.712719 120.93936,133.629386 120.479805,133.70614 C119.943659,133.859649 117.875665,131.326754 115.884263,128.10307 L112.131237,122.192982 L111.748275,130.942982 L111.365313,139.692982 L103.476298,139.923246 C97.5786854,140.076754 95.5106913,139.846491 95.2809141,139.155702 Z" id="Shape"></path>
                <path d="M151.193348,139.155702 C150.963571,138.618421 150.886978,128.333333 150.963571,116.282895 L151.193348,94.4078947 L159.235547,94.4078947 L167.277746,94.4078947 L167.507523,108.760965 L167.660708,123.114035 L177.847494,123.344298 L187.957688,123.574561 L187.957688,131.633772 L187.957688,139.692982 L169.728702,139.923246 C155.482521,140.076754 151.423125,139.923246 151.193348,139.155702 Z" id="Shape"></path>
                <path d="M544.11223,139.155702 C543.882453,138.618421 543.80586,128.333333 543.882453,116.282895 L544.11223,94.4078947 L562.4944,94.4078947 L580.87657,94.4078947 L580.87657,101.699561 L580.87657,108.991228 L570.766376,109.221491 L560.57959,109.451754 L560.57959,117.434211 L560.57959,125.416667 L570.766376,125.64693 L580.87657,125.877193 L580.87657,132.785088 L580.87657,139.692982 L562.647585,139.923246 C548.401403,140.076754 544.342007,139.923246 544.11223,139.155702 Z" id="Shape"></path>
                <path d="M586.927367,139.078947 C586.69759,138.464912 586.620998,135.317982 586.774183,131.940789 L587.00396,125.877193 L595.582306,125.493421 L604.084059,125.109649 L595.352529,115.592105 L586.544405,105.997807 L586.774183,100.241228 L587.00396,94.4078947 L607.683901,94.4078947 L628.363842,94.4078947 L628.363842,101.315789 L628.363842,108.223684 L619.708904,108.453947 L610.977373,108.684211 L620.321643,118.585526 L629.58932,128.486842 L629.359543,134.089912 L629.129766,139.692982 L608.220048,139.923246 C591.21654,140.076754 587.310329,139.923246 586.927367,139.078947 Z" id="Shape"></path>
                <path d="M634.41464,139.078947 C634.184863,138.464912 634.10827,135.317982 634.261455,131.940789 L634.491232,125.877193 L643.14617,125.493421 L651.801109,125.109649 L642.992986,115.515351 L634.10827,105.921053 L634.338047,100.164474 L634.491232,94.4078947 L655.171173,94.4078947 L675.851114,94.4078947 L675.851114,101.315789 L675.851114,108.223684 L667.579138,108.607456 L659.307161,108.991228 L668.191877,118.585526 L677,128.179825 L676.770223,133.936404 L676.617038,139.692982 L655.70732,139.923246 C638.703813,140.076754 634.797602,139.923246 634.41464,139.078947 Z" id="Shape"></path>
                <path d="M310.428895,44.6710526 C310.27571,44.1337719 310.199118,40.372807 310.27571,36.3815789 L310.505487,29.1666667 L320.232719,28.9364035 L330.036543,28.7061404 L330.189727,14.3530702 L330.419504,0 L338.461704,0 L346.503903,0 L346.503903,22.6425439 L346.503903,45.2850877 L328.65788,45.5153509 C314.335106,45.6688596 310.811857,45.5153509 310.428895,44.6710526 Z" id="Shape"></path>
                <path d="M352.554701,44.6710526 C352.324924,44.0570175 352.248331,40.9100877 352.401516,37.5328947 L352.631293,31.4692982 L361.133047,31.0855263 L369.711393,30.7017544 L360.979862,21.1842105 L352.171739,11.7434211 L352.401516,5.83333333 L352.631293,0 L372.928272,0 L393.225252,0 L393.225252,6.90789474 L393.225252,13.8157895 L384.953275,14.0460526 L376.681299,14.2763158 L385.566014,23.7171053 L394.45073,33.2346491 L394.220953,39.2982456 L393.991175,45.2850877 L373.464419,45.5153509 C356.767281,45.6688596 352.937663,45.5153509 352.554701,44.6710526 Z" id="Shape"></path>
            </g>
            <g id="layerbg2" transform="translate(0.000000, 63.000000)" fill="#464646">
                <path d="M66.9683648,342.124352 C37.1620789,333.770509 20.8414133,328.942142 20.4582991,328.175734 C19.6154478,326.489637 -0.536359901,97.2571244 0.0766228431,95.7243092 C0.536359901,94.498057 8.58175842,94.4214162 114.704396,94.4214162 C179.144207,94.4214162 229.025678,94.7279793 229.255546,95.1111831 C229.638661,95.6476684 209.333607,326.642919 208.797247,328.482297 C208.567379,329.172064 116.16023,355 114.091413,354.923359 C113.401808,354.923359 92.1772802,349.175302 66.9683648,342.124352 Z M153.169063,322.887522 C173.857231,317.139465 188.875308,312.61766 189.258422,312.004534 C189.718159,311.008204 206.805053,121.01576 206.728431,116.877159 L206.728687,115.114421 L160.754725,115.114421 L114.781019,115.114421 L114.627773,129.13968 L114.397905,143.088299 L78.9981512,143.318221 L43.5983977,143.471503 L43.9048891,145.617444 C44.2880033,147.686744 45.6672145,163.244819 46.2035744,171.062176 C46.35682,173.361399 47.1996713,182.788212 48.0425226,191.985104 C48.9619967,201.181995 49.804848,210.838731 49.9580937,213.444516 C50.1879622,216.050302 50.5710764,220.495466 50.8775678,223.407815 L51.4139277,228.542746 L82.1396878,228.542746 C105.049918,228.542746 113.171939,228.772668 113.861545,229.462435 C115.08751,230.688687 115.164133,274.220639 114.01479,274.910406 C113.555053,275.216969 110.720008,274.680484 107.655094,273.760794 C98.9200904,271.231649 94.8590797,270.082038 89.1123665,268.702504 C86.2006984,268.012737 83.3656532,267.016408 82.8292933,266.556563 C82.2929334,266.096718 81.526705,261.268351 80.9903451,255.213731 L80.070871,244.637306 L66.3553821,244.637306 L52.6398932,244.637306 L53.0996302,247.932858 C53.3294988,249.695596 53.6359901,253.604275 53.8658587,256.516623 C54.0191044,259.505613 54.7087099,267.24633 55.3983155,273.760794 C56.0112983,280.275259 56.5476582,286.176598 56.5476582,286.789724 C56.5476582,287.786054 63.7502054,290.698402 66.1255136,290.621762 C66.5852506,290.621762 69.80341,291.46481 73.4046836,292.537781 C82.3695563,295.220207 87.9630238,296.829663 90.6448233,297.51943 C93.7097371,298.362478 101.678513,300.58506 104.053821,301.351468 C105.126541,301.734672 107.195357,302.194516 108.651191,302.424439 C110.183648,302.654361 112.175842,303.420769 113.095316,304.110535 C114.704396,305.260147 114.781019,305.643351 114.781019,319.438687 C114.781019,333.080743 114.857642,333.617228 116.236853,333.157383 C117.079704,332.927461 133.706861,328.252375 153.169063,322.887522 Z" id="Shape"></path>
                <path d="M76.6228431,200.798791 C76.163106,200.262306 75.8566146,198.959413 75.8566146,197.886442 C75.8566146,195.740501 75.3968776,190.299007 74.2475349,179.49266 C73.7877979,175.50734 73.711175,171.981865 74.0942892,171.598661 C74.4007806,171.292098 83.5955218,171.138817 94.5525883,171.215458 L114.397905,171.44538 L114.627773,185.54728 C114.781019,195.280656 114.55115,199.955743 113.938168,200.645509 C112.712202,202.101684 77.8488085,202.254965 76.6228431,200.798791 Z" id="Shape"></path>
                <path d="M583.406327,342.047712 C558.120789,334.996762 537.355998,328.865501 537.202753,328.482297 C536.666393,326.71956 516.361339,95.7243092 516.744454,95.1111831 C516.974322,94.7279793 566.472679,94.4214162 631.295604,94.4214162 C737.341619,94.4214162 745.46364,94.498057 745.923377,95.7243092 C746.53636,97.1804836 726.461175,325.493307 725.541701,327.79253 C725.005341,329.095423 717.41968,331.394646 678.571898,342.200993 C653.056491,349.251943 631.525472,355 630.759244,354.923359 C629.993016,354.923359 608.615242,349.098661 583.406327,342.047712 Z M675.506984,321.354706 C692.057518,316.832902 705.773007,312.847582 706.002876,312.694301 C706.232744,312.464378 723.855998,118.409974 723.932621,115.344344 C723.932621,115.191062 703.244454,115.114421 677.958915,115.114421 L631.98521,115.114421 L631.831964,128.373273 L631.602095,141.555484 L596.125719,141.785406 L560.57272,141.938687 L561.032457,144.851036 C561.262325,146.383851 561.875308,152.438472 562.335045,158.186528 L563.254519,168.762953 L597.428307,168.916235 L631.602095,169.146157 L631.602095,184.091105 L631.602095,199.036054 L614.898316,199.265976 L598.194536,199.419257 L598.654273,203.864421 C599.726993,214.82405 600.569844,224.174223 600.569844,225.170553 C600.569844,226.013601 603.558135,226.243523 616.124281,226.396805 L631.602095,226.626727 L631.831964,249.542314 C631.908587,262.18804 631.755341,272.764465 631.44885,273.071028 C631.065735,273.30095 623.786565,271.614853 615.128184,269.23899 L599.497124,264.947107 L598.960764,262.417962 C598.654273,261.038428 598.194536,256.516623 597.964667,252.454663 C597.121816,241.265112 598.730896,242.338083 583.253081,242.338083 C573.062243,242.338083 569.920707,242.568005 569.920707,243.334413 C569.997329,246.476684 573.751849,285.486831 574.05834,285.793394 C574.211586,285.946675 586.930978,289.625432 602.255546,293.840674 C617.503492,298.132556 630.529376,301.887953 631.065735,302.347798 C631.755341,302.884283 631.98521,307.022884 631.98521,318.289076 L631.98521,333.463946 L638.72802,331.547927 C642.405916,330.551598 658.95645,325.953152 675.506984,321.354706 Z" id="Shape"></path>
                <path d="M326.260066,247.932858 C301.204396,240.958549 280.209737,234.827288 279.596754,234.290803 C278.830526,233.524396 275.918858,203.941062 268.256574,117.796848 C262.586483,54.261658 258.142358,1.76273748 258.372227,1.22625216 C258.98521,-0.3832038 487.01479,-0.3832038 487.627773,1.22625216 C487.857642,1.83937824 483.413517,54.261658 477.743426,117.796848 C470.081142,203.174655 467.169474,233.524396 466.403246,234.290803 C465.483772,235.133851 374.225965,260.808506 372.540263,260.655225 C372.157149,260.655225 351.315735,254.907168 326.260066,247.932858 Z M416.291906,226.626727 C432.765818,222.104922 446.481306,218.119603 446.787798,217.81304 C447.170912,217.429836 464.794166,27.130829 464.947412,21.076209 C464.947412,20.9229275 444.41249,20.8462867 419.35682,20.8462867 L373.766228,20.8462867 L373.766228,25.2914508 C373.766228,27.7439551 373.383114,30.1198187 372.846754,30.656304 C372.157149,31.3460708 365.18447,31.5759931 346.182005,31.5759931 L320.360107,31.5759931 L319.517256,40.6196028 C319.057518,45.5246114 317.065325,67.2139465 315.149753,88.6733592 C313.310805,110.209413 311.54848,129.06304 311.318611,130.672496 L310.935497,133.508204 L341.431389,133.508204 C364.11175,133.508204 372.157149,133.738126 372.846754,134.427893 C374.07272,135.654145 374.149343,178.802893 373,179.952504 C372.387017,180.56563 367.406532,179.49266 356.679334,176.580311 C348.174199,174.357729 340.971652,172.211788 340.66516,171.905225 C340.358669,171.675302 339.669063,166.540371 339.132703,160.485751 L338.213229,149.602763 L324.49774,149.602763 L310.782251,149.602763 L311.241988,153.28152 C311.471857,155.27418 312.391331,165.007556 313.310805,174.894214 C314.153657,184.780872 314.996508,192.981434 315.149753,193.134715 C315.226376,193.287997 327.7159,196.813472 342.8106,200.952073 C357.981923,205.167314 371.084429,208.922712 372.080526,209.382556 C373.766228,210.072323 373.766228,210.302245 373.766228,224.250864 L373.766228,238.352763 L380.125924,236.590026 C383.573952,235.670337 399.894618,231.148532 416.291906,226.626727 Z" id="Shape"></path>
                <path d="M341.278143,105.994171 C340.66516,104.997841 344.649548,62.0023748 345.415776,61.1593264 C345.798891,60.8527634 352.23521,60.4695596 359.744248,60.3929188 L373.383114,60.3162781 L373.383114,83.308506 L373.383114,106.300734 L357.522186,106.530656 C348.327445,106.607297 341.508012,106.377375 341.278143,105.994171 Z" id="Shape"></path>
            </g>
            <g id="layerbg3" transform="translate(113.000000, 82.000000)" fill="#9E9E9E">
                <path d="M0.613149656,314.38835 C0.383218535,314.006068 0.153287414,307.048544 0.153287414,298.867718 C0,285.029126 0.153287414,284.035194 1.45623043,283.805825 C3.52561052,283.423544 58.7090795,268.208738 59.0922981,267.902913 C59.3222292,267.673544 66.7566688,187.012136 66.8333125,183.724515 L66.8333125,181.966019 L33.4166562,181.813107 L0,181.583738 L0.153287414,167.133495 C0.153287414,159.182039 0.383218535,152.377427 0.613149656,151.995146 C0.843080776,151.68932 16.478397,151.383495 35.4860363,151.383495 L69.8990607,151.383495 L69.8990607,149.701456 C69.8990607,148.707524 70.4355667,142.973301 71.0487163,136.856796 C71.661866,130.740291 72.1983719,125.311893 72.1983719,124.853155 C72.1983719,124.088592 64.3040701,123.859223 36.4057608,123.706311 L0.536505949,123.476942 L0.536505949,108.950243 L0.536505949,94.4235437 L47.2891672,94.1941748 C73.0414527,94.1177184 94.425047,94.1941748 94.8082655,94.3470874 C95.8046337,94.7293689 78.2532248,292.445388 77.1035692,293.592233 C76.5670632,294.127427 2.83581716,315 1.30294302,315 C1.1496556,315 0.843080776,314.694175 0.613149656,314.38835 Z" id="Shape"></path>
                <path d="M518.034815,314.464806 C517.72824,314.235437 517.498309,306.972087 517.498309,298.408981 C517.498309,283.041262 517.498309,282.811893 519.261115,282.123786 C520.180839,281.665049 533.286913,277.918689 548.462367,273.713592 C563.561177,269.584951 576.054101,265.991505 576.207389,265.838592 C576.43732,265.68568 579.273137,234.79733 582.64546,197.180825 C585.94114,159.56432 588.853601,127.376214 589.083532,125.617718 L589.543394,122.330097 L553.674139,122.177184 L517.881528,121.947816 L517.881528,108.18568 L517.881528,94.4235437 L564.557545,94.1941748 C590.309831,94.1177184 611.616781,94.3470874 611.923356,94.6529126 C612.689793,95.4174757 595.138384,292.904126 594.295304,293.745146 C593.988729,294.050971 577.357044,298.791262 557.353037,304.296117 C537.349029,309.800971 520.41077,314.464806 519.720977,314.694175 C519.107827,314.847087 518.34139,314.770631 518.034815,314.464806 Z" id="Shape"></path>
                <path d="M0.613149656,254.675971 C0.383218535,254.370146 0.153287414,243.972087 0.153287414,231.586165 L0.076643707,209.10801 L18.1645585,208.878641 C32.8035066,208.725728 36.2524734,208.878641 36.6356919,209.71966 C37.3254853,211.631068 33.8765185,245.730583 32.8801503,246.648058 C32.1137132,247.336165 3.14239198,255.440534 1.53287414,255.364078 C1.22629931,255.364078 0.843080776,255.058252 0.613149656,254.675971 Z" id="Shape"></path>
                <path d="M517.804884,252.841019 C517.651597,252.305825 517.574953,241.831311 517.651597,229.521845 L517.881528,207.120146 L535.50958,207.196602 C545.166688,207.196602 553.367564,207.502427 553.674139,207.808252 C554.134001,208.26699 551.604759,242.137136 550.914966,244.277913 C550.761678,244.73665 547.772574,245.807039 544.246963,246.800971 C540.721353,247.718447 533.363557,249.629854 527.998497,251.082524 C520.947276,252.993932 518.034815,253.45267 517.804884,252.841019 Z" id="Shape"></path>
                <path d="M259.745523,219.658981 C259.438948,219.429612 259.209017,212.701456 259.209017,204.902913 C259.209017,194.351942 259.438948,190.376214 260.205385,189.764563 C260.665247,189.382282 273.694678,185.559466 288.946775,181.354369 C304.275517,177.149272 316.998372,173.555825 317.151659,173.326456 C317.38159,173.097087 325.122605,90.2184466 325.122605,87.7718447 C325.122605,87.4660194 310.407013,87.0837379 292.395742,87.0072816 L259.592235,86.7779126 L259.362304,63.993932 C259.209017,43.1978155 259.285661,41.2099515 260.51196,40.7512136 C262.274765,40.0631068 293.928616,41.9745146 294.771697,42.815534 C295.154915,43.1978155 296.07464,49.7730583 296.841077,57.4951456 C297.53087,65.217233 298.220664,71.5631068 298.220664,71.7160194 C298.297307,71.7924757 304.35216,71.868932 311.7866,71.868932 L325.352536,71.868932 L324.892674,67.8932039 C324.662743,65.6759709 323.513087,53.3665049 322.440075,40.5218447 C321.367063,27.6771845 320.294051,16.0558252 320.06412,14.756068 L319.680902,12.2330097 L289.329994,12.0800971 L258.902442,11.8507282 L259.132373,6.49878641 C259.209017,3.5934466 259.515592,0.917475728 259.668879,0.611650485 C260.205385,-0.229368932 352.561052,-0.152912621 353.097558,0.688106796 C353.710708,1.75849515 336.006011,198.174757 335.16293,199.015777 C334.703068,199.474515 262.274765,219.964806 260.282029,220.194175 C260.282029,220.194175 259.975454,219.964806 259.745523,219.658981 Z" id="Shape"></path>
                <path d="M517.804884,178.678398 C517.651597,178.143204 517.574953,171.338592 517.651597,163.616505 L517.881528,149.472087 L538.115466,149.242718 C549.305448,149.166262 558.65598,149.319175 558.962555,149.625 C559.575704,150.389563 557.19975,177.378641 556.356669,178.754854 C555.436944,180.131068 518.34139,180.131068 517.804884,178.678398 Z" id="Shape"></path>
                <path d="M259.209017,161.01699 C259.209017,160.787621 259.209017,150.160194 259.209017,137.468447 L259.132373,114.302184 L276.83707,114.072816 C292.089167,113.919903 294.541766,114.072816 294.924984,115.066748 C295.538134,116.595874 292.395742,151.459951 291.629305,152.224515 C291.32273,152.53034 284.271509,154.59466 276.070632,156.735437 C267.869756,158.95267 260.665247,160.940534 260.205385,161.093447 C259.668879,161.322816 259.209017,161.246359 259.209017,161.01699 Z" id="Shape"></path>
            </g>
        </g>
        <rect id="Rectangle" x="0" y="0" width="850" height="640"></rect>
    </g>
</svg>