<?xml version="1.0" encoding="UTF-8"?>
<svg width="150px" height="150px" viewBox="0 0 150 150" version="1.1" xmlns="http://www.w3.org/2000/svg" xmlns:xlink="http://www.w3.org/1999/xlink">
    <!-- Generator: Sketch 50 (54983) - http://www.bohemiancoding.com/sketch -->
    <title>Group</title>
    <desc>Created with Sketch.</desc>
    <defs></defs>
    <g id="Page-1" stroke="none" stroke-width="1" fill="none" fill-rule="evenodd">
        <g id="Group">
            <circle id="Oval-2" fill-opacity="0.9" fill="#5EA635" cx="75" cy="75" r="75"></circle>
            <path d="M111.7,65.8 C109.5,64.3 106.5,64.9 105,67.1 C102,71.5 96.6,78.4 94.1,80 C91.4,81.7 86.4,83.7 81.5,83.7 L68.5,83.7 C63.6,83.7 58.7,81.7 55.9,80 C53.3,78.4 48,71.5 45,67.1 C43.5,64.9 40.5,64.3 38.3,65.8 C36.1,67.3 35.5,70.3 37,72.5 C38.4,74.5 45.6,84.9 50.8,88.1 C52.3,89 56.8,91.5 62.7,92.6 L62.7,118.6 C62.7,120.7 64.4,122.4 66.5,122.4 L83.5,122.4 C85.6,122.4 87.3,120.7 87.3,118.6 L87.3,92.6 C93.2,91.5 97.7,89 99.2,88.1 C104.4,84.9 111.6,74.5 113,72.5 C114.5,70.3 113.9,67.3 111.7,65.8 Z" id="Shape" fill="#FFFFFF" fill-rule="nonzero"></path>
            <circle id="Oval" fill="#FFFFFF" fill-rule="nonzero" cx="75" cy="69" r="11.3"></circle>
            <path d="M111.6,37.6 L61.4,37.6 C60,31.8 54.8,27.5 48.5,27.5 C41.1,27.5 35.1,33.5 35.1,40.9 C35.1,48.3 41.1,54.3 48.5,54.3 C54.8,54.3 60,50 61.4,44.2 L90.6,44.2 L90.6,51.5 C90.6,53.3 92,54.7 93.8,54.7 C95.6,54.7 97,53.3 97,51.5 L97,44.2 L101.1,44.2 L101.1,51.5 C101.1,53.3 102.5,54.7 104.3,54.7 C106.1,54.7 107.5,53.3 107.5,51.5 L107.5,44.2 L111.6,44.2 C113.4,44.2 114.8,42.8 114.8,41 C114.8,39.2 113.4,37.6 111.6,37.6 Z M48.5,47.8 C44.7,47.8 41.6,44.7 41.6,40.9 C41.6,37.1 44.7,34 48.5,34 C52.3,34 55.4,37.1 55.4,40.9 C55.4,44.7 52.3,47.8 48.5,47.8 Z" id="Shape" fill="#FFFFFF" fill-rule="nonzero"></path>
        </g>
    </g>
</svg>