<?xml version="1.0" encoding="UTF-8"?>
<svg width="175px" height="175px" viewBox="0 0 175 175" version="1.1" xmlns="http://www.w3.org/2000/svg" xmlns:xlink="http://www.w3.org/1999/xlink">
    <!-- Generator: Sketch 52.6 (67491) - http://www.bohemiancoding.com/sketch -->
    <title>Group</title>
    <desc>Created with Sketch.</desc>
    <g id="Page-1" stroke="none" stroke-width="1" fill="none" fill-rule="evenodd">
        <g id="Group-3" transform="translate(-1095.000000, -200.000000)">
            <rect id="Rectangle" stroke="#979797" x="0.5" y="0.5" width="1439" height="599"></rect>
            <g id="noun_online-consulting_1857807" transform="translate(1028.000000, 148.000000)">
                <g id="Group" transform="translate(67.000000, 52.000000)">
                    <circle id="Oval" fill="#D7F1B2" cx="87.5" cy="87.5" r="87.5"></circle>
                    <path d="M128.270781,113.744219 L125.7075,113.744219 L125.7075,57.2364062 C125.7075,55.6865625 125,55.2403125 123.711406,55.2403125 L109.934687,55.2403125 L109.934687,39.9960938 C109.934687,39.44625 109.488437,39 108.938594,39 L65.5328125,39 C64.9829687,39 64.5367187,39.44625 64.5367187,39.9960938 L64.5367187,55.2403125 L49.7653125,55.2403125 C49.2154687,55.2403125 48.7692187,55.6865625 48.7692187,56.2364063 L48.7692187,113.744219 L46.7292187,113.744219 C46.179375,113.744219 45.733125,114.190469 45.733125,114.740313 C45.733125,119.845625 49.8875,124 54.9941406,124 L120.007187,124 C125.1125,124 129.266875,119.845625 129.266875,114.740313 C129.266875,114.190469 128.820625,113.744219 128.270781,113.744219 Z M65.5328125,65.0365625 L68.5941406,65.0365625 L68.5941406,70.6027344 C68.5941406,71.4952344 69.6725781,71.9282031 70.2941406,71.3066406 L76.5655469,65.0365625 L108.938594,65.0365625 C109.488437,65.0365625 109.934687,64.5903125 109.934687,64.0404688 L109.934687,62.4507031 L118.495781,62.4507031 L118.495781,108.523359 L55.9809375,108.523359 L55.9809375,62.4507031 L64.5367187,62.4507031 L64.5367187,64.0404688 C64.5367187,64.5916406 64.9829687,65.0365625 65.5328125,65.0365625 Z M66.5289062,40.9921875 L107.9425,40.9921875 C107.9425,50.8867188 107.9425,53.8178906 107.9425,63.044375 L76.1538281,63.044375 C75.8895312,63.044375 75.6358594,63.1492969 75.4499219,63.3365625 L70.5876562,68.1988281 L70.5876562,64.0417969 C70.5876562,63.4919531 70.1414062,63.0457031 69.5915625,63.0457031 L66.5289062,63.0457031 L66.5289062,40.9921875 Z M50.7614062,57.2325 L64.5367187,57.2325 L64.5367187,60.4598438 L54.9848437,60.4598438 C54.435,60.4598438 53.98875,60.9060938 53.98875,61.4559375 L53.98875,109.520781 C53.98875,110.070625 54.435,110.516875 54.9848437,110.516875 L119.491875,110.516875 C120.041719,110.516875 120.487969,110.070625 120.487969,109.520781 L120.487969,61.4559375 C120.487969,60.9060938 120.041719,60.4598438 119.491875,60.4598438 L109.934687,60.4598438 L109.934687,57.2325 L123.715312,57.2325 L123.715312,113.744219 L50.7614062,113.744219 L50.7614062,57.2325 Z M120.007187,122.007813 L54.9941406,122.007813 C51.3232031,122.007813 48.2804687,119.274531 47.7930469,115.736406 C63.5658594,115.736406 106.903906,115.736406 127.206953,115.736406 C126.719531,119.274531 123.676797,122.007813 120.007187,122.007813 Z" id="Shape" fill="#3D8023" fill-rule="nonzero"></path>
                    <path d="M74.845625,86.7567187 C78.7476562,86.7567187 81.9205469,83.5825 81.9205469,79.6804687 C81.9205469,75.7784375 78.7463281,72.6042187 74.845625,72.6042187 C70.9449219,72.6042187 67.7707031,75.7784375 67.7707031,79.6804687 C67.7707031,83.5825 70.9449219,86.7567187 74.845625,86.7567187 Z M74.845625,74.5964062 C77.6479687,74.5964062 79.9283594,76.8767969 79.9283594,79.6804687 C79.9283594,82.4828125 77.6479687,84.7645312 74.845625,84.7645312 C72.0432812,84.7645312 69.7628906,82.4841406 69.7628906,79.6804687 C69.7628906,76.878125 72.0432812,74.5964062 74.845625,74.5964062 Z" id="Shape" fill="#3D8023" fill-rule="nonzero"></path>
                    <path d="M60.4792969,98.5770313 L60.4792969,104.027656 C60.4792969,104.5775 60.9255469,105.02375 61.4753906,105.02375 L88.2092188,105.02375 C88.7590625,105.02375 89.2053125,104.5775 89.2053125,104.027656 L89.2053125,98.5770313 C89.2053125,92.6071094 84.3496875,87.7501563 78.2841406,87.7501563 C77.9096094,87.7501563 77.5669531,87.96 77.3969531,88.2946875 L74.8336719,93.325625 L72.2703906,88.2946875 C72.1003906,87.9613281 71.6953125,87.7501563 71.3207813,87.7501563 C65.3428906,87.7514844 60.4792969,92.6071094 60.4792969,98.5770313 Z M70.7842188,89.7622656 L73.9478125,95.9725781 C74.2878125,96.640625 75.3821875,96.640625 75.7221875,95.9725781 L78.8884375,89.7569531 C83.5235938,90.02125 87.2144531,93.8767969 87.2144531,98.5770313 L87.2144531,103.031563 L62.4714844,103.031563 L62.4714844,98.5770313 C62.4714844,93.9046875 66.1238281,90.0677344 70.7842188,89.7622656 Z" id="Shape" fill="#3D8023" fill-rule="nonzero"></path>
                    <path d="M96.2669531,103.479141 L112.997344,103.479141 C113.547187,103.479141 113.993437,103.032891 113.993437,102.483047 C113.993437,101.933203 113.547187,101.486953 112.997344,101.486953 L96.2669531,101.486953 C95.7171094,101.486953 95.2708594,101.933203 95.2708594,102.483047 C95.2708594,103.032891 95.7171094,103.479141 96.2669531,103.479141 Z" id="Path" fill="#3D8023"></path>
                    <path d="M96.2669531,95.0734375 L112.997344,95.0734375 C113.547187,95.0734375 113.993437,94.6271875 113.993437,94.0773437 C113.993437,93.5275 113.547187,93.08125 112.997344,93.08125 L96.2669531,93.08125 C95.7171094,93.08125 95.2708594,93.5275 95.2708594,94.0773437 C95.2708594,94.6271875 95.7171094,95.0734375 96.2669531,95.0734375 Z" id="Path" fill="#3D8023"></path>
                    <path d="M96.2669531,86.6677344 L112.997344,86.6677344 C113.547187,86.6677344 113.993437,86.2214844 113.993437,85.6716406 C113.993437,85.1217969 113.547187,84.6755469 112.997344,84.6755469 L96.2669531,84.6755469 C95.7171094,84.6755469 95.2708594,85.1217969 95.2708594,85.6716406 C95.2708594,86.2214844 95.7171094,86.6677344 96.2669531,86.6677344 Z" id="Path" fill="#3D8023"></path>
                    <path d="M96.2669531,78.2620312 L112.997344,78.2620312 C113.547187,78.2620312 113.993437,77.8157812 113.993437,77.2659375 C113.993437,76.7160937 113.547187,76.2698437 112.997344,76.2698437 L96.2669531,76.2698437 C95.7171094,76.2698437 95.2708594,76.7160937 95.2708594,77.2659375 C95.2708594,77.8157812 95.7171094,78.2620312 96.2669531,78.2620312 Z" id="Path" fill="#3D8023"></path>
                    <path d="M77.6785156,56.0053125 C79.8778906,56.0053125 81.666875,54.2163281 81.666875,52.0182813 C81.666875,49.8189063 79.8778906,48.0299219 77.6785156,48.0299219 C75.4804687,48.0299219 73.6914844,49.8189063 73.6914844,52.0182813 C73.6914844,54.2176563 75.4804687,56.0053125 77.6785156,56.0053125 Z M77.6785156,50.0234375 C78.7795312,50.0234375 79.6746875,50.9185938 79.6746875,52.0196094 C79.6746875,53.1192969 78.7795312,54.0144531 77.6785156,54.0144531 C76.5788281,54.0144531 75.6836719,53.1192969 75.6836719,52.0196094 C75.6836719,50.9185938 76.5788281,50.0234375 77.6785156,50.0234375 Z" id="Shape" fill="#3D8023" fill-rule="nonzero"></path>
                    <path d="M87.0550781,56.0053125 C89.2544531,56.0053125 91.0434375,54.2163281 91.0434375,52.0182813 C91.0434375,49.8189063 89.2544531,48.0299219 87.0550781,48.0299219 C84.8570312,48.0299219 83.0680469,49.8189063 83.0680469,52.0182813 C83.0680469,54.2176563 84.8557031,56.0053125 87.0550781,56.0053125 Z M87.0550781,50.0234375 C88.1560937,50.0234375 89.05125,50.9185938 89.05125,52.0196094 C89.05125,53.1192969 88.1560937,54.0144531 87.0550781,54.0144531 C85.9553906,54.0144531 85.0602344,53.1192969 85.0602344,52.0196094 C85.0602344,50.9185938 85.9540625,50.0234375 87.0550781,50.0234375 Z" id="Shape" fill="#3D8023" fill-rule="nonzero"></path>
                    <path d="M96.4316406,56.0053125 C98.6296875,56.0053125 100.418672,54.2163281 100.418672,52.0182813 C100.418672,49.8189063 98.6296875,48.0299219 96.4316406,48.0299219 C94.2322656,48.0299219 92.4432813,49.8189063 92.4432813,52.0182813 C92.4432813,54.2176563 94.2322656,56.0053125 96.4316406,56.0053125 Z M96.4316406,50.0234375 C97.5313281,50.0234375 98.4264844,50.9185938 98.4264844,52.0196094 C98.4264844,53.1192969 97.5313281,54.0144531 96.4316406,54.0144531 C95.330625,54.0144531 94.4354688,53.1192969 94.4354688,52.0196094 C94.4354688,50.9185938 95.330625,50.0234375 96.4316406,50.0234375 Z" id="Shape" fill="#3D8023" fill-rule="nonzero"></path>
                    <path d="M91.9704687,117.876016 L83.0308594,117.876016 C82.4810156,117.876016 82.0347656,118.322266 82.0347656,118.872109 C82.0347656,119.421953 82.4810156,119.868203 83.0308594,119.868203 L91.9704687,119.868203 C92.5203125,119.868203 92.9665625,119.421953 92.9665625,118.872109 C92.9665625,118.322266 92.5203125,117.876016 91.9704687,117.876016 Z" id="Path" fill="#3D8023"></path>
                </g>
            </g>
        </g>
    </g>
</svg>