<?xml version="1.0" encoding="UTF-8"?>
<svg width="175px" height="175px" viewBox="0 0 175 175" version="1.1" xmlns="http://www.w3.org/2000/svg" xmlns:xlink="http://www.w3.org/1999/xlink">
    <!-- Generator: Sketch 52.6 (67491) - http://www.bohemiancoding.com/sketch -->
    <title>Group</title>
    <desc>Created with Sketch.</desc>
    <g id="Page-1" stroke="none" stroke-width="1" fill="none" fill-rule="evenodd">
        <g id="Group-3" transform="translate(-633.000000, -200.000000)">
            <rect id="Rectangle" stroke="#979797" x="0.5" y="0.5" width="1439" height="599"></rect>
            <g id="noun_web-development_1857820" transform="translate(548.000000, 148.000000)">
                <g id="Group" transform="translate(85.000000, 52.000000)">
                    <circle id="Oval" fill="#D7F1B2" cx="87.5" cy="87.5" r="87.5"></circle>
                    <path d="M83.1507692,82.3696923 C82.7755385,81.9335385 82.1192308,81.8864615 81.6858462,82.2603077 L74.9856923,88.0327692 C74.7558462,88.2307692 74.6243077,88.5173846 74.6243077,88.8192308 C74.6243077,89.1210769 74.7558462,89.4090769 74.9843077,89.6043077 L81.6844615,95.3850769 C82.1164615,95.7603077 82.7769231,95.7118462 83.1493846,95.2784615 C83.5246154,94.8450769 83.4761538,94.1887692 83.0427692,93.8135385 L77.2536923,88.8192308 L83.0413846,83.8332308 C83.4761538,83.4593846 83.5246154,82.8044615 83.1507692,82.3696923 Z" id="Path" fill="#3D8023"></path>
                    <path d="M96.8653846,82.2603077 C96.432,81.8864615 95.7770769,81.9335385 95.4004615,82.3696923 C95.0252308,82.8030769 95.0750769,83.4593846 95.5098462,83.8346154 L101.297538,88.8206154 L95.5084615,93.8149231 C95.0750769,94.1901538 95.0252308,94.8450769 95.4018462,95.2798462 C95.7743077,95.7132308 96.4333846,95.7630769 96.8667692,95.3864615 L103.566923,89.6056923 C103.795385,89.4090769 103.926923,89.1210769 103.926923,88.8206154 C103.926923,88.5173846 103.795385,88.2307692 103.565538,88.0341538 L96.8653846,82.2603077 Z" id="Path" fill="#3D8023"></path>
                    <path d="M93.1130769,78.9483077 C92.5827692,78.7461538 91.9776923,79.0050769 91.7686154,79.5409231 L84.8455385,97.3526154 C84.6392308,97.8870769 84.9023077,98.488 85.4381538,98.6970769 C85.9795385,98.9047692 86.5763077,98.6333846 86.7826154,98.1044615 L93.7056923,80.2927692 C93.912,79.7583077 93.6489231,79.1573846 93.1130769,78.9483077 Z" id="Path" fill="#3D8023"></path>
                    <path d="M116.684769,63.0252308 L61.8664615,63.0252308 C60.2215385,63.0252308 58.884,64.3627692 58.884,66.0063077 C58.884,78.2933846 58.884,94.1126154 58.884,101.185231 C58.884,102.830154 60.2229231,104.167692 61.8664615,104.167692 L116.686154,104.167692 C118.331077,104.167692 119.667231,102.828769 119.667231,101.185231 C119.667231,94.1015385 119.667231,78.2933846 119.667231,66.0063077 C119.667231,64.3627692 118.329692,63.0252308 116.684769,63.0252308 Z M60.9595385,66.0076923 C60.9595385,65.5092308 61.3666154,65.1035385 61.8650769,65.1035385 L116.684769,65.1035385 C117.183231,65.1035385 117.588923,65.5092308 117.588923,66.0076923 L117.588923,71.8673846 L60.9595385,71.8673846 L60.9595385,66.0076923 Z M116.684769,102.092154 L61.8664615,102.092154 C61.368,102.092154 60.9609231,101.685077 60.9609231,101.186615 L60.9609231,73.9429231 L117.590308,73.9429231 L117.590308,101.186615 C117.590308,101.685077 117.184615,102.092154 116.684769,102.092154 Z" id="Shape" fill="#479429" fill-rule="nonzero"></path>
                    <path d="M129.578308,108.962615 L127.429385,108.962615 L127.429385,61.3429231 C127.429385,58.4809231 125.099077,56.1506154 122.237077,56.1506154 L64.6010769,56.1506154 L64.2175385,55.6023077 C64.536,54.9986154 64.788,54.3921538 64.9763077,53.7690769 L66.6932308,53.4713846 C67.1903077,53.3841538 67.5544615,52.9521538 67.5544615,52.4481538 L67.5544615,48.7969231 C67.5544615,48.2943077 67.1944615,47.8636923 66.7001538,47.7750769 L64.9804615,47.4663077 C64.7852308,46.8376923 64.5318462,46.2256923 64.2175385,45.6386154 L65.2172308,44.2041538 C65.5052308,43.7901538 65.4553846,43.2307692 65.0981538,42.8749231 L62.5103077,40.2995385 C62.1516923,39.9450769 61.5936923,39.8952308 61.1852308,40.1818462 L59.7590769,41.1732308 C59.1692308,40.8630769 58.56,40.6138462 57.9341538,40.4241538 L57.6253846,38.7016923 C57.5381538,38.2073846 57.1061538,37.846 56.6035385,37.846 L52.9509231,37.846 C52.4483077,37.846 52.0163077,38.2073846 51.9290769,38.7016923 L51.6203077,40.4227692 C50.9861538,40.6124615 50.3755385,40.8630769 49.7898462,41.1704615 L48.3526154,40.1790769 C47.9413846,39.8952308 47.3833846,39.9436923 47.0289231,40.2995385 L44.4535385,42.8749231 C44.0976923,43.2321538 44.0464615,43.7915385 44.3358462,44.2041538 L45.3355385,45.6386154 C45.0212308,46.2284615 44.7678462,46.8390769 44.5726154,47.4663077 L42.8543077,47.7750769 C42.36,47.8636923 42,48.2943077 42,48.7969231 L42,52.4481538 C42,52.9521538 42.3641538,53.3855385 42.8612308,53.4713846 L44.5781538,53.7690769 C44.7650769,54.3921538 45.0156923,55 45.3355385,55.6023077 L44.3372308,57.0270769 C44.0492308,57.4396923 44.0963077,57.9990769 44.4521538,58.3563077 L47.0275385,60.9441538 C47.3806154,61.3013846 47.9441538,61.3512308 48.3567692,61.0632308 L49.794,60.0621538 C50.2398462,60.2975385 50.7064615,60.49 51.1841538,60.6589231 C51.1536923,60.8832308 51.1232308,61.1075385 51.1232308,61.3415385 L51.1232308,108.962615 L48.8358462,108.962615 C48.2626154,108.962615 47.7973846,109.427846 47.7973846,110.001077 C47.7973846,115.193385 52.0218462,119.232308 57.0161538,119.232308 L121.398,119.232308 C126.480923,119.232308 130.616769,115.090923 130.616769,110.001077 C130.616769,109.427846 130.151538,108.962615 129.578308,108.962615 Z M49.1446154,57.9852308 L47.8846154,58.8630769 L46.536,57.5075385 L47.4124615,56.2572308 C47.6492308,55.9193846 47.6644615,55.4735385 47.4484615,55.1218462 C46.95,54.2993846 46.6149231,53.4866154 46.4266154,52.6364615 C46.3352308,52.2252308 46.0043077,51.9109231 45.5903077,51.8375385 L44.0755385,51.5758462 L44.0755385,49.6664615 L45.5847692,49.3964615 C45.9918462,49.3230769 46.3158462,49.0156923 46.4113846,48.6127692 C46.6163077,47.7473846 46.9638462,46.9110769 47.4470769,46.1301538 C47.6630769,45.7770769 47.6506154,45.3298462 47.4138462,44.9906154 L46.536,43.7306154 L47.886,42.3806154 L49.1487692,43.2515385 C49.488,43.4869231 49.9338462,43.498 50.2841538,43.2806154 C51.0470769,42.8098462 51.8764615,42.4706154 52.7543077,42.2712308 C53.1613846,42.1798462 53.4756923,41.8516923 53.5476923,41.4404615 L53.8204615,39.9215385 L55.7326154,39.9215385 L56.004,41.4418462 C56.0773846,41.8530769 56.3903077,42.1798462 56.7973846,42.2726154 C57.6572308,42.4678462 58.4907692,42.8070769 59.2730769,43.2861538 C59.6247692,43.5007692 60.0706154,43.4869231 60.4056923,43.2529231 L61.656,42.3833846 L63.0143077,43.7347692 L62.1364615,44.9933846 C61.8996923,45.3326154 61.8872308,45.7798462 62.1046154,46.1315385 C62.5864615,46.9124615 62.9353846,47.7473846 63.1416923,48.6155385 C63.2372308,49.0170769 63.5626154,49.3244615 63.9683077,49.3964615 L65.4775385,49.6664615 L65.4775385,51.5758462 L63.9627692,51.8375385 C63.5473846,51.9109231 63.2178462,52.2238462 63.1250769,52.6350769 C62.9353846,53.4866154 62.6003077,54.3007692 62.1018462,55.1218462 C61.8872308,55.4735385 61.9010769,55.9193846 62.1378462,56.2572308 L63.0129231,57.5061538 L61.6573846,58.8616923 L60.4098462,57.9866154 C60.072,57.7498462 59.6261538,57.7346154 59.2744615,57.9506154 C58.4824615,58.4324615 57.6683077,58.7675385 56.7863077,58.9766154 C56.3833846,59.0707692 56.076,59.3975385 56.0026154,59.8046154 L55.7312308,61.3249231 L53.8204615,61.3249231 L53.5490769,59.8046154 C53.4756923,59.3975385 53.1696923,59.0721538 52.7667692,58.9766154 C51.8792308,58.7675385 51.0443077,58.4227692 50.2841538,57.9533846 C49.9296923,57.736 49.4852308,57.7470769 49.1446154,57.9852308 Z M53.2001538,63.4004615 L56.6021538,63.4004615 C57.1047692,63.4004615 57.5367692,63.0390769 57.624,62.5447692 L57.9341538,60.8153846 C58.56,60.6229231 59.1692308,60.3723077 59.7549231,60.0635385 L61.1796923,61.0632308 C61.5909231,61.3512308 62.1516923,61.3041538 62.5103077,60.9469231 L65.0981538,58.3590769 C65.1369231,58.3203077 65.1576923,58.2704615 65.1895385,58.2275385 L122.235692,58.2275385 C123.952615,58.2275385 125.351077,59.626 125.351077,61.3429231 L125.351077,108.964 L53.2001538,108.964 L53.2001538,63.4004615 Z M121.398,117.155385 L57.0161538,117.155385 C53.4604615,117.155385 50.4447692,114.517692 49.9476923,111.039538 C50.0875385,111.039538 133.809692,111.043692 128.466462,111.039538 C127.961077,114.494154 124.984154,117.155385 121.398,117.155385 Z" id="Shape" fill="#3D8023" fill-rule="nonzero"></path>
                    <path d="M65.8043077,65.5798462 C64.2036923,65.5798462 62.9007692,66.8827692 62.9007692,68.4847692 C62.9007692,70.0853846 64.2023077,71.3896923 65.8043077,71.3896923 C67.4049231,71.3896923 68.7092308,70.0867692 68.7092308,68.4847692 C68.7092308,66.8841538 67.4063077,65.5798462 65.8043077,65.5798462 Z M65.8043077,69.3113846 C65.3487692,69.3113846 64.9776923,68.9403077 64.9776923,68.4833846 C64.9776923,68.0264615 65.3487692,67.6553846 65.8043077,67.6553846 C66.2598462,67.6553846 66.6323077,68.0278462 66.6323077,68.4833846 C66.6323077,68.9389231 66.2598462,69.3113846 65.8043077,69.3113846 Z" id="Shape" fill="#3D8023" fill-rule="nonzero"></path>
                    <path d="M71.8523077,65.5798462 C70.2516923,65.5798462 68.9487692,66.8827692 68.9487692,68.4847692 C68.9487692,70.0853846 70.2516923,71.3896923 71.8523077,71.3896923 C73.4529231,71.3896923 74.7572308,70.0867692 74.7572308,68.4847692 C74.7572308,66.8841538 73.4543077,65.5798462 71.8523077,65.5798462 Z M71.8523077,69.3113846 C71.3967692,69.3113846 71.0256923,68.9403077 71.0256923,68.4833846 C71.0256923,68.0264615 71.3967692,67.6553846 71.8523077,67.6553846 C72.3078462,67.6553846 72.6803077,68.0278462 72.6803077,68.4833846 C72.6803077,68.9389231 72.3092308,69.3113846 71.8523077,69.3113846 Z" id="Shape" fill="#3D8023" fill-rule="nonzero"></path>
                    <path d="M77.9016923,65.5798462 C76.3010769,65.5798462 74.9981538,66.8827692 74.9981538,68.4847692 C74.9981538,70.0853846 76.2996923,71.3896923 77.9016923,71.3896923 C79.5023077,71.3896923 80.8066154,70.0867692 80.8066154,68.4847692 C80.8052308,66.8841538 79.5023077,65.5798462 77.9016923,65.5798462 Z M77.9016923,69.3113846 C77.4461538,69.3113846 77.0750769,68.9403077 77.0750769,68.4833846 C77.0750769,68.0264615 77.4461538,67.6553846 77.9016923,67.6553846 C78.3572308,67.6553846 78.7296923,68.0278462 78.7296923,68.4833846 C78.7296923,68.9389231 78.3572308,69.3113846 77.9016923,69.3113846 Z" id="Shape" fill="#3D8023" fill-rule="nonzero"></path>
                    <path d="M113.598462,67.4463077 L89.2763077,67.4463077 C88.7030769,67.4463077 88.2378462,67.9115385 88.2378462,68.4847692 C88.2378462,69.058 88.7030769,69.5232308 89.2763077,69.5232308 L113.598462,69.5232308 C114.171692,69.5232308 114.636923,69.058 114.636923,68.4847692 C114.636923,67.9115385 114.171692,67.4463077 113.598462,67.4463077 Z" id="Path" fill="#3D8023"></path>
                    <path d="M61.1893846,50.6107692 C61.1893846,47.0730769 58.3121538,44.1958462 54.7758462,44.1958462 C51.2381538,44.1958462 48.3609231,47.0730769 48.3609231,50.6107692 C48.3609231,54.1553846 51.2381538,57.0381538 54.7758462,57.0381538 C58.3121538,57.0367692 61.1893846,54.154 61.1893846,50.6107692 Z M50.4392308,50.6107692 C50.4392308,48.2195385 52.3846154,46.2727692 54.7772308,46.2727692 C57.1684615,46.2727692 59.1138462,48.2181538 59.1138462,50.6107692 C59.1138462,53.0089231 57.1684615,54.9612308 54.7772308,54.9612308 C52.3846154,54.9598462 50.4392308,53.0089231 50.4392308,50.6107692 Z" id="Shape" fill="#3D8023" fill-rule="nonzero"></path>
                    <path d="M92.5121538,113.153846 L83.1923077,113.153846 C82.6190769,113.153846 82.1538462,113.619077 82.1538462,114.192308 C82.1538462,114.765538 82.6190769,115.230769 83.1923077,115.230769 L92.5121538,115.230769 C93.0853846,115.230769 93.5506154,114.765538 93.5506154,114.192308 C93.5506154,113.619077 93.0853846,113.153846 92.5121538,113.153846 Z" id="Path" fill="#3D8023"></path>
                </g>
            </g>
        </g>
    </g>
</svg>