<?xml version="1.0" encoding="UTF-8"?>
<svg width="175px" height="175px" viewBox="0 0 175 175" version="1.1" xmlns="http://www.w3.org/2000/svg" xmlns:xlink="http://www.w3.org/1999/xlink">
    <!-- Generator: Sketch 52.6 (67491) - http://www.bohemiancoding.com/sketch -->
    <title>Group</title>
    <desc>Created with Sketch.</desc>
    <g id="Page-1" stroke="none" stroke-width="1" fill="none" fill-rule="evenodd">
        <g id="Group-3" transform="translate(-202.000000, -197.000000)">
            <rect id="Rectangle" stroke="#979797" x="0.5" y="0.5" width="1439" height="599"></rect>
            <g id="noun_web-design_1857865" transform="translate(170.000000, 149.000000)">
                <g id="Group" transform="translate(32.000000, 48.000000)">
                    <circle id="Oval-Copy" fill="#D7F1B2" cx="87.5" cy="87.5" r="87.5"></circle>
                    <path d="M107.305565,91.0699194 L87.1770161,91.0699194 C86.6094355,91.0699194 86.1487903,91.5305645 86.1487903,92.0981452 C86.1487903,92.6657258 86.6094355,93.126371 87.1770161,93.126371 L107.305565,93.126371 C107.873145,93.126371 108.33379,92.6657258 108.33379,92.0981452 C108.33379,91.5305645 107.873145,91.0699194 107.305565,91.0699194 Z" id="Path" fill="#3D8023"></path>
                    <path d="M99.6007258,98.9516129 L87.1783871,98.9516129 C86.6108065,98.9516129 86.1501613,99.4122581 86.1501613,99.9798387 C86.1501613,100.547419 86.6108065,101.008065 87.1783871,101.008065 L99.6007258,101.008065 C100.168306,101.008065 100.628952,100.547419 100.628952,99.9798387 C100.628952,99.4122581 100.168306,98.9516129 99.6007258,98.9516129 Z" id="Path" fill="#3D8023"></path>
                    <path d="M95.0326613,106.833306 L87.1783871,106.833306 C86.6108065,106.833306 86.1501613,107.293952 86.1501613,107.861532 C86.1501613,108.429113 86.6108065,108.889758 87.1783871,108.889758 L95.0326613,108.889758 C95.6002419,108.889758 96.0608871,108.429113 96.0608871,107.861532 C96.0608871,107.293952 95.6002419,106.833306 95.0326613,106.833306 Z" id="Path" fill="#3D8023"></path>
                    <path d="M126.974839,57.0287903 L49.996371,57.0287903 C47.9248387,57.0287903 46.2399194,58.7260484 46.2399194,60.8126613 L46.2399194,118.982823 C46.2399194,121.062581 47.9248387,122.752984 49.996371,122.752984 L83.7920968,122.752984 C79.0979032,127.452661 74.9507258,132.141371 72.1073387,135.966371 C67.7737097,141.794355 68.0479032,143.439516 68.8828226,144.274435 C72.0360484,147.455081 87.3552419,132.445726 90.4947581,129.307581 C92.6896774,127.11129 94.7653226,124.910887 96.6915323,122.754355 L126.97621,122.754355 C129.062823,122.754355 130.761452,121.063952 130.761452,118.984194 L130.761452,60.8126613 C130.760081,58.7260484 129.062823,57.0287903 126.974839,57.0287903 Z M89.0401613,127.851613 C79.7175806,137.172823 72.4829839,142.302984 70.4704032,142.696452 C70.8693548,140.6825 76.003629,133.446532 85.3275806,124.123952 C89.4432258,119.993226 91.9383871,117.887419 92.8692742,117.042903 C98.2325,112.359677 102.477016,109.554677 103.886371,109.268145 C102.948629,113.328952 92.0110484,124.882097 89.0401613,127.851613 Z M105.479435,107.699758 C105.162742,107.381694 104.57871,106.804516 102.655242,107.539355 C106.570726,98.1070968 112.119032,100.430887 116.437581,94.2779839 C116.270323,98.1948387 115.462823,103.826774 112.393226,106.600242 C110.366935,108.464758 108.272097,110.367661 105.353306,111.13129 C106.473387,108.715645 105.829032,108.049355 105.479435,107.699758 Z M104.042661,113.457823 C108.468145,112.982097 111.29371,110.404677 113.776532,108.120645 C119.477016,102.97129 118.489919,90.4187097 118.443306,89.8881452 C118.402177,89.3987097 118.019677,89.0066129 117.532984,88.9517742 C117.055887,88.9010484 116.587016,89.1944355 116.438952,89.6646774 C115.412097,92.9166129 113.081452,95.6174194 110.202419,96.8896774 C105.283387,99.0667742 101.507742,103.55121 99.9996774,108.926774 C98.0679839,110.129113 95.4316129,112.097823 91.8122581,115.241452 L53.7377419,115.241452 L53.7377419,69.9720968 L123.245806,69.9720968 L123.245806,115.241452 L102.8225,115.241452 C103.288629,114.592984 103.698548,113.995242 104.042661,113.457823 Z M128.703629,118.982823 C128.703629,119.927419 127.929032,120.696532 126.974839,120.696532 L98.4929839,120.696532 C99.5321774,119.480484 100.464435,118.343952 101.281532,117.296532 L124.274032,117.296532 C124.841613,117.296532 125.302258,116.835887 125.302258,116.268306 L125.302258,68.9425 C125.302258,68.3749194 124.841613,67.9142742 124.274032,67.9142742 L52.7095161,67.9142742 C52.1419355,67.9142742 51.6812903,68.3749194 51.6812903,68.9425 L51.6812903,116.268306 C51.6812903,116.835887 52.1419355,117.296532 52.7095161,117.296532 L89.4898387,117.296532 C88.3135484,118.364516 87.1029839,119.501048 85.8677419,120.696532 L49.996371,120.696532 C49.058629,120.696532 48.296371,119.927419 48.296371,118.982823 L48.296371,60.8126613 C48.296371,59.8598387 49.06,59.0852419 49.996371,59.0852419 L126.974839,59.0852419 C127.927661,59.0852419 128.703629,59.8598387 128.703629,60.8126613 L128.703629,118.982823 Z" id="Shape" fill="#3D8023" fill-rule="nonzero"></path>
                    <path d="M120.292742,59.805 C118.256855,59.805 116.600726,61.4625 116.600726,63.4983871 C116.600726,65.5342742 118.256855,67.1917742 120.292742,67.1917742 C122.328629,67.1917742 123.986129,65.5356452 123.986129,63.4983871 C123.9875,61.4625 122.33,59.805 120.292742,59.805 Z M120.292742,65.1353226 C119.390645,65.1353226 118.657177,64.4004839 118.657177,63.4983871 C118.657177,62.5962903 119.390645,61.8614516 120.292742,61.8614516 C121.194839,61.8614516 121.929677,62.5962903 121.929677,63.4983871 C121.929677,64.4004839 121.19621,65.1353226 120.292742,65.1353226 Z" id="Shape" fill="#3D8023" fill-rule="nonzero"></path>
                    <path d="M111.299194,59.805 C109.263306,59.805 107.607177,61.4625 107.607177,63.4983871 C107.607177,65.5342742 109.263306,67.1917742 111.299194,67.1917742 C113.335081,67.1917742 114.992581,65.5356452 114.992581,63.4983871 C114.992581,61.4625 113.335081,59.805 111.299194,59.805 Z M111.299194,65.1353226 C110.397097,65.1353226 109.663629,64.4004839 109.663629,63.4983871 C109.663629,62.5962903 110.397097,61.8614516 111.299194,61.8614516 C112.20129,61.8614516 112.936129,62.5962903 112.936129,63.4983871 C112.936129,64.4004839 112.20129,65.1353226 111.299194,65.1353226 Z" id="Shape" fill="#3D8023" fill-rule="nonzero"></path>
                    <path d="M102.304274,59.805 C100.268387,59.805 98.6122581,61.4625 98.6122581,63.4983871 C98.6122581,65.5342742 100.268387,67.1917742 102.304274,67.1917742 C104.340161,67.1917742 105.997661,65.5356452 105.997661,63.4983871 C105.999032,61.4625 104.341532,59.805 102.304274,59.805 Z M102.304274,65.1353226 C101.402177,65.1353226 100.66871,64.4004839 100.66871,63.4983871 C100.66871,62.5962903 101.402177,61.8614516 102.304274,61.8614516 C103.206371,61.8614516 103.94121,62.5962903 103.94121,63.4983871 C103.94121,64.4004839 103.206371,65.1353226 102.304274,65.1353226 Z" id="Shape" fill="#3D8023" fill-rule="nonzero"></path>
                    <path d="M117.530242,75.1804032 L59.4560484,75.1804032 C58.8884677,75.1804032 58.4278226,75.6410484 58.4278226,76.208629 L58.4278226,85.8602419 C58.4278226,86.4278226 58.8884677,86.8884677 59.4560484,86.8884677 L117.530242,86.8884677 C118.097823,86.8884677 118.558468,86.4278226 118.558468,85.8602419 L118.558468,76.208629 C118.558468,75.6410484 118.097823,75.1804032 117.530242,75.1804032 Z M116.502016,84.8320161 L60.4842742,84.8320161 L60.4842742,77.2368548 L116.502016,77.2368548 L116.502016,84.8320161 Z" id="Shape" fill="#3D8023" fill-rule="nonzero"></path>
                    <path d="M78.4576613,91.0699194 L59.4560484,91.0699194 C58.8884677,91.0699194 58.4278226,91.5305645 58.4278226,92.0981452 L58.4278226,111.099758 C58.4278226,111.667339 58.8884677,112.127984 59.4560484,112.127984 L78.4576613,112.127984 C79.0252419,112.127984 79.4858871,111.667339 79.4858871,111.099758 L79.4858871,92.0981452 C79.4858871,91.5305645 79.0252419,91.0699194 78.4576613,91.0699194 Z M77.4294355,110.071532 L60.4842742,110.071532 L60.4842742,93.126371 L77.4294355,93.126371 L77.4294355,110.071532 Z" id="Shape" fill="#3D8023" fill-rule="nonzero"></path>
                </g>
            </g>
        </g>
    </g>
</svg>