<?xml version="1.0" standalone="no"?>
<!DOCTYPE svg PUBLIC "-//W3C//DTD SVG 1.1//EN" "http://www.w3.org/Graphics/SVG/1.1/DTD/svg11.dtd" >
<svg xmlns="http://www.w3.org/2000/svg" xmlns:xlink="http://www.w3.org/1999/xlink" version="1.1">
<metadata>
Created by FontForge 20170731 at Wed Feb 19 04:50:03 2014
 By Aleksey,,,
Copyright (c) 2014 by Rene' Bieder. All rights reserved.
</metadata>
<defs>
<font id="Campton-BookItalic" horiz-adv-x="600" >
  <font-face 
    font-family="Campton Book"
    font-weight="475"
    font-style="italic"
    font-stretch="normal"
    units-per-em="1000"
    panose-1="0 0 5 0 0 0 0 0 0 0"
    ascent="800"
    descent="-200"
    x-height="467"
    cap-height="680"
    bbox="-77 -243 1487 968"
    underline-thickness="50"
    underline-position="-200"
    slope="-10"
    unicode-range="U+0020-FB02"
  />
<missing-glyph horiz-adv-x="870" 
d="M770 680v-680h-670v680h670zM700 610h-481l481 -481v481zM170 70h477l-477 477v-477z" />
    <glyph glyph-name="fi" unicode="fi" horiz-adv-x="672" 
d="M633 467l-82 -467h-92l68 390h-271l-68 -390h-91l68 390h-134l14 77h134l18 103q15 85 73 136.5t138 51.5q74 0 185 -39l-28 -80q-93 30 -133 33q-11 1 -22 1q-47 0 -80.5 -28t-41.5 -75l-18 -103h363z" />
    <glyph glyph-name="fl" unicode="fl" horiz-adv-x="663" 
d="M271 467h169l-14 -77h-168l-69 -390h-92l68 390h-134l14 77h134l18 103q15 85 73.5 136.5t138.5 51.5q53 0 99 -14l-27 -80q-43 9 -71 9q-47 0 -80 -28.5t-41 -75.5zM670 710l-126 -710h-91l126 710h91z" />
    <glyph glyph-name=".notdef" horiz-adv-x="870" 
d="M770 680v-680h-670v680h670zM700 610h-481l481 -481v481zM170 70h477l-477 477v-477z" />
    <glyph glyph-name=".null" horiz-adv-x="0" 
 />
    <glyph glyph-name="nonmarkingreturn" horiz-adv-x="333" 
 />
    <glyph glyph-name="space" unicode=" " horiz-adv-x="267" 
 />
    <glyph glyph-name="exclam" unicode="!" horiz-adv-x="272" 
d="M172 197h-83l78 483h97zM103 -9q-25 0 -42 16.5t-17 41.5q0 24 17 40.5t42 16.5t42 -16.5t17 -40.5q0 -25 -17 -41.5t-42 -16.5z" />
    <glyph glyph-name="quotedbl" unicode="&#x22;" horiz-adv-x="324" 
d="M201 680l-48 -272h-79l48 272h79zM352 680l-49 -272h-79l49 272h79z" />
    <glyph glyph-name="numbersign" unicode="#" horiz-adv-x="749" 
d="M538 268h120l-14 -82h-147l-90 -186h-95l90 186h-180l-90 -186h-95l90 186h-103l15 82h129l65 134h-115l14 82h141l97 197h95l-97 -197h180l97 197h95l-97 -197h108l-14 -82h-134zM328 402l-65 -134h180l65 134h-180z" />
    <glyph glyph-name="dollar" unicode="$" horiz-adv-x="664" 
d="M643 487h-95q1 59 -35.5 92.5t-111.5 33.5q-77 0 -126 -35.5t-49 -92.5q0 -68 109 -90l91 -19q167 -33 167 -154q0 -100 -78.5 -165.5t-202.5 -70.5l-20 -112h-83l21 117q-93 16 -140.5 75.5t-40.5 153.5h95q-2 -75 40.5 -112t130.5 -37q79 0 128 35t49 91q0 69 -98 87
l-111 22q-166 32 -160 169q4 90 68.5 146.5t161.5 69.5l21 119h83l-20 -116q96 -7 154 -58t52 -149z" />
    <glyph glyph-name="percent" unicode="%" horiz-adv-x="1100" 
d="M338 695q72 0 117 -44.5t45 -116.5q0 -94 -68 -158t-161 -64q-73 0 -117.5 44.5t-44.5 116.5q0 95 68 158.5t161 63.5zM359 0h-67l458 680h67zM283 379q58 0 101.5 41.5t43.5 102.5q0 46 -28.5 75.5t-73.5 29.5q-58 0 -102 -41.5t-44 -102.5q0 -46 29 -75.5t74 -29.5z
M856 368q73 0 117.5 -44.5t44.5 -115.5q0 -95 -68 -159t-162 -64q-71 0 -116 44.5t-45 116.5q0 95 68 158.5t161 63.5zM801 53q58 0 102 41.5t44 102.5q0 46 -28.5 75t-73.5 29q-58 0 -102 -41.5t-44 -101.5q0 -46 28.5 -75.5t73.5 -29.5z" />
    <glyph glyph-name="ampersand" unicode="&#x26;" horiz-adv-x="726" 
d="M547 144l-7 -9l124 -135h-122l-67 72q-103 -86 -227 -86q-99 0 -156 48t-57 127q0 74 46.5 130.5t121.5 86.5q-37 56 -37 108q0 89 70 149t168 60q85 0 130 -50.5t39 -137.5h-92q2 51 -22.5 78.5t-68.5 27.5q-54 0 -91 -34t-37 -86q0 -40 27.5 -79t98.5 -113l101 -110
l126 148h96zM263 68q82 0 161 60l-123 132q-46 51 -52 58q-56 -21 -89 -58t-33 -84q0 -46 37.5 -77t98.5 -31z" />
    <glyph glyph-name="quotesingle" unicode="'" horiz-adv-x="174" 
d="M203 680l-48 -272h-79l48 272h79z" />
    <glyph glyph-name="parenleft" unicode="(" horiz-adv-x="381" 
d="M350 733l55 -67q-104 -85 -162 -167t-78 -196q-21 -112 6 -201t97 -169l-70 -60q-85 83 -117.5 197.5t-9.5 239.5q43 251 279 423z" />
    <glyph glyph-name="parenright" unicode=")" horiz-adv-x="381" 
d="M137 673l70 60q85 -83 117.5 -198t9.5 -240q-44 -253 -279 -422l-54 67q104 86 162 167.5t78 195.5q20 112 -7 200.5t-97 169.5z" />
    <glyph glyph-name="asterisk" unicode="*" horiz-adv-x="404" 
d="M410 594l13 -51l-114 -28l76 -76l-38 -39l-77 76l-29 -114l-51 14l29 117l-116 -29l-16 51l115 29l-75 75l38 39l76 -76l28 115l53 -14l-30 -117z" />
    <glyph glyph-name="plus" unicode="+" horiz-adv-x="685" 
d="M395 284l-33 -185h-88l32 185h-190l15 85h190l33 185h88l-32 -185h190l-15 -85h-190z" />
    <glyph glyph-name="comma" unicode="," horiz-adv-x="204" 
d="M-23 -127l72 121q-36 14 -36 49q0 23 17 39.5t41 16.5q25 0 42 -16.5t17 -39.5q0 -28 -35 -77l-61 -93h-57z" />
    <glyph glyph-name="hyphen" unicode="-" horiz-adv-x="553" 
d="M441 221l17 92h-337l-16 -92h336z" />
    <glyph glyph-name="period" unicode="." horiz-adv-x="193" 
d="M64 -15q-25 0 -42 16.5t-17 41.5q0 24 17 40.5t42 16.5t42 -16.5t17 -40.5q0 -25 -17 -41.5t-42 -16.5z" />
    <glyph glyph-name="slash" unicode="/" horiz-adv-x="404" 
d="M45 -160h-89l416 890h89z" />
    <glyph glyph-name="zero" unicode="0" horiz-adv-x="717" 
d="M439 695q117 0 180 -77.5t63 -207.5q0 -116 -45.5 -213t-130.5 -154.5t-193 -57.5q-117 0 -180.5 77.5t-63.5 208.5q0 179 103.5 301.5t266.5 122.5zM328 71q116 0 186 98t70 240q0 90 -41 145t-120 55q-117 0 -186.5 -97.5t-69.5 -239.5q0 -90 41 -145.5t120 -55.5z" />
    <glyph glyph-name="one" unicode="1" horiz-adv-x="511" 
d="M458 79l-14 -79h-455l14 79h187l88 497l-187 -58l15 82l231 80h54l-106 -601h173z" />
    <glyph glyph-name="two" unicode="2" horiz-adv-x="560" 
d="M164 79h310l-14 -79h-452l9 50l257 240l30 27t28 25.5l24 22.5t22.5 22.5t18.5 20.5t17 20.5t12 19t10 21t5 20.5t2 22q0 44 -29 73t-84 29q-60 0 -104 -34t-60 -92h-92q20 94 92.5 151t174.5 57q94 0 146 -49t52 -125q0 -34 -9 -62.5t-37 -63t-56 -62t-88 -83.5z" />
    <glyph glyph-name="three" unicode="3" horiz-adv-x="562" 
d="M429 343q80 -40 80 -130q0 -101 -72 -164t-192 -63q-100 0 -161 52t-57 136h93q1 -49 35 -77.5t97 -28.5q72 0 119 38t47 96q0 46 -34.5 73t-93.5 27h-55l13 77h55l-2 -10l2 10q64 0 106 38.5t42 96.5q0 44 -29.5 70.5t-79.5 26.5q-57 0 -94.5 -28t-52.5 -77h-93
q22 85 89 135.5t165 50.5q86 0 136 -45.5t50 -120.5q0 -61 -29.5 -109t-83.5 -74z" />
    <glyph glyph-name="four" unicode="4" horiz-adv-x="641" 
d="M579 144h-102l-25 -144h-92l26 144h-360l11 59l285 477h97l-267 -454h248l38 211h91l-37 -211h102z" />
    <glyph glyph-name="five" unicode="5" horiz-adv-x="588" 
d="M249 595l-45 -252h-88l60 337h408l-15 -85h-320zM446 231q0 51 -35.5 82t-98.5 31l-108 -1l15 83h118q92 0 146.5 -49.5t54.5 -129.5q0 -109 -83 -185.5t-204 -76.5q-106 0 -162.5 53t-55.5 145h93q10 -116 140 -116q75 0 127.5 48.5t52.5 115.5z" />
    <glyph glyph-name="six" unicode="6" horiz-adv-x="616" 
d="M350 459q99 0 158.5 -55.5t59.5 -143.5q0 -116 -87 -195.5t-215 -79.5q-99 0 -158.5 57t-59.5 145q0 53 21.5 97t68.5 101l254 295h113l-190 -223q22 2 35 2zM279 62q80 0 137 53.5t57 127.5q0 57 -38 94.5t-100 37.5q-73 0 -124 -40l-4 -4q-37 -40 -51.5 -70t-14.5 -66
q0 -57 38 -95t100 -38z" />
    <glyph glyph-name="seven" unicode="7" horiz-adv-x="503" 
d="M567 680l-10 -58l-409 -622h-106l390 591h-349l16 89h468z" />
    <glyph glyph-name="eight" unicode="8" horiz-adv-x="624" 
d="M465 358q96 -43 96 -142q0 -100 -83.5 -165.5t-215.5 -65.5q-105 0 -165.5 48t-60.5 127q0 69 41.5 121t114.5 79q-72 41 -72 121q0 91 78 152.5t190 61.5q91 0 145.5 -45.5t54.5 -117.5q0 -60 -32.5 -104.5t-90.5 -69.5zM374 620q-67 0 -114 -39.5t-47 -95.5
q0 -45 32.5 -72.5t87.5 -27.5q68 0 114 38t46 94q0 44 -32.5 73.5t-86.5 29.5zM276 64q76 0 128.5 43t52.5 105q0 47 -37.5 77.5t-98.5 30.5q-77 0 -128.5 -41t-51.5 -102q0 -50 37 -81.5t98 -31.5z" />
    <glyph glyph-name="nine" unicode="9" horiz-adv-x="616" 
d="M392 695q99 0 158.5 -57t59.5 -145q0 -53 -21.5 -96.5t-68.5 -100.5l-254 -296h-113l191 224q-22 -2 -36 -2q-98 0 -158 55t-60 143q0 116 87 195.5t215 79.5zM447 345l4 4q37 40 51.5 70t14.5 66q0 57 -38 95t-100 38q-80 0 -137 -53.5t-57 -127.5q0 -57 38 -94.5
t100 -37.5q71 0 124 40z" />
    <glyph glyph-name="colon" unicode=":" horiz-adv-x="193" 
d="M130 366q-24 0 -41.5 17t-17.5 41t17.5 40.5t41.5 16.5q25 0 42.5 -16.5t17.5 -40.5q0 -25 -17.5 -41.5t-42.5 -16.5zM62 -15q-24 0 -41.5 17t-17.5 41t17.5 40.5t41.5 16.5q25 0 42.5 -16.5t17.5 -40.5q0 -25 -17.5 -41.5t-42.5 -16.5z" />
    <glyph glyph-name="semicolon" unicode=";" horiz-adv-x="197" 
d="M132 366q-25 0 -42 16.5t-17 41.5q0 24 17 40.5t42 16.5t42 -16.5t17 -40.5q0 -25 -17 -41.5t-42 -16.5zM-30 -127l72 121q-37 14 -37 49q0 23 17 39.5t42 16.5t42 -16.5t17 -39.5q0 -28 -35 -77l-62 -93h-56z" />
    <glyph glyph-name="less" unicode="&#x3c;" horiz-adv-x="539" 
d="M58 350l456 197l-16 -98l-346 -151l293 -148l-16 -90l-387 197z" />
    <glyph glyph-name="equal" unicode="=" horiz-adv-x="699" 
d="M615 380h-482l15 86h482zM581 184h-482l15 85h482z" />
    <glyph glyph-name="greater" unicode="&#x3e;" horiz-adv-x="540" 
d="M504 257l-456 -197l16 98l346 151l-293 148l16 90l387 -197z" />
    <glyph glyph-name="question" unicode="?" horiz-adv-x="551" 
d="M342 692q91 0 144 -50t53 -132q0 -93 -68 -156t-173 -70l-19 -86h-72l18 150h55q69 0 118.5 44t49.5 108q0 49 -31 80t-83 31q-49 0 -90.5 -28.5t-57.5 -74.5h-92q25 84 92.5 134t155.5 50zM214 106q25 0 42.5 -16.5t17.5 -40.5q0 -25 -17.5 -41.5t-42.5 -16.5
q-24 0 -41.5 17t-17.5 41t17.5 40.5t41.5 16.5z" />
    <glyph glyph-name="at" unicode="@" horiz-adv-x="973" 
d="M565 654q158 0 257.5 -97.5t99.5 -248.5q0 -115 -53.5 -195t-155.5 -80q-95 0 -118 67q-69 -69 -162 -69q-74 0 -120 48t-46 122q0 98 71 166.5t166 68.5q77 0 121 -46l6 34h82l-39 -222q-18 -100 51 -100q61 0 94 55.5t33 138.5q0 127 -84 209.5t-215 82.5
q-81 0 -159 -32t-137 -85t-95 -127.5t-36 -155.5q0 -128 85.5 -213t214.5 -85q128 0 240 78l28 -57q-127 -87 -278 -87q-157 0 -259.5 100t-102.5 254q0 129 72.5 240t190 173.5t248.5 62.5zM458 105q75 0 131 67q1 24 6 48l14 79q-33 64 -105 64q-59 0 -105.5 -42
t-46.5 -108q0 -49 30.5 -78.5t75.5 -29.5z" />
    <glyph glyph-name="A" unicode="A" horiz-adv-x="748" 
d="M533 175h-337l-107 -175h-106l424 684h90l182 -684h-101zM510 263l-78 301l-183 -301h261z" />
    <glyph glyph-name="B" unicode="B" horiz-adv-x="708" 
d="M524 352q58 -12 87 -48.5t29 -88.5q0 -96 -78.5 -155.5t-204.5 -59.5h-312l120 680h296q93 0 147.5 -40t54.5 -108q0 -63 -38 -112.5t-101 -67.5zM245 596l-37 -212h186q81 0 128 34t47 91q0 40 -33 63.5t-94 23.5h-197zM155 84h213q81 0 129.5 36.5t48.5 90.5
q0 43 -35.5 65.5t-101.5 22.5h-216z" />
    <glyph glyph-name="C" unicode="C" horiz-adv-x="799" 
d="M385 78q81 0 153 47.5t105 125.5h99q-45 -119 -146.5 -192t-226.5 -73q-148 0 -233.5 101t-58.5 253q26 150 147 252t270 102q125 0 200.5 -73t78.5 -192h-99q-6 81 -58 127t-139 46q-111 0 -197.5 -75t-106.5 -187q-19 -114 41.5 -188t170.5 -74z" />
    <glyph glyph-name="D" unicode="D" horiz-adv-x="752" 
d="M165 680h245q139 0 223 -79.5t84 -204.5q0 -167 -125 -281.5t-302 -114.5h-245zM156 88h150q128 0 220 85.5t92 208.5q0 92 -61.5 151t-161.5 59h-151z" />
    <glyph glyph-name="E" unicode="E" horiz-adv-x="632" 
d="M236 592l-37 -211h347l-15 -88h-347l-36 -205h387l-16 -88h-483l120 680h483l-15 -88h-388z" />
    <glyph glyph-name="F" unicode="F" horiz-adv-x="614" 
d="M244 592l-40 -229h337l-16 -88h-336l-49 -275h-95l120 680h475l-16 -88h-380z" />
    <glyph glyph-name="G" unicode="G" horiz-adv-x="820" 
d="M765 364l-5 -24h1l-60 -340h-76l15 125q-106 -139 -276 -139q-150 0 -233 102t-58 246q18 102 80.5 185t152.5 129t188 46q115 0 194.5 -64.5t87.5 -178.5h-95q-11 80 -66 117.5t-133 37.5q-113 0 -202 -77t-110 -195q-18 -107 40.5 -181.5t169.5 -74.5q93 0 163.5 54.5
t103.5 143.5h-239l15 88h342z" />
    <glyph glyph-name="H" unicode="H" horiz-adv-x="738" 
d="M730 680l-120 -680h-95l51 291h-375l-51 -291h-95l120 680h95l-53 -301h375l53 301h95z" />
    <glyph glyph-name="I" unicode="I" horiz-adv-x="267" 
d="M140 0h-95l120 680h95z" />
    <glyph glyph-name="J" unicode="J" horiz-adv-x="612" 
d="M613 680l-77 -431q-22 -127 -102 -195.5t-193 -68.5q-102 0 -162 61t-51 159h96q-3 -61 29.5 -96t99.5 -35q69 0 121 48.5t66 128.5l76 429h97z" />
    <glyph glyph-name="K" unicode="K" horiz-adv-x="716" 
d="M397 374l250 -374h-121l-208 303l-148 -135l-30 -168h-95l120 680h95l-65 -367l410 367h129z" />
    <glyph glyph-name="L" unicode="L" horiz-adv-x="597" 
d="M524 86l-15 -86h-464l120 680h95l-105 -594h369z" />
    <glyph glyph-name="M" unicode="M" horiz-adv-x="849" 
d="M841 680l-120 -680h-96l83 462l-273 -341h-60l-153 350l-81 -471h-96l120 680h70l188 -437l348 437h70z" />
    <glyph glyph-name="N" unicode="N" horiz-adv-x="761" 
d="M753 680l-120 -680h-76l-328 509l-89 -509h-95l120 680h62l339 -521l92 521h95z" />
    <glyph glyph-name="O" unicode="O" horiz-adv-x="828" 
d="M492 694q132 0 216.5 -87t84.5 -215q0 -107 -60 -201.5t-157 -149.5t-203 -55q-132 0 -216 86.5t-84 215.5q0 107 60 201.5t156.5 149.5t202.5 55zM382 77q121 0 216.5 91t95.5 216q0 94 -57.5 156.5t-155.5 62.5q-123 0 -216.5 -91t-93.5 -214q0 -94 57.5 -157.5
t153.5 -63.5z" />
    <glyph glyph-name="P" unicode="P" horiz-adv-x="653" 
d="M165 680h240q106 0 170 -53.5t64 -143.5q0 -118 -91.5 -195t-232.5 -77h-138l-37 -211h-95zM193 299h147q87 0 145 49t58 121q0 57 -40.5 90t-109.5 33h-149z" />
    <glyph glyph-name="Q" unicode="Q" horiz-adv-x="828" 
d="M792 392q0 -103 -55.5 -193.5t-146.5 -147.5l123 -149l-71 -65l-142 171q-64 -22 -127 -22q-132 0 -216.5 86.5t-84.5 215.5q0 107 60 201.5t157 149.5t202 55q132 0 216.5 -86.5t84.5 -215.5zM171 298q0 -94 57.5 -157.5t153.5 -63.5q122 0 217.5 91t95.5 216
q0 94 -58 156.5t-155 62.5q-124 0 -217.5 -91t-93.5 -214z" />
    <glyph glyph-name="R" unicode="R" horiz-adv-x="690" 
d="M657 490q0 -91 -58.5 -156t-154.5 -88l163 -246h-110l-156 235h-160l-41 -235h-95l120 680h253q108 0 173.5 -51t65.5 -139zM197 323h168q83 0 139.5 42.5t56.5 110.5q0 54 -41 85t-108 31h-168z" />
    <glyph glyph-name="S" unicode="S" horiz-adv-x="664" 
d="M409 695q106 0 173 -51t60 -157h-94q1 59 -35.5 92.5t-111.5 33.5q-78 0 -126.5 -35.5t-48.5 -92.5q0 -68 108 -90l91 -19q168 -33 168 -154q0 -104 -84 -170t-214 -66q-124 0 -189.5 62t-56.5 172h94q-2 -75 40.5 -112t131.5 -37q79 0 128 35t49 91q0 69 -98 87l-112 22
q-164 32 -160 169q4 103 87.5 161.5t199.5 58.5z" />
    <glyph glyph-name="T" unicode="T" horiz-adv-x="641" 
d="M676 592h-246l-104 -592h-95l104 592h-244l15 88h585z" />
    <glyph glyph-name="U" unicode="U" horiz-adv-x="744" 
d="M745 680l-68 -385q-26 -147 -117 -228.5t-233 -81.5q-131 0 -197.5 88.5t-42.5 221.5l68 385h95l-68 -385q-17 -98 25 -159.5t135 -61.5q90 0 156.5 62t83.5 159l68 385h95z" />
    <glyph glyph-name="V" unicode="V" horiz-adv-x="758" 
d="M810 680l-431 -684h-89l-190 684h101l151 -551l348 551h110z" />
    <glyph glyph-name="W" unicode="W" horiz-adv-x="1071" 
d="M1110 680l-350 -684h-94l-83 506l-268 -506h-93l-109 684h101l79 -524l278 524h82l85 -531l268 531h104z" />
    <glyph glyph-name="X" unicode="X" horiz-adv-x="664" 
d="M414 337l190 -337h-111l-155 265l-242 -265h-119l305 342l-178 338h117l138 -261l232 261h125z" />
    <glyph glyph-name="Y" unicode="Y" horiz-adv-x="672" 
d="M383 236l-41 -236h-97l42 236l-199 444h106l152 -340l273 340h119z" />
    <glyph glyph-name="Z" unicode="Z" horiz-adv-x="654" 
d="M663 633l-481 -546h388l-15 -87h-545l8 47l494 546h-384l15 87h528z" />
    <glyph glyph-name="bracketleft" unicode="[" horiz-adv-x="371" 
d="M130 -41h141l-15 -88h-233l151 859h233l-16 -88h-141z" />
    <glyph glyph-name="backslash" unicode="\" horiz-adv-x="404" 
d="M116 730l260 -890h-88l-260 890h88z" />
    <glyph glyph-name="bracketright" unicode="]" horiz-adv-x="371" 
d="M265 642h-141l15 88h233l-151 -859h-233l16 88h141z" />
    <glyph glyph-name="asciicircum" unicode="^" horiz-adv-x="403" 
d="M406 444h-85l-60 167l-119 -167h-85l175 236h82z" />
    <glyph glyph-name="underscore" unicode="_" horiz-adv-x="648" 
d="M-22 -114h568l-15 -81h-568z" />
    <glyph glyph-name="grave" unicode="`" 
d="M379 560h-84l-96 146h102z" />
    <glyph glyph-name="a" unicode="a" horiz-adv-x="615" 
d="M580 467l-82 -467h-92l7 42q-73 -54 -165 -54q-89 0 -144 58t-55 150q0 114 87 198.5t199 84.5q91 0 147 -54l7 42h91zM275 68q92 0 156 75l32 180q-37 76 -129 76q-76 0 -133.5 -57.5t-57.5 -133.5q0 -61 36.5 -100.5t95.5 -39.5z" />
    <glyph glyph-name="b" unicode="b" horiz-adv-x="614" 
d="M363 479q87 0 143 -59.5t56 -148.5q0 -114 -87 -198t-199 -84q-91 0 -146 53l-7 -42h-92l125 710h92l-50 -284q72 53 165 53zM278 68q76 0 133.5 58t57.5 133q0 59 -37 99.5t-96 40.5q-91 0 -156 -75l-32 -181q39 -75 130 -75z" />
    <glyph glyph-name="c" unicode="c" horiz-adv-x="573" 
d="M325 395q-68 0 -119 -46.5t-63 -115.5q-13 -70 21.5 -115.5t103.5 -45.5q50 0 90 25.5t57 67.5h95q-27 -79 -98.5 -128t-158.5 -49q-110 0 -165.5 68.5t-36.5 176.5q18 105 101 175.5t188 70.5q87 0 141 -49.5t53 -128.5h-95q-2 43 -33 68.5t-81 25.5z" />
    <glyph glyph-name="d" unicode="d" horiz-adv-x="615" 
d="M623 710l-126 -710h-91l7 42q-74 -53 -165 -53q-87 0 -143.5 59.5t-56.5 148.5q0 114 87 198t199 84q93 0 147 -54l51 285h91zM275 68q90 0 157 77l31 178q-39 76 -130 76q-76 0 -133.5 -57.5t-57.5 -132.5q0 -59 37 -100t96 -41z" />
    <glyph glyph-name="e" unicode="e" horiz-adv-x="576" 
d="M337 479q101 0 153 -67t36 -174q-4 -23 -10 -40l-2 1v-1h-375q0 -57 34.5 -93.5t96.5 -36.5q85 0 121 56h102q-30 -62 -93.5 -99t-144.5 -37q-107 0 -164.5 71t-39.5 174q18 105 99.5 175.5t186.5 70.5zM325 402q-63 0 -108.5 -38t-65.5 -97h288q7 63 -24 99t-90 36z" />
    <glyph glyph-name="f" unicode="f" horiz-adv-x="418" 
d="M410 673q-47 0 -80.5 -28.5t-41.5 -75.5l-18 -102h186l-14 -77h-185l-69 -390h-91l68 390h-134l14 77h134l18 103q15 85 73 136.5t138 51.5q52 0 100 -14l-28 -80q-41 9 -70 9z" />
    <glyph glyph-name="g" unicode="g" horiz-adv-x="615" 
d="M580 467l-84 -474q-19 -106 -95 -169t-181 -63q-94 0 -150.5 51t-52.5 133h93q1 -46 34 -73.5t91 -27.5q64 0 111 40t58 109l12 68q-75 -53 -168 -53q-87 0 -142 59t-55 143q0 113 84.5 194t196.5 81q95 0 150 -55l7 37h91zM275 87q93 0 160 77l29 163q-38 78 -133 78
q-77 0 -132 -54.5t-55 -128.5q0 -55 36 -95t95 -40z" />
    <glyph glyph-name="h" unicode="h" horiz-adv-x="589" 
d="M372 482q91 0 136 -59.5t27 -158.5l-46 -264h-92l46 259q12 66 -16 103t-87 37q-81 0 -154 -78l-57 -321h-92l125 710h92l-51 -290q78 62 169 62z" />
    <glyph glyph-name="i" unicode="i" horiz-adv-x="273" 
d="M207 583q-26 0 -43 16.5t-17 41.5t17 41.5t43 16.5q25 0 42 -16.5t17 -41.5t-17 -41.5t-42 -16.5zM225 467l-82 -467h-92l82 467h92z" />
    <glyph glyph-name="j" unicode="j" horiz-adv-x="259" 
d="M209 583q-25 0 -42 16.5t-17 41.5t17 41.5t42 16.5t42.5 -16.5t17.5 -41.5t-17.5 -41.5t-42.5 -16.5zM226 467l-79 -449q-19 -105 -68.5 -153.5t-155.5 -49.5l7 80q59 5 86 29t37 83l81 460h92z" />
    <glyph glyph-name="k" unicode="k" horiz-adv-x="569" 
d="M324 272l179 -272h-119l-135 208l-109 -92l-21 -116h-92l126 710h92l-84 -471l274 228h119z" />
    <glyph glyph-name="l" unicode="l" horiz-adv-x="244" 
d="M252 710l-126 -710h-92l126 710h92z" />
    <glyph glyph-name="m" unicode="m" horiz-adv-x="904" 
d="M687 482q86 0 130.5 -60t26.5 -158l-46 -264h-91l45 259q12 67 -13.5 103.5t-84.5 36.5q-79 0 -142 -78q0 -32 -5 -57l-46 -264h-92l46 259q12 67 -14 103.5t-85 36.5q-72 0 -136 -76l-57 -323h-92l83 467h91l-8 -43q68 58 152 58q101 0 142 -78q87 78 196 78z" />
    <glyph glyph-name="n" unicode="n" horiz-adv-x="589" 
d="M366 482q91 0 136 -59.5t27 -158.5l-46 -264h-91l45 259q12 66 -16 103t-87 37q-80 0 -155 -78l-56 -321h-92l83 467h91l-8 -47q78 62 169 62z" />
    <glyph glyph-name="o" unicode="o" horiz-adv-x="602" 
d="M344 479q93 0 151 -58.5t58 -149.5q0 -118 -88.5 -202t-207.5 -84q-93 0 -151 59t-58 151q0 118 88.5 201t207.5 83zM272 69q76 0 132 56.5t56 133.5q0 58 -36 97t-94 39q-77 0 -133 -55.5t-56 -132.5q0 -60 35.5 -99t95.5 -39z" />
    <glyph glyph-name="p" unicode="p" horiz-adv-x="613" 
d="M365 479q87 0 143.5 -60t56.5 -149q0 -114 -85.5 -198t-200.5 -84q-93 0 -147 54l-51 -285h-91l126 710h91l-7 -42q73 54 165 54zM280 68q76 0 133.5 57.5t57.5 132.5q0 59 -37 100t-96 41q-91 0 -157 -76l-31 -179q39 -76 130 -76z" />
    <glyph glyph-name="q" unicode="q" horiz-adv-x="612" 
d="M577 467l-125 -710h-92l50 285q-73 -54 -166 -54q-87 0 -143 60t-56 148q0 114 87 198.5t199 84.5q91 0 147 -54l7 42h92zM271 68q92 0 157 76l32 180q-38 75 -130 75q-76 0 -133.5 -57.5t-57.5 -133.5q0 -59 36.5 -99.5t95.5 -40.5z" />
    <glyph glyph-name="r" unicode="r" horiz-adv-x="369" 
d="M205 467l-12 -70q83 81 191 81l-15 -87q-114 -3 -194 -92l-52 -299h-92l83 467h91z" />
    <glyph glyph-name="s" unicode="s" horiz-adv-x="519" 
d="M34 152l86 -1q0 -91 118 -91q55 0 89 20.5t34 54.5q0 44 -59 54l-101 18q-118 20 -118 110q0 74 61.5 119t157.5 45q36 0 67.5 -7.5t59 -24t42 -47.5t10.5 -73l-86 -1q4 40 -24.5 60.5t-80.5 20.5t-82.5 -20t-30.5 -51q0 -44 68 -56l88 -15q119 -21 119 -112
q0 -79 -64.5 -124.5t-163.5 -45.5q-89 0 -142.5 41t-47.5 126z" />
    <glyph glyph-name="t" unicode="t" horiz-adv-x="438" 
d="M243 390l-38 -216q-8 -48 10.5 -76t61.5 -28q39 0 87 13l-1 -80q-63 -18 -107 -18q-77 0 -117 53.5t-26 135.5l38 216h-115l13 77h116l30 172h92l-30 -172h174l-13 -77h-175z" />
    <glyph glyph-name="u" unicode="u" horiz-adv-x="599" 
d="M558 467l-83 -467h-91l8 47q-78 -62 -170 -62q-90 0 -135 59.5t-28 159.5l46 263h92l-45 -258q-12 -67 16 -103.5t87 -36.5q80 0 155 78l56 320h92z" />
    <glyph glyph-name="v" unicode="v" horiz-adv-x="575" 
d="M588 467l-292 -467h-91l-137 467h98l101 -349l222 349h99z" />
    <glyph glyph-name="w" unicode="w" horiz-adv-x="786" 
d="M799 467l-248 -467h-91l-52 319l-164 -319h-82l-93 467h99l60 -323l167 323h78l53 -322l174 322h99z" />
    <glyph glyph-name="x" unicode="x" horiz-adv-x="544" 
d="M334 234l143 -234h-109l-106 170l-163 -170h-115l227 235l-141 233h112l102 -166l159 166h116z" />
    <glyph glyph-name="y" unicode="y" horiz-adv-x="607" 
d="M617 468l-441 -710h-104l143 229l-148 481h99l114 -375l234 375h103z" />
    <glyph glyph-name="z" unicode="z" horiz-adv-x="495" 
d="M485 416l-334 -339h274l-13 -77h-411l8 45l340 345h-270l13 77h402z" />
    <glyph glyph-name="braceleft" unicode="{" horiz-adv-x="355" 
d="M275 566l-24 -135q-9 -56 -29.5 -84.5t-65.5 -42.5q40 -14 50.5 -44t-0.5 -82l-23 -135q-7 -41 14 -65.5t64 -24.5l-16 -89q-83 0 -125.5 49t-28.5 130l24 132q9 53 -8.5 71t-69.5 18l14 81q52 0 76 18t33 70l23 133q14 80 74 129.5t143 49.5l-16 -89q-41 0 -71.5 -26
t-37.5 -64z" />
    <glyph glyph-name="bar" unicode="|" horiz-adv-x="259" 
d="M260 730l-157 -890h-86l157 890h86z" />
    <glyph glyph-name="braceright" unicode="}" horiz-adv-x="354" 
d="M105 43l23 135q9 55 30 83.5t66 42.5q-40 14 -50.5 43t-0.5 84l24 135q7 40 -14.5 65t-63.5 25l16 89q83 0 125 -49.5t28 -129.5l-23 -133q-9 -53 8 -70.5t70 -17.5l-15 -82q-53 0 -76 -17.5t-32 -70.5l-24 -132q-14 -81 -74 -130t-143 -49l16 89q42 0 72 25.5t38 64.5z
" />
    <glyph glyph-name="asciitilde" unicode="~" horiz-adv-x="451" 
d="M353 400h81q0 -44 -17.5 -74t-44 -41.5t-55.5 -10t-53 15.5l-60 39q-27 16 -46.5 5t-19.5 -39h-81q0 43 18 73t44 41.5t55 10t53 -15.5l60 -39q28 -16 47 -5t19 40z" />
    <glyph glyph-name="exclamdown" unicode="&#xa1;" horiz-adv-x="272" 
d="M166 480q24 0 41.5 -17t17.5 -41t-17.5 -40.5t-41.5 -16.5q-25 0 -42.5 16.5t-17.5 40.5q0 25 17.5 41.5t42.5 16.5zM97 274h82l-78 -483h-96z" />
    <glyph glyph-name="cent" unicode="&#xa2;" horiz-adv-x="573" 
d="M325 395q-68 0 -119.5 -46.5t-63.5 -115.5h1q-12 -71 22.5 -116t103.5 -45q50 0 89.5 25.5t57.5 67.5h94q-25 -71 -86 -118.5t-138 -56.5l-20 -109h-83l20 112q-86 16 -127 81t-25 159h-1q16 91 82 157.5t156 83.5l22 125h83l-22 -122q74 -9 118.5 -56.5t43.5 -119.5h-94
q-3 43 -33.5 68.5t-80.5 25.5z" />
    <glyph glyph-name="sterling" unicode="&#xa3;" horiz-adv-x="623" 
d="M625 494h-93q1 55 -32 87t-91 32q-67 0 -115 -41.5t-60 -110.5l-18 -101h222l-14 -80h-222l-35 -200h376l-15 -80h-537l15 80h69l35 200h-69l14 80h69l18 101q19 105 96 169.5t185 64.5q99 0 153.5 -54.5t48.5 -146.5z" />
    <glyph glyph-name="yen" unicode="&#xa5;" horiz-adv-x="672" 
d="M417 277h158l-12 -68h-185l-10 -59h184l-12 -69h-184l-14 -81h-97l14 81h-178l12 69h179l10 59h-178l12 68h153l-181 403h106l152 -341l273 341h120z" />
    <glyph glyph-name="brokenbar" unicode="&#xa6;" horiz-adv-x="259" 
d="M191 336h-86l69 394h86zM103 -160h-86l70 394h86z" />
    <glyph glyph-name="section" unicode="&#xa7;" horiz-adv-x="543" 
d="M526 514h-99q2 43 -22 68.5t-72 25.5q-47 0 -79.5 -25t-32.5 -67q0 -43 69 -79l100 -51q112 -59 112 -138q0 -104 -108 -148q24 -34 24 -74q0 -84 -63.5 -134.5t-157.5 -50.5q-88 0 -136.5 47.5t-43.5 128.5h99q-2 -43 22 -68t72 -25t80 24.5t32 66.5q0 25 -15.5 42.5
t-52.5 36.5l-101 51q-111 55 -111 138q0 104 108 148q-25 33 -25 75q0 84 63.5 134t157.5 50q88 0 136.5 -48t43.5 -128zM231 367l-16 9q-33 -5 -56 -26.5t-23 -52.5q0 -44 71 -79l105 -53l18 -10q33 5 55 27t22 52q0 42 -71 79z" />
    <glyph glyph-name="dieresis" unicode="&#xa8;" 
d="M228 674q25 0 41.5 -16.5t16.5 -40.5t-16.5 -40t-41.5 -16t-41.5 16t-16.5 40t16.5 40.5t41.5 16.5zM419 674q25 0 42 -16.5t17 -40.5t-17 -40t-42 -16t-41.5 16t-16.5 40t16.5 40.5t41.5 16.5z" />
    <glyph glyph-name="copyright" unicode="&#xa9;" horiz-adv-x="850" 
d="M438 695q150 0 257 -102t107 -253t-107 -253t-257 -102t-257 102t-107 253t107 253t257 102zM437 47q122 0 210.5 85t88.5 208t-88.5 208t-210.5 85t-210 -85t-88 -208t88 -208t210 -85zM439 450q-46 0 -78 -32.5t-32 -78.5q0 -47 32 -79.5t78 -32.5q34 0 61 18.5
t37 48.5h72q-12 -59 -59 -95.5t-111 -36.5q-75 0 -127 51t-52 126t52 126t127 51q64 0 111 -36.5t59 -95.5h-72q-10 29 -37 47.5t-61 18.5z" />
    <glyph glyph-name="ordfeminine" unicode="&#xaa;" horiz-adv-x="353" 
d="M258 685q62 0 93 -37.5t19 -101.5l-31 -181h-64l3 20q-50 -27 -102 -27q-53 0 -83.5 22.5t-30.5 62.5q0 49 36.5 76t100.5 27h107q7 37 -6.5 60t-51.5 23q-29 0 -51.5 -13t-29.5 -36h-66q13 51 58 78t99 27zM189 412q51 0 100 32l9 54h-111q-29 0 -45 -12.5t-16 -31.5
q0 -18 16 -30t47 -12z" />
    <glyph glyph-name="guillemotleft" unicode="&#xab;" horiz-adv-x="439" 
d="M250 402l-130 -154l76 -146h-90l-76 150l130 150h90zM422 402l-129 -154l76 -146h-90l-77 150l130 150h90z" />
    <glyph glyph-name="registered" unicode="&#xae;" horiz-adv-x="560" 
d="M317 693q100 0 171.5 -68.5t71.5 -168.5t-71.5 -168t-171.5 -68t-171.5 68t-71.5 168t71.5 168.5t171.5 68.5zM317 270q77 0 133 54t56 132t-56 132.5t-133 54.5t-133.5 -54t-56.5 -133q0 -78 56.5 -132t133.5 -54zM413 496q0 -51 -52 -68l59 -76h-50l-54 71h-40v-71h-39
v219h92q36 0 60 -21t24 -54zM276 459h53q19 0 31 10.5t12 27.5q0 16 -12 26.5t-31 10.5h-53v-75z" />
    <glyph glyph-name="macron" unicode="&#xaf;" 
d="M467 647l-13 -67h-279l13 67h279z" />
    <glyph glyph-name="degree" unicode="&#xb0;" horiz-adv-x="479" 
d="M291 695q73 0 121.5 -47.5t48.5 -118.5t-48.5 -118.5t-121.5 -47.5t-121.5 47.5t-48.5 118.5t48.5 118.5t121.5 47.5zM291 433q41 0 69.5 28t28.5 68t-28.5 68.5t-69.5 28.5t-69.5 -28.5t-28.5 -68.5t28.5 -68t69.5 -28z" />
    <glyph glyph-name="plusminus" unicode="&#xb1;" horiz-adv-x="684" 
d="M591 323h-189l-26 -148h-89l26 148h-190l15 85h190l26 149h89l-26 -149h189zM556 126l-15 -86h-468l15 86h468z" />
    <glyph glyph-name="twosuperior" unicode="&#xb2;" horiz-adv-x="363" 
d="M177 356h167l-11 -59h-281l6 37l165 144q49 41 66.5 62t17.5 46q0 22 -15 35t-41 13q-68 0 -83 -63h-70q12 57 54.5 91.5t106.5 34.5q57 0 88.5 -28.5t31.5 -70.5q0 -36 -21 -67.5t-80 -84.5z" />
    <glyph glyph-name="threesuperior" unicode="&#xb3;" horiz-adv-x="375" 
d="M317 496q43 -23 43 -72q0 -56 -44 -94.5t-115 -38.5q-63 0 -100.5 31.5t-36.5 83.5h71q2 -53 70 -53q38 0 62.5 18.5t24.5 46.5q0 48 -72 48h-33l11 57h32q34 0 56.5 19t22.5 47q0 22 -15 34.5t-43 12.5q-59 0 -75 -52h-70q14 53 56 83.5t100 30.5q54 0 84 -27.5
t30 -71.5q0 -68 -59 -103z" />
    <glyph glyph-name="acute" unicode="&#xb4;" 
d="M469 706l-121 -146h-85l104 146h102z" />
    <glyph glyph-name="paragraph" unicode="&#xb6;" horiz-adv-x="752" 
d="M676 680v-840h-95v758h-118v-758h-95v382h-88q-107 0 -178 65t-71 168q0 100 71 162.5t178 62.5h396zM368 598h-88q-68 0 -112 -40t-44 -103q0 -65 44 -106t112 -41h88v290z" />
    <glyph glyph-name="periodcentered" unicode="&#xb7;" horiz-adv-x="193" 
d="M100 209q-24 0 -41.5 16.5t-17.5 40.5t17.5 40.5t41.5 16.5q25 0 42.5 -16.5t17.5 -40.5t-17.5 -40.5t-42.5 -16.5z" />
    <glyph glyph-name="cedilla" unicode="&#xb8;" 
d="M251 -213h-81l72 150h92z" />
    <glyph glyph-name="onesuperior" unicode="&#xb9;" horiz-adv-x="321" 
d="M326 359l-11 -59h-281l11 59h109l45 257l-109 -32l10 61l143 46h37l-59 -332h105z" />
    <glyph glyph-name="ordmasculine" unicode="&#xba;" horiz-adv-x="388" 
d="M276 687q62 0 101 -39t39 -100q0 -79 -59 -135.5t-139 -56.5q-62 0 -100.5 40t-38.5 101q0 79 59 134.5t138 55.5zM229 416q49 0 84.5 36.5t35.5 86.5q0 38 -23 63t-60 25q-50 0 -85 -36t-35 -86q0 -39 22.5 -64t60.5 -25z" />
    <glyph glyph-name="guillemotright" unicode="&#xbb;" horiz-adv-x="439" 
d="M23 102l130 154l-76 146h90l76 -150l-129 -150h-91zM195 102l130 154l-76 146h90l76 -150l-129 -150h-91z" />
    <glyph glyph-name="onequarter" unicode="&#xbc;" horiz-adv-x="893" 
d="M34 290l11 59h109l45 257l-109 -32l10 61l143 46h37l-59 -332h105l-11 -59h-281zM725 680l-458 -680h-67l458 680h67zM832 79h-58l-14 -79h-68l14 79h-214l8 44l165 268h73l-151 -251h129l20 115h69l-20 -115h57z" />
    <glyph glyph-name="onehalf" unicode="&#xbd;" horiz-adv-x="886" 
d="M34 290l11 59h109l45 257l-109 -32l10 61l143 46h37l-59 -332h105l-11 -59h-281zM716 680l-458 -680h-67l458 680h67zM650 59h167l-11 -59h-281l6 37l165 144q49 41 66.5 62t17.5 46q0 22 -15 35t-41 13q-68 0 -83 -63h-70q12 57 54.5 91.5t106.5 34.5q57 0 88.5 -28.5
t31.5 -70.5q0 -36 -21 -67.5t-80 -84.5z" />
    <glyph glyph-name="threequarters" unicode="&#xbe;" horiz-adv-x="880" 
d="M360 418q0 -56 -44 -94.5t-115 -38.5q-63 0 -100.5 31.5t-36.5 83.5h71q2 -53 70 -53q38 0 62.5 18.5t24.5 46.5q0 48 -72 48h-33l11 57h32q34 0 56.5 19t22.5 47q0 22 -15 34.5t-43 12.5q-59 0 -75 -52h-70q14 53 56 83.5t100 30.5q54 0 84 -27.5t30 -71.5
q0 -68 -59 -103q43 -23 43 -72zM711 680l-457 -680h-67l457 680h67zM818 79h-58l-14 -79h-69l14 79h-213l7 44l166 268h73l-151 -251h129l20 115h69l-20 -115h57z" />
    <glyph glyph-name="questiondown" unicode="&#xbf;" horiz-adv-x="551" 
d="M341 435q-25 0 -42.5 16.5t-17.5 40.5q0 25 17.5 41.5t42.5 16.5q24 0 41.5 -17t17.5 -41t-17.5 -40.5t-41.5 -16.5zM213 -151q-90 0 -143.5 50t-53.5 132q0 93 68 156t173 70l19 86h72l-18 -150h-55q-69 0 -118.5 -44t-49.5 -108q0 -49 31 -80t83 -31q49 0 90.5 28.5
t57.5 74.5h92q-25 -84 -92.5 -134t-155.5 -50z" />
    <glyph glyph-name="Agrave" unicode="&#xc0;" horiz-adv-x="748" 
d="M420 757l-96 146h102l78 -146h-84zM533 175h-337l-107 -175h-106l424 684h90l183 -684h-102zM510 263l-77 300l-183 -300h260z" />
    <glyph glyph-name="Aacute" unicode="&#xc1;" horiz-adv-x="748" 
d="M507 757h-85l104 146h102zM533 175h-337l-107 -175h-106l424 684h90l183 -684h-102zM510 263l-77 300l-183 -300h260z" />
    <glyph glyph-name="Acircumflex" unicode="&#xc2;" horiz-adv-x="748" 
d="M394 758h-92l148 149h92l94 -149h-83l-64 97zM533 175h-337l-107 -175h-106l424 684h90l183 -684h-102zM510 263l-77 300l-183 -300h260z" />
    <glyph glyph-name="Atilde" unicode="&#xc3;" horiz-adv-x="748" 
d="M375 792h-64q-1 37 14.5 61.5t39 33t50 7t49.5 -13.5l33 -18q32 -17 52 -8t20 37h64q0 -37 -14.5 -62t-37.5 -34t-50 -7t-52 15l-33 18q-29 16 -50 7t-21 -36zM533 175h-337l-107 -175h-106l424 684h90l183 -684h-102zM510 263l-77 300l-183 -300h260z" />
    <glyph glyph-name="Adieresis" unicode="&#xc4;" horiz-adv-x="748" 
d="M378 765q-25 0 -41.5 16t-16.5 40t16.5 40.5t41.5 16.5t41.5 -16.5t16.5 -40.5t-16.5 -40t-41.5 -16zM569 765q-25 0 -41.5 16t-16.5 40t16.5 40.5t41.5 16.5t42 -16.5t17 -40.5t-17 -40t-42 -16zM533 175h-337l-107 -175h-106l424 684h90l183 -684h-102zM510 263
l-77 300l-183 -300h260z" />
    <glyph glyph-name="Aring" unicode="&#xc5;" horiz-adv-x="748" 
d="M474 767q-46 0 -75.5 28.5t-29.5 72.5t29.5 72t75.5 28q47 0 76.5 -28t29.5 -72t-29.5 -72.5t-76.5 -28.5zM474 919q-22 0 -37 -14.5t-15 -36.5t15 -37t37 -15q23 0 37.5 14.5t14.5 37.5q0 22 -14.5 36.5t-37.5 14.5zM533 175h-337l-107 -175h-106l424 684h90l183 -684
h-102zM510 263l-77 300l-183 -300h260z" />
    <glyph glyph-name="AE" unicode="&#xc6;" horiz-adv-x="1137" 
d="M748 592l-37 -211h348l-15 -88h-348l-36 -205h388l-16 -88h-483l31 175h-305l-168 -175h-131l667 680h509l-16 -88h-388zM595 263l54 303l-290 -303h236z" />
    <glyph glyph-name="Ccedilla" unicode="&#xc7;" horiz-adv-x="799" 
d="M384 78q81 0 153.5 47.5t105.5 125.5h98q-45 -119 -146 -192t-226 -73q-148 0 -233.5 101t-59.5 253q27 150 148 252t269 102q125 0 201 -73t78 -192h-98q-6 81 -58.5 127t-139.5 46q-111 0 -197 -75t-106 -187q-19 -114 41.5 -188t169.5 -74zM301 -63h92l-83 -150h-81z
" />
    <glyph glyph-name="Egrave" unicode="&#xc8;" horiz-adv-x="632" 
d="M361 757l-96 146h102l78 -146h-84zM235 592l-37 -211h349l-16 -88h-348l-36 -205h388l-16 -88h-483l120 680h484l-16 -88h-389z" />
    <glyph glyph-name="Eacute" unicode="&#xc9;" horiz-adv-x="632" 
d="M448 757h-85l104 146h102zM235 592l-37 -211h349l-16 -88h-348l-36 -205h388l-16 -88h-483l120 680h484l-16 -88h-389z" />
    <glyph glyph-name="Ecircumflex" unicode="&#xca;" horiz-adv-x="632" 
d="M335 758h-92l148 149h92l94 -149h-83l-64 97zM235 592l-37 -211h349l-16 -88h-348l-36 -205h388l-16 -88h-483l120 680h484l-16 -88h-389z" />
    <glyph glyph-name="Edieresis" unicode="&#xcb;" horiz-adv-x="632" 
d="M319 765q-25 0 -41.5 16t-16.5 40t16.5 40.5t41.5 16.5t41.5 -16.5t16.5 -40.5t-16.5 -40t-41.5 -16zM510 765q-25 0 -41.5 16t-16.5 40t16.5 40.5t41.5 16.5t42 -16.5t17 -40.5t-17 -40t-42 -16zM235 592l-37 -211h349l-16 -88h-348l-36 -205h388l-16 -88h-483l120 680
h484l-16 -88h-389z" />
    <glyph glyph-name="Igrave" unicode="&#xcc;" horiz-adv-x="267" 
d="M265 757h-84l-96 146h102zM140 0h-95l120 680h95z" />
    <glyph glyph-name="Iacute" unicode="&#xcd;" horiz-adv-x="267" 
d="M389 903l-121 -146h-85l104 146h102zM140 0h-95l120 680h95z" />
    <glyph glyph-name="Icircumflex" unicode="&#xce;" horiz-adv-x="267" 
d="M251 855l-95 -97h-92l148 149h92l94 -149h-83zM140 0h-95l120 680h95z" />
    <glyph glyph-name="Idieresis" unicode="&#xcf;" horiz-adv-x="267" 
d="M140 878q25 0 41.5 -16.5t16.5 -40.5t-16.5 -40t-41.5 -16t-41.5 16t-16.5 40t16.5 40.5t41.5 16.5zM331 878q25 0 42 -16.5t17 -40.5t-17 -40t-42 -16t-41.5 16t-16.5 40t16.5 40.5t41.5 16.5zM140 0h-95l120 680h95z" />
    <glyph glyph-name="Eth" unicode="&#xd0;" horiz-adv-x="753" 
d="M165 680h245q138 0 222.5 -79.5t84.5 -204.5q0 -167 -125 -281.5t-302 -114.5h-245l52 297h-77l16 88h77zM156 88h150q128 0 220 85.5t92 208.5q0 92 -61.5 151t-161.5 59h-151l-36 -207h147l-15 -88h-148z" />
    <glyph glyph-name="Ntilde" unicode="&#xd1;" horiz-adv-x="761" 
d="M368 791h-64q-1 37 14.5 61.5t39 33t50 7t49.5 -13.5l33 -18q32 -17 52 -8t20 37h64q0 -37 -14.5 -62t-37.5 -34t-50 -7t-52 15l-33 18q-29 16 -50 7t-21 -36zM753 680l-120 -680h-76l-327 508l-90 -508h-95l120 680h62l339 -521l92 521h95z" />
    <glyph glyph-name="Ograve" unicode="&#xd2;" horiz-adv-x="828" 
d="M556 757h-84l-96 146h102zM491 694q132 0 216.5 -86.5t84.5 -215.5q0 -107 -60 -201.5t-157 -149.5t-202 -55q-132 0 -216.5 86.5t-84.5 215.5q0 107 60 201.5t157 149.5t202 55zM382 77q122 0 217.5 91t95.5 216q0 94 -58 156.5t-155 62.5q-124 0 -217.5 -91t-93.5 -214
q0 -94 57.5 -157.5t153.5 -63.5z" />
    <glyph glyph-name="Oacute" unicode="&#xd3;" horiz-adv-x="828" 
d="M680 903l-121 -146h-85l104 146h102zM491 694q132 0 216.5 -86.5t84.5 -215.5q0 -107 -60 -201.5t-157 -149.5t-202 -55q-132 0 -216.5 86.5t-84.5 215.5q0 107 60 201.5t157 149.5t202 55zM382 77q122 0 217.5 91t95.5 216q0 94 -58 156.5t-155 62.5q-124 0 -217.5 -91
t-93.5 -214q0 -94 57.5 -157.5t153.5 -63.5z" />
    <glyph glyph-name="Ocircumflex" unicode="&#xd4;" horiz-adv-x="828" 
d="M541 855l-95 -97h-92l148 149h92l94 -149h-83zM491 694q132 0 216.5 -86.5t84.5 -215.5q0 -107 -60 -201.5t-157 -149.5t-202 -55q-132 0 -216.5 86.5t-84.5 215.5q0 107 60 201.5t157 149.5t202 55zM382 77q122 0 217.5 91t95.5 216q0 94 -58 156.5t-155 62.5
q-124 0 -217.5 -91t-93.5 -214q0 -94 57.5 -157.5t153.5 -63.5z" />
    <glyph glyph-name="Otilde" unicode="&#xd5;" horiz-adv-x="828" 
d="M621 891h64q0 -37 -14.5 -62t-37.5 -34t-50 -7t-52 15l-33 18q-29 16 -50 7t-21 -36h-64q-1 37 14.5 61.5t39 33t50 7t49.5 -13.5l33 -18q32 -17 52 -8t20 37zM491 694q132 0 216.5 -86.5t84.5 -215.5q0 -107 -60 -201.5t-157 -149.5t-202 -55q-132 0 -216.5 86.5
t-84.5 215.5q0 107 60 201.5t157 149.5t202 55zM382 77q122 0 217.5 91t95.5 216q0 94 -58 156.5t-155 62.5q-124 0 -217.5 -91t-93.5 -214q0 -94 57.5 -157.5t153.5 -63.5z" />
    <glyph glyph-name="Odieresis" unicode="&#xd6;" horiz-adv-x="830" 
d="M436 878q25 0 41.5 -16.5t16.5 -40.5t-16.5 -40t-41.5 -16t-41.5 16t-16.5 40t16.5 40.5t41.5 16.5zM627 878q25 0 42 -16.5t17 -40.5t-17 -40t-42 -16t-41.5 16t-16.5 40t16.5 40.5t41.5 16.5zM491 694q132 0 216.5 -86.5t84.5 -215.5q0 -107 -60 -201.5t-157 -149.5
t-202 -55q-132 0 -216.5 86.5t-84.5 215.5q0 107 60 201.5t157 149.5t202 55zM382 77q122 0 217.5 91t95.5 216q0 94 -58 156.5t-155 62.5q-124 0 -217.5 -91t-93.5 -214q0 -94 57.5 -157.5t153.5 -63.5z" />
    <glyph glyph-name="multiply" unicode="&#xd7;" horiz-adv-x="670" 
d="M524 168l-72 -60l-124 152l-179 -152l-51 61l178 152l-123 151l71 60l124 -150l178 151l51 -61l-178 -152z" />
    <glyph glyph-name="Oslash" unicode="&#xd8;" horiz-adv-x="830" 
d="M791 649l-64 -63q65 -82 65 -194q0 -107 -60 -201.5t-157 -149.5t-202 -55q-109 0 -191 63l-67 -66l-57 57l69 68q-55 79 -55 180q0 107 60 201.5t157 149.5t202 55q100 0 177 -53l66 64zM171 298q0 -66 29 -118l399 392q-50 31 -117 31q-124 0 -217.5 -91t-93.5 -214z
M382 77q122 0 217.5 91t95.5 216q0 76 -39 132l-403 -397q51 -42 129 -42z" />
    <glyph glyph-name="Ugrave" unicode="&#xd9;" horiz-adv-x="744" 
d="M491 757h-84l-96 146h102zM744 680l-67 -385q-26 -147 -117 -228.5t-233 -81.5q-131 0 -197.5 88t-42.5 222l67 385h96l-68 -385q-18 -98 24.5 -159.5t135.5 -61.5q90 0 156 62t83 159l68 385h95z" />
    <glyph glyph-name="Uacute" unicode="&#xda;" horiz-adv-x="744" 
d="M615 903l-121 -146h-85l104 146h102zM744 680l-67 -385q-26 -147 -117 -228.5t-233 -81.5q-131 0 -197.5 88t-42.5 222l67 385h96l-68 -385q-18 -98 24.5 -159.5t135.5 -61.5q90 0 156 62t83 159l68 385h95z" />
    <glyph glyph-name="Ucircumflex" unicode="&#xdb;" horiz-adv-x="744" 
d="M477 855l-95 -97h-92l148 149h92l94 -149h-83zM744 680l-67 -385q-26 -147 -117 -228.5t-233 -81.5q-131 0 -197.5 88t-42.5 222l67 385h96l-68 -385q-18 -98 24.5 -159.5t135.5 -61.5q90 0 156 62t83 159l68 385h95z" />
    <glyph glyph-name="Udieresis" unicode="&#xdc;" horiz-adv-x="744" 
d="M366 878q25 0 41.5 -16.5t16.5 -40.5t-16.5 -40t-41.5 -16t-41.5 16t-16.5 40t16.5 40.5t41.5 16.5zM557 878q25 0 42 -16.5t17 -40.5t-17 -40t-42 -16t-41.5 16t-16.5 40t16.5 40.5t41.5 16.5zM744 680l-67 -385q-26 -147 -117 -228.5t-233 -81.5q-131 0 -197.5 88
t-42.5 222l67 385h96l-68 -385q-18 -98 24.5 -159.5t135.5 -61.5q90 0 156 62t83 159l68 385h95z" />
    <glyph glyph-name="Yacute" unicode="&#xdd;" horiz-adv-x="672" 
d="M445 757h-85l104 146h102zM384 236h-1l-41 -236h-97l42 236l-199 444h106l152 -341l273 341h120z" />
    <glyph glyph-name="Thorn" unicode="&#xde;" horiz-adv-x="653" 
d="M242 577h151q105 0 166.5 -53t61.5 -141q0 -121 -91.5 -198t-232.5 -77h-138l-19 -108h-95l120 680h95zM175 196h147q88 0 145.5 48.5t57.5 123.5q0 54 -41 87.5t-110 33.5h-148z" />
    <glyph glyph-name="germandbls" unicode="&#xdf;" horiz-adv-x="636" 
d="M598 409l-201 -199q79 -8 124.5 -51.5t45.5 -114.5q0 -105 -80 -176.5t-207 -71.5q-90 0 -165 32l15 83q75 -33 161 -33q88 0 136 45.5t48 106.5q0 47 -33 73.5t-88 26.5h-102l8 45l204 207h-276l-67 -382h-92l99 564q15 85 76 136.5t146 51.5l-15 -90q-44 0 -76 -27
t-39 -71l-17 -97h405z" />
    <glyph glyph-name="agrave" unicode="&#xe0;" horiz-adv-x="615" 
d="M326 540l-96 146h102l78 -146h-84zM580 467l-82 -467h-92l7 41q-74 -53 -165 -53q-89 0 -144 58t-55 150q0 114 87 198.5t199 84.5q91 0 147 -53l7 41h91zM275 68q92 0 156 75l33 181q-40 75 -130 75q-76 0 -133.5 -57.5t-57.5 -133.5q0 -61 36.5 -100.5t95.5 -39.5z" />
    <glyph glyph-name="aacute" unicode="&#xe1;" horiz-adv-x="615" 
d="M410 540h-85l104 146h102zM580 467l-82 -467h-92l7 41q-74 -53 -165 -53q-89 0 -144 58t-55 150q0 114 87 198.5t199 84.5q91 0 147 -53l7 41h91zM275 68q92 0 156 75l33 181q-40 75 -130 75q-76 0 -133.5 -57.5t-57.5 -133.5q0 -61 36.5 -100.5t95.5 -39.5z" />
    <glyph glyph-name="acircumflex" unicode="&#xe2;" horiz-adv-x="615" 
d="M301 531h-92l148 149h92l94 -149h-83l-64 97zM580 467l-82 -467h-92l7 41q-74 -53 -165 -53q-89 0 -144 58t-55 150q0 114 87 198.5t199 84.5q91 0 147 -53l7 41h91zM275 68q92 0 156 75l33 181q-40 75 -130 75q-76 0 -133.5 -57.5t-57.5 -133.5q0 -61 36.5 -100.5
t95.5 -39.5z" />
    <glyph glyph-name="atilde" unicode="&#xe3;" horiz-adv-x="615" 
d="M278 576h-64q-1 37 14.5 61.5t39 33t50 7t49.5 -13.5l33 -18q32 -17 52 -8t20 37h64q0 -37 -14.5 -62t-37.5 -34t-50 -7t-52 15l-33 18q-29 16 -50 7t-21 -36zM580 467l-82 -467h-92l7 41q-74 -53 -165 -53q-89 0 -144 58t-55 150q0 114 87 198.5t199 84.5q91 0 147 -53
l7 41h91zM275 68q92 0 156 75l33 181q-40 75 -130 75q-76 0 -133.5 -57.5t-57.5 -133.5q0 -61 36.5 -100.5t95.5 -39.5z" />
    <glyph glyph-name="adieresis" unicode="&#xe4;" horiz-adv-x="615" 
d="M269 555q-25 0 -41.5 16t-16.5 40t16.5 40.5t41.5 16.5t41.5 -16.5t16.5 -40.5t-16.5 -40t-41.5 -16zM460 555q-25 0 -41.5 16t-16.5 40t16.5 40.5t41.5 16.5t42 -16.5t17 -40.5t-17 -40t-42 -16zM580 467l-82 -467h-92l7 41q-74 -53 -165 -53q-89 0 -144 58t-55 150
q0 114 87 198.5t199 84.5q91 0 147 -53l7 41h91zM275 68q92 0 156 75l33 181q-40 75 -130 75q-76 0 -133.5 -57.5t-57.5 -133.5q0 -61 36.5 -100.5t95.5 -39.5z" />
    <glyph glyph-name="aring" unicode="&#xe5;" horiz-adv-x="615" 
d="M364 530q-46 0 -75.5 28.5t-29.5 72.5t29.5 72t75.5 28q47 0 76.5 -28t29.5 -72t-29.5 -72.5t-76.5 -28.5zM364 682q-22 0 -37 -14.5t-15 -36.5q0 -23 15 -37.5t37 -14.5q23 0 37.5 14.5t14.5 37.5q0 22 -14.5 36.5t-37.5 14.5zM580 467l-82 -467h-92l7 41
q-74 -53 -165 -53q-89 0 -144 58t-55 150q0 114 87 198.5t199 84.5q91 0 147 -53l7 41h91zM275 68q92 0 156 75l33 181q-40 75 -130 75q-76 0 -133.5 -57.5t-57.5 -133.5q0 -61 36.5 -100.5t95.5 -39.5z" />
    <glyph glyph-name="ae" unicode="&#xe6;" horiz-adv-x="921" 
d="M679 479q101 0 153 -67t36 -174q-4 -23 -10 -40l-2 1v-1h-375q0 -57 34.5 -93.5t96.5 -36.5q85 0 121 56h102q-30 -62 -93.5 -99t-144.5 -37q-121 0 -176 88q-110 -87 -223 -87q-79 0 -124.5 34t-45.5 94q0 71 53.5 110.5t146.5 39.5h171q23 133 -96 133q-45 0 -78.5 -20
t-45.5 -55h-93q20 75 85.5 114.5t145.5 39.5q122 0 161 -84q86 84 201 84zM667 402q-63 0 -108.5 -38t-65.5 -97h288q7 62 -24 98.5t-90 36.5zM216 66q91 0 180 67q-8 33 -7 65h-179q-44 0 -68 -18t-24 -48q0 -29 25.5 -47.5t72.5 -18.5z" />
    <glyph glyph-name="ccedilla" unicode="&#xe7;" horiz-adv-x="573" 
d="M325 395q-68 0 -119.5 -46.5t-63.5 -115.5h1q-12 -71 22.5 -116t103.5 -45q50 0 89.5 25.5t57.5 67.5h94q-27 -79 -98.5 -128t-157.5 -49q-110 0 -166 68.5t-37 176.5h-1q19 105 102 175.5t188 70.5q86 0 140 -49.5t53 -128.5h-94q-3 43 -33.5 68.5t-80.5 25.5zM188 -63
h92l-83 -150h-81z" />
    <glyph glyph-name="egrave" unicode="&#xe8;" horiz-adv-x="576" 
d="M307 540l-96 146h102l78 -146h-84zM337 479q100 0 152.5 -67t35.5 -174q-3 -23 -9 -40l-2 1v-1h-376q1 -57 35 -93.5t96 -36.5q86 0 122 56h102q-31 -62 -94 -99t-144 -37q-107 0 -164.5 71t-39.5 174q18 105 99.5 175.5t186.5 70.5zM325 402q-63 0 -108.5 -38t-65.5 -97
h288q7 63 -24 99t-90 36z" />
    <glyph glyph-name="eacute" unicode="&#xe9;" horiz-adv-x="576" 
d="M391 540h-85l104 146h102zM337 479q100 0 152.5 -67t35.5 -174q-3 -23 -9 -40l-2 1v-1h-376q1 -57 35 -93.5t96 -36.5q86 0 122 56h102q-31 -62 -94 -99t-144 -37q-107 0 -164.5 71t-39.5 174q18 105 99.5 175.5t186.5 70.5zM325 402q-63 0 -108.5 -38t-65.5 -97h288
q7 63 -24 99t-90 36z" />
    <glyph glyph-name="ecircumflex" unicode="&#xea;" horiz-adv-x="576" 
d="M282 531h-92l148 149h92l94 -149h-83l-64 97zM337 479q100 0 152.5 -67t35.5 -174q-3 -23 -9 -40l-2 1v-1h-376q1 -57 35 -93.5t96 -36.5q86 0 122 56h102q-31 -62 -94 -99t-144 -37q-107 0 -164.5 71t-39.5 174q18 105 99.5 175.5t186.5 70.5zM325 402q-63 0 -108.5 -38
t-65.5 -97h288q7 63 -24 99t-90 36z" />
    <glyph glyph-name="edieresis" unicode="&#xeb;" horiz-adv-x="576" 
d="M250 555q-25 0 -41.5 16t-16.5 40t16.5 40.5t41.5 16.5t41.5 -16.5t16.5 -40.5t-16.5 -40t-41.5 -16zM441 555q-25 0 -41.5 16t-16.5 40t16.5 40.5t41.5 16.5t42 -16.5t17 -40.5t-17 -40t-42 -16zM337 479q100 0 152.5 -67t35.5 -174q-3 -23 -9 -40l-2 1v-1h-376
q1 -57 35 -93.5t96 -36.5q86 0 122 56h102q-31 -62 -94 -99t-144 -37q-107 0 -164.5 71t-39.5 174q18 105 99.5 175.5t186.5 70.5zM325 402q-63 0 -108.5 -38t-65.5 -97h288q7 63 -24 99t-90 36z" />
    <glyph glyph-name="igrave" unicode="&#xec;" horiz-adv-x="244" 
d="M216 540h-84l-96 146h102zM208 467l-82 -467h-92l83 467h91z" />
    <glyph glyph-name="iacute" unicode="&#xed;" horiz-adv-x="244" 
d="M337 686l-121 -146h-85l104 146h102zM208 467l-82 -467h-92l83 467h91z" />
    <glyph glyph-name="icircumflex" unicode="&#xee;" horiz-adv-x="244" 
d="M202 628l-95 -97h-92l148 149h92l94 -149h-83zM208 467l-82 -467h-92l83 467h91z" />
    <glyph glyph-name="idieresis" unicode="&#xef;" horiz-adv-x="244" 
d="M75 668q25 0 41.5 -16.5t16.5 -40.5t-16.5 -40t-41.5 -16t-41.5 16t-16.5 40t16.5 40.5t41.5 16.5zM266 668q25 0 42 -16.5t17 -40.5t-17 -40t-42 -16t-41.5 16t-16.5 40t16.5 40.5t41.5 16.5zM208 467l-82 -467h-92l83 467h91z" />
    <glyph glyph-name="eth" unicode="&#xf0;" horiz-adv-x="601" 
d="M515 622l-60 -21q49 -54 75.5 -131t26.5 -159q0 -145 -88.5 -235.5t-209.5 -90.5q-94 0 -152.5 59t-58.5 151q0 117 87.5 200.5t202.5 83.5q74 0 119 -42q-26 80 -87 135l-172 -60l-13 63l126 41q-43 29 -109 54l102 40q60 -26 101 -60l97 34zM272 69q75 0 132 58t57 137
q0 61 -34.5 96t-97.5 35q-76 0 -131.5 -55.5t-55.5 -132.5q0 -60 35.5 -99t94.5 -39z" />
    <glyph glyph-name="ntilde" unicode="&#xf1;" horiz-adv-x="589" 
d="M252 576h-64q-1 37 14.5 61.5t39 33t50 6.5t49.5 -14l33 -18q32 -16 52 -7t20 36h64q0 -49 -25.5 -76.5t-59.5 -27t-69 15.5l-33 19q-29 16 -50 7t-21 -36zM367 482q91 0 135.5 -59.5t26.5 -158.5l-46 -264h-91l45 259q12 66 -16 103t-87 37q-80 0 -155 -78l-56 -321h-92
l83 467h91l-8 -47q78 62 170 62z" />
    <glyph glyph-name="ograve" unicode="&#xf2;" horiz-adv-x="602" 
d="M396 540h-84l-96 146h102zM344 479q93 0 151 -58.5t58 -149.5q0 -118 -88.5 -202t-207.5 -84q-93 0 -151 59t-58 151q0 118 88 201t208 83zM272 69q76 0 132 56.5t56 133.5q0 58 -36 97t-94 39q-77 0 -133 -55.5t-56 -132.5q0 -60 35.5 -99t95.5 -39z" />
    <glyph glyph-name="oacute" unicode="&#xf3;" horiz-adv-x="602" 
d="M517 686l-121 -146h-85l104 146h102zM344 479q93 0 151 -58.5t58 -149.5q0 -118 -88.5 -202t-207.5 -84q-93 0 -151 59t-58 151q0 118 88 201t208 83zM272 69q76 0 132 56.5t56 133.5q0 58 -36 97t-94 39q-77 0 -133 -55.5t-56 -132.5q0 -60 35.5 -99t95.5 -39z" />
    <glyph glyph-name="ocircumflex" unicode="&#xf4;" horiz-adv-x="602" 
d="M382 628l-95 -97h-92l148 149h92l94 -149h-83zM344 479q93 0 151 -58.5t58 -149.5q0 -118 -88.5 -202t-207.5 -84q-93 0 -151 59t-58 151q0 118 88 201t208 83zM272 69q76 0 132 56.5t56 133.5q0 58 -36 97t-94 39q-77 0 -133 -55.5t-56 -132.5q0 -60 35.5 -99t95.5 -39z
" />
    <glyph glyph-name="otilde" unicode="&#xf5;" horiz-adv-x="602" 
d="M458 675h64q0 -37 -14.5 -62t-37.5 -34t-50 -7t-52 15l-33 18q-29 16 -50 7t-21 -36h-64q-1 37 14.5 61.5t39 33t50 7t49.5 -13.5l33 -18q32 -17 52 -8t20 37zM344 479q93 0 151 -58.5t58 -149.5q0 -118 -88.5 -202t-207.5 -84q-93 0 -151 59t-58 151q0 118 88 201
t208 83zM272 69q76 0 132 56.5t56 133.5q0 58 -36 97t-94 39q-77 0 -133 -55.5t-56 -132.5q0 -60 35.5 -99t95.5 -39z" />
    <glyph glyph-name="odieresis" unicode="&#xf6;" horiz-adv-x="602" 
d="M271 668q24 0 41 -16.5t17 -40.5t-17 -40t-41 -16q-25 0 -42 16t-17 40t17 40.5t42 16.5zM462 668q25 0 41.5 -16.5t16.5 -40.5t-16.5 -40t-41.5 -16t-42 16t-17 40t17 40.5t42 16.5zM344 479q93 0 151 -58.5t58 -149.5q0 -118 -88.5 -202t-207.5 -84q-93 0 -151 59
t-58 151q0 118 88 201t208 83zM272 69q76 0 132 56.5t56 133.5q0 58 -36 97t-94 39q-77 0 -133 -55.5t-56 -132.5q0 -60 35.5 -99t95.5 -39z" />
    <glyph glyph-name="divide" unicode="&#xf7;" horiz-adv-x="684" 
d="M393 460q-24 0 -40.5 16t-16.5 39q0 24 16.5 40t40.5 16t41 -16t17 -40q0 -23 -17 -39t-41 -16zM132 369h467l-15 -85h-468zM325 85q-23 0 -40 16t-17 39q0 24 16.5 40t40.5 16t41 -16t17 -40q0 -23 -17 -39t-41 -16z" />
    <glyph glyph-name="oslash" unicode="&#xf8;" horiz-adv-x="602" 
d="M561 443l-46 -46q38 -54 38 -126q0 -118 -88.5 -202t-207.5 -84q-73 0 -124 37l-51 -50l-53 51l53 52q-34 51 -34 120q0 118 88 201t208 83q66 0 117 -31l47 46zM141 207q0 -35 12 -62l239 235q-27 15 -62 15q-77 0 -133 -55.5t-56 -132.5zM460 259q0 37 -16 69
l-244 -240q32 -19 72 -19q76 0 132 56.5t56 133.5z" />
    <glyph glyph-name="ugrave" unicode="&#xf9;" horiz-adv-x="595" 
d="M304 540l-96 146h102l78 -146h-84zM558 467l-82 -467h-92l8 47q-78 -62 -169 -62t-136 59.5t-27 159.5l46 263h91l-45 -258q-12 -67 16 -103.5t87 -36.5q83 0 155 77l56 321h92z" />
    <glyph glyph-name="uacute" unicode="&#xfa;" horiz-adv-x="599" 
d="M386 540h-85l104 146h102zM558 467l-82 -467h-92l8 47q-78 -62 -169 -62t-136 59.5t-27 159.5l46 263h91l-45 -258q-12 -67 16 -103.5t87 -36.5q83 0 155 77l56 321h92z" />
    <glyph glyph-name="ucircumflex" unicode="&#xfb;" horiz-adv-x="595" 
d="M266 532h-91l148 148h92l94 -148h-83l-64 96zM558 467l-82 -467h-92l8 47q-78 -62 -169 -62t-136 59.5t-27 159.5l46 263h91l-45 -258q-12 -67 16 -103.5t87 -36.5q83 0 155 77l56 321h92z" />
    <glyph glyph-name="udieresis" unicode="&#xfc;" horiz-adv-x="595" 
d="M245 555q-25 0 -42 16t-17 40t17 40.5t42 16.5q24 0 41 -16.5t17 -40.5t-17 -40t-41 -16zM436 555q-25 0 -42 16t-17 40t17 40.5t42 16.5t41.5 -16.5t16.5 -40.5t-16.5 -40t-41.5 -16zM558 467l-82 -467h-92l8 47q-78 -62 -169 -62t-136 59.5t-27 159.5l46 263h91
l-45 -258q-12 -67 16 -103.5t87 -36.5q83 0 155 77l56 321h92z" />
    <glyph glyph-name="yacute" unicode="&#xfd;" horiz-adv-x="607" 
d="M389 540h-85l104 146h102zM617 468l-441 -710h-104l142 229l-147 481h99l114 -375l233 375h104z" />
    <glyph glyph-name="thorn" unicode="&#xfe;" horiz-adv-x="612" 
d="M364 479q88 0 144 -60t56 -149q0 -113 -87 -197.5t-199 -84.5q-91 0 -147 54l-50 -285h-92l163 923h92l-45 -254q74 53 165 53zM279 68q76 0 133.5 57.5t57.5 132.5q0 59 -37 100t-96 41q-90 0 -156 -76l-32 -180q38 -75 130 -75z" />
    <glyph glyph-name="ydieresis" unicode="&#xff;" horiz-adv-x="607" 
d="M247 555q-25 0 -41.5 16t-16.5 40t16.5 40.5t41.5 16.5t41.5 -16.5t16.5 -40.5t-16.5 -40t-41.5 -16zM438 555q-25 0 -41.5 16t-16.5 40t16.5 40.5t41.5 16.5t42 -16.5t17 -40.5t-17 -40t-42 -16zM617 468l-441 -710h-104l142 229l-147 481h99l114 -375l233 375h104z" />
    <glyph glyph-name="Amacron" unicode="&#x100;" horiz-adv-x="748" 
d="M605 765h-279l13 67h279zM533 175h-337l-107 -175h-106l424 684h90l183 -684h-102zM510 263l-77 300l-183 -300h260z" />
    <glyph glyph-name="amacron" unicode="&#x101;" horiz-adv-x="615" 
d="M520 560h-279l13 67h279zM580 467l-82 -467h-92l7 41q-74 -53 -165 -53q-89 0 -144 58t-55 150q0 114 87 198.5t199 84.5q91 0 147 -53l7 41h91zM275 68q92 0 156 75l33 181q-40 75 -130 75q-76 0 -133.5 -57.5t-57.5 -133.5q0 -61 36.5 -100.5t95.5 -39.5z" />
    <glyph glyph-name="Abreve" unicode="&#x102;" horiz-adv-x="748" 
d="M464 761q-65 0 -100 38.5t-23 108.5h68q-7 -43 11.5 -63.5t51.5 -20.5q32 0 59.5 21t34.5 63h72q-12 -70 -61 -108.5t-113 -38.5zM533 175h-337l-107 -175h-106l424 684h90l183 -684h-102zM510 263l-77 300l-183 -300h260z" />
    <glyph glyph-name="abreve" unicode="&#x103;" horiz-adv-x="615" 
d="M372 527q-65 0 -100 38t-23 108h68q-7 -42 11.5 -62.5t51.5 -20.5q32 0 59.5 21t34.5 62h72q-12 -70 -60.5 -108t-113.5 -38zM580 467l-82 -467h-92l7 41q-74 -53 -165 -53q-89 0 -144 58t-55 150q0 114 87 198.5t199 84.5q91 0 147 -53l7 41h91zM275 68q92 0 156 75
l33 181q-40 75 -130 75q-76 0 -133.5 -57.5t-57.5 -133.5q0 -61 36.5 -100.5t95.5 -39.5z" />
    <glyph glyph-name="Aogonek" unicode="&#x104;" horiz-adv-x="748" 
d="M687 -101l9 -69q-20 -9 -58 -9q-61 0 -98.5 30t-37.5 79q0 59 70 95l-39 150h-337l-107 -175h-106l424 684h90l183 -684h-37q-63 -19 -63 -60q0 -45 70 -45q18 0 37 4zM510 263l-77 300l-183 -300h260z" />
    <glyph glyph-name="aogonek" unicode="&#x105;" horiz-adv-x="615" 
d="M491 -109q18 0 37 4l9 -69q-20 -9 -58 -9q-61 0 -98.5 30t-37.5 79q0 58 66 93l4 22q-74 -53 -165 -53q-89 0 -144 58t-55 150q0 114 87 198.5t199 84.5q91 0 147 -53l7 41h91l-82 -467q-77 -19 -77 -64t70 -45zM275 68q92 0 156 75l33 181q-40 75 -130 75
q-76 0 -133.5 -57.5t-57.5 -133.5q0 -61 36.5 -100.5t95.5 -39.5z" />
    <glyph glyph-name="Cacute" unicode="&#x106;" horiz-adv-x="799" 
d="M547 757h-85l104 146h102zM384 78q81 0 153.5 47.5t105.5 125.5h98q-45 -119 -146 -192t-226 -73q-148 0 -233.5 101t-59.5 253q27 150 148 252t269 102q125 0 201 -73t78 -192h-98q-6 81 -58.5 127t-139.5 46q-111 0 -197 -75t-106 -187q-19 -114 41.5 -188t169.5 -74z
" />
    <glyph glyph-name="cacute" unicode="&#x107;" horiz-adv-x="573" 
d="M393 540h-85l104 146h102zM325 395q-68 0 -119.5 -46.5t-63.5 -115.5h1q-12 -71 22.5 -116t103.5 -45q50 0 89.5 25.5t57.5 67.5h94q-27 -79 -98.5 -128t-157.5 -49q-110 0 -166 68.5t-37 176.5h-1q19 105 102 175.5t188 70.5q86 0 140 -49.5t53 -128.5h-94
q-3 43 -33.5 68.5t-80.5 25.5z" />
    <glyph glyph-name="Cdotaccent" unicode="&#x10a;" horiz-adv-x="799" 
d="M502 762q-26 0 -43.5 17t-17.5 42t17.5 42t43.5 17t43.5 -17t17.5 -42t-17.5 -42t-43.5 -17zM384 78q81 0 153.5 47.5t105.5 125.5h98q-45 -119 -146 -192t-226 -73q-148 0 -233.5 101t-59.5 253q27 150 148 252t269 102q125 0 201 -73t78 -192h-98q-6 81 -58.5 127
t-139.5 46q-111 0 -197 -75t-106 -187q-19 -114 41.5 -188t169.5 -74z" />
    <glyph glyph-name="cdotaccent" unicode="&#x10b;" horiz-adv-x="573" 
d="M347 552q-26 0 -43.5 17t-17.5 42t17.5 42t43.5 17t43.5 -17t17.5 -42t-17.5 -42t-43.5 -17zM325 395q-68 0 -119.5 -46.5t-63.5 -115.5h1q-12 -71 22.5 -116t103.5 -45q50 0 89.5 25.5t57.5 67.5h94q-27 -79 -98.5 -128t-157.5 -49q-110 0 -166 68.5t-37 176.5h-1
q19 105 102 175.5t188 70.5q86 0 140 -49.5t53 -128.5h-94q-3 43 -33.5 68.5t-80.5 25.5z" />
    <glyph glyph-name="Ccaron" unicode="&#x10c;" horiz-adv-x="799" 
d="M476 752l-95 149h83l65 -97l97 97h89l-147 -149h-92zM384 78q81 0 153.5 47.5t105.5 125.5h98q-45 -119 -146 -192t-226 -73q-148 0 -233.5 101t-59.5 253q27 150 148 252t269 102q125 0 201 -73t78 -192h-98q-6 81 -58.5 127t-139.5 46q-111 0 -197 -75t-106 -187
q-19 -114 41.5 -188t169.5 -74z" />
    <glyph glyph-name="ccaron" unicode="&#x10d;" horiz-adv-x="573" 
d="M307 531l-95 149h83l65 -97l97 97h89l-147 -149h-92zM340 479q86 0 140 -49.5t53 -128.5h-94q-3 43 -33.5 68.5t-80.5 25.5q-68 0 -119.5 -46.5t-63.5 -115.5h1q-12 -71 22.5 -116t103.5 -45q50 0 89.5 25.5t57.5 67.5h94q-27 -79 -98.5 -128t-157.5 -49
q-110 0 -166 68.5t-37 176.5h-1q19 105 102 175.5t188 70.5z" />
    <glyph glyph-name="Dcaron" unicode="&#x10e;" horiz-adv-x="752" 
d="M384 752l-95 149h83l65 -97l97 97h89l-147 -149h-92zM165 680h245q138 0 222.5 -79.5t84.5 -204.5q0 -167 -125 -281.5t-302 -114.5h-245zM156 88h150q128 0 220 85.5t92 208.5q0 92 -61.5 151t-161.5 59h-151z" />
    <glyph glyph-name="dcaron" unicode="&#x10f;" horiz-adv-x="615" 
d="M531 710h92l-126 -710h-92l7 41q-72 -52 -164 -52q-88 0 -144 59.5t-56 148.5q0 114 87 198t199 84q92 0 147 -53zM786 710l-65 -192h-71l42 192h94zM275 68q90 0 155 75l33 181q-40 75 -130 75q-76 0 -133.5 -57.5t-57.5 -132.5q0 -59 37 -100t96 -41z" />
    <glyph glyph-name="Dcroat" unicode="&#x110;" horiz-adv-x="753" 
d="M165 680h245q138 0 222.5 -79.5t84.5 -204.5q0 -167 -125 -281.5t-302 -114.5h-245l52 297h-77l16 88h77zM156 88h150q128 0 220 85.5t92 208.5q0 92 -61.5 151t-161.5 59h-151l-36 -207h147l-15 -88h-148z" />
    <glyph glyph-name="dcroat" unicode="&#x111;" horiz-adv-x="615" 
d="M655 563h-58l-100 -563h-92l7 41q-72 -52 -164 -52q-88 0 -144 59.5t-56 148.5q0 114 87 198t199 84q92 0 147 -53l24 137h-159l13 76h159l13 71h92l-13 -71h58zM275 68q90 0 155 75l33 181q-40 75 -130 75q-76 0 -133.5 -57.5t-57.5 -132.5q0 -59 37 -100t96 -41z" />
    <glyph glyph-name="Emacron" unicode="&#x112;" horiz-adv-x="632" 
d="M546 765h-279l13 67h279zM235 592l-37 -211h349l-16 -88h-348l-36 -205h388l-16 -88h-483l120 680h484l-16 -88h-389z" />
    <glyph glyph-name="emacron" unicode="&#x113;" horiz-adv-x="576" 
d="M502 560h-279l13 67h279zM337 479q100 0 152.5 -67t35.5 -174q-3 -23 -9 -40l-2 1v-1h-376q1 -57 35 -93.5t96 -36.5q86 0 122 56h102q-31 -62 -94 -99t-144 -37q-107 0 -164.5 71t-39.5 174q18 105 99.5 175.5t186.5 70.5zM325 402q-63 0 -108.5 -38t-65.5 -97h288
q7 63 -24 99t-90 36z" />
    <glyph glyph-name="Edotaccent" unicode="&#x116;" horiz-adv-x="625" 
d="M412 762q-26 0 -43.5 17t-17.5 42t17.5 42t43.5 17t43.5 -17t17.5 -42t-17.5 -42t-43.5 -17zM235 592l-37 -211h349l-16 -88h-348l-36 -205h388l-16 -88h-483l120 680h484l-16 -88h-389z" />
    <glyph glyph-name="edotaccent" unicode="&#x117;" horiz-adv-x="577" 
d="M366 552q-26 0 -43.5 17t-17.5 42t17.5 42t43.5 17t43.5 -17t17.5 -42t-17.5 -42t-43.5 -17zM337 479q100 0 152.5 -67t35.5 -174q-3 -23 -9 -40l-2 1v-1h-376q1 -57 35 -93.5t96 -36.5q86 0 122 56h102q-31 -62 -94 -99t-144 -37q-107 0 -164.5 71t-39.5 174
q18 105 99.5 175.5t186.5 70.5zM325 402q-63 0 -108.5 -38t-65.5 -97h288q7 63 -24 99t-90 36z" />
    <glyph glyph-name="Eogonek" unicode="&#x118;" horiz-adv-x="632" 
d="M235 592l-37 -211h349l-16 -88h-348l-36 -205h388l-16 -88h-2q-77 -19 -77 -64t70 -45q18 0 37 4l9 -69q-20 -9 -58 -9q-61 0 -98.5 30t-37.5 79q0 42 38 74h-364l120 680h484l-16 -88h-389z" />
    <glyph glyph-name="eogonek" unicode="&#x119;" horiz-adv-x="576" 
d="M336 479q100 0 152.5 -67t35.5 -174q-3 -23 -9 -40l-2 1v-1h-375q0 -57 34.5 -93.5t96.5 -36.5q85 0 121 56h102q-21 -41 -55 -72q-28 -28 -37.5 -43t-9.5 -37q0 -52 69 -52q15 0 38 5l9 -70q-24 -8 -59 -8q-61 0 -98 29.5t-37 78.5q0 22 7 40q-29 -7 -65 -7
q-107 0 -164.5 71t-39.5 174q18 105 99.5 175.5t186.5 70.5zM324 402q-63 0 -108.5 -38t-65.5 -97h288q7 63 -24 99t-90 36z" />
    <glyph glyph-name="Ecaron" unicode="&#x11a;" horiz-adv-x="632" 
d="M377 752l-95 149h83l65 -97l97 97h89l-147 -149h-92zM235 592l-37 -211h349l-16 -88h-348l-36 -205h388l-16 -88h-483l120 680h484l-16 -88h-389z" />
    <glyph glyph-name="ecaron" unicode="&#x11b;" horiz-adv-x="576" 
d="M306 531l-95 149h83l65 -97l97 97h89l-147 -149h-92zM337 479q100 0 152.5 -67t35.5 -174q-3 -23 -9 -40l-2 1v-1h-376q1 -57 35 -93.5t96 -36.5q86 0 122 56h102q-31 -62 -94 -99t-144 -37q-107 0 -164.5 71t-39.5 174q18 105 99.5 175.5t186.5 70.5zM325 402
q-63 0 -108.5 -38t-65.5 -97h288q7 63 -24 99t-90 36z" />
    <glyph glyph-name="Gbreve" unicode="&#x11e;" horiz-adv-x="820" 
d="M502 761q-65 0 -100 38.5t-23 108.5h68q-7 -43 11.5 -63.5t51.5 -20.5q32 0 59.5 21t34.5 63h72q-12 -70 -61 -108.5t-113 -38.5zM765 364l-5 -24l-60 -340h-76l15 124q-103 -138 -275 -138q-150 0 -233 102t-58 246q28 155 150 257.5t272 102.5q115 0 194.5 -64.5
t86.5 -178.5h-95q-11 80 -66 117.5t-133 37.5q-112 0 -201 -77t-111 -195q-18 -107 40.5 -181.5t169.5 -74.5q93 0 163.5 54.5t103.5 143.5h-239l15 88h342z" />
    <glyph glyph-name="gbreve" unicode="&#x11f;" horiz-adv-x="615" 
d="M361 527q-65 0 -100 38.5t-23 108.5h68q-7 -43 11.5 -63.5t51.5 -20.5q32 0 59.5 21t34.5 63h72q-12 -70 -61 -108.5t-113 -38.5zM580 467l-84 -474q-19 -106 -94.5 -169t-180.5 -63q-95 0 -151.5 51t-52.5 133h94q0 -46 33 -73.5t91 -27.5q65 0 111.5 40t58.5 109h-1
l12 68q-73 -53 -168 -53q-86 0 -141.5 59t-55.5 143q0 113 84.5 194t196.5 81q93 0 150 -54l6 36h92zM275 87q93 0 159 77l30 165q-39 76 -133 76q-77 0 -132 -54.5t-55 -128.5q0 -55 36 -95t95 -40z" />
    <glyph glyph-name="Gdotaccent" unicode="&#x120;" horiz-adv-x="822" 
d="M507 762q-26 0 -43.5 17t-17.5 42t17.5 42t43.5 17t43.5 -17t17.5 -42t-17.5 -42t-43.5 -17zM765 364l-5 -24l-60 -340h-76l15 124q-103 -138 -275 -138q-150 0 -233 102t-58 246q28 155 150 257.5t272 102.5q115 0 194.5 -64.5t86.5 -178.5h-95q-11 80 -66 117.5
t-133 37.5q-112 0 -201 -77t-111 -195q-18 -107 40.5 -181.5t169.5 -74.5q93 0 163.5 54.5t103.5 143.5h-239l15 88h342z" />
    <glyph glyph-name="gdotaccent" unicode="&#x121;" horiz-adv-x="615" 
d="M366 552q-26 0 -43.5 17t-17.5 42t17.5 42t43.5 17t43.5 -17t17.5 -42t-17.5 -42t-43.5 -17zM580 467l-84 -474q-19 -106 -94.5 -169t-180.5 -63q-95 0 -151.5 51t-52.5 133h94q0 -46 33 -73.5t91 -27.5q65 0 111.5 40t58.5 109h-1l12 68q-73 -53 -168 -53
q-86 0 -141.5 59t-55.5 143q0 113 84.5 194t196.5 81q93 0 150 -54l6 36h92zM275 87q93 0 159 77l30 165q-39 76 -133 76q-77 0 -132 -54.5t-55 -128.5q0 -55 36 -95t95 -40z" />
    <glyph glyph-name="Gcommaaccent" unicode="&#x122;" horiz-adv-x="820" 
d="M765 364l-5 -24l-60 -340h-76l15 124q-103 -138 -275 -138q-150 0 -233 102t-58 246q28 155 150 257.5t272 102.5q115 0 194.5 -64.5t86.5 -178.5h-95q-11 80 -66 117.5t-133 37.5q-112 0 -201 -77t-111 -195q-18 -107 40.5 -181.5t169.5 -74.5q93 0 163.5 54.5
t103.5 143.5h-239l15 88h342zM356 -58q23 0 39.5 -15.5t16.5 -38.5q0 -17 -11.5 -35.5t-68.5 -94.5h-52l57 83q-38 12 -38 48q0 22 17 37.5t40 15.5z" />
    <glyph glyph-name="gcommaaccent" unicode="&#x123;" horiz-adv-x="618" 
d="M362 556q-23 0 -39.5 15.5t-16.5 38.5q0 17 11.5 35.5t68.5 95.5h52l-57 -84q38 -12 38 -48q0 -22 -17 -37.5t-40 -15.5zM580 467l-84 -474q-19 -106 -94.5 -169t-180.5 -63q-95 0 -151.5 51t-52.5 133h94q0 -46 33 -73.5t91 -27.5q65 0 111.5 40t58.5 109h-1l12 68
q-73 -53 -168 -53q-86 0 -141.5 59t-55.5 143q0 113 84.5 194t196.5 81q93 0 150 -54l6 36h92zM275 87q93 0 159 77l30 165q-39 76 -133 76q-77 0 -132 -54.5t-55 -128.5q0 -55 36 -95t95 -40z" />
    <glyph glyph-name="Hbar" unicode="&#x126;" horiz-adv-x="738" 
d="M745 493h-48l-87 -493h-95l51 291h-375l-51 -291h-95l87 493h-50l14 79h50l19 108h95l-19 -108h375l19 108h95l-19 -108h48zM602 493h-375l-20 -114h375z" />
    <glyph glyph-name="hbar" unicode="&#x127;" horiz-adv-x="589" 
d="M373 482q91 0 135.5 -59.5t26.5 -158.5l-46 -264h-91l45 259q12 66 -16 103t-87 37q-81 0 -154 -78l-57 -321h-92l102 582h-68l12 66h68l11 62h92l-11 -62h138l-12 -66h-138l-28 -162q78 62 170 62z" />
    <glyph glyph-name="Imacron" unicode="&#x12a;" horiz-adv-x="267" 
d="M379 832l-13 -67h-279l13 67h279zM140 0h-95l120 680h95z" />
    <glyph glyph-name="imacron" unicode="&#x12b;" horiz-adv-x="244" 
d="M330 627l-13 -67h-279l13 67h279zM208 467l-82 -467h-92l83 467h91z" />
    <glyph glyph-name="Iogonek" unicode="&#x12e;" horiz-adv-x="267" 
d="M133 -109q18 0 37 4l9 -69q-20 -9 -58 -9q-61 0 -98.5 30t-37.5 79q0 56 63 91l117 663h95l-120 -680q-77 -19 -77 -64t70 -45z" />
    <glyph glyph-name="iogonek" unicode="&#x12f;" horiz-adv-x="273" 
d="M207 699q25 0 42 -16.5t17 -41.5t-17 -41.5t-42 -16.5q-26 0 -43 16.5t-17 41.5t17 41.5t43 16.5zM143 0h-1q-77 -19 -77 -64t70 -45q18 0 37 4l9 -69q-20 -9 -58 -9q-61 0 -98.5 30t-37.5 79q0 58 67 94l79 447h92z" />
    <glyph glyph-name="Idotaccent" unicode="&#x130;" horiz-adv-x="267" 
d="M224 764q-26 0 -44.5 17.5t-18.5 43.5q0 25 18.5 43t44.5 18t44.5 -18t18.5 -43q0 -26 -18.5 -43.5t-44.5 -17.5zM140 0h-95l120 680h95z" />
    <glyph glyph-name="dotlessi" unicode="&#x131;" horiz-adv-x="244" 
d="M209 467l-83 -467h-92l83 467h92z" />
    <glyph glyph-name="IJ" unicode="&#x132;" horiz-adv-x="879" 
d="M140 0h-95l120 680h95zM880 680l-77 -431q-22 -127 -102 -195.5t-193 -68.5q-102 0 -162 61t-51 159h96q-3 -61 29.5 -96t99.5 -35q69 0 121 48.5t66 128.5l76 429h97z" />
    <glyph glyph-name="ij" unicode="&#x133;" horiz-adv-x="531" 
d="M207 583q-26 0 -43 16.5t-17 41.5t17 41.5t43 16.5q25 0 42 -16.5t17 -41.5t-17 -41.5t-42 -16.5zM482 583q-25 0 -42 16.5t-17 41.5t17 41.5t42 16.5t42.5 -16.5t17.5 -41.5t-17.5 -41.5t-42.5 -16.5zM225 467l-82 -467h-92l82 467h92zM499 467l-79 -449
q-19 -105 -68.5 -153.5t-155.5 -49.5l7 80q59 5 86 29t37 83l81 460h92z" />
    <glyph glyph-name="Kcommaaccent" unicode="&#x136;" horiz-adv-x="716" 
d="M397 374l250 -374h-121l-208 303l-148 -135l-30 -168h-95l120 680h95l-65 -367l410 367h129zM308 -58q23 0 39.5 -15.5t16.5 -38.5q0 -17 -11.5 -35.5t-68.5 -94.5h-52l57 83q-38 12 -38 48q0 22 17 37.5t40 15.5z" />
    <glyph glyph-name="kcommaaccent" unicode="&#x137;" horiz-adv-x="569" 
d="M324 272l179 -272h-118l-136 209l-110 -93l-20 -116h-92l126 710h91l-83 -472l275 229h118zM234 -58q23 0 39.5 -15.5t16.5 -38.5q0 -17 -11.5 -35.5t-68.5 -94.5h-52l57 83q-38 12 -38 48q0 22 17 37.5t40 15.5z" />
    <glyph glyph-name="Lacute" unicode="&#x139;" horiz-adv-x="597" 
d="M268 757h-85l104 146h102zM524 86l-16 -86h-463l120 680h95l-105 -594h369z" />
    <glyph glyph-name="lacute" unicode="&#x13a;" horiz-adv-x="244" 
d="M388 928l-121 -146h-85l104 146h102zM252 710l-126 -710h-92l126 710h92z" />
    <glyph glyph-name="Lcommaaccent" unicode="&#x13b;" horiz-adv-x="597" 
d="M524 86l-16 -86h-463l120 680h95l-105 -594h369zM272 -58q23 0 39.5 -15.5t16.5 -38.5q0 -17 -11.5 -35.5t-68.5 -94.5h-52l57 83q-38 12 -38 48q0 22 17 37.5t40 15.5z" />
    <glyph glyph-name="lcommaaccent" unicode="&#x13c;" horiz-adv-x="244" 
d="M252 710l-126 -710h-92l126 710h92zM-13 -242l57 83q-38 12 -38 48q0 22 17 37.5t40 15.5t39.5 -15.5t16.5 -38.5q0 -17 -11.5 -35.5t-68.5 -94.5h-52z" />
    <glyph glyph-name="Lcaron" unicode="&#x13d;" horiz-adv-x="597" 
d="M524 86l-16 -86h-463l120 680h95l-105 -594h369zM408 488h-71l42 192h94z" />
    <glyph glyph-name="lcaron" unicode="&#x13e;" horiz-adv-x="244" 
d="M252 710l-126 -710h-92l126 710h92zM409 710l-65 -192h-71l42 192h94z" />
    <glyph glyph-name="Ldot" unicode="&#x13f;" horiz-adv-x="597" 
d="M524 86l-16 -86h-463l120 680h95l-105 -594h369zM384 273q-26 0 -43.5 17t-17.5 42t17.5 42t43.5 17t43.5 -17t17.5 -42t-17.5 -42t-43.5 -17z" />
    <glyph glyph-name="ldot" unicode="&#x140;" horiz-adv-x="368" 
d="M252 710l-126 -710h-92l126 710h92zM289 264q-26 0 -43.5 17t-17.5 42t17.5 42t43.5 17t43.5 -17t17.5 -42t-17.5 -42t-43.5 -17z" />
    <glyph glyph-name="Lslash" unicode="&#x141;" horiz-adv-x="597" 
d="M524 86l-16 -86h-463l43 243l-72 -30l14 82l72 30l63 355h95l-55 -312l176 74l-14 -81l-176 -74l-36 -201h369z" />
    <glyph glyph-name="lslash" unicode="&#x142;" horiz-adv-x="244" 
d="M262 372l-76 -33l-60 -339h-92l53 297l-74 -32l17 95l73 31l57 319h92l-49 -276l75 32z" />
    <glyph glyph-name="Nacute" unicode="&#x143;" horiz-adv-x="761" 
d="M489 757h-85l104 146h102zM753 680l-120 -680h-76l-327 508l-90 -508h-95l120 680h62l339 -521l92 521h95z" />
    <glyph glyph-name="nacute" unicode="&#x144;" horiz-adv-x="589" 
d="M388 540h-85l104 146h102zM367 482q91 0 135.5 -59.5t26.5 -158.5l-46 -264h-91l45 259q12 66 -16 103t-87 37q-80 0 -155 -78l-56 -321h-92l83 467h91l-8 -47q78 62 170 62z" />
    <glyph glyph-name="Ncommaaccent" unicode="&#x145;" horiz-adv-x="761" 
d="M753 680l-120 -680h-76l-327 508l-90 -508h-95l120 680h62l339 -521l92 521h95zM334 -58q23 0 39.5 -15.5t16.5 -38.5q0 -17 -11.5 -35.5t-68.5 -94.5h-52l57 83q-38 12 -38 48q0 22 17 37.5t40 15.5z" />
    <glyph glyph-name="ncommaaccent" unicode="&#x146;" horiz-adv-x="589" 
d="M367 482q91 0 135.5 -59.5t26.5 -158.5l-46 -264h-91l45 259q12 66 -16 103t-87 37q-80 0 -155 -78l-56 -321h-92l83 467h91l-8 -47q78 62 170 62zM241 -58q23 0 39.5 -15.5t16.5 -38.5q0 -17 -11.5 -35.5t-68.5 -94.5h-52l57 83q-38 12 -38 48q0 22 17 37.5t40 15.5z
" />
    <glyph glyph-name="Ncaron" unicode="&#x147;" horiz-adv-x="761" 
d="M418 752l-95 149h83l65 -97l97 97h89l-147 -149h-92zM753 680l-120 -680h-76l-327 508l-90 -508h-95l120 680h62l339 -521l92 521h95z" />
    <glyph glyph-name="ncaron" unicode="&#x148;" horiz-adv-x="589" 
d="M302 531l-95 149h83l65 -97l97 97h89l-147 -149h-92zM367 482q91 0 135.5 -59.5t26.5 -158.5l-46 -264h-91l45 259q12 66 -16 103t-87 37q-80 0 -155 -78l-56 -321h-92l83 467h91l-8 -47q78 62 170 62z" />
    <glyph glyph-name="Omacron" unicode="&#x14c;" horiz-adv-x="828" 
d="M670 832l-13 -67h-279l13 67h279zM491 694q132 0 216.5 -86.5t84.5 -215.5q0 -107 -60 -201.5t-157 -149.5t-202 -55q-132 0 -216.5 86.5t-84.5 215.5q0 107 60 201.5t157 149.5t202 55zM382 77q122 0 217.5 91t95.5 216q0 94 -58 156.5t-155 62.5q-124 0 -217.5 -91
t-93.5 -214q0 -94 57.5 -157.5t153.5 -63.5z" />
    <glyph glyph-name="omacron" unicode="&#x14d;" horiz-adv-x="602" 
d="M519 627l-13 -67h-279l13 67h279zM344 479q93 0 151 -58.5t58 -149.5q0 -118 -88.5 -202t-207.5 -84q-93 0 -151 59t-58 151q0 118 88 201t208 83zM272 69q76 0 132 56.5t56 133.5q0 58 -36 97t-94 39q-77 0 -133 -55.5t-56 -132.5q0 -60 35.5 -99t95.5 -39z" />
    <glyph glyph-name="Ohungarumlaut" unicode="&#x150;" horiz-adv-x="828" 
d="M548 903l-83 -146h-78l65 146h96zM688 903l-82 -146h-78l65 146h95zM491 694q132 0 216.5 -86.5t84.5 -215.5q0 -107 -60 -201.5t-157 -149.5t-202 -55q-132 0 -216.5 86.5t-84.5 215.5q0 107 60 201.5t157 149.5t202 55zM382 77q122 0 217.5 91t95.5 216q0 94 -58 156.5
t-155 62.5q-124 0 -217.5 -91t-93.5 -214q0 -94 57.5 -157.5t153.5 -63.5z" />
    <glyph glyph-name="ohungarumlaut" unicode="&#x151;" horiz-adv-x="602" 
d="M397 686l-82 -146h-78l65 146h95zM538 686l-82 -146h-78l65 146h95zM344 479q93 0 151 -58.5t58 -149.5q0 -118 -88.5 -202t-207.5 -84q-93 0 -151 59t-58 151q0 118 88 201t208 83zM272 69q76 0 132 56.5t56 133.5q0 58 -36 97t-94 39q-77 0 -133 -55.5t-56 -132.5
q0 -60 35.5 -99t95.5 -39z" />
    <glyph glyph-name="OE" unicode="&#x152;" horiz-adv-x="1035" 
d="M639 592l-37 -211h347l-15 -88h-347l-36 -205h387l-16 -88h-529q-145 0 -234 81.5t-89 208.5q0 164 129.5 277t313.5 113h529l-15 -88h-388zM543 591h-46q-141 0 -235 -83t-94 -206q0 -95 64.5 -154t175.5 -59l47 1z" />
    <glyph glyph-name="oe" unicode="&#x153;" horiz-adv-x="985" 
d="M744 479q101 0 153 -67t36 -174q-3 -23 -9 -40l-3 2v-2h-375q1 -57 35 -93.5t96 -36.5q86 0 122 56h102q-31 -62 -94 -99t-144 -37q-127 0 -183 97q-42 -47 -100.5 -73.5t-122.5 -26.5q-93 0 -151 59t-58 151q0 118 88 201t208 83q62 0 109.5 -27t73.5 -75
q87 102 217 102zM732 402q-62 0 -108 -38t-66 -97h289q7 63 -24 99t-91 36zM272 69q76 0 132 56.5t56 133.5q0 58 -36 97t-94 39q-77 0 -133 -55.5t-56 -132.5q0 -60 35.5 -99t95.5 -39z" />
    <glyph glyph-name="Racute" unicode="&#x154;" horiz-adv-x="690" 
d="M422 757h-85l104 146h102zM656 490q0 -90 -58.5 -155.5t-153.5 -88.5l163 -246h-110l-156 235h-160l-41 -235h-95l120 680h252q109 0 174 -51t65 -139zM197 323h168q82 0 138.5 42.5t56.5 110.5q0 54 -40.5 85t-108.5 31h-167z" />
    <glyph glyph-name="racute" unicode="&#x155;" horiz-adv-x="369" 
d="M295 540h-85l104 146h102zM205 467l-12 -70q83 81 191 81l-15 -87q-116 -3 -193 -92l-53 -299h-92l83 467h91z" />
    <glyph glyph-name="Rcommaaccent" unicode="&#x156;" horiz-adv-x="690" 
d="M656 490q0 -90 -58.5 -155.5t-153.5 -88.5l163 -246h-110l-156 235h-160l-41 -235h-95l120 680h252q109 0 174 -51t65 -139zM197 323h168q82 0 138.5 42.5t56.5 110.5q0 54 -40.5 85t-108.5 31h-167zM285 -58q23 0 39.5 -15.5t16.5 -38.5q0 -17 -11.5 -35.5t-68.5 -94.5
h-52l57 83q-38 12 -38 48q0 22 17 37.5t40 15.5z" />
    <glyph glyph-name="rcommaaccent" unicode="&#x157;" horiz-adv-x="369" 
d="M205 467l-12 -70q83 81 191 81l-15 -87q-116 -3 -193 -92l-53 -299h-92l83 467h91zM60 -58q23 0 39.5 -15.5t16.5 -38.5q0 -17 -11.5 -35.5t-68.5 -94.5h-52l57 83q-38 12 -38 48q0 22 17 37.5t40 15.5z" />
    <glyph glyph-name="Rcaron" unicode="&#x158;" horiz-adv-x="690" 
d="M351 752l-95 149h83l65 -97l97 97h89l-147 -149h-92zM656 490q0 -90 -58.5 -155.5t-153.5 -88.5l163 -246h-110l-156 235h-160l-41 -235h-95l120 680h252q109 0 174 -51t65 -139zM197 323h168q82 0 138.5 42.5t56.5 110.5q0 54 -40.5 85t-108.5 31h-167z" />
    <glyph glyph-name="rcaron" unicode="&#x159;" horiz-adv-x="369" 
d="M210 531l-95 149h83l65 -97l97 97h89l-147 -149h-92zM205 467l-12 -70q83 81 191 81l-15 -87q-116 -3 -193 -92l-53 -299h-92l83 467h91z" />
    <glyph glyph-name="Sacute" unicode="&#x15a;" horiz-adv-x="664" 
d="M568 903l-121 -146h-85l104 146h102zM409 695q106 0 173.5 -51.5t60.5 -156.5h-95q1 59 -35.5 92.5t-111.5 33.5q-77 0 -126 -35.5t-49 -92.5q0 -68 109 -90l91 -19q167 -33 167 -154q0 -104 -84 -170t-214 -66q-123 0 -189 62t-57 172h95q-2 -75 40.5 -112t130.5 -37
q79 0 128 35t49 91q0 69 -98 87l-111 22q-166 32 -160 169q4 103 87 161.5t199 58.5z" />
    <glyph glyph-name="sacute" unicode="&#x15b;" horiz-adv-x="519" 
d="M475 686l-121 -146h-85l104 146h102zM34 152l86 -1q0 -91 118 -91q55 0 89 20.5t34 54.5q0 44 -59 54l-101 18q-118 20 -118 110q0 74 61.5 119t157.5 45q36 0 67.5 -7.5t59 -24t42 -47.5t10.5 -73l-86 -1q4 40 -24.5 60.5t-80.5 20.5t-82.5 -20t-30.5 -51q0 -44 68 -56
l88 -15q119 -21 119 -112q0 -79 -64.5 -124.5t-163.5 -45.5q-89 0 -142.5 41t-47.5 126z" />
    <glyph glyph-name="Scedilla" unicode="&#x15e;" horiz-adv-x="664" 
d="M409 695q106 0 173.5 -51.5t60.5 -156.5h-95q1 59 -35.5 92.5t-111.5 33.5q-77 0 -126 -35.5t-49 -92.5q0 -68 109 -90l91 -19q167 -33 167 -154q0 -104 -84 -170t-214 -66q-123 0 -189 62t-57 172h95q-2 -75 40.5 -112t130.5 -37q79 0 128 35t49 91q0 69 -98 87l-111 22
q-166 32 -160 169q4 103 87 161.5t199 58.5zM227 -213h-81l72 150h92z" />
    <glyph glyph-name="scedilla" unicode="&#x15f;" horiz-adv-x="519" 
d="M34 152l86 -1q0 -91 118 -91q55 0 89 20.5t34 54.5q0 44 -59 54l-101 18q-118 20 -118 110q0 74 61.5 119t157.5 45q36 0 67.5 -7.5t59 -24t42 -47.5t10.5 -73l-86 -1q4 40 -24.5 60.5t-80.5 20.5t-82.5 -20t-30.5 -51q0 -44 68 -56l88 -15q119 -21 119 -112
q0 -79 -64.5 -124.5t-163.5 -45.5q-89 0 -142.5 41t-47.5 126zM168 -213h-81l72 150h92z" />
    <glyph glyph-name="Scaron" unicode="&#x160;" horiz-adv-x="664" 
d="M616 901l-147 -149h-92l-95 149h83l65 -97l97 97h89zM409 695q106 0 173.5 -51.5t60.5 -156.5h-95q1 59 -35.5 92.5t-111.5 33.5q-77 0 -126 -35.5t-49 -92.5q0 -68 109 -90l91 -19q167 -33 167 -154q0 -104 -84 -170t-214 -66q-123 0 -189 62t-57 172h95
q-2 -75 40.5 -112t130.5 -37q79 0 128 35t49 91q0 69 -98 87l-111 22q-166 32 -160 169q4 103 87 161.5t199 58.5z" />
    <glyph glyph-name="scaron" unicode="&#x161;" horiz-adv-x="519" 
d="M507 680l-147 -149h-92l-95 149h83l65 -97l97 97h89zM34 152l86 -1q0 -91 118 -91q55 0 89 20.5t34 54.5q0 44 -59 54l-101 18q-118 20 -118 110q0 74 61.5 119t157.5 45q36 0 67.5 -7.5t59 -24t42 -47.5t10.5 -73l-86 -1q4 40 -24.5 60.5t-80.5 20.5t-82.5 -20
t-30.5 -51q0 -44 68 -56l88 -15q119 -21 119 -112q0 -79 -64.5 -124.5t-163.5 -45.5q-89 0 -142.5 41t-47.5 126z" />
    <glyph glyph-name="Tcedilla" unicode="&#x162;" horiz-adv-x="641" 
d="M676 592h-246l-104 -592h-95l104 592h-244l16 88h585zM220 -63h92l-83 -150h-81z" />
    <glyph glyph-name="tcedilla" unicode="&#x163;" horiz-adv-x="438" 
d="M243 390l-38 -216q-8 -48 10.5 -76t61.5 -28q39 0 87 13l-1 -80q-63 -18 -107 -18q-77 0 -117 53.5t-26 135.5l38 216h-115l13 77h116l30 172h92l-30 -172h174l-13 -77h-175zM159 -63h92l-83 -150h-81z" />
    <glyph glyph-name="Tcaron" unicode="&#x164;" horiz-adv-x="641" 
d="M361 752l-95 149h83l65 -97l97 97h89l-147 -149h-92zM676 592h-246l-104 -592h-95l104 592h-244l16 88h585z" />
    <glyph glyph-name="tcaron" unicode="&#x165;" horiz-adv-x="438" 
d="M394 520h-71l42 192h94zM257 467h174l-13 -77h-175l-38 -216q-8 -48 10.5 -76t61.5 -28q39 0 87 13l-1 -80q-63 -18 -107 -18q-77 0 -117 53.5t-26 135.5l38 216h-115l13 77h116l30 172h92z" />
    <glyph glyph-name="Umacron" unicode="&#x16a;" horiz-adv-x="744" 
d="M605 832l-13 -67h-279l13 67h279zM744 680l-67 -385q-26 -147 -117 -228.5t-233 -81.5q-131 0 -197.5 88t-42.5 222l67 385h96l-68 -385q-18 -98 24.5 -159.5t135.5 -61.5q90 0 156 62t83 159l68 385h95z" />
    <glyph glyph-name="umacron" unicode="&#x16b;" horiz-adv-x="599" 
d="M496 560h-279l13 67h279zM558 467l-82 -467h-92l8 47q-78 -62 -169 -62t-136 59.5t-27 159.5l46 263h91l-45 -258q-12 -67 16 -103.5t87 -36.5q83 0 155 77l56 321h92z" />
    <glyph glyph-name="Uring" unicode="&#x16e;" horiz-adv-x="744" 
d="M461 968q47 0 76.5 -28t29.5 -72t-29.5 -72.5t-76.5 -28.5q-46 0 -75.5 28.5t-29.5 72.5t29.5 72t75.5 28zM461 816q23 0 37.5 14.5t14.5 37.5q0 22 -14.5 36.5t-37.5 14.5q-22 0 -37 -14.5t-15 -36.5t14.5 -37t37.5 -15zM744 680l-67 -385q-26 -147 -117 -228.5
t-233 -81.5q-131 0 -197.5 88t-42.5 222l67 385h96l-68 -385q-18 -98 24.5 -159.5t135.5 -61.5q90 0 156 62t83 159l68 385h95z" />
    <glyph glyph-name="uring" unicode="&#x16f;" horiz-adv-x="599" 
d="M339 530q-46 0 -75.5 28.5t-29.5 72.5t29.5 72t75.5 28q47 0 76.5 -28t29.5 -72t-29.5 -72.5t-76.5 -28.5zM339 682q-22 0 -37 -14.5t-15 -36.5q0 -23 14.5 -37.5t37.5 -14.5t37.5 14.5t14.5 37.5q0 22 -14.5 36.5t-37.5 14.5zM558 467l-82 -467h-92l8 47
q-78 -62 -169 -62t-136 59.5t-27 159.5l46 263h91l-45 -258q-12 -67 16 -103.5t87 -36.5q83 0 155 77l56 321h92z" />
    <glyph glyph-name="Uhungarumlaut" unicode="&#x170;" horiz-adv-x="744" 
d="M490 902l-83 -146h-78l65 146h96zM630 902l-82 -146h-78l65 146h95zM744 680l-67 -385q-26 -147 -117 -228.5t-233 -81.5q-131 0 -197.5 88t-42.5 222l67 385h96l-68 -385q-18 -98 24.5 -159.5t135.5 -61.5q90 0 156 62t83 159l68 385h95z" />
    <glyph glyph-name="uhungarumlaut" unicode="&#x171;" horiz-adv-x="595" 
d="M297 540h-78l65 146h95zM360 540l65 146h95l-82 -146h-78zM558 467l-82 -467h-92l8 47q-78 -62 -169 -62t-136 59.5t-27 159.5l46 263h91l-45 -258q-12 -67 16 -103.5t87 -36.5q83 0 155 77l56 321h92z" />
    <glyph glyph-name="Uogonek" unicode="&#x172;" horiz-adv-x="744" 
d="M744 680l-67 -385q-35 -196 -180 -272q-80 -52 -80 -98q0 -50 67 -50q20 0 37 4l9 -77q-19 -7 -58 -7q-61 0 -97 29.5t-36 79.5q0 44 39 84q-26 -3 -51 -3q-131 0 -197.5 88t-42.5 222l67 385h96l-68 -385q-18 -98 24.5 -159.5t135.5 -61.5q90 0 156 62t83 159l68 385h95
z" />
    <glyph glyph-name="uogonek" unicode="&#x173;" horiz-adv-x="599" 
d="M468 -109q18 0 37 4l9 -69q-20 -9 -58 -9q-61 0 -98.5 30t-37.5 79q0 58 67 94l5 27q-78 -62 -169 -62t-136 59.5t-27 159.5l46 263h91l-45 -258q-12 -67 16 -103.5t87 -36.5q83 0 155 77l56 321h92l-82 -467h-1q-77 -19 -77 -64t70 -45z" />
    <glyph glyph-name="Wcircumflex" unicode="&#x174;" horiz-adv-x="1071" 
d="M555 758h-92l148 149h92l94 -149h-83l-64 97zM1110 680l-350 -684h-94l-83 506l-268 -506h-94l-108 684h100l80 -523l277 523h83l86 -529l267 529h104z" />
    <glyph glyph-name="wcircumflex" unicode="&#x175;" horiz-adv-x="786" 
d="M379 531h-92l148 149h92l94 -149h-83l-64 97zM800 467l-248 -467h-92l-52 319l-165 -319h-81l-93 467h99l60 -322l166 322h79l53 -323l174 323h100z" />
    <glyph glyph-name="Ycircumflex" unicode="&#x176;" horiz-adv-x="672" 
d="M333 758h-92l148 149h92l94 -149h-83l-64 97zM384 236h-1l-41 -236h-97l42 236l-199 444h106l152 -341l273 341h120z" />
    <glyph glyph-name="ycircumflex" unicode="&#x177;" horiz-adv-x="607" 
d="M278 532h-92l148 148h92l95 -148h-84l-64 96zM617 468l-441 -710h-104l142 229l-147 481h99l114 -375l233 375h104z" />
    <glyph glyph-name="Ydieresis" unicode="&#x178;" horiz-adv-x="672" 
d="M317 765q-25 0 -41.5 16t-16.5 40t16.5 40.5t41.5 16.5t41.5 -16.5t16.5 -40.5t-16.5 -40t-41.5 -16zM508 765q-25 0 -41.5 16t-16.5 40t16.5 40.5t41.5 16.5t42 -16.5t17 -40.5t-17 -40t-42 -16zM384 236h-1l-41 -236h-97l42 236l-199 444h106l152 -341l273 341h120z
" />
    <glyph glyph-name="Zacute" unicode="&#x179;" horiz-adv-x="654" 
d="M452 757h-85l104 146h102zM661 632l-480 -545h388l-15 -87h-544l8 47l494 546h-384l15 87h528l-8 -47z" />
    <glyph glyph-name="zacute" unicode="&#x17a;" horiz-adv-x="495" 
d="M342 540h-85l104 146h102zM485 416l-334 -339h274l-13 -77h-411l8 45l340 345h-271l14 77h402z" />
    <glyph glyph-name="Zdotaccent" unicode="&#x17b;" horiz-adv-x="654" 
d="M408 762q-26 0 -43.5 17t-17.5 42t17.5 42t43.5 17t43.5 -17t17.5 -42t-17.5 -42t-43.5 -17zM661 632l-480 -545h388l-15 -87h-544l8 47l494 546h-384l15 87h528l-8 -47z" />
    <glyph glyph-name="zdotaccent" unicode="&#x17c;" horiz-adv-x="495" 
d="M296 552q-26 0 -43.5 17t-17.5 42t17.5 42t43.5 17t43.5 -17t17.5 -42t-17.5 -42t-43.5 -17zM485 416l-334 -339h274l-13 -77h-411l8 45l340 345h-271l14 77h402z" />
    <glyph glyph-name="Zcaron" unicode="&#x17d;" horiz-adv-x="654" 
d="M382 752l-95 149h83l65 -97l97 97h89l-147 -149h-92zM661 632l-480 -545h388l-15 -87h-544l8 47l494 546h-384l15 87h528l-8 -47z" />
    <glyph glyph-name="zcaron" unicode="&#x17e;" horiz-adv-x="495" 
d="M257 531l-95 149h83l65 -97l97 97h89l-147 -149h-92zM92 467h402l-9 -51l-334 -339h274l-13 -77h-411l8 45l340 345h-271z" />
    <glyph glyph-name="florin" unicode="&#x192;" horiz-adv-x="527" 
d="M498 600q-89 0 -122 -103l-38 -126h168l-13 -78h-179l-62 -201q-27 -88 -82 -138.5t-133 -50.5q-49 0 -100 15l27 80q42 -10 71 -10q89 0 122 104l62 201h-130l13 78h141l38 126q27 87 82 137.5t133 50.5q49 0 100 -15l-27 -79q-45 9 -71 9z" />
    <glyph glyph-name="Acaron" unicode="&#x1cd;" horiz-adv-x="748" 
d="M419 751l-95 149h83l65 -97l97 97h89l-147 -149h-92zM533 175h-337l-107 -175h-106l424 684h90l183 -684h-102zM510 263l-77 300l-183 -300h260z" />
    <glyph glyph-name="acaron" unicode="&#x1ce;" horiz-adv-x="615" 
d="M325 531l-95 149h83l65 -97l97 97h89l-147 -149h-92zM580 467l-82 -467h-92l7 41q-74 -53 -165 -53q-89 0 -144 58t-55 150q0 114 87 198.5t199 84.5q91 0 147 -53l7 41h91zM275 68q92 0 156 75l33 181q-40 75 -130 75q-76 0 -133.5 -57.5t-57.5 -133.5
q0 -61 36.5 -100.5t95.5 -39.5z" />
    <glyph glyph-name="Scommaaccent" unicode="&#x218;" horiz-adv-x="664" 
d="M409 695q106 0 173.5 -51.5t60.5 -156.5h-95q1 59 -35.5 92.5t-111.5 33.5q-77 0 -126 -35.5t-49 -92.5q0 -68 109 -90l91 -19q167 -33 167 -154q0 -104 -84 -170t-214 -66q-123 0 -189 62t-57 172h95q-2 -75 40.5 -112t130.5 -37q79 0 128 35t49 91q0 69 -98 87l-111 22
q-166 32 -160 169q4 103 87 161.5t199 58.5zM203 -242l57 83q-38 12 -38 48q0 22 16.5 37.5t40.5 15.5q23 0 39.5 -15.5t16.5 -38.5q0 -17 -11.5 -35.5t-68.5 -94.5h-52z" />
    <glyph glyph-name="scommaaccent" unicode="&#x219;" horiz-adv-x="519" 
d="M34 152l86 -1q0 -91 118 -91q55 0 89 20.5t34 54.5q0 44 -59 54l-101 18q-118 20 -118 110q0 74 61.5 119t157.5 45q36 0 67.5 -7.5t59 -24t42 -47.5t10.5 -73l-86 -1q4 40 -24.5 60.5t-80.5 20.5t-82.5 -20t-30.5 -51q0 -44 68 -56l88 -15q119 -21 119 -112
q0 -79 -64.5 -124.5t-163.5 -45.5q-89 0 -142.5 41t-47.5 126zM130 -242l57 83q-38 12 -38 48q0 22 17 37.5t40 15.5t39.5 -15.5t16.5 -38.5q0 -17 -11.5 -35.5t-68.5 -94.5h-52z" />
    <glyph glyph-name="uni021A" unicode="&#x21a;" horiz-adv-x="641" 
d="M676 592h-246l-104 -592h-95l104 592h-244l16 88h585zM262 -58q23 0 40 -15.5t17 -38.5q0 -17 -11 -34t-69 -96h-53l57 83q-37 12 -37 48q0 22 16.5 37.5t39.5 15.5z" />
    <glyph glyph-name="uni021B" unicode="&#x21b;" horiz-adv-x="438" 
d="M243 390l-38 -216q-8 -48 10.5 -76t61.5 -28q39 0 87 13l-1 -80q-63 -18 -107 -18q-77 0 -117 53.5t-26 135.5l38 216h-115l13 77h116l30 172h92l-30 -172h174l-13 -77h-175zM206 -58q23 0 39.5 -15.5t16.5 -38.5q0 -17 -11.5 -35.5t-68.5 -94.5h-52l57 83q-38 12 -38 48
q0 22 17 37.5t40 15.5z" />
    <glyph glyph-name="circumflex" unicode="&#x2c6;" 
d="M339 652l-95 -97h-92l148 149h92l94 -149h-83z" />
    <glyph glyph-name="caron" unicode="&#x2c7;" 
d="M525 704l-147 -149h-92l-95 149h83l65 -97l97 97h89z" />
    <glyph glyph-name="breve" unicode="&#x2d8;" 
d="M415 691h72q-12 -70 -61 -108.5t-113 -38.5q-65 0 -100 38.5t-23 108.5h68q-7 -43 11.5 -63.5t51.5 -20.5q32 0 59.5 21t34.5 63z" />
    <glyph glyph-name="dotaccent" unicode="&#x2d9;" 
d="M311 558q-26 0 -43.5 17t-17.5 42t17.5 42t43.5 17t43.5 -17t17.5 -42t-17.5 -42t-43.5 -17z" />
    <glyph glyph-name="ring" unicode="&#x2da;" 
d="M321 751q47 0 76.5 -28t29.5 -72t-29.5 -72.5t-76.5 -28.5q-46 0 -75.5 28.5t-29.5 72.5t29.5 72t75.5 28zM321 599q23 0 37.5 14.5t14.5 37.5q0 22 -14.5 36.5t-37.5 14.5q-22 0 -37 -14.5t-15 -36.5q0 -23 14.5 -37.5t37.5 -14.5z" />
    <glyph glyph-name="ogonek" unicode="&#x2db;" 
d="M356 45l11 -44q-77 -19 -77 -64t70 -45q18 0 37 4l9 -69q-20 -9 -58 -9q-61 0 -98.5 30t-37.5 79q0 45 40.5 76.5t103.5 41.5z" />
    <glyph glyph-name="tilde" unicode="&#x2dc;" 
d="M419 694h64q0 -37 -14.5 -62t-37.5 -34t-50 -7t-52 15l-33 18q-29 16 -50 7t-21 -36h-64q-1 37 14.5 61.5t39 33t50 7t49.5 -13.5l33 -18q32 -17 52 -8t20 37z" />
    <glyph glyph-name="hungarumlaut" unicode="&#x2dd;" 
d="M347 706l-83 -146h-78l65 146h96zM487 706l-82 -146h-78l65 146h95z" />
    <glyph glyph-name="uni0326" unicode="&#x326;" horiz-adv-x="0" 
d="M217 -242l57 83q-38 12 -38 48q0 22 17 37.5t40 15.5t39.5 -15.5t16.5 -38.5q0 -17 -11.5 -35.5t-68.5 -94.5h-52z" />
    <glyph glyph-name="Wgrave" unicode="&#x1e80;" horiz-adv-x="1071" 
d="M581 757l-96 146h102l78 -146h-84zM1110 680l-350 -684h-94l-83 506l-268 -506h-94l-108 684h100l80 -523l277 523h83l86 -529l267 529h104z" />
    <glyph glyph-name="wgrave" unicode="&#x1e81;" horiz-adv-x="786" 
d="M403 540l-96 146h102l78 -146h-84zM800 467l-248 -467h-92l-52 319l-165 -319h-81l-93 467h99l60 -322l166 322h79l53 -323l174 323h100z" />
    <glyph glyph-name="Wacute" unicode="&#x1e82;" horiz-adv-x="1071" 
d="M668 757h-85l104 146h102zM1110 680l-350 -684h-94l-83 506l-268 -506h-94l-108 684h100l80 -523l277 523h83l86 -529l267 529h104z" />
    <glyph glyph-name="wacute" unicode="&#x1e83;" horiz-adv-x="786" 
d="M488 540h-85l104 146h102zM800 467l-248 -467h-92l-52 319l-165 -319h-81l-93 467h99l60 -322l166 322h79l53 -323l174 323h100z" />
    <glyph glyph-name="Wdieresis" unicode="&#x1e84;" horiz-adv-x="1071" 
d="M539 765q-25 0 -41.5 16t-16.5 40t16.5 40.5t41.5 16.5t41.5 -16.5t16.5 -40.5t-16.5 -40t-41.5 -16zM730 765q-25 0 -41.5 16t-16.5 40t16.5 40.5t41.5 16.5t42 -16.5t17 -40.5t-17 -40t-42 -16zM1110 680l-350 -684h-94l-83 506l-268 -506h-94l-108 684h100l80 -523
l277 523h83l86 -529l267 529h104z" />
    <glyph glyph-name="wdieresis" unicode="&#x1e85;" horiz-adv-x="786" 
d="M346 555q-25 0 -41.5 16t-16.5 40t16.5 40.5t41.5 16.5t41.5 -16.5t16.5 -40.5t-16.5 -40t-41.5 -16zM537 555q-25 0 -41.5 16t-16.5 40t16.5 40.5t41.5 16.5t42 -16.5t17 -40.5t-17 -40t-42 -16zM800 467l-248 -467h-92l-52 319l-165 -319h-81l-93 467h99l60 -322
l166 322h79l53 -323l174 323h100z" />
    <glyph glyph-name="Ygrave" unicode="&#x1ef2;" horiz-adv-x="672" 
d="M359 757l-96 146h102l78 -146h-84zM384 236h-1l-41 -236h-97l42 236l-199 444h106l152 -341l273 341h120z" />
    <glyph glyph-name="ygrave" unicode="&#x1ef3;" horiz-adv-x="607" 
d="M308 540l-95 146h102l78 -146h-85zM617 468l-441 -710h-104l142 229l-147 481h99l114 -375l233 375h104z" />
    <glyph glyph-name="endash" unicode="&#x2013;" horiz-adv-x="714" 
d="M603 222l16 92h-497l-16 -92h497z" />
    <glyph glyph-name="emdash" unicode="&#x2014;" horiz-adv-x="1018" 
d="M907 222l16 92h-801l-16 -92h801z" />
    <glyph glyph-name="quoteleft" unicode="&#x2018;" horiz-adv-x="196" 
d="M239 679l-72 -121q36 -14 36 -48q0 -23 -17 -39.5t-41 -16.5q-25 0 -42 16.5t-17 39.5q0 28 35 77l61 92h57z" />
    <glyph glyph-name="quoteright" unicode="&#x2019;" horiz-adv-x="204" 
d="M84 461l72 121q-37 14 -37 48q0 24 17 40.5t42 16.5t42 -16.5t17 -40.5q0 -28 -35 -76l-62 -93h-56z" />
    <glyph glyph-name="quotesinglbase" unicode="&#x201a;" horiz-adv-x="204" 
d="M-22 -127l72 121q-36 14 -36 49q0 23 17 39.5t41 16.5q25 0 42 -16.5t17 -39.5q0 -28 -35 -77l-61 -93h-57z" />
    <glyph glyph-name="quotedblleft" unicode="&#x201c;" horiz-adv-x="376" 
d="M238 679l-72 -121q37 -14 37 -48q0 -23 -17 -39.5t-42 -16.5t-42 16.5t-17 39.5q0 28 35 77l62 92h56zM410 679l-72 -121q37 -13 37 -48q0 -23 -17 -39.5t-42 -16.5t-42 16.5t-17 39.5q0 26 35 77l62 92h56z" />
    <glyph glyph-name="quotedblright" unicode="&#x201d;" horiz-adv-x="376" 
d="M81 461l72 121q-36 14 -36 48q0 24 17 40.5t41 16.5q25 0 42 -16.5t17 -40.5q0 -28 -35 -76l-62 -93h-56zM253 461l73 121q-37 13 -37 48q0 24 17 40.5t41 16.5q25 0 42 -16.5t17 -40.5q0 -28 -35 -76l-61 -93h-57z" />
    <glyph glyph-name="quotedblbase" unicode="&#x201e;" horiz-adv-x="378" 
d="M-22 -127l72 121q-36 14 -36 49q0 23 17 39.5t41 16.5q25 0 42 -16.5t17 -39.5q0 -28 -35 -77l-61 -93h-57zM152 -127l72 121q-37 13 -37 49q0 23 17 39.5t42 16.5t42 -16.5t17 -39.5q0 -26 -35 -77l-62 -93h-56z" />
    <glyph glyph-name="dagger" unicode="&#x2020;" horiz-adv-x="407" 
d="M282 538l-38 -218h-63l38 218h-121l12 63h121l21 121h63l-21 -121h122l-12 -63h-122z" />
    <glyph glyph-name="daggerdbl" unicode="&#x2021;" horiz-adv-x="407" 
d="M280 489h122l-11 -62h-122l-19 -107h-62l18 107h-121l11 62h121l13 70h-121l10 63h122l17 100h63l-18 -100h122l-11 -63h-121z" />
    <glyph glyph-name="bullet" unicode="&#x2022;" horiz-adv-x="324" 
d="M173 175q-49 0 -85.5 36.5t-36.5 85.5t36.5 85.5t85.5 36.5q50 0 87 -36.5t37 -85.5t-37 -85.5t-87 -36.5z" />
    <glyph glyph-name="ellipsis" unicode="&#x2026;" horiz-adv-x="616" 
d="M64 -15q-24 0 -41.5 17t-17.5 41t17.5 40.5t41.5 16.5q25 0 42.5 -16.5t17.5 -40.5q0 -25 -17.5 -41.5t-42.5 -16.5zM278 -15q-24 0 -41.5 17t-17.5 41t17.5 40.5t41.5 16.5q25 0 42.5 -16.5t17.5 -40.5q0 -25 -17.5 -41.5t-42.5 -16.5zM486 -15q-24 0 -41.5 17t-17.5 41
t17.5 40.5t41.5 16.5q25 0 42.5 -16.5t17.5 -40.5q0 -25 -17.5 -41.5t-42.5 -16.5z" />
    <glyph glyph-name="perthousand" unicode="&#x2030;" horiz-adv-x="1569" 
d="M338 695q72 0 117 -44.5t45 -116.5q0 -94 -68 -158t-161 -64q-73 0 -117.5 44.5t-44.5 116.5q0 95 68 158.5t161 63.5zM359 0h-67l458 680h67zM326 628q-58 0 -102 -41.5t-44 -102.5q0 -46 29 -75.5t74 -29.5q58 0 101.5 41.5t43.5 102.5q0 46 -28.5 75.5t-73.5 29.5z
M856 368q73 0 117.5 -44.5t44.5 -115.5q0 -95 -68 -159t-162 -64q-71 0 -116 44.5t-45 116.5q0 95 68 158.5t161 63.5zM1325 368q73 0 117.5 -44.5t44.5 -115.5q0 -95 -68 -159t-162 -64q-71 0 -116 44.5t-45 116.5q0 95 68 158.5t161 63.5zM845 301q-58 0 -102 -41.5
t-44 -101.5q0 -46 28.5 -75.5t73.5 -29.5q58 0 102 41.5t44 102.5q0 46 -28.5 75t-73.5 29zM1314 301q-58 0 -102 -41.5t-44 -101.5q0 -46 28.5 -75.5t73.5 -29.5q58 0 102 41.5t44 102.5q0 46 -28.5 75t-73.5 29z" />
    <glyph glyph-name="guilsinglleft" unicode="&#x2039;" horiz-adv-x="267" 
d="M250 402l-129 -154l76 -146h-90l-77 150l130 150h90z" />
    <glyph glyph-name="guilsinglright" unicode="&#x203a;" horiz-adv-x="267" 
d="M23 102l130 154l-76 146h90l76 -150l-129 -150h-91z" />
    <glyph glyph-name="fraction" unicode="&#x2044;" horiz-adv-x="465" 
d="M37 0h-67l458 680h67z" />
    <glyph glyph-name="zerosuperior" unicode="&#x2070;" horiz-adv-x="441" 
d="M303 697q72 0 111.5 -46t39.5 -119q0 -102 -62.5 -173t-161.5 -71q-72 0 -111.5 46t-39.5 120q0 101 63 172t161 71zM241 353q64 0 102 50.5t38 119.5q0 48 -23 78.5t-67 30.5q-63 0 -101 -50.5t-38 -119.5q0 -48 22.5 -78.5t66.5 -30.5z" />
    <glyph glyph-name="foursuperior" unicode="&#x2074;" horiz-adv-x="407" 
d="M398 379h-57l-14 -79h-69l14 79h-214l8 44l165 268h73l-151 -251h129l20 115h69l-20 -115h57z" />
    <glyph glyph-name="fivesuperior" unicode="&#x2075;" horiz-adv-x="384" 
d="M205 627l-25 -138h-66l36 202h251l-11 -64h-185zM306 434q0 25 -17.5 40t-49.5 15h-59l11 61h61q59 0 90.5 -28.5t31.5 -76.5q0 -65 -50 -109.5t-123 -44.5q-65 0 -99 31t-34 85h70q7 -54 73 -54q40 0 67.5 23.5t27.5 57.5z" />
    <glyph glyph-name="sixsuperior" unicode="&#x2076;" horiz-adv-x="379" 
d="M241 567h7q60 0 95.5 -32.5t35.5 -83.5q0 -66 -52 -113t-128 -47q-60 0 -96.5 34t-36.5 85q0 30 13 55t43 62l141 164h83zM209 349q40 0 69.5 25.5t29.5 63.5q0 30 -19.5 48.5t-51.5 18.5q-41 0 -67 -22l-2 -2q-33 -31 -33 -65q0 -29 20.5 -48t53.5 -19z" />
    <glyph glyph-name="sevensuperior" unicode="&#x2077;" horiz-adv-x="324" 
d="M389 691l-8 -43l-233 -348h-80l218 324h-194l12 67h285z" />
    <glyph glyph-name="eightsuperior" unicode="&#x2078;" horiz-adv-x="401" 
d="M339 502q50 -27 50 -80q0 -58 -50 -96t-129 -38q-65 0 -101.5 28.5t-36.5 73.5q0 38 22.5 67.5t62.5 46.5q-37 23 -37 67q0 54 46.5 90t114.5 36q56 0 90 -27t34 -69q0 -67 -66 -99zM272 641q-34 0 -58 -19.5t-24 -48.5q0 -23 17 -37t44 -14q34 0 58 19t24 49
q0 23 -17 37t-44 14zM220 348q39 0 65 20.5t26 52.5q0 24 -18.5 38t-50.5 14q-39 0 -64.5 -20t-25.5 -51q0 -24 18.5 -39t49.5 -15z" />
    <glyph glyph-name="ninesuperior" unicode="&#x2079;" horiz-adv-x="379" 
d="M274 701q60 0 96.5 -34t36.5 -85q0 -31 -13 -56t-43 -60l-141 -165h-83l105 124h-7q-60 0 -95.5 32.5t-35.5 83.5q0 66 52 113t128 47zM303 509l2 2q33 31 33 65q0 29 -20.5 48t-53.5 19q-40 0 -69.5 -25.5t-29.5 -63.5q0 -30 19.5 -48.5t51.5 -18.5q41 0 67 22z" />
    <glyph glyph-name="zeroinferior" unicode="&#x2080;" horiz-adv-x="441" 
d="M221 220q72 0 111.5 -46t39.5 -119q0 -102 -62.5 -173t-161.5 -71q-72 0 -111.5 46t-39.5 119q0 101 63 172.5t161 71.5zM159 -124q64 0 102 50.5t38 119.5q0 48 -23 78.5t-67 30.5q-63 0 -101 -50.5t-38 -119.5q0 -48 22.5 -78.5t66.5 -30.5z" />
    <glyph glyph-name="oneinferior" unicode="&#x2081;" horiz-adv-x="321" 
d="M244 -121l-11 -59h-281l11 59h109l45 257l-109 -32l10 61l143 46h37l-59 -332h105z" />
    <glyph glyph-name="twoinferior" unicode="&#x2082;" horiz-adv-x="363" 
d="M95 -121h167l-11 -59h-281l6 37l165 144q49 41 66.5 62t17.5 46q0 22 -15 35t-41 13q-68 0 -83 -63h-70q12 57 54.5 91.5t106.5 34.5q57 0 88.5 -28.5t31.5 -70.5q0 -36 -21 -67.5t-80 -84.5z" />
    <glyph glyph-name="threeinferior" unicode="&#x2083;" horiz-adv-x="375" 
d="M235 16q43 -23 43 -72q0 -56 -44 -94.5t-115 -38.5q-63 0 -100.5 31.5t-36.5 82.5h71q2 -52 70 -52q38 0 62.5 18.5t24.5 46.5q0 48 -72 48h-33l11 57h32q34 0 56.5 19t22.5 47q0 22 -15 34.5t-43 12.5q-59 0 -75 -52h-70q14 53 56 83.5t100 30.5q54 0 84 -27.5t30 -71.5
q0 -68 -59 -103z" />
    <glyph glyph-name="fourinferior" unicode="&#x2084;" horiz-adv-x="407" 
d="M318 -102h-58l-13 -78h-69l13 78h-213l8 45l165 268h73l-151 -251h129l20 115h69l-20 -115h57z" />
    <glyph glyph-name="fiveinferior" unicode="&#x2085;" horiz-adv-x="384" 
d="M123 147l-25 -138h-66l36 202h251l-11 -64h-185zM224 -46q0 25 -17.5 40t-49.5 15h-59l11 61h61q59 0 90.5 -28.5t31.5 -76.5q0 -65 -50 -109.5t-123 -44.5q-65 0 -99.5 31t-33.5 85h70q7 -54 73 -54q40 0 67.5 23.5t27.5 57.5z" />
    <glyph glyph-name="sixinferior" unicode="&#x2086;" horiz-adv-x="379" 
d="M157 87h7q60 0 95.5 -32.5t35.5 -83.5q0 -66 -52 -113t-128 -47q-60 0 -96.5 34t-36.5 85q0 30 13 55t43 62l141 164h83zM125 -131q40 0 69.5 25.5t29.5 63.5q0 30 -19.5 48.5t-51.5 18.5q-41 0 -67 -22l-2 -2q-33 -31 -33 -65q0 -29 20.5 -48t53.5 -19z" />
    <glyph glyph-name="seveninferior" unicode="&#x2087;" horiz-adv-x="324" 
d="M305 211l-8 -43l-233 -348h-80l218 324h-194l12 67h285z" />
    <glyph glyph-name="eightinferior" unicode="&#x2088;" horiz-adv-x="401" 
d="M254 25q50 -27 50 -80q0 -58 -50 -96t-129 -38q-65 0 -101.5 28.5t-36.5 73.5q0 38 22.5 67.5t62.5 46.5q-37 23 -37 67q0 54 46.5 90t114.5 36q56 0 90 -27t34 -69q0 -67 -66 -99zM187 164q-34 0 -58 -19.5t-24 -48.5q0 -23 17 -37t44 -14q34 0 58 19t24 49q0 23 -17 37
t-44 14zM135 -129q39 0 65 20.5t26 51.5q0 24 -18.5 38.5t-50.5 14.5q-39 0 -64.5 -20t-25.5 -51q0 -24 18.5 -39t49.5 -15z" />
    <glyph glyph-name="nineinferior" unicode="&#x2089;" horiz-adv-x="379" 
d="M189 221q60 0 96.5 -34t36.5 -85q0 -31 -13 -56t-43 -60l-141 -165h-83l105 124h-7q-60 0 -95.5 32.5t-35.5 83.5q0 66 52 113t128 47zM218 29l2 2q33 31 33 65q0 29 -20.5 48t-53.5 19q-40 0 -69.5 -25.5t-29.5 -63.5q0 -30 19.5 -48.5t51.5 -18.5q41 0 67 22z" />
    <glyph glyph-name="Euro" unicode="&#x20ac;" horiz-adv-x="852" 
d="M434 78q81 0 153.5 47.5t105.5 125.5h98q-45 -119 -146 -192t-227 -73q-116 0 -196 65t-97 171h-98l11 67h83q0 23 5 51q3 19 7 32h-80l12 67h92q52 114 158.5 184.5t227.5 70.5q126 0 201.5 -73t77.5 -192h-98q-6 81 -58 127t-139 46q-84 0 -156.5 -44.5t-112.5 -118.5
h317l-29 -67h-316q-3 -10 -7 -32q-4 -24 -4 -51h293l-28 -67h-256q19 -66 74 -105t132 -39z" />
    <glyph glyph-name="uni2116" unicode="&#x2116;" horiz-adv-x="1368" 
d="M658 680h95l-120 -680h-76l-327 508l-90 -508h-95l120 680h62l339 -521zM1013 162q-94 0 -151.5 59t-57.5 151q0 118 88 200.5t208 82.5q92 0 150.5 -58.5t58.5 -149.5q0 -117 -88.5 -201t-207.5 -84zM1085 572q-76 0 -132 -56t-56 -133q0 -59 35.5 -98.5t94.5 -39.5
q76 0 132 56.5t56 133.5q0 59 -35.5 98t-94.5 39zM770 82h472l-14 -82h-472z" />
    <glyph glyph-name="uni2117" unicode="&#x2117;" horiz-adv-x="850" 
d="M445 695q150 0 257 -102t107 -253t-107 -253t-257 -102t-257 102t-107 253t107 253t257 102zM444 633q-122 0 -210 -85t-88 -208t88 -208t210 -85t210.5 85t88.5 208t-88.5 208t-210.5 85zM332 518h134q62 0 99.5 -32t37.5 -84q0 -53 -37.5 -83.5t-100.5 -30.5h-76v-112
h-57v342zM389 464v-125h77q36 0 57 17t21 46q0 28 -21 45t-57 17h-77z" />
    <glyph glyph-name="trademark" unicode="&#x2122;" horiz-adv-x="688" 
d="M248 628l-42 -241h-53l42 241h-103l9 51h259l-8 -51h-104zM714 679l-51 -292h-54l32 182l-115 -145h-29v1l-66 145l-32 -183h-53l51 292h40l86 -183l150 183h41z" />
    <glyph glyph-name="oneeighth" unicode="&#x215b;" horiz-adv-x="922" 
d="M34 290l11 59h109l45 257l-109 -32l10 61l143 46h37l-59 -332h105l-11 -59h-281zM729 680l-458 -680h-67l458 680h67zM807 205q50 -27 50 -80q0 -58 -50 -96t-130 -38q-64 0 -101 28.5t-37 73.5q0 38 22.5 67.5t62.5 46.5q-37 23 -37 67q0 54 47 90t115 36q56 0 89.5 -27
t33.5 -69q0 -66 -65 -99zM739 344q-34 0 -57.5 -19.5t-23.5 -48.5q0 -23 16.5 -37t44.5 -14q34 0 58 19t24 49q0 23 -17 37t-45 14zM687 51q40 0 65.5 20.5t25.5 52.5q0 24 -18 38t-50 14q-39 0 -65 -20t-26 -51q0 -24 18.5 -39t49.5 -15z" />
    <glyph glyph-name="threeeighths" unicode="&#x215c;" horiz-adv-x="905" 
d="M360 418q0 -56 -44 -94.5t-115 -38.5q-63 0 -100.5 31.5t-36.5 83.5h71q2 -53 70 -53q38 0 62.5 18.5t24.5 46.5q0 48 -72 48h-33l11 57h32q34 0 56.5 19t22.5 47q0 22 -15 34.5t-43 12.5q-59 0 -75 -52h-70q14 53 56 83.5t100 30.5q54 0 84 -27.5t30 -71.5
q0 -68 -59 -103q43 -23 43 -72zM718 680l-458 -680h-67l458 680h67zM790 205q49 -26 49 -80q0 -58 -49.5 -96t-129.5 -38q-64 0 -101 28.5t-37 73.5q0 38 22.5 67.5t62.5 46.5q-37 23 -37 67q0 54 46.5 90t115.5 36q55 0 89 -27t34 -69q0 -66 -65 -99zM722 344
q-34 0 -58 -19.5t-24 -48.5q0 -23 17 -37t44 -14q34 0 58.5 19.5t24.5 48.5q0 23 -17 37t-45 14zM670 51q39 0 65 20.5t26 52.5q0 23 -18.5 37.5t-49.5 14.5q-40 0 -65.5 -20t-25.5 -51q0 -24 18.5 -39t49.5 -15z" />
    <glyph glyph-name="fiveeighths" unicode="&#x215d;" horiz-adv-x="910" 
d="M203 617l-25 -138h-66l36 202h251l-11 -64h-185zM716 680l-458 -680h-67l458 680h67zM372 435q0 -65 -50 -109.5t-123 -44.5q-65 0 -99 31t-34 85h70q7 -54 73 -54q40 0 67.5 23.5t27.5 57.5q0 25 -17.5 40t-49.5 15h-59l11 61h61q59 0 90.5 -28.5t31.5 -76.5zM794 205
q50 -27 50 -80q0 -58 -50 -96t-130 -38q-64 0 -100.5 28.5t-36.5 73.5q0 78 84 114q-36 23 -36 67q0 54 46.5 90t114.5 36q56 0 90 -27t34 -69q0 -67 -66 -99zM726 344q-33 0 -57 -19.5t-24 -48.5q0 -23 17 -37t44 -14q34 0 58 19t24 49q0 23 -17 37t-45 14zM674 51
q40 0 66 20.5t26 52.5q0 24 -18.5 38t-50.5 14q-39 0 -64.5 -20t-25.5 -51q0 -24 18 -39t49 -15z" />
    <glyph glyph-name="seveneighths" unicode="&#x215e;" horiz-adv-x="810" 
d="M87 290l218 324h-194l12 67h285l-8 -43l-233 -348h-80zM625 680l-458 -680h-67l458 680h67zM702 205q49 -26 49 -80q0 -58 -49.5 -96t-129.5 -38q-64 0 -101 28.5t-37 73.5q0 38 22.5 67.5t62.5 46.5q-37 23 -37 67q0 54 46.5 90t115.5 36q55 0 89 -27t34 -69
q0 -66 -65 -99zM634 344q-34 0 -58 -19.5t-24 -48.5q0 -23 17 -37t44 -14q34 0 58.5 19.5t24.5 48.5q0 23 -17 37t-45 14zM582 51q39 0 65 20.5t26 52.5q0 23 -18.5 37.5t-49.5 14.5q-40 0 -65.5 -20t-25.5 -51q0 -24 18.5 -39t49.5 -15z" />
    <glyph glyph-name="arrowleft" unicode="&#x2190;" horiz-adv-x="766" 
d="M196 298l245 -241l-62 -61l-345 345l345 346l62 -61l-244 -241h529v-87h-530z" />
    <glyph glyph-name="arrowup" unicode="&#x2191;" horiz-adv-x="781" 
d="M347 530l-241 -245l-61 62l345 345l346 -345l-61 -62l-240 244v-529h-88v530z" />
    <glyph glyph-name="arrowright" unicode="&#x2192;" horiz-adv-x="766" 
d="M40 385h529l-244 241l62 61l345 -346l-345 -345l-62 61l245 241h-530v87z" />
    <glyph glyph-name="arrowdown" unicode="&#x2193;" horiz-adv-x="781" 
d="M435 680v-529l240 244l61 -62l-346 -345l-345 345l61 62l241 -245v530h88z" />
    <glyph glyph-name="arrowupleft" unicode="&#x2196;" horiz-adv-x="804" 
d="M709 -1l-533 533l1 -341h-87v489h489v-87l-341 1l532 -533z" />
    <glyph glyph-name="arrowupright" unicode="&#x2197;" horiz-adv-x="819" 
d="M581 594l-341 -1v87h489v-489h-87v341l-532 -533l-62 62z" />
    <glyph glyph-name="arrowdownright" unicode="&#x2198;" horiz-adv-x="804" 
d="M96 681l532 -533v341h86v-489h-488l-1 87l342 -1l-533 534z" />
    <glyph glyph-name="arrowdownleft" unicode="&#x2199;" horiz-adv-x="795" 
d="M238 86l341 1v-87h-489v489h87l-1 -341l533 533l61 -61z" />
    <glyph glyph-name="minus" unicode="&#x2212;" horiz-adv-x="684" 
d="M132 369h467l-15 -85h-468z" />
    <glyph glyph-name="R.ss02" horiz-adv-x="699" 
d="M657 490q0 -110 -84 -181t-215 -74l252 -235h-123l-255 235h-50l-41 -235h-96l120 680h263q107 0 168 -51t61 -139zM198 324h163q88 0 144 42t56 110q0 55 -40 85.5t-110 30.5h-166z" />
    <glyph glyph-name="Racute.ss02" horiz-adv-x="699" 
d="M433 757h-85l104 146h102zM656 490q0 -110 -83.5 -181t-214.5 -74l252 -235h-123l-255 235h-51l-41 -235h-95l119 680h263q107 0 168 -50.5t61 -139.5zM197 324h164q87 0 143 42t56 110q0 55 -39.5 85.5t-110.5 30.5h-166z" />
    <glyph glyph-name="Rcaron.ss02" horiz-adv-x="699" 
d="M362 752l-95 149h83l65 -97l97 97h89l-147 -149h-92zM656 490q0 -110 -83.5 -181t-214.5 -74l252 -235h-123l-255 235h-51l-41 -235h-95l119 680h263q107 0 168 -50.5t61 -139.5zM197 324h164q87 0 143 42t56 110q0 55 -39.5 85.5t-110.5 30.5h-166z" />
    <glyph glyph-name="Rcommaaccent.ss02" horiz-adv-x="699" 
d="M656 490q0 -110 -83.5 -181t-214.5 -74l252 -235h-123l-255 235h-51l-41 -235h-95l119 680h263q107 0 168 -50.5t61 -139.5zM197 324h164q87 0 143 42t56 110q0 55 -39.5 85.5t-110.5 30.5h-166zM290 -58q23 0 39.5 -15.5t16.5 -38.5q0 -17 -11.5 -35.5t-68.5 -94.5h-52
l57 83q-38 12 -38 48q0 22 17 37.5t40 15.5z" />
    <glyph glyph-name="Q.ss03" horiz-adv-x="828" 
d="M491 694q132 0 216.5 -86.5t84.5 -215.5q0 -107 -60 -201.5t-157 -149.5t-202 -55q-132 0 -216.5 86.5t-84.5 215.5q0 107 60 201.5t157 149.5t202 55zM382 77q122 0 217.5 91t95.5 216q0 94 -58 156.5t-155 62.5q-124 0 -217.5 -91t-93.5 -214q0 -94 57.5 -157.5
t153.5 -63.5zM717 -127l-12 -91q-162 28 -327 78l9 70z" />
    <glyph glyph-name="i.loclTRK" horiz-adv-x="273" 
d="M207 583q-26 0 -43 16.5t-17 41.5t17 41.5t43 16.5q25 0 42 -16.5t17 -41.5t-17 -41.5t-42 -16.5zM225 467l-82 -467h-92l82 467h92z" />
    <glyph glyph-name="germandbls.case" horiz-adv-x="1315" 
d="M409 695q106 0 173.5 -51.5t60.5 -156.5h-95q1 59 -35.5 92.5t-111.5 33.5q-77 0 -126 -35.5t-49 -92.5q0 -68 109 -90l91 -19q167 -33 167 -154q0 -104 -84 -170t-214 -66q-123 0 -189 62t-57 172h95q-2 -75 40.5 -112t130.5 -37q79 0 128 35t49 91q0 69 -98 87l-111 22
q-166 32 -160 169q4 103 87 161.5t199 58.5zM1060 695q106 0 173 -51t60 -157h-94q1 59 -35.5 92.5t-111.5 33.5q-78 0 -126.5 -35.5t-48.5 -92.5q0 -68 108 -90l91 -19q168 -33 168 -154q0 -104 -84 -170t-214 -66q-124 0 -189.5 62t-56.5 172h94q-2 -75 40.5 -112
t131.5 -37q79 0 128 35t49 91q0 69 -98 87l-112 22q-164 32 -160 169q4 103 87.5 161.5t199.5 58.5z" />
    <glyph glyph-name="l.ss01" horiz-adv-x="362" 
d="M249 710l-99 -563q-14 -77 55 -77q27 0 79 12l-1 -79q-64 -18 -106 -18q-72 0 -102.5 40t-17.5 116l101 569h91z" />
    <glyph glyph-name="lacute.ss01" horiz-adv-x="362" 
d="M381 928l-121 -146h-85l104 146h102zM249 710l-99 -563q-15 -77 55 -77q27 0 79 12l-1 -79q-64 -18 -106 -18q-72 0 -102.5 40t-17.5 116l100 569h92z" />
    <glyph glyph-name="lcaron.ss01" horiz-adv-x="362" 
d="M249 710l-99 -563q-15 -77 55 -77q27 0 79 12l-1 -79q-64 -18 -106 -18q-72 0 -102.5 40t-17.5 116l100 569h92zM423 710l-65 -192h-71l42 192h94z" />
    <glyph glyph-name="lcommaaccent.ss01" horiz-adv-x="362" 
d="M249 710l-99 -563q-15 -77 55 -77q27 0 79 12l-1 -79q-64 -18 -106 -18q-72 0 -102.5 40t-17.5 116l100 569h92zM77 -242l57 83q-38 12 -38 48q0 22 17 37.5t40 15.5t39.5 -15.5t16.5 -38.5q0 -17 -11.5 -35.5t-68.5 -94.5h-52z" />
    <glyph glyph-name="ldot.ss01" horiz-adv-x="392" 
d="M249 710l-99 -563q-15 -77 55 -77q27 0 79 12l-1 -79q-64 -18 -106 -18q-72 0 -102.5 40t-17.5 116l100 569h92zM290 264q-26 0 -43.5 17t-17.5 42t17.5 42t43.5 17t43.5 -17t17.5 -42t-17.5 -42t-43.5 -17z" />
    <glyph glyph-name="lslash.ss01" horiz-adv-x="362" 
d="M183 333l-33 -186q-15 -77 55 -77q27 0 79 12l-1 -79q-64 -18 -106 -18q-72 0 -102.5 40t-17.5 116l26 149l-59 -25l17 95l59 25l57 325h92l-50 -282l90 38l-16 -94z" />
    <glyph glyph-name="y.ss04" horiz-adv-x="602" 
d="M564 467l-85 -482q-18 -103 -92 -163.5t-177 -60.5q-95 0 -150.5 51t-51.5 133h94q0 -45 32.5 -73t90.5 -28q62 0 106 37.5t57 103.5l14 81q-78 -62 -166 -62q-94 0 -139.5 59.5t-27.5 159.5l43 244h92l-43 -239q-12 -66 16.5 -103t90.5 -37q78 0 151 78l53 301h92z" />
    <glyph glyph-name="yacute.ss04" horiz-adv-x="602" 
d="M383 540h-85l104 146h102zM565 467l-85 -482h-1q-19 -103 -92.5 -163.5t-176.5 -60.5q-95 0 -150.5 51t-51.5 133h94q0 -45 32.5 -73t90.5 -28q62 0 106 37.5t56 103.5h1l14 81q-78 -62 -167 -62q-93 0 -138.5 59.5t-27.5 159.5l43 244h92l-43 -239q-12 -66 16.5 -103
t90.5 -37q79 0 152 79l53 300h92z" />
    <glyph glyph-name="ycircumflex.ss04" horiz-adv-x="602" 
d="M273 531h-92l148 149h92l94 -149h-83l-64 97zM565 467l-85 -482h-1q-19 -103 -92.5 -163.5t-176.5 -60.5q-95 0 -150.5 51t-51.5 133h94q0 -45 32.5 -73t90.5 -28q62 0 106 37.5t56 103.5h1l14 81q-78 -62 -167 -62q-93 0 -138.5 59.5t-27.5 159.5l43 244h92l-43 -239
q-12 -66 16.5 -103t90.5 -37q79 0 152 79l53 300h92z" />
    <glyph glyph-name="ydieresis.ss04" horiz-adv-x="602" 
d="M241 555q-25 0 -41.5 16t-16.5 40t16.5 40.5t41.5 16.5t41.5 -16.5t16.5 -40.5t-16.5 -40t-41.5 -16zM432 555q-25 0 -41.5 16t-16.5 40t16.5 40.5t41.5 16.5t42 -16.5t17 -40.5t-17 -40t-42 -16zM565 467l-85 -482h-1q-19 -103 -92.5 -163.5t-176.5 -60.5
q-95 0 -150.5 51t-51.5 133h94q0 -45 32.5 -73t90.5 -28q62 0 106 37.5t56 103.5h1l14 81q-78 -62 -167 -62q-93 0 -138.5 59.5t-27.5 159.5l43 244h92l-43 -239q-12 -66 16.5 -103t90.5 -37q79 0 152 79l53 300h92z" />
    <glyph glyph-name="ygrave.ss04" horiz-adv-x="602" 
d="M298 540l-96 146h102l78 -146h-84zM565 467l-85 -482h-1q-19 -103 -92.5 -163.5t-176.5 -60.5q-95 0 -150.5 51t-51.5 133h94q0 -45 32.5 -73t90.5 -28q62 0 106 37.5t56 103.5h1l14 81q-78 -62 -167 -62q-93 0 -138.5 59.5t-27.5 159.5l43 244h92l-43 -239
q-12 -66 16.5 -103t90.5 -37q79 0 152 79l53 300h92z" />
    <glyph glyph-name="a.ss06" horiz-adv-x="542" 
d="M317 479q95 0 143 -56t31 -152l-47 -271h-91l6 34q-78 -45 -161 -45q-79 0 -124.5 34t-45.5 94q0 72 54.5 113.5t146.5 40.5h171q10 58 -13 93.5t-84 35.5q-45 0 -78 -20t-45 -55h-93q20 75 85 114.5t145 39.5zM217 66q79 0 156 51l15 84h-177q-42 0 -67 -19.5t-25 -49.5
q0 -29 25 -47.5t73 -18.5z" />
    <glyph glyph-name="aacute.ss06" horiz-adv-x="542" 
d="M368 540h-85l104 146h102zM317 479q95 0 143 -56t31 -152l-47 -271h-91l6 34q-78 -45 -161 -45q-79 0 -124.5 34t-45.5 94q0 72 54.5 113.5t146.5 40.5h172q10 58 -13.5 93.5t-83.5 35.5q-45 0 -78.5 -20t-45.5 -55h-93q20 75 85 114.5t145 39.5zM217 66q78 0 157 51
l15 84h-178q-42 0 -67 -19.5t-25 -49.5q0 -29 25 -47.5t73 -18.5z" />
    <glyph glyph-name="abreve.ss06" horiz-adv-x="542" 
d="M317 527q-65 0 -100 38.5t-23 108.5h68q-7 -43 11.5 -63.5t51.5 -20.5q32 0 59.5 21t34.5 63h72q-12 -70 -61 -108.5t-113 -38.5zM317 479q95 0 143 -56t31 -152l-47 -271h-91l6 34q-78 -45 -161 -45q-79 0 -124.5 34t-45.5 94q0 72 54.5 113.5t146.5 40.5h172
q10 58 -13.5 93.5t-83.5 35.5q-45 0 -78.5 -20t-45.5 -55h-93q20 75 85 114.5t145 39.5zM217 66q78 0 157 51l15 84h-178q-42 0 -67 -19.5t-25 -49.5q0 -29 25 -47.5t73 -18.5z" />
    <glyph glyph-name="acaron.ss06" horiz-adv-x="542" 
d="M282 531l-95 149h83l65 -97l97 97h89l-147 -149h-92zM317 479q95 0 143 -56t31 -152l-47 -271h-91l6 34q-78 -45 -161 -45q-79 0 -124.5 34t-45.5 94q0 72 54.5 113.5t146.5 40.5h172q10 58 -13.5 93.5t-83.5 35.5q-45 0 -78.5 -20t-45.5 -55h-93q20 75 85 114.5
t145 39.5zM217 66q78 0 157 51l15 84h-178q-42 0 -67 -19.5t-25 -49.5q0 -29 25 -47.5t73 -18.5z" />
    <glyph glyph-name="acircumflex.ss06" horiz-adv-x="542" 
d="M251 532h-92l148 148h92l95 -148h-83l-65 96zM317 479q95 0 143 -56t31 -152l-47 -271h-91l6 34q-78 -45 -161 -45q-79 0 -124.5 34t-45.5 94q0 72 54.5 113.5t146.5 40.5h172q10 58 -13.5 93.5t-83.5 35.5q-45 0 -78.5 -20t-45.5 -55h-93q20 75 85 114.5t145 39.5z
M217 66q78 0 157 51l15 84h-178q-42 0 -67 -19.5t-25 -49.5q0 -29 25 -47.5t73 -18.5z" />
    <glyph glyph-name="adieresis.ss06" horiz-adv-x="542" 
d="M226 555q-25 0 -41.5 16t-16.5 40t16.5 40.5t41.5 16.5t41.5 -16.5t16.5 -40.5t-16.5 -40t-41.5 -16zM417 555q-25 0 -41.5 16t-16.5 40t16.5 40.5t41.5 16.5t42 -16.5t17 -40.5t-17 -40t-42 -16zM317 479q95 0 143 -56t31 -152l-47 -271h-91l6 34q-78 -45 -161 -45
q-79 0 -124.5 34t-45.5 94q0 72 54.5 113.5t146.5 40.5h172q10 58 -13.5 93.5t-83.5 35.5q-45 0 -78.5 -20t-45.5 -55h-93q20 75 85 114.5t145 39.5zM217 66q78 0 157 51l15 84h-178q-42 0 -67 -19.5t-25 -49.5q0 -29 25 -47.5t73 -18.5z" />
    <glyph glyph-name="agrave.ss06" horiz-adv-x="542" 
d="M283 540l-96 146h102l78 -146h-84zM317 479q95 0 143 -56t31 -152l-47 -271h-91l6 34q-78 -45 -161 -45q-79 0 -124.5 34t-45.5 94q0 72 54.5 113.5t146.5 40.5h172q10 58 -13.5 93.5t-83.5 35.5q-45 0 -78.5 -20t-45.5 -55h-93q20 75 85 114.5t145 39.5zM217 66
q78 0 157 51l15 84h-178q-42 0 -67 -19.5t-25 -49.5q0 -29 25 -47.5t73 -18.5z" />
    <glyph glyph-name="amacron.ss06" horiz-adv-x="542" 
d="M470 560h-278l13 67h278zM317 479q95 0 143 -56t31 -152l-47 -271h-91l6 34q-78 -45 -161 -45q-79 0 -124.5 34t-45.5 94q0 72 54.5 113.5t146.5 40.5h172q10 58 -13.5 93.5t-83.5 35.5q-45 0 -78.5 -20t-45.5 -55h-93q20 75 85 114.5t145 39.5zM217 66q78 0 157 51
l15 84h-178q-42 0 -67 -19.5t-25 -49.5q0 -29 25 -47.5t73 -18.5z" />
    <glyph glyph-name="aogonek.ss06" horiz-adv-x="542" 
d="M444 0h-2q-77 -19 -77 -64t70 -45q18 0 37 4l9 -69q-20 -9 -58 -9q-61 0 -98.5 30t-37.5 79q0 61 70 95l2 13q-78 -45 -161 -45q-79 0 -124.5 34t-45.5 94q0 72 54.5 113.5t146.5 40.5h172q10 58 -13.5 93.5t-83.5 35.5q-45 0 -78.5 -20t-45.5 -55h-93q20 75 85 114.5
t145 39.5q95 0 143 -56t31 -152zM217 66q78 0 157 51l15 84h-178q-42 0 -67 -19.5t-25 -49.5q0 -29 25 -47.5t73 -18.5z" />
    <glyph glyph-name="aring.ss06" horiz-adv-x="542" 
d="M337 530q-46 0 -76 28.5t-30 72.5t29.5 72t76.5 28t76.5 -28t29.5 -72t-29.5 -72.5t-76.5 -28.5zM337 682q-22 0 -37 -14.5t-15 -36.5q0 -23 14.5 -37.5t37.5 -14.5t37.5 14.5t14.5 37.5q0 22 -15 36.5t-37 14.5zM317 479q95 0 143 -56t31 -152l-47 -271h-91l6 34
q-78 -45 -161 -45q-79 0 -124.5 34t-45.5 94q0 72 54.5 113.5t146.5 40.5h172q10 58 -13.5 93.5t-83.5 35.5q-45 0 -78.5 -20t-45.5 -55h-93q20 75 85 114.5t145 39.5zM217 66q78 0 157 51l15 84h-178q-42 0 -67 -19.5t-25 -49.5q0 -29 25 -47.5t73 -18.5z" />
    <glyph glyph-name="atilde.ss06" horiz-adv-x="542" 
d="M241 576h-64q-1 37 14.5 61.5t39 33t50 6.5t49.5 -14l33 -18q32 -16 52 -7t20 36h64q0 -49 -25.5 -76.5t-59.5 -27t-69 15.5l-33 19q-29 16 -50 7t-21 -36zM317 479q95 0 143 -56t31 -152l-47 -271h-91l6 34q-78 -45 -161 -45q-79 0 -124.5 34t-45.5 94q0 72 54.5 113.5
t146.5 40.5h172q10 58 -13.5 93.5t-83.5 35.5q-45 0 -78.5 -20t-45.5 -55h-93q20 75 85 114.5t145 39.5zM217 66q78 0 157 51l15 84h-178q-42 0 -67 -19.5t-25 -49.5q0 -29 25 -47.5t73 -18.5z" />
    <glyph glyph-name="zero.osf" horiz-adv-x="662" 
d="M385 552q106 0 171 -64t65 -169q0 -144 -95 -237.5t-234 -93.5q-106 0 -172 64.5t-66 169.5q0 144 96 237t235 93zM303 72q91 0 157.5 66t66.5 167q0 74 -42.5 118.5t-111.5 44.5q-92 0 -159 -66t-67 -167q0 -73 43 -118t113 -45z" />
    <glyph glyph-name="one.osf" horiz-adv-x="511" 
d="M463 79l-14 -79h-455l14 79h187l65 367l-187 -58l14 82l232 80h54l-83 -471h173z" />
    <glyph glyph-name="two.osf" horiz-adv-x="556" 
d="M206 79h274l-13 -79h-448l8 50l170 108q12 8 37.5 23.5t38 24t34 23t33 23.5t28 23t25 25t17.5 24t12.5 26.5t3.5 27.5q0 41 -28 66t-81 25q-61 0 -104 -33.5t-58 -91.5h-92q21 94 92 151t173 57q92 0 143 -46.5t51 -120.5q0 -43 -17.5 -79t-55 -68t-75 -57t-97.5 -60
q-3 -1 -4.5 -2t-3.5 -2.5t-4 -2.5l-4 -2z" />
    <glyph glyph-name="three.osf" horiz-adv-x="562" 
d="M409 203q80 -40 80 -130q0 -101 -72 -164t-192 -63q-100 0 -161 52t-57 136h93q1 -49 35 -77.5t97 -28.5q72 0 119 38t47 96q0 46 -34.5 73t-93.5 27h-55l13 77h55l-2 -10l2 10q64 0 106 38.5t42 96.5q0 44 -29.5 70.5t-79.5 26.5q-57 0 -94.5 -28t-52.5 -77h-93
q22 85 89 135.5t165 50.5q86 0 136 -45.5t50 -120.5q0 -61 -29.5 -109t-83.5 -74z" />
    <glyph glyph-name="four.osf" horiz-adv-x="641" 
d="M557 1h-102l-25 -144h-92l26 144h-360l11 59l285 477h97l-267 -454h248l38 211h91l-37 -211h102z" />
    <glyph glyph-name="five.osf" horiz-adv-x="588" 
d="M228 458l-45 -252h-88l60 337h408l-15 -85h-320zM425 94q0 51 -35.5 82t-98.5 31l-108 -1l15 83h118q92 0 146.5 -49.5t54.5 -129.5q0 -109 -83 -185.5t-204 -76.5q-106 0 -162.5 53t-55.5 145h93q10 -116 140 -116q75 0 127.5 48.5t52.5 115.5z" />
    <glyph glyph-name="six.osf" horiz-adv-x="616" 
d="M347 459q99 0 158.5 -55.5t59.5 -143.5q0 -116 -86.5 -195.5t-215.5 -79.5q-99 0 -158.5 57t-59.5 145q0 53 21.5 97t68.5 101l254 295h113l-190 -223q22 2 35 2zM276 62q80 0 137 53.5t57 127.5q0 57 -38 94.5t-100 37.5q-73 0 -124 -40l-4 -4q-37 -40 -51.5 -70
t-14.5 -66q0 -57 38 -95t100 -38z" />
    <glyph glyph-name="seven.osf" horiz-adv-x="503" 
d="M541 540l-10 -58l-409 -622h-106l390 591h-349l16 89h468z" />
    <glyph glyph-name="eight.osf" horiz-adv-x="624" 
d="M467 358q96 -43 96 -142q0 -100 -83.5 -165.5t-215.5 -65.5q-105 0 -165.5 48t-60.5 127q0 69 41.5 121t114.5 79q-72 41 -72 121q0 91 78 152.5t190 61.5q91 0 145.5 -45.5t54.5 -117.5q0 -60 -32.5 -104.5t-90.5 -69.5zM376 620q-67 0 -114 -39.5t-47 -95.5
q0 -45 32.5 -72.5t87.5 -27.5q68 0 114 38t46 94q0 44 -32.5 73.5t-86.5 29.5zM278 64q76 0 128.5 43t52.5 105q0 47 -37.5 77.5t-98.5 30.5q-77 0 -128.5 -41t-51.5 -102q0 -50 37 -81.5t98 -31.5z" />
    <glyph glyph-name="nine.osf" horiz-adv-x="616" 
d="M365 552q99 0 158.5 -57t59.5 -145q0 -53 -21.5 -96.5t-68.5 -100.5l-254 -296h-113l191 224q-22 -2 -36 -2q-98 0 -158 55t-60 143q0 116 86.5 195.5t215.5 79.5zM420 202l4 4q37 40 51.5 70t14.5 66q0 57 -38 95t-100 38q-80 0 -137 -53.5t-57 -127.5q0 -57 38 -94.5
t100 -37.5q71 0 124 40z" />
    <glyph glyph-name="zero.tf" horiz-adv-x="619" 
d="M386 695q111 0 171 -76t60 -201q0 -183 -99.5 -308t-257.5 -125q-111 0 -170.5 76t-59.5 201q0 183 99 308t257 125zM271 71q75 0 132.5 48.5t86 124.5t30.5 165q2 91 -34.5 145.5t-109.5 54.5q-112 0 -180 -100t-70 -238q-2 -91 34.5 -145.5t110.5 -54.5z" />
    <glyph glyph-name="one.tf" horiz-adv-x="619" 
d="M550 79l-14 -79h-502l14 79h202l88 497l-186 -58l14 82l231 80h54l-106 -601h205z" />
    <glyph glyph-name="two.tf" horiz-adv-x="619" 
d="M206 79h310l-14 -79h-452l9 50l258 240q10 9 32.5 29.5t31 28.5t25.5 24.5t24 24.5t18.5 22t16 23t10.5 21.5t8 24t2 23.5q0 44 -29 73t-83 29q-61 0 -105 -34t-59 -92h-93q21 94 93 151t175 57q94 0 146 -49t52 -125q0 -65 -38.5 -115.5t-152.5 -155.5z" />
    <glyph glyph-name="three.tf" horiz-adv-x="619" 
d="M458 343q80 -40 80 -130q0 -101 -72 -164t-192 -63q-100 0 -161 52t-57 136h93q1 -49 34.5 -77.5t96.5 -28.5q72 0 119.5 38t47.5 96q0 46 -34.5 73t-94.5 27h-54l13 77h55q64 0 106 38.5t42 96.5q0 44 -29.5 70.5t-79.5 26.5q-57 0 -94.5 -28t-52.5 -77h-93
q22 85 89 135.5t165 50.5q86 0 136 -45.5t50 -120.5q0 -61 -29.5 -109t-83.5 -74z" />
    <glyph glyph-name="four.tf" horiz-adv-x="619" 
d="M568 144h-102l-25 -144h-92l25 144h-359l11 59l285 477h97l-267 -454h248l37 211h92l-37 -211h101z" />
    <glyph glyph-name="five.tf" horiz-adv-x="619" 
d="M267 595l-45 -252h-88l60 337h408l-15 -85h-320zM464 231q0 51 -35.5 82t-98.5 31l-108 -1l15 83h118q92 0 146.5 -49.5t54.5 -129.5q0 -109 -83 -185.5t-204 -76.5q-106 0 -162.5 53t-55.5 145h93q10 -116 140 -116q75 0 127.5 48.5t52.5 115.5z" />
    <glyph glyph-name="six.tf" horiz-adv-x="619" 
d="M347 459q99 0 158.5 -55.5t59.5 -143.5q0 -116 -86.5 -195.5t-215.5 -79.5q-99 0 -158.5 57t-59.5 145q0 53 21.5 96.5t69.5 101.5l253 295h113l-190 -223q22 2 35 2zM277 62q79 0 136 53.5t57 127.5q0 57 -37.5 94.5t-100.5 37.5q-70 0 -123 -39l-4 -5
q-38 -40 -52 -69.5t-14 -66.5q0 -57 38 -95t100 -38z" />
    <glyph glyph-name="seven.tf" horiz-adv-x="619" 
d="M627 680l-9 -58l-409 -622h-107l390 591h-348l15 89h468z" />
    <glyph glyph-name="eight.tf" horiz-adv-x="619" 
d="M472 358q96 -43 96 -142q0 -100 -84 -165.5t-216 -65.5q-105 0 -165.5 48t-60.5 127q0 69 41.5 121t114.5 79q-72 39 -72 121q0 91 78 152.5t190 61.5q91 0 145.5 -45.5t54.5 -117.5q0 -60 -32.5 -105t-89.5 -69zM381 620q-67 0 -114.5 -39.5t-47.5 -95.5q0 -45 33 -72.5
t87 -27.5q68 0 114.5 38t46.5 94q0 44 -32.5 73.5t-86.5 29.5zM282 64q77 0 129.5 43t52.5 105q0 47 -37.5 77.5t-99.5 30.5q-77 0 -128 -41t-51 -102q0 -50 36.5 -81.5t97.5 -31.5z" />
    <glyph glyph-name="nine.tf" horiz-adv-x="593" 
d="M376 695q99 0 158.5 -57t59.5 -145q0 -53 -21.5 -96.5t-68.5 -100.5l-254 -296h-113l191 224q-22 -2 -36 -2q-98 0 -158 55t-60 143q0 116 87 195.5t215 79.5zM431 345l4 4q37 40 51.5 70t14.5 66q0 57 -38 95t-100 38q-80 0 -137 -53.5t-57 -127.5q0 -57 38 -94.5
t100 -37.5q71 0 124 40z" />
    <glyph glyph-name="zero.zero" horiz-adv-x="717" 
d="M439 695q117 0 180 -77.5t63 -207.5q0 -116 -45.5 -213t-130.5 -154.5t-193 -57.5q-117 0 -180.5 77.5t-63.5 208.5q0 179 103.5 301.5t266.5 122.5zM423 609q-116 0 -186 -97.5t-70 -239.5q0 -27 5 -59l364 350q-43 46 -113 46zM329 71q116 0 186 98t70 240q0 41 -9 77
l-371 -355q44 -60 124 -60z" />
    <glyph glyph-name="zero.osf.zero" horiz-adv-x="663" 
d="M385 552q106 0 171 -64t65 -169q0 -144 -95 -237.5t-234 -93.5q-106 0 -171.5 64.5t-65.5 169.5q0 144 95.5 237t234.5 93zM374 468q-93 0 -159.5 -66t-66.5 -167q0 -31 7 -53l324 248q-43 38 -105 38zM304 72q91 0 157.5 66.5t66.5 166.5q0 34 -9 61l-327 -250
q42 -44 112 -44z" />
    <glyph glyph-name="zero.dnom" horiz-adv-x="441" 
d="M251 400q72 0 111.5 -46t39.5 -119q0 -102 -62.5 -173t-161.5 -71q-72 0 -111.5 46t-39.5 120q0 101 63 172t161 71zM189 56q64 0 102 50.5t38 119.5q0 48 -23 78.5t-67 30.5q-63 0 -101 -50.5t-38 -119.5q0 -48 22.5 -78.5t66.5 -30.5z" />
    <glyph glyph-name="one.dnom" horiz-adv-x="321" 
d="M274 59l-11 -59h-281l11 59h109l45 257l-109 -32l10 61l143 46h37l-59 -332h105z" />
    <glyph glyph-name="two.dnom" horiz-adv-x="363" 
d="M125 59h167l-11 -59h-281l6 37l165 144q49 41 66.5 62t17.5 46q0 22 -15 35t-41 13q-68 0 -83 -63h-70q12 57 54.5 91.5t106.5 34.5q57 0 88.5 -28.5t31.5 -70.5q0 -36 -21 -67.5t-80 -84.5z" />
    <glyph glyph-name="three.dnom" horiz-adv-x="375" 
d="M265 196q43 -23 43 -72q0 -56 -44 -94.5t-115 -38.5q-63 0 -100.5 31.5t-36.5 83.5h71q2 -53 70 -53q38 0 62.5 18.5t24.5 46.5q0 48 -72 48h-33l11 57h32q34 0 56.5 19t22.5 47q0 22 -15 34.5t-43 12.5q-59 0 -75 -52h-70q14 53 56 83.5t100 30.5q54 0 84 -27.5
t30 -71.5q0 -68 -59 -103z" />
    <glyph glyph-name="four.dnom" horiz-adv-x="407" 
d="M344 79h-57l-14 -79h-69l14 79h-214l8 44l165 268h73l-151 -251h129l20 115h69l-20 -115h57z" />
    <glyph glyph-name="five.dnom" horiz-adv-x="384" 
d="M151 327l-25 -138h-66l36 202h251l-11 -64h-185zM252 134q0 25 -17.5 40t-49.5 15h-59l11 61h61q59 0 90.5 -28.5t31.5 -76.5q0 -65 -50 -109.5t-123 -44.5q-65 0 -99 31t-34 85h70q7 -54 73 -54q40 0 67.5 23.5t27.5 57.5z" />
    <glyph glyph-name="six.dnom" horiz-adv-x="379" 
d="M187 267h7q60 0 95.5 -32.5t35.5 -83.5q0 -66 -52 -113t-128 -47q-60 0 -96.5 34t-36.5 85q0 30 13 55t43 62l141 164h83zM155 49q40 0 69.5 25.5t29.5 63.5q0 30 -19.5 48.5t-51.5 18.5q-41 0 -67 -22l-2 -2q-33 -31 -33 -65q0 -29 20.5 -48t53.5 -19z" />
    <glyph glyph-name="seven.dnom" horiz-adv-x="324" 
d="M335 391l-8 -43l-233 -348h-80l218 324h-194l12 67h285z" />
    <glyph glyph-name="eight.dnom" horiz-adv-x="401" 
d="M284 205q50 -27 50 -80q0 -58 -50 -96t-129 -38q-65 0 -101.5 28.5t-36.5 73.5q0 38 22.5 67.5t62.5 46.5q-37 23 -37 67q0 54 46.5 90t114.5 36q56 0 90 -27t34 -69q0 -67 -66 -99zM217 344q-34 0 -58 -19.5t-24 -48.5q0 -23 17 -37t44 -14q34 0 58 19t24 49
q0 23 -17 37t-44 14zM165 51q39 0 65 20.5t26 52.5q0 24 -18.5 38t-50.5 14q-39 0 -64.5 -20t-25.5 -51q0 -24 18.5 -39t49.5 -15z" />
    <glyph glyph-name="nine.dnom" horiz-adv-x="379" 
d="M220 401q60 0 96.5 -34t36.5 -85q0 -31 -13 -56t-43 -60l-141 -165h-83l105 124h-7q-60 0 -95.5 32.5t-35.5 83.5q0 66 52 113t128 47zM249 209l2 2q33 31 33 65q0 29 -20.5 48t-53.5 19q-40 0 -69.5 -25.5t-29.5 -63.5q0 -30 19.5 -48.5t51.5 -18.5q41 0 67 22z" />
    <glyph glyph-name="zero.numr" horiz-adv-x="441" 
d="M303 690q72 0 111.5 -46t39.5 -119q0 -102 -62.5 -173t-161.5 -71q-72 0 -111.5 46t-39.5 120q0 101 63 172t161 71zM241 346q64 0 102 50.5t38 119.5q0 48 -23 78.5t-67 30.5q-63 0 -101 -50.5t-38 -119.5q0 -48 22.5 -78.5t66.5 -30.5z" />
    <glyph glyph-name="one.numr" horiz-adv-x="321" 
d="M326 349l-11 -59h-281l11 59h109l45 257l-109 -32l10 61l143 46h37l-59 -332h105z" />
    <glyph glyph-name="two.numr" horiz-adv-x="363" 
d="M177 349h167l-11 -59h-281l6 37l165 144q49 41 66.5 62t17.5 46q0 22 -15 35t-41 13q-68 0 -83 -63h-70q12 57 54.5 91.5t106.5 34.5q57 0 88.5 -28.5t31.5 -70.5q0 -36 -21 -67.5t-80 -84.5z" />
    <glyph glyph-name="three.numr" horiz-adv-x="375" 
d="M317 490q43 -23 43 -72q0 -56 -44 -94.5t-115 -38.5q-63 0 -100.5 31.5t-36.5 83.5h71q2 -53 70 -53q38 0 62.5 18.5t24.5 46.5q0 48 -72 48h-33l11 57h32q34 0 56.5 19t22.5 47q0 22 -15 34.5t-43 12.5q-59 0 -75 -52h-70q14 53 56 83.5t100 30.5q54 0 84 -27.5
t30 -71.5q0 -68 -59 -103z" />
    <glyph glyph-name="four.numr" horiz-adv-x="407" 
d="M396 369h-57l-14 -79h-69l14 79h-214l8 44l165 268h73l-151 -251h129l20 115h69l-20 -115h57z" />
    <glyph glyph-name="five.numr" horiz-adv-x="384" 
d="M203 617l-25 -138h-66l36 202h251l-11 -64h-185zM304 424q0 25 -17.5 40t-49.5 15h-59l11 61h61q59 0 90.5 -28.5t31.5 -76.5q0 -65 -50 -109.5t-123 -44.5q-65 0 -99 31t-34 85h70q7 -54 73 -54q40 0 67.5 23.5t27.5 57.5z" />
    <glyph glyph-name="six.numr" horiz-adv-x="379" 
d="M239 557h7q60 0 95.5 -32.5t35.5 -83.5q0 -66 -52 -113t-128 -47q-60 0 -96.5 34t-36.5 85q0 30 13 55t43 62l141 164h83zM207 339q40 0 69.5 25.5t29.5 63.5q0 30 -19.5 48.5t-51.5 18.5q-41 0 -67 -22l-2 -2q-33 -31 -33 -65q0 -29 20.5 -48t53.5 -19z" />
    <glyph glyph-name="seven.numr" horiz-adv-x="324" 
d="M387 681l-8 -43l-233 -348h-80l218 324h-194l12 67h285z" />
    <glyph glyph-name="eight.numr" horiz-adv-x="401" 
d="M337 499q50 -27 50 -80q0 -58 -50 -96t-129 -38q-65 0 -101.5 28.5t-36.5 73.5q0 38 22.5 67.5t62.5 46.5q-37 23 -37 67q0 54 46.5 90t114.5 36q56 0 90 -27t34 -69q0 -67 -66 -99zM270 638q-34 0 -58 -19.5t-24 -48.5q0 -23 17 -37t44 -14q34 0 58 19t24 49
q0 23 -17 37t-44 14zM218 345q39 0 65 20.5t26 52.5q0 24 -18.5 38t-50.5 14q-39 0 -64.5 -20t-25.5 -51q0 -24 18.5 -39t49.5 -15z" />
    <glyph glyph-name="nine.numr" horiz-adv-x="379" 
d="M272 695q60 0 96.5 -34t36.5 -85q0 -31 -13 -56t-43 -60l-141 -165h-83l105 124h-7q-60 0 -95.5 32.5t-35.5 83.5q0 66 52 113t128 47zM301 503l2 2q33 31 33 65q0 29 -20.5 48t-53.5 19q-40 0 -69.5 -25.5t-29.5 -63.5q0 -30 19.5 -48.5t51.5 -18.5q41 0 67 22z" />
    <glyph glyph-name="backslash.case" horiz-adv-x="372" 
d="M24 730h96l227 -777h-95z" />
    <glyph glyph-name="bullet.case" horiz-adv-x="324" 
d="M177 210q-49 0 -86 36.5t-37 85.5t36.5 85.5t86.5 36.5t86.5 -36.5t36.5 -85.5t-37 -85.5t-86 -36.5z" />
    <glyph glyph-name="exclamdown.case" horiz-adv-x="272" 
d="M202 689q24 0 41.5 -17t17.5 -41t-17.5 -40.5t-41.5 -16.5q-25 0 -42.5 16.5t-17.5 40.5q0 25 17.5 41.5t42.5 16.5zM133 483h83l-78 -483h-97z" />
    <glyph glyph-name="periodcentered.case" horiz-adv-x="193" 
d="M115 275q-25 0 -42 16t-17 41t17 41t42 16t42 -16t17 -41t-17 -41t-42 -16z" />
    <glyph glyph-name="questiondown.case" horiz-adv-x="551" 
d="M373 574q-25 0 -42.5 16.5t-17.5 40.5q0 25 17.5 41.5t42.5 16.5q24 0 41.5 -17t17.5 -41t-17.5 -40.5t-41.5 -16.5zM245 -12q-91 0 -144 50t-53 132q0 93 68 156t173 70l19 86h72l-18 -150h-55q-69 0 -118.5 -44t-49.5 -108q0 -49 31 -80t83 -31q49 0 90.5 28.5
t57.5 74.5h92q-25 -84 -92.5 -134t-155.5 -50z" />
    <glyph glyph-name="slash.case" horiz-adv-x="372" 
d="M-26 -47l364 777h96l-365 -777h-95z" />
    <glyph glyph-name="braceleft.case" horiz-adv-x="355" 
d="M275 566l-17 -96q-9 -55 -29.5 -83.5t-65.5 -42.5q40 -14 50 -42.5t1 -83.5l-17 -95q-7 -41 14.5 -66t63.5 -25l-16 -89q-83 0 -125.5 49.5t-28.5 130.5l17 92q9 53 -8.5 70.5t-69.5 17.5l14 82q52 0 76 17.5t33 70.5l16 93q14 80 74 129.5t143 49.5l-15 -89
q-42 0 -72.5 -26t-37.5 -64z" />
    <glyph glyph-name="braceright.case" horiz-adv-x="354" 
d="M119 123l16 95q10 55 30.5 83.5t65.5 42.5q-40 14 -50.5 42.5t-0.5 83.5l17 96q7 40 -14.5 65t-63.5 25l16 89q83 0 125.5 -49.5t27.5 -129.5l-16 -93q-9 -53 8 -70.5t70 -17.5l-14 -82q-53 0 -77 -17.5t-33 -70.5l-15 -92q-15 -81 -74.5 -130.5t-142.5 -49.5l15 89
q41 0 71.5 26t38.5 65z" />
    <glyph glyph-name="bracketleft.case" horiz-adv-x="371" 
d="M144 41h142l-17 -88h-233l138 777h233l-16 -88h-141z" />
    <glyph glyph-name="bracketright.case" horiz-adv-x="371" 
d="M265 642h-141l16 88h233l-137 -777h-233l15 88h141z" />
    <glyph glyph-name="parenleft.case" horiz-adv-x="366" 
d="M341 733l48 -67q-98 -81 -146.5 -152t-68.5 -172q-19 -96 5.5 -171.5t93.5 -155.5l-70 -60q-168 170 -125 395q21 118 83.5 207.5t179.5 175.5z" />
    <glyph glyph-name="parenright.case" horiz-adv-x="366" 
d="M131 673l70 60q168 -169 126 -395q-22 -118 -84.5 -207.5t-178.5 -175.5l-49 67q99 81 147.5 152t67.5 172q20 96 -4.5 171t-94.5 156z" />
    <glyph glyph-name="emdash.case" horiz-adv-x="1018" 
d="M918 289l17 91h-802l-16 -91h801z" />
    <glyph glyph-name="endash.case" horiz-adv-x="714" 
d="M614 288l16 92h-497l-16 -92h497z" />
    <glyph glyph-name="hyphen.case" horiz-adv-x="553" 
d="M453 288l16 91h-336l-16 -91h336z" />
    <glyph glyph-name="guillemotleft.case" horiz-adv-x="439" 
d="M265 486l-130 -154l76 -147h-90l-76 151l130 150h90zM437 486l-130 -154l76 -147h-89l-77 151l130 150h90z" />
    <glyph glyph-name="guillemotright.case" horiz-adv-x="439" 
d="M38 185l130 155l-77 146h90l77 -150l-130 -151h-90zM210 185l130 155l-76 146h90l76 -150l-130 -151h-90z" />
    <glyph glyph-name="guilsinglleft.case" horiz-adv-x="267" 
d="M265 486l-130 -154l76 -147h-90l-76 151l130 150h90z" />
    <glyph glyph-name="guilsinglright.case" horiz-adv-x="267" 
d="M31 185l130 155l-76 146h90l76 -150l-129 -151h-91z" />
    <glyph glyph-name="florin.tf" horiz-adv-x="619" 
d="M568 600q-89 0 -122 -103l-38 -126h169l-14 -78h-179l-62 -201q-27 -88 -82 -138.5t-133 -50.5q-49 0 -100 15l27 80q42 -10 71 -10q89 0 122 104l62 201h-130l13 78h141l38 126q28 87 82.5 137.5t132.5 50.5q49 0 100 -15l-27 -79q-45 9 -71 9z" />
    <glyph glyph-name="cent.tf" horiz-adv-x="619" 
d="M336 395q-68 0 -119.5 -46.5t-63.5 -115.5h1q-12 -71 22.5 -116t103.5 -45q50 0 89.5 25.5t57.5 67.5h94q-25 -71 -86 -118.5t-138 -56.5l-20 -109h-83l20 112q-86 16 -127 81t-25 159h-1q16 91 82 157.5t156 83.5l22 125h83l-22 -122q74 -9 118.5 -56.5t43.5 -119.5h-94
q-3 43 -33.5 68.5t-80.5 25.5z" />
    <glyph glyph-name="dollar.tf" horiz-adv-x="619" 
d="M625 487h-95q1 59 -35.5 92.5t-111.5 33.5q-77 0 -126 -35.5t-49 -92.5q0 -68 109 -90l91 -19q167 -33 167 -154q0 -100 -78.5 -165.5t-202.5 -70.5l-20 -112h-83l21 117q-93 16 -140.5 75.5t-40.5 153.5h95q-2 -75 40.5 -112t130.5 -37q79 0 128 35t49 91q0 69 -98 87
l-111 22q-166 32 -160 169q4 90 68.5 146.5t161.5 69.5l21 119h83l-20 -116q96 -7 154 -58t52 -149z" />
    <glyph glyph-name="Euro.tf" horiz-adv-x="619" 
d="M326 71q84 0 132 54h114q-42 -66 -110 -103t-151 -37q-106 0 -169 64t-74 173h-59l12 67h45q3 46 10 83h-41l12 67h48q41 116 131 186t210 70q89 0 145.5 -42.5t71.5 -116.5h-107q-12 35 -45 54t-80 19q-78 0 -137 -46t-90 -124h296l-29 -67h-287q-8 -38 -10 -83h262
l-28 -67h-230q12 -70 52 -110.5t106 -40.5z" />
    <glyph glyph-name="sterling.tf" horiz-adv-x="619" 
d="M623 494h-93q1 55 -32 87t-91 32q-67 0 -115 -41.5t-60 -110.5l-18 -101h222l-14 -80h-222l-35 -200h376l-15 -80h-537l15 80h69l35 200h-69l14 80h69l18 101q19 105 96 169.5t185 64.5q99 0 153.5 -54.5t48.5 -146.5z" />
    <glyph glyph-name="yen.tf" horiz-adv-x="619" 
d="M384 277h159l-12 -68h-180l-10 -59h180l-12 -69h-181l-14 -81h-97l14 81h-181l12 69h182l10 59h-181l11 68h161l-142 403h106l116 -342l235 342h106z" />
    <glyph glyph-name="arrowdown.ss05" horiz-adv-x="693" 
d="M600 403l-253 -253l-56 56l-197 198l56 57l197 -199l196 198z" />
    <glyph glyph-name="arrowleft.ss05" horiz-adv-x="693" 
d="M543 153l-196 198l-197 -199l-56 57l197 198l56 56l253 -253z" />
    <glyph glyph-name="arrowright.ss05" horiz-adv-x="570" 
d="M228 340l196 -196l-56 -57l-254 253l57 57l198 196l57 -56z" />
    <glyph glyph-name="arrowup.ss05" horiz-adv-x="563" 
d="M449 340l-253 -253l-57 57l196 196l-197 197l56 56l198 -196z" />
    <glyph glyph-name="at.case" horiz-adv-x="973" 
d="M573 724q159 0 258 -97.5t99 -248.5q0 -74 -21 -134.5t-69.5 -100.5t-118.5 -40q-94 0 -117 67q-69 -69 -162 -69q-74 0 -120.5 48t-46.5 122q0 98 71.5 166.5t166.5 68.5q77 0 121 -46l6 34h82l-39 -222q-18 -100 50 -100q62 0 94.5 55t32.5 139q0 127 -83.5 209.5
t-214.5 82.5q-81 0 -159 -32t-137 -85t-95 -127.5t-36 -155.5q0 -128 85.5 -213t214.5 -85q128 0 240 78l28 -57q-127 -87 -279 -87q-157 0 -259 100t-102 254q0 97 43 186t113 152t163 100.5t191 37.5zM467 175q75 0 131 67q2 24 6 48l14 78q-32 65 -105 65q-59 0 -106 -42
t-47 -108q0 -49 30.5 -78.5t76.5 -29.5z" />
    <glyph glyph-name="bar.case" horiz-adv-x="259" 
d="M260 730l-137 -777h-86l137 777h86z" />
    <glyph glyph-name="brokenbar.case" horiz-adv-x="259" 
d="M201 392h-86l59 338h86zM123 -47h-86l60 337h86z" />
    <glyph glyph-name="registered.ss07" horiz-adv-x="850" 
d="M438 695q150 0 257 -102t107 -253t-107 -253t-257 -102t-257 102t-107 253t107 253t257 102zM437 47q122 0 210.5 85t88.5 208t-88.5 208t-210.5 85t-210 -85t-88 -208t88 -208t210 -85zM587 402q0 -40 -22 -68t-61 -39l94 -119h-72l-86 112h-67v-112h-57v342h135
q61 0 98.5 -32t37.5 -84zM373 339h77q36 0 57 17t21 46q0 28 -21 45t-57 17h-77v-125z" />
    <glyph glyph-name="caron.alt" 
d="M366 680l-65 -192h-71l42 192h94z" />
    <glyph glyph-name="acute.case" 
d="M469 877l-121 -146h-85l104 146h102z" />
    <glyph glyph-name="breve.case" 
d="M415 882h72q-12 -71 -60.5 -109t-113.5 -38t-100 38t-23 109h68q-7 -43 11.5 -63.5t51.5 -20.5q32 0 59.5 21t34.5 63z" />
    <glyph glyph-name="caron.case" 
d="M525 874l-147 -148h-92l-95 148h83l65 -96l97 96h89z" />
    <glyph glyph-name="circumflex.case" 
d="M339 822l-95 -96h-92l148 148h92l94 -148h-83z" />
    <glyph glyph-name="dieresis.case" 
d="M228 864q25 0 41.5 -16t16.5 -40t-16.5 -40.5t-41.5 -16.5t-41.5 16.5t-16.5 40.5t16.5 40t41.5 16zM419 864q25 0 42 -16t17 -40t-17 -40.5t-42 -16.5t-41.5 16.5t-16.5 40.5t16.5 40t41.5 16z" />
    <glyph glyph-name="dotaccent.case" 
d="M311 749q-26 0 -43.5 17t-17.5 42t17.5 42t43.5 17t43.5 -17t17.5 -42t-17.5 -42t-43.5 -17z" />
    <glyph glyph-name="grave.case" 
d="M379 731h-84l-96 146h102z" />
    <glyph glyph-name="hungarumlaut.case" 
d="M347 877l-83 -146h-78l65 146h96zM487 877l-82 -146h-78l65 146h95z" />
    <glyph glyph-name="macron.case" 
d="M467 818l-13 -68h-279l13 68h279z" />
    <glyph glyph-name="ring.case" 
d="M321 942q47 0 76.5 -28t29.5 -72t-29.5 -72.5t-76.5 -28.5q-46 0 -75.5 28.5t-29.5 72.5t29.5 72t75.5 28zM321 790q23 0 37.5 14.5t14.5 37.5q0 22 -14.5 36.5t-37.5 14.5q-22 0 -37 -14.5t-15 -36.5t14.5 -37t37.5 -15z" />
    <glyph glyph-name="tilde.case" 
d="M419 864h64q0 -48 -25.5 -75.5t-59.5 -27.5t-69 15l-33 19q-29 16 -50 7t-21 -36h-64q-1 37 14.5 61.5t39 33t50 7t49.5 -13.5l33 -19q32 -16 52 -7t20 36z" />
    </font>
</defs>
</svg>
