<?xml version="1.0" encoding="UTF-8"?>
<svg width="1814px" height="1040px" viewBox="0 0 1814 1040" version="1.1" xmlns="http://www.w3.org/2000/svg" xmlns:xlink="http://www.w3.org/1999/xlink">
    <!-- Generator: Sketch 50 (54983) - http://www.bohemiancoding.com/sketch -->
    <title>Rectangle</title>
    <desc>Created with Sketch.</desc>
    <defs>
        <linearGradient x1="50%" y1="0%" x2="50%" y2="130.692492%" id="linearGradient-1">
            <stop stop-color="#ECF9D5" offset="0%"></stop>
            <stop stop-color="#4B962E" offset="100%"></stop>
        </linearGradient>
    </defs>
    <g id="Page-1" stroke="none" stroke-width="1" fill="none" fill-rule="evenodd">
        <rect id="Rectangle" fill-opacity="0" fill="#FAFAFA" x="-2" y="0" width="1814" height="1040"></rect>
        <g id="Group-2" transform="translate(-2.000000, -21.000000)" stroke-width="2">
            <polyline id="Path-2" stroke="#E7E8ED" points="1813.55171 24.9365315 1797.5319 24.9365315 1797.5319 250.230658 1797.5319 336.439946"></polyline>
            <path d="M1813.83528,262.745693 L1797.41103,245.145486" id="Path-4" stroke="#E7E8ED"></path>
            <path d="M1748.33463,20.3565462 L1748.33463,140.946301" id="Path-3" stroke="#E7E8ED"></path>
            <polyline id="Path-5" stroke="#E7E8ED" points="1728.41287 20.4470552 1728.41287 47.0933866 1643.92885 47.0933866"></polyline>
            <polyline id="Path-6" stroke="#E7E8ED" points="1584.15379 20.45684 1584.15379 93.0352529 1640.32317 151.017259 1640.32317 283.652046"></polyline>
            <polyline id="Path-6" stroke="#E7E8ED" points="1562.15379 20.45684 1562.15379 97.0352529 1618.32317 155.017259 1618.32317 294.652046"></polyline>
            <polyline id="Path-7" stroke="url(#linearGradient-1)" points="1543.27309 21.2640822 1543.27309 107.536258 1597.85489 165.863177 1597.85489 326.029816"></polyline>
            <polyline id="Path-8" stroke="#E7E8ED" points="1516.3748 19.79295 1516.3748 289.063015 1572.94046 347.722615 1572.94046 475.651704"></polyline>
            <polyline id="Path-8" stroke="#E7E8ED" points="1498.3748 20.1647646 1498.3748 298.063015 1554.94046 356.722615 1554.94046 509.778564"></polyline>
            <polyline id="Path-9" stroke="#E7E8ED" points="1320.07747 21.7215194 1320.07747 112.969243 1272.10526 112.969243 1272.10526 306.912852 1323.57307 361.291623 1323.57307 515.723039"></polyline>
            <polyline id="Path-9" stroke="#E7E8ED" points="1298.07747 20.3350561 1298.07747 94.969243 1250.10526 94.969243 1250.10526 308.416443 1305.97929 369.748797 1305.97929 555.041601"></polyline>
            <polyline id="Path-9" stroke="#D5F1AB" points="1338.07747 20.1609561 1338.07747 128.969243 1290.10526 128.969243 1290.10526 300.912852 1341.57307 354.291623 1341.57307 474.189624"></polyline>
            <path d="M1237.21822,21.5380553 L1237.21822,68.5219979" id="Path-10" stroke="#E7E8ED"></path>
            <polyline id="Path-11" stroke="#E7E8ED" points="1221.63599 21.6236719 1221.63599 310.361978 1171.65547 310.361978 1171.65547 472.331458 1228.91341 531.061998 1228.91341 663.307841"></polyline>
            <polyline id="Path-11" stroke="#E7E8ED" points="1201.63599 20.6236719 1201.63599 291.361978 1151.65547 291.361978 1151.65547 481.331458 1207.91341 536.061998 1206.91341 670.307841"></polyline>
            <polyline id="Path-11" stroke="#E7E8ED" points="1182.63599 0.623671882 1182.63599 271.361978 1132.65547 271.361978 1132.65547 490.331458 1186.91341 544.061998 1187.91341 699.307841"></polyline>
            <polyline id="Path-11" stroke="#E7E8ED" points="746.635995 21.6236719 746.635995 310.361978 696.655471 310.361978 696.655471 472.331458 753.913405 531.061998 753.913405 663.307841"></polyline>
            <polyline id="Path-11" stroke="#D5F1AB" points="726.635995 20.6236719 726.635995 291.361978 676.655471 291.361978 676.655471 481.331458 732.913405 536.061998 731.913405 670.307841"></polyline>
            <polyline id="Path-11" stroke="#E7E8ED" points="707.635995 0.623671882 707.635995 271.361978 657.655471 271.361978 657.655471 490.331458 711.913405 544.061998 712.913405 699.307841"></polyline>
            <polyline id="Path-12" stroke="#E7E8ED" points="1166.12953 21.379053 1166.12953 74.0308144 1116.27132 74.0308144 1116.27132 242.891207 1166.12953 242.891207 1166.12953 108.698198 1141.20042 108.698198 1141.20042 195.997773"></polyline>
            <polyline id="Path-12" stroke="#E7E8ED" points="691.129531 21.379053 691.129531 74.0308144 641.271317 74.0308144 641.271317 242.891207 691.129531 242.891207 691.129531 108.698198 666.200424 108.698198 666.200424 195.997773"></polyline>
            <path d="M1054.61269,21.0586023 L1054.61269,90.0533491" id="Path-13" stroke="#E7E8ED"></path>
            <path d="M1073.61269,21.0586023 L1073.61269,106.053349" id="Path-13" stroke="#E7E8ED"></path>
            <path d="M1094.61269,21.0586023 L1094.61269,122.053349" id="Path-13" stroke="#E7E8ED"></path>
            <polyline id="Path-14" stroke="url(#linearGradient-1)" points="1028.09845 20.8971539 1028.09845 116.115041 1081.82164 170.339702 1081.82164 324.694197"></polyline>
            <polyline id="Path-15" stroke="#E7E8ED" points="1005.15076 21.7313042 1005.15076 121.927185 1060.68413 177.555958 1060.68413 292.612434 1025.50794 292.612434"></polyline>
            <polyline id="Path-15" stroke="#E7E8ED" points="986.150758 30.7313042 986.150758 130.927185 1041.68413 186.555958 1041.68413 264.612434 996.484649 264.612434"></polyline>
            <polyline id="Path-14" stroke="#E7E8ED" points="554.098453 20.8971539 554.098453 116.115041 607.821644 170.339702 607.821644 375.694197"></polyline>
            <polyline id="Path-15" stroke="#E7E8ED" points="531.150758 21.7313042 531.150758 121.927185 586.68413 177.555958 586.68413 287.612434 510.507939 287.612434"></polyline>
            <polyline id="Path-15" stroke="#E7E8ED" points="512.150758 19.7313042 512.150758 130.927185 567.68413 186.555958 567.68413 264.612434 480.484649 264.612434"></polyline>
            <polyline id="Path-16" stroke="#E7E8ED" points="948.663952 21.7155381 948.663952 371.604243 1086.58223 371.604243 1086.58223 681.748493 1140.95212 738.241976 1140.95212 901.351645"></polyline>
            <polyline id="Path-16" stroke="#E7E8ED" points="966.663952 20.7155381 966.663952 350.604243 1104.58223 350.604243 1105.58223 671.748493 1159.95212 730.241976 1158.95212 857.351645"></polyline>
            <polyline id="Path-17" stroke="url(#linearGradient-1)" points="860.80358 21.3922526 860.80358 127.842265 904.913503 167.169297 903.913503 496.441725 855.80358 496.441725 855.80358 685.914265 903.913503 740.0286 903.913503 883.736443"></polyline>
            <polyline id="Path-18" stroke="#E7E8ED" points="866.990386 354.249119 866.990386 196.682506 811.469369 141.636018 811.469369 20.9013806"></polyline>
            <polyline id="Path-18" stroke="#E7E8ED" points="844.990386 399.091335 844.990386 203.682506 810.894112 170.491762 789.469369 149.636018 789.469369 19.9013806"></polyline>
            <polyline id="Path-18" stroke="#E7E8ED" points="823.990386 462.091335 823.990386 212.682506 789.894112 179.491762 768.469369 158.636018 768.469369 20.0861779"></polyline>
            <polyline id="Path-18" stroke="#E7E8ED" points="886.507286 440.689489 886.507286 182.329917 838.469369 134.636018 838.469369 22.0155074"></polyline>
            <path d="M580.170986,20.7275123 L580.170986,81.9520798" id="Path-19" stroke="#E7E8ED"></path>
            <path d="M600,21 L600,111.624909" id="Path-20" stroke="#E7E8ED"></path>
            <path d="M619.388556,21.3313345 L619.388556,131.613774" id="Path-21" stroke="#E7E8ED"></path>
            <polyline id="Path-22" stroke="#E7E8ED" points="339.742289 21.3012508 352.607356 33.581835 352.607356 187.838005"></polyline>
            <polyline id="Path-23" stroke="#E7E8ED" points="310.569724 19.7089651 332.672627 42.6842942 332.672627 154.079829 291.924295 154.079829"></polyline>
            <polyline id="Path-23" stroke="#E7E8ED" points="283.569724 19.7089651 310.672627 48.6842942 310.672627 127.519105 257.934768 127.519105"></polyline>
            <polyline id="Path-24" stroke="#E7E8ED" points="469.841619 21.3896268 469.841619 153.899759 421.899728 153.899759 421.899728 343.875399 476.06722 398.972243 476.06722 534.184584"></polyline>
            <polyline id="Path-24" stroke="#D5F1AB" points="452.841619 18.2256348 452.841619 133.899759 402.899728 133.899759 402.899728 352.875399 457.06722 407.972243 457.06722 563.184584"></polyline>
            <polyline id="Path-24" stroke="#E7E8ED" points="490.841619 20.3896268 490.841619 171.899759 442.899728 171.899759 442.899728 336.757701 497.632212 391.018519 497.632212 532.07439"></polyline>
            <polyline id="Path-25" stroke="#E7E8ED" points="197.35509 21.3708546 197.35509 372.461194 148.02744 372.461194 148.02744 535.716968 203.710455 590.667893 203.710455 729.008978"></polyline>
            <polyline id="Path-26" stroke="#E7E8ED" points="386.723731 21.4962861 386.723731 105.110916 437.101335 105.110916 437.101335 21.4962861"></polyline>
            <path d="M412.618223,20.5289631 L412.618223,60.3572264" id="Path-27" stroke="#E7E8ED"></path>
            <polyline id="Path-28" stroke="#E7E8ED" points="25.7993236 21.4038102 25.7993236 321.861993 1.36020422 321.861993"></polyline>
            <polyline id="Path-29" stroke="#E7E8ED" points="0.0672823754 356.578656 24.5959319 356.578656 24.5959319 487.661445 0.0672823754 487.661445"></polyline>
            <path d="M927.131811,21.2669658 L927.131811,394.270405" id="Path-30" stroke="#E7E8ED"></path>
            <polyline id="Path-31" stroke="#E7E8ED" points="40.9279432 21.0237487 65.0819726 46.0372297 96.0893099 78.1478739 96.0893099 305.92208"></polyline>
            <polyline id="Path-31" stroke="#E7E8ED" points="58.9279432 15.0237487 83.0819726 40.0372297 114.08931 72.1478739 114.08931 258.92208"></polyline>
            <polyline id="Path-31" stroke="#E7E8ED" points="78.9279432 6.02374865 103.081973 31.0372297 134.08931 63.1478739 134.08931 223.92208"></polyline>
            <polyline id="Path-23" stroke="#E7E8ED" points="310.569724 19.7089651 332.672627 42.6842942 332.672627 154.079829 291.924295 154.079829"></polyline>
            <polyline id="Path-32" stroke="#E7E8ED" points="218.79778 22.186047 218.79778 233.671194 356.409201 233.671194 356.409201 434.883458"></polyline>
            <polyline id="Path-32" stroke="#E7E8ED" points="238.79778 3.186047 238.79778 214.671194 376.409201 214.671194 376.409201 402.883458"></polyline>
            <polyline id="Path-33" stroke="#E7E8ED" points="169.405827 20.3772102 179.381204 31.2956821 179.381204 355.886677 128.945005 355.886677 128.945005 395.797113"></polyline>
            <polyline id="Path-33" stroke="#E7E8ED" points="131.980297 19.2460121 155.381204 41.2956821 155.381204 338.886677 104.945005 338.886677 104.945005 378.797113"></polyline>
        </g>
        <g id="Group" transform="translate(86.000000, 18.000000)" fill-opacity="0.92">
            <circle id="Oval" fill="#E7E8ED" cx="17" cy="342" r="8"></circle>
            <circle id="Oval" fill="#E7E8ED" cx="41" cy="361" r="8"></circle>
            <circle id="Oval" fill="#E7E8ED" cx="46" cy="192" r="8"></circle>
            <circle id="Oval" fill="#E7E8ED" cx="170" cy="86" r="8"></circle>
            <circle id="Oval" fill="#E7E8ED" cx="204" cy="113" r="8"></circle>
            <circle id="Oval" fill="#E7E8ED" cx="263" cy="147" r="8"></circle>
            <circle id="Oval" fill="#E7E8ED" cx="324" cy="16" r="8"></circle>
            <circle id="Oval" fill="#E7E8ED" cx="492" cy="45" r="8"></circle>
            <circle id="Oval" fill="#E7E8ED" cx="386" cy="225" r="8"></circle>
            <circle id="Oval" fill="#E7E8ED" cx="415" cy="249" r="8"></circle>
            <circle id="Oval" fill="#E7E8ED" cx="520" cy="340" r="8"></circle>
            <circle id="Oval" fill="#E7E8ED" cx="625" cy="667" r="8"></circle>
            <circle id="Oval" fill="#D5F1AB" cx="644" cy="639" r="8"></circle>
            <circle id="Oval" fill="#E7E8ED" cx="666" cy="622" r="8"></circle>
            <circle id="Oval" fill="#E7E8ED" cx="410" cy="489" r="8"></circle>
            <circle id="Oval" fill="#E7E8ED" cx="388" cy="499" r="8"></circle>
            <circle id="Oval" fill="#E7E8ED" cx="369" cy="529" r="8"></circle>
            <circle id="Oval" fill="#E7E8ED" cx="269" cy="402" r="8"></circle>
            <circle id="Oval" fill="#E7E8ED" cx="288" cy="371" r="8"></circle>
            <circle id="Oval" fill="#E7E8ED" cx="576" cy="154" r="8"></circle>
            <circle id="Oval" fill="#E7E8ED" cx="512" cy="69" r="8"></circle>
            <circle id="Oval" fill="#E7E8ED" cx="531" cy="97" r="8"></circle>
            <circle id="Oval" fill="#4B962E" cx="1510" cy="293" r="8"></circle>
            <circle id="Oval" fill="#E7E8ED" cx="1530" cy="261" r="8"></circle>
            <circle id="Oval" fill="#E7E8ED" cx="1552" cy="241" r="8"></circle>
            <circle id="Oval" fill="#E7E8ED" cx="1660" cy="103" r="8"></circle>
            <circle id="Oval" fill="#E7E8ED" cx="1709" cy="304" r="8"></circle>
            <circle id="Oval" fill="#E7E8ED" cx="1559" cy="8" r="8"></circle>
            <circle id="Oval" fill="#E7E8ED" cx="1100" cy="667" r="8"></circle>
            <circle id="Oval" fill="#E7E8ED" cx="1119" cy="640" r="8"></circle>
            <circle id="Oval" fill="#E7E8ED" cx="1141" cy="627" r="8"></circle>
            <circle id="Oval" fill="#E7E8ED" cx="1218" cy="522" r="8"></circle>
            <circle id="Oval" fill="#E7E8ED" cx="1236" cy="484" r="8"></circle>
            <circle id="Oval" fill="#D5F1AB" cx="1254" cy="444" r="8"></circle>
            <circle id="Oval" fill="#E7E8ED" cx="1467" cy="477" r="8"></circle>
            <circle id="Oval" fill="#E7E8ED" cx="1071" cy="825" r="8"></circle>
            <circle id="Oval" fill="#E7E8ED" cx="1053" cy="867" r="8"></circle>
            <circle id="Oval" fill="#4B962E" cx="816" cy="851" r="8"></circle>
            <circle id="Oval" fill="#E7E8ED" cx="116" cy="688" r="8"></circle>
            <circle id="Oval" fill="#E7E8ED" cx="967" cy="45" r="8"></circle>
            <circle id="Oval" fill="#E7E8ED" cx="986" cy="68" r="8"></circle>
            <circle id="Oval" fill="#E7E8ED" cx="1007" cy="90" r="8"></circle>
            <circle id="Oval" fill="#E7E8ED" cx="1053" cy="160" r="8"></circle>
            <circle id="Oval" fill="#E7E8ED" cx="1149" cy="32" r="8"></circle>
            <circle id="Oval" fill="#E7E8ED" cx="736" cy="429" r="8"></circle>
            <circle id="Oval" fill="#E7E8ED" cx="757" cy="364" r="8"></circle>
            <circle id="Oval" fill="#E7E8ED" cx="779" cy="318" r="8"></circle>
            <circle id="Oval" fill="#E7E8ED" cx="799" cy="406" r="8"></circle>
            <circle id="Oval" fill="#E7E8ED" cx="839" cy="362" r="8"></circle>
            <circle id="Oval" fill="#E7E8ED" cx="901" cy="226" r="8"></circle>
            <circle id="Oval" fill="#E7E8ED" cx="936" cy="254" r="8"></circle>
            <circle id="Oval" fill="#4B962E" cx="994" cy="287" r="8"></circle>
            <circle id="Oval" fill="#E7E8ED" cx="26" cy="221" r="8"></circle>
            <circle id="Oval" fill="#E7E8ED" cx="8" cy="270" r="8"></circle>
            <circle id="Oval" fill="#D5F1AB" cx="369" cy="529" r="8"></circle>
        </g>
    </g>
</svg>