<?xml version="1.0" encoding="UTF-8"?>
<svg width="234px" height="120px" viewBox="0 0 234 120" version="1.1" xmlns="http://www.w3.org/2000/svg" xmlns:xlink="http://www.w3.org/1999/xlink">
    <!-- Generator: Sketch 49.3 (51167) - http://www.bohemiancoding.com/sketch -->
    <title>MasterDynamix_Logo</title>
    <desc>Created with Sketch.</desc>
    <defs>
        <linearGradient x1="50.3379469%" y1="98.4945264%" x2="49.8526105%" y2="1.49581852%" id="linearGradient-1">
            <stop stop-color="#B4EC51" offset="0%"></stop>
            <stop stop-color="#429321" offset="100%"></stop>
        </linearGradient>
    </defs>
    <g id="Page-1" stroke="none" stroke-width="1" fill="none" fill-rule="evenodd">
        <g id="MasterDynamix_Logo" fill-rule="nonzero">
            <path d="M220.103896,2.75324675 C225.662338,20.5194805 40.4675325,128.311688 36.5714286,118.909091 C34.6493506,114.285714 70.4935065,87.2727273 65.9220779,74.2337662 C63.1168831,66.2337662 31.5324675,74.1298701 30.9090909,71.2207792 C29.0909091,62.3896104 214.961039,-13.7142857 220.103896,2.75324675 Z" id="Object" fill="url(#linearGradient-1)"></path>
            <g id="Text" transform="translate(0.000000, 42.077922)" fill="#292839">
                <g id="Group">
                    <polygon id="Shape" points="10.4935065 9.03896104 16.987013 1.24675325 20.6233766 1.24675325 20.6233766 19.2207792 17.2987013 19.2207792 17.2987013 6.07792208 10.4935065 14.1818182 3.63636364 6.07792208 3.63636364 19.2207792 0.363636364 19.2207792 0.363636364 1.24675325 3.94805195 1.24675325"></polygon>
                    <path d="M36.2077922,4.77922078 C37.1428571,4.77922078 37.974026,5.09090909 38.6493506,5.76623377 C39.3246753,6.44155844 39.6363636,7.27272727 39.6363636,8.20779221 L39.6363636,19.2207792 L28.3636364,19.2207792 C27.4285714,19.2207792 26.5974026,18.9090909 25.9220779,18.2337662 C25.2467532,17.5584416 24.9350649,16.7272727 24.9350649,15.7922078 L24.9350649,10.3376623 L36.3636364,10.3376623 L36.3636364,8.20779221 C36.3636364,8.1038961 36.3116883,8.05194805 36.2077922,8.05194805 L24.9350649,8.05194805 L24.9350649,4.77922078 L36.2077922,4.77922078 Z M36.3636364,15.9480519 L36.3636364,13.6103896 L28.2077922,13.6103896 L28.2077922,15.7402597 C28.2077922,15.8441558 28.2597403,15.8961039 28.3636364,15.8961039 L36.3636364,15.8961039 L36.3636364,15.9480519 Z" id="Shape"></path>
                    <path d="M57.8181818,8.20779221 L57.8181818,8.83116883 L54.5454545,8.83116883 L54.5454545,8.20779221 C54.5454545,8.1038961 54.4935065,8.05194805 54.3896104,8.05194805 L46.5974026,8.05194805 C46.4935065,8.05194805 46.4415584,8.1038961 46.4415584,8.20779221 L46.4415584,10.1818182 C46.4415584,10.2857143 46.4935065,10.3376623 46.5974026,10.3376623 L54.3896104,10.3376623 C55.3766234,10.3376623 56.1558442,10.6493506 56.8311688,11.3246753 C57.5064935,12 57.8181818,12.8311688 57.8181818,13.7662338 L57.8181818,15.7402597 C57.8181818,16.6753247 57.5064935,17.5064935 56.8311688,18.1818182 C56.1558442,18.8571429 55.3246753,19.2207792 54.3896104,19.2207792 L46.5974026,19.2207792 C45.6623377,19.2207792 44.8311688,18.9090909 44.1558442,18.2337662 C43.4805195,17.5584416 43.1168831,16.7272727 43.1168831,15.7922078 L43.1168831,15.1688312 L46.3896104,15.1688312 L46.3896104,15.7922078 C46.3896104,15.8961039 46.4415584,15.9480519 46.5454545,15.9480519 L54.3376623,15.9480519 C54.4415584,15.9480519 54.4935065,15.8961039 54.4935065,15.7922078 L54.4935065,13.8181818 C54.4935065,13.7142857 54.4415584,13.6623377 54.3376623,13.6623377 L46.5454545,13.6623377 C45.6103896,13.6623377 44.7792208,13.3506494 44.1038961,12.6753247 C43.4285714,12 43.1168831,11.1168831 43.1168831,10.1818182 L43.1168831,8.20779221 C43.1168831,7.27272727 43.4285714,6.44155844 44.1038961,5.76623377 C44.7792208,5.09090909 45.6103896,4.77922078 46.5454545,4.77922078 L54.3376623,4.77922078 C55.3246753,4.77922078 56.1038961,5.09090909 56.7792208,5.76623377 C57.4545455,6.44155844 57.8181818,7.27272727 57.8181818,8.20779221 Z" id="Shape"></path>
                    <path d="M70.8051948,8 L65.1948052,8 L65.1948052,15.7922078 C65.1948052,15.8961039 65.2467532,15.9480519 65.3506494,15.9480519 L70.8051948,15.9480519 L70.8051948,19.2207792 L65.3506494,19.2207792 C64.3636364,19.2207792 63.5844156,18.9090909 62.9090909,18.2337662 C62.2337662,17.5584416 61.9220779,16.7272727 61.9220779,15.7922078 L61.9220779,0 L65.1948052,0 L65.1948052,4.72727273 L70.8051948,4.72727273 L70.8051948,8 Z" id="Shape"></path>
                    <path d="M85.5584416,4.77922078 C86.4935065,4.77922078 87.3246753,5.09090909 88,5.76623377 C88.6753247,6.44155844 88.987013,7.27272727 88.987013,8.20779221 L88.987013,13.6623377 L77.5584416,13.6623377 L77.5584416,15.7922078 C77.5584416,15.8961039 77.6103896,15.9480519 77.7142857,15.9480519 L88.9350649,15.9480519 L88.9350649,19.2207792 L77.7142857,19.2207792 C76.7792208,19.2207792 75.9480519,18.9090909 75.2727273,18.2337662 C74.5974026,17.5584416 74.2857143,16.7272727 74.2857143,15.7922078 L74.2857143,8.20779221 C74.2857143,7.27272727 74.5974026,6.44155844 75.2727273,5.76623377 C75.9480519,5.09090909 76.7792208,4.77922078 77.7142857,4.77922078 L85.5584416,4.77922078 Z M77.5584416,10.3376623 L85.7142857,10.3376623 L85.7142857,8.20779221 C85.7142857,8.1038961 85.6623377,8.05194805 85.5584416,8.05194805 L77.7662338,8.05194805 C77.6623377,8.05194805 77.6103896,8.1038961 77.6103896,8.20779221 L77.6103896,10.3376623 L77.5584416,10.3376623 Z" id="Shape"></path>
                    <path d="M95.9480519,4.77922078 L104,4.77922078 L104,8.05194805 L95.9480519,8.05194805 C95.8441558,8.05194805 95.7922078,8.1038961 95.7922078,8.20779221 L95.7922078,19.2207792 L92.4675325,19.2207792 L92.4675325,8.20779221 C92.4675325,7.27272727 92.7792208,6.44155844 93.4545455,5.76623377 C94.1818182,5.09090909 94.961039,4.77922078 95.9480519,4.77922078 Z" id="Shape"></path>
                    <path d="M107.376623,1.24675325 L121.818182,1.24675325 C122.805195,1.24675325 123.584416,1.55844156 124.311688,2.23376623 C124.987013,2.90909091 125.350649,3.74025974 125.350649,4.67532468 L125.350649,15.7402597 C125.350649,16.7272727 124.987013,17.5064935 124.311688,18.1818182 C123.636364,18.8571429 122.805195,19.1688312 121.818182,19.1688312 L107.376623,19.1688312 L107.376623,1.24675325 Z M121.974026,15.7402597 L121.974026,4.72727273 C121.974026,4.62337662 121.922078,4.57142857 121.818182,4.57142857 L110.805195,4.57142857 C110.701299,4.57142857 110.649351,4.62337662 110.649351,4.72727273 L110.649351,15.7402597 C110.649351,15.8441558 110.701299,15.8961039 110.805195,15.8961039 L121.818182,15.8961039 C121.922078,15.9480519 121.974026,15.8961039 121.974026,15.7402597 Z" id="Shape"></path>
                    <path d="M144,21.5064935 C144,22.4415584 143.688312,23.2727273 143.012987,23.9480519 C142.337662,24.6233766 141.558442,24.9350649 140.571429,24.9350649 L131.74026,24.9350649 L131.74026,21.6623377 L140.571429,21.6623377 C140.675325,21.6623377 140.727273,21.6103896 140.727273,21.5064935 L140.727273,19.2207792 L132.727273,19.2207792 C131.792208,19.2207792 130.961039,18.9090909 130.285714,18.2337662 C129.61039,17.5584416 129.298701,16.7272727 129.298701,15.7922078 L129.298701,4.83116883 L132.571429,4.83116883 L132.571429,15.7922078 C132.571429,15.8961039 132.623377,15.9480519 132.727273,15.9480519 L140.571429,15.9480519 C140.675325,15.9480519 140.727273,15.8961039 140.727273,15.7922078 L140.727273,4.83116883 L144,4.83116883 L144,21.5064935 Z" id="Shape"></path>
                    <path d="M159.324675,4.77922078 C160.25974,4.77922078 161.090909,5.09090909 161.766234,5.76623377 C162.441558,6.44155844 162.753247,7.27272727 162.753247,8.20779221 L162.753247,19.2207792 L159.480519,19.2207792 L159.480519,8.20779221 C159.480519,8.1038961 159.428571,8.05194805 159.324675,8.05194805 L151.532468,8.05194805 C151.428571,8.05194805 151.376623,8.1038961 151.376623,8.20779221 L151.376623,19.2207792 L148.103896,19.2207792 L148.103896,4.77922078 L159.324675,4.77922078 Z" id="Shape"></path>
                    <path d="M178.181818,4.77922078 C179.116883,4.77922078 179.948052,5.09090909 180.623377,5.76623377 C181.298701,6.44155844 181.61039,7.27272727 181.61039,8.20779221 L181.61039,19.2207792 L170.38961,19.2207792 C169.454545,19.2207792 168.623377,18.9090909 167.948052,18.2337662 C167.272727,17.5584416 166.961039,16.7272727 166.961039,15.7922078 L166.961039,10.3376623 L178.38961,10.3376623 L178.38961,8.20779221 C178.38961,8.1038961 178.337662,8.05194805 178.233766,8.05194805 L167.012987,8.05194805 L167.012987,4.77922078 L178.181818,4.77922078 Z M178.38961,15.9480519 L178.38961,13.6103896 L170.233766,13.6103896 L170.233766,15.7402597 C170.233766,15.8441558 170.285714,15.8961039 170.38961,15.8961039 L178.38961,15.8961039 L178.38961,15.9480519 Z" id="Shape"></path>
                    <path d="M203.376623,4.77922078 C204.311688,4.77922078 205.142857,5.09090909 205.818182,5.76623377 C206.493506,6.44155844 206.805195,7.27272727 206.805195,8.20779221 L206.805195,19.2207792 L203.584416,19.2207792 L203.584416,8.20779221 C203.584416,8.1038961 203.532468,8.05194805 203.376623,8.05194805 L197.922078,8.05194805 C197.818182,8.05194805 197.766234,8.1038961 197.766234,8.20779221 L197.766234,19.2207792 L194.493506,19.2207792 L194.493506,8.20779221 C194.493506,8.1038961 194.441558,8.05194805 194.337662,8.05194805 L188.883117,8.05194805 C188.779221,8.05194805 188.727273,8.1038961 188.727273,8.20779221 L188.727273,19.2207792 L185.454545,19.2207792 L185.454545,4.77922078 L203.376623,4.77922078 Z" id="Shape"></path>
                    <path d="M211.376623,0 L214.649351,0 L214.649351,3.27272727 L211.376623,3.27272727 L211.376623,0 Z M211.376623,19.2207792 L211.376623,4.77922078 L214.649351,4.77922078 L214.649351,19.2207792 L211.376623,19.2207792 Z" id="Shape"></path>
                    <polygon id="Shape" points="229.922078 4.77922078 233.506494 4.77922078 233.506494 5.61038961 228.155844 11.8441558 233.506494 18.3896104 233.506494 19.2207792 229.922078 19.2207792 226.025974 14.4415584 222.12987 19.2207792 218.545455 19.2207792 218.545455 18.3896104 223.896104 11.8441558 218.545455 5.55844156 218.545455 4.72727273 222.12987 4.72727273 226.025974 9.2987013"></polygon>
                </g>
            </g>
        </g>
    </g>
</svg>