<?xml version="1.0" encoding="UTF-8"?>
<svg width="512px" height="512px" viewBox="0 0 512 512" version="1.1" xmlns="http://www.w3.org/2000/svg" xmlns:xlink="http://www.w3.org/1999/xlink">
    <!-- Generator: Sketch 50 (54983) - http://www.bohemiancoding.com/sketch -->
    <title>Group</title>
    <desc>Created with Sketch.</desc>
    <defs></defs>
    <g id="Page-1" stroke="none" stroke-width="1" fill="none" fill-rule="evenodd">
        <g id="noun_1311203_cc" fill="#000000" fill-rule="nonzero">
            <g id="Group">
                <path d="M492.417,232.108 C490.207,232.108 488.38,230.32 488.38,228.11 C488.38,225.9 490.129,224.112 492.331,224.112 L492.417,224.112 C494.619,224.112 496.415,225.9 496.415,228.11 C496.415,230.32 494.619,232.108 492.417,232.108 Z" id="Shape"></path>
                <path d="M204.551,48.196 C202.345,48.196 200.514,46.408 200.514,44.198 C200.514,41.988 202.264,40.2 204.473,40.2 L204.551,40.2 C206.761,40.2 208.55,41.988 208.55,44.198 C208.55,46.408 206.761,48.196 204.551,48.196 Z" id="Shape"></path>
                <path d="M4.647,144.15 C2.441,144.15 0.61,142.362 0.61,140.152 C0.61,137.942 2.359,136.154 4.569,136.154 L4.647,136.154 C6.857,136.154 8.645,137.942 8.645,140.152 C8.645,142.362 6.857,144.15 4.647,144.15 Z" id="Shape"></path>
                <path d="M316.501,40.2 C314.292,40.2 312.464,38.412 312.464,36.202 C312.464,33.992 314.214,32.204 316.415,32.204 L316.501,32.204 C318.704,32.204 320.499,33.992 320.499,36.202 C320.499,38.412 318.704,40.2 316.501,40.2 Z" id="Shape"></path>
                <path d="M428.448,160.143 C426.237,160.143 424.411,158.355 424.411,156.145 C424.411,153.935 426.159,152.147 428.362,152.147 L428.448,152.147 C430.649,152.147 432.446,153.935 432.446,156.145 C432.446,158.355 430.649,160.143 428.448,160.143 Z" id="Shape"></path>
                <path d="M324.497,503.981 C322.288,503.981 320.46,502.193 320.46,499.983 C320.46,497.773 322.21,495.985 324.411,495.985 L324.497,495.985 C326.7,495.985 328.495,497.773 328.495,499.983 C328.495,502.193 326.7,503.981 324.497,503.981 Z" id="Shape"></path>
                <path d="M196.555,471.997 C194.349,471.997 192.518,470.208 192.518,467.999 C192.518,465.789 194.268,464.001 196.477,464.001 L196.555,464.001 C198.765,464.001 200.553,465.789 200.553,467.999 C200.553,470.208 198.765,471.997 196.555,471.997 Z" id="Shape"></path>
                <path d="M12.644,352.055 C10.438,352.055 8.607,350.267 8.607,348.057 C8.607,345.847 10.356,344.059 12.566,344.059 L12.644,344.059 C14.854,344.059 16.642,345.847 16.642,348.057 C16.642,350.267 14.854,352.055 12.644,352.055 Z" id="Shape"></path>
                <path d="M76.613,400.031 C74.407,400.031 72.576,398.243 72.576,396.033 C72.576,393.823 74.326,392.035 76.535,392.035 L76.613,392.035 C78.823,392.035 80.611,393.823 80.611,396.033 C80.611,398.243 78.823,400.031 76.613,400.031 Z" id="Shape"></path>
                <g transform="translate(64.000000, 464.000000)" id="Shape">
                    <path d="M12.379,39.974 C10.169,39.974 8.381,38.186 8.381,35.976 L8.381,3.999 C8.381,1.789 10.169,0.001 12.379,0.001 C14.588,0.001 16.377,1.789 16.377,3.999 L16.377,35.976 C16.377,38.186 14.588,39.974 12.379,39.974 Z"></path>
                    <path d="M20.371,23.981 L4.382,23.981 C2.173,23.981 0.384,22.193 0.384,19.983 C0.384,17.773 2.173,15.985 4.382,15.985 L20.371,15.985 C22.581,15.985 24.369,17.773 24.369,19.983 C24.369,22.193 22.581,23.981 20.371,23.981 Z"></path>
                </g>
                <g transform="translate(24.000000, 232.000000)" id="Shape">
                    <path d="M12.394,40.093 C10.185,40.093 8.396,38.305 8.396,36.095 L8.396,4.107 C8.396,1.897 10.185,0.109 12.394,0.109 C14.604,0.109 16.393,1.897 16.393,4.107 L16.393,36.095 C16.392,38.305 14.604,40.093 12.394,40.093 Z"></path>
                    <path d="M20.39,24.097 L4.397,24.089 C2.188,24.089 0.399,22.297 0.399,20.091 C0.399,17.881 2.191,16.093 4.397,16.093 L20.39,16.101 C22.599,16.101 24.388,17.893 24.388,20.099 C24.388,22.309 22.596,24.097 20.39,24.097 Z"></path>
                </g>
                <g transform="translate(456.000000, 304.000000)" id="Shape">
                    <path d="M12.187,40.059 C9.977,40.059 8.189,38.271 8.189,36.061 L8.189,4.076 C8.189,1.867 9.977,0.078 12.187,0.078 C14.397,0.078 16.185,1.867 16.185,4.076 L16.185,36.061 C16.185,38.271 14.396,40.059 12.187,40.059 Z"></path>
                    <path d="M20.183,24.065 L4.19,24.065 C1.98,24.065 0.192,22.278 0.192,20.067 C0.192,17.858 1.98,16.069 4.19,16.069 L20.182,16.069 C22.392,16.069 24.18,17.858 24.18,20.067 C24.181,22.278 22.393,24.065 20.183,24.065 Z"></path>
                </g>
                <g transform="translate(432.000000, 16.000000)" id="Shape">
                    <path d="M28.19,64.169 C12.76,64.169 0.204,51.617 0.204,36.19 C0.204,20.764 12.761,8.211 28.19,8.211 C43.619,8.211 56.176,20.76 56.176,36.182 C56.177,51.613 43.62,64.169 28.19,64.169 Z M28.19,16.208 C17.164,16.208 8.2,25.173 8.2,36.19 C8.2,47.209 17.164,56.173 28.19,56.173 C39.215,56.173 48.18,47.205 48.18,36.182 C48.181,25.169 39.216,16.208 28.19,16.208 Z"></path>
                    <path d="M28.19,72.166 C26.979,72.166 25.168,71.799 23.419,70.046 C18.086,64.724 16.196,48.482 16.196,36.191 C16.196,30.186 16.774,0.224 28.19,0.224 C30.4,0.224 32.188,2.012 32.188,4.222 C32.188,6.182 30.774,7.814 28.917,8.154 C27.206,10.071 24.192,19.906 24.192,36.191 C24.192,52.476 27.206,62.316 28.909,64.236 C30.774,64.571 32.188,66.2 32.188,68.16 C32.196,70.37 30.408,72.162 28.198,72.166 C28.19,72.166 28.19,72.166 28.19,72.166 Z"></path>
                </g>
                <g id="Shape">
                    <g transform="translate(12.000000, 12.000000)">
                        <path d="M4.259,8.19 C2.053,8.19 0.222,6.402 0.222,4.192 C0.222,1.982 1.972,0.194 4.181,0.194 L4.259,0.194 C6.469,0.194 8.257,1.982 8.257,4.192 C8.257,6.402 6.469,8.19 4.259,8.19 Z"></path>
                        <path d="M20.251,24.183 C18.045,24.183 16.214,22.395 16.214,20.185 C16.214,17.975 17.963,16.187 20.173,16.187 L20.251,16.187 C22.46,16.187 24.249,17.975 24.249,20.185 C24.249,22.395 22.461,24.183 20.251,24.183 Z"></path>
                        <path d="M36.244,40.175 C34.038,40.175 32.207,38.387 32.207,36.177 C32.207,33.968 33.957,32.179 36.166,32.179 L36.244,32.179 C38.454,32.179 40.242,33.968 40.242,36.177 C40.242,38.387 38.454,40.175 36.244,40.175 Z"></path>
                        <path d="M68.229,40.175 C66.023,40.175 64.192,38.387 64.192,36.177 C64.192,33.968 65.941,32.179 68.151,32.179 L68.229,32.179 C70.439,32.179 72.227,33.968 72.227,36.177 C72.227,38.387 70.438,40.175 68.229,40.175 Z"></path>
                        <path d="M52.236,56.167 C50.03,56.167 48.199,54.378 48.199,52.169 C48.199,49.959 49.948,48.171 52.158,48.171 L52.236,48.171 C54.445,48.171 56.234,49.959 56.234,52.169 C56.234,54.379 54.446,56.167 52.236,56.167 Z"></path>
                        <path d="M36.244,72.16 C34.038,72.16 32.207,70.372 32.207,68.162 C32.207,65.953 33.957,64.164 36.166,64.164 L36.244,64.164 C38.454,64.164 40.242,65.953 40.242,68.162 C40.242,70.372 38.454,72.16 36.244,72.16 Z"></path>
                        <path d="M84.221,56.167 C82.015,56.167 80.184,54.378 80.184,52.169 C80.184,49.959 81.933,48.171 84.143,48.171 L84.221,48.171 C86.431,48.171 88.219,49.959 88.219,52.169 C88.219,54.379 86.431,56.167 84.221,56.167 Z"></path>
                        <path d="M68.229,72.16 C66.023,72.16 64.192,70.372 64.192,68.162 C64.192,65.953 65.941,64.164 68.151,64.164 L68.229,64.164 C70.439,64.164 72.227,65.953 72.227,68.162 C72.227,70.372 70.438,72.16 68.229,72.16 Z"></path>
                        <path d="M52.236,88.152 C50.03,88.152 48.199,86.363 48.199,84.154 C48.199,81.944 49.948,80.156 52.158,80.156 L52.236,80.156 C54.445,80.156 56.234,81.944 56.234,84.154 C56.234,86.364 54.446,88.152 52.236,88.152 Z"></path>
                        <path d="M100.213,72.16 C98.007,72.16 96.176,70.372 96.176,68.162 C96.176,65.953 97.925,64.164 100.135,64.164 L100.213,64.164 C102.423,64.164 104.211,65.953 104.211,68.162 C104.211,70.372 102.423,72.16 100.213,72.16 Z"></path>
                        <path d="M68.229,104.145 C66.023,104.145 64.192,102.357 64.192,100.147 C64.192,97.937 65.941,96.149 68.151,96.149 L68.229,96.149 C70.439,96.149 72.227,97.937 72.227,100.147 C72.227,102.357 70.438,104.145 68.229,104.145 Z"></path>
                        <path d="M116.205,88.152 C113.999,88.152 112.168,86.363 112.168,84.154 C112.168,81.944 113.917,80.156 116.127,80.156 L116.205,80.156 C118.415,80.156 120.203,81.944 120.203,84.154 C120.203,86.364 118.415,88.152 116.205,88.152 Z"></path>
                        <path d="M84.221,120.137 C82.015,120.137 80.184,118.349 80.184,116.139 C80.184,113.929 81.933,112.141 84.143,112.141 L84.221,112.141 C86.431,112.141 88.219,113.929 88.219,116.139 C88.219,118.349 86.431,120.137 84.221,120.137 Z"></path>
                        <path d="M132.197,104.145 C129.991,104.145 128.16,102.357 128.16,100.147 C128.16,97.937 129.91,96.149 132.119,96.149 L132.197,96.149 C134.407,96.149 136.195,97.937 136.195,100.147 C136.195,102.357 134.407,104.145 132.197,104.145 Z"></path>
                        <path d="M100.213,136.129 C98.007,136.129 96.176,134.341 96.176,132.131 C96.176,129.921 97.925,128.133 100.135,128.133 L100.213,128.133 C102.423,128.133 104.211,129.921 104.211,132.131 C104.211,134.341 102.423,136.129 100.213,136.129 Z"></path>
                        <path d="M148.19,120.137 C145.984,120.137 144.153,118.349 144.153,116.139 C144.153,113.929 145.902,112.141 148.112,112.141 L148.19,112.141 C150.399,112.141 152.188,113.929 152.188,116.139 C152.188,118.349 150.399,120.137 148.19,120.137 Z"></path>
                        <path d="M164.182,136.129 C161.976,136.129 160.145,134.341 160.145,132.131 C160.145,129.921 161.895,128.133 164.104,128.133 L164.182,128.133 C166.392,128.133 168.18,129.921 168.18,132.131 C168.18,134.341 166.392,136.129 164.182,136.129 Z"></path>
                        <path d="M180.175,152.121 C177.969,152.121 176.138,150.333 176.138,148.123 C176.138,145.913 177.887,144.125 180.097,144.125 L180.175,144.125 C182.384,144.125 184.173,145.913 184.173,148.123 C184.173,150.333 182.384,152.121 180.175,152.121 Z"></path>
                        <path d="M196.167,168.114 C193.961,168.114 192.13,166.325 192.13,164.115 C192.13,161.906 193.879,160.117 196.089,160.117 L196.167,160.117 C198.377,160.117 200.165,161.906 200.165,164.115 C200.165,166.325 198.377,168.114 196.167,168.114 Z"></path>
                        <path d="M212.159,184.106 C209.953,184.106 208.122,182.318 208.122,180.108 C208.122,177.898 209.871,176.11 212.081,176.11 L212.159,176.11 C214.369,176.11 216.157,177.898 216.157,180.108 C216.157,182.318 214.369,184.106 212.159,184.106 Z"></path>
                        <path d="M228.151,200.099 C225.945,200.099 224.114,198.31 224.114,196.1 C224.114,193.891 225.863,192.102 228.073,192.102 L228.151,192.102 C230.361,192.102 232.149,193.891 232.149,196.1 C232.149,198.31 230.361,200.099 228.151,200.099 Z"></path>
                        <path d="M244.144,216.091 C241.938,216.091 240.107,214.303 240.107,212.093 C240.107,209.883 241.856,208.095 244.066,208.095 L244.144,208.095 C246.354,208.095 248.142,209.883 248.142,212.093 C248.142,214.303 246.354,216.091 244.144,216.091 Z"></path>
                        <path d="M260.14,232.083 C257.931,232.083 256.103,230.295 256.103,228.085 C256.103,225.875 257.853,224.087 260.054,224.087 L260.14,224.087 C262.342,224.087 264.138,225.875 264.138,228.085 C264.138,230.295 262.342,232.083 260.14,232.083 Z"></path>
                        <path d="M276.132,248.075 C273.923,248.075 272.095,246.287 272.095,244.077 C272.095,241.867 273.845,240.079 276.046,240.079 L276.132,240.079 C278.335,240.079 280.13,241.867 280.13,244.077 C280.13,246.287 278.335,248.075 276.132,248.075 Z"></path>
                        <path d="M292.124,264.067 C289.915,264.067 288.087,262.279 288.087,260.069 C288.087,257.859 289.837,256.071 292.039,256.071 L292.124,256.071 C294.327,256.071 296.123,257.859 296.123,260.069 C296.123,262.279 294.327,264.067 292.124,264.067 Z"></path>
                        <path d="M308.117,280.06 C305.907,280.06 304.08,278.272 304.08,276.062 C304.08,273.852 305.829,272.064 308.031,272.064 L308.117,272.064 C310.319,272.064 312.115,273.852 312.115,276.062 C312.115,278.272 310.319,280.06 308.117,280.06 Z"></path>
                        <path d="M324.109,296.052 C321.899,296.052 320.072,294.264 320.072,292.054 C320.072,289.845 321.821,288.056 324.023,288.056 L324.109,288.056 C326.311,288.056 328.107,289.845 328.107,292.054 C328.107,294.264 326.312,296.052 324.109,296.052 Z"></path>
                        <path d="M340.102,312.044 C337.892,312.044 336.065,310.257 336.065,308.046 C336.065,305.837 337.814,304.048 340.016,304.048 L340.102,304.048 C342.304,304.048 344.1,305.837 344.1,308.046 C344.1,310.257 342.304,312.044 340.102,312.044 Z"></path>
                        <path d="M356.094,328.037 C353.884,328.037 352.057,326.249 352.057,324.039 C352.057,321.829 353.806,320.04 356.008,320.04 L356.094,320.04 C358.296,320.04 360.092,321.829 360.092,324.039 C360.092,326.249 358.296,328.037 356.094,328.037 Z"></path>
                        <path d="M372.086,344.029 C369.876,344.029 368.049,342.241 368.049,340.031 C368.049,337.821 369.798,336.033 372,336.033 L372.086,336.033 C374.288,336.033 376.084,337.821 376.084,340.031 C376.084,342.241 374.288,344.029 372.086,344.029 Z"></path>
                        <path d="M388.078,360.021 C385.868,360.021 384.041,358.233 384.041,356.023 C384.041,353.813 385.79,352.025 387.993,352.025 L388.078,352.025 C390.28,352.025 392.077,353.813 392.077,356.023 C392.077,358.233 390.28,360.021 388.078,360.021 Z"></path>
                        <path d="M356.094,392.006 C353.884,392.006 352.057,390.218 352.057,388.008 C352.057,385.798 353.806,384.01 356.008,384.01 L356.094,384.01 C358.296,384.01 360.092,385.798 360.092,388.008 C360.092,390.218 358.296,392.006 356.094,392.006 Z"></path>
                        <path d="M404.071,376.014 C401.86,376.014 400.034,374.226 400.034,372.016 C400.034,369.806 401.782,368.018 403.985,368.018 L404.071,368.018 C406.272,368.018 408.069,369.806 408.069,372.016 C408.069,374.226 406.272,376.014 404.071,376.014 Z"></path>
                        <path d="M372.086,407.998 C369.876,407.998 368.049,406.21 368.049,404 C368.049,401.79 369.798,400.002 372,400.002 L372.086,400.002 C374.288,400.002 376.084,401.79 376.084,404 C376.084,406.21 374.288,407.998 372.086,407.998 Z"></path>
                        <path d="M420.063,392.006 C417.853,392.006 416.026,390.218 416.026,388.008 C416.026,385.798 417.775,384.01 419.977,384.01 L420.063,384.01 C422.264,384.01 424.061,385.798 424.061,388.008 C424.061,390.218 422.265,392.006 420.063,392.006 Z"></path>
                        <path d="M388.078,423.991 C385.868,423.991 384.041,422.202 384.041,419.993 C384.041,417.782 385.79,415.995 387.993,415.995 L388.078,415.995 C390.28,415.995 392.077,417.782 392.077,419.993 C392.077,422.202 390.28,423.991 388.078,423.991 Z"></path>
                        <path d="M436.056,407.998 C433.846,407.998 432.019,406.21 432.019,404 C432.019,401.79 433.768,400.002 435.97,400.002 L436.056,400.002 C438.258,400.002 440.054,401.79 440.054,404 C440.054,406.21 438.258,407.998 436.056,407.998 Z"></path>
                        <path d="M404.071,439.983 C401.86,439.983 400.034,438.194 400.034,435.985 C400.034,433.775 401.782,431.987 403.985,431.987 L404.071,431.987 C406.272,431.987 408.069,433.775 408.069,435.985 C408.069,438.194 406.272,439.983 404.071,439.983 Z"></path>
                        <path d="M452.048,423.991 C449.838,423.991 448.011,422.202 448.011,419.993 C448.011,417.782 449.76,415.995 451.962,415.995 L452.048,415.995 C454.25,415.995 456.046,417.782 456.046,419.993 C456.046,422.202 454.25,423.991 452.048,423.991 Z"></path>
                        <path d="M436.056,439.983 C433.846,439.983 432.019,438.194 432.019,435.985 C432.019,433.775 433.768,431.987 435.97,431.987 L436.056,431.987 C438.258,431.987 440.054,433.775 440.054,435.985 C440.054,438.194 438.258,439.983 436.056,439.983 Z"></path>
                        <path d="M420.063,455.976 C417.853,455.976 416.026,454.187 416.026,451.978 C416.026,449.768 417.775,447.98 419.977,447.98 L420.063,447.98 C422.264,447.98 424.061,449.768 424.061,451.978 C424.062,454.187 422.265,455.976 420.063,455.976 Z"></path>
                        <path d="M452.048,455.976 C449.838,455.976 448.011,454.187 448.011,451.978 C448.011,449.768 449.76,447.98 451.962,447.98 L452.048,447.98 C454.25,447.98 456.046,449.768 456.046,451.978 C456.046,454.187 454.25,455.976 452.048,455.976 Z"></path>
                        <path d="M468.04,471.968 C465.83,471.968 464.003,470.18 464.003,467.97 C464.003,465.76 465.752,463.972 467.954,463.972 L468.04,463.972 C470.242,463.972 472.038,465.76 472.038,467.97 C472.038,470.18 470.242,471.968 468.04,471.968 Z"></path>
                        <path d="M484.032,487.96 C481.822,487.96 479.995,486.172 479.995,483.962 C479.995,481.752 481.744,479.964 483.946,479.964 L484.032,479.964 C486.234,479.964 488.03,481.752 488.03,483.962 C488.03,486.172 486.234,487.96 484.032,487.96 Z"></path>
                    </g>
                    <path d="M255.905,408.004 C172.133,408.004 103.978,339.85 103.978,256.077 C103.978,216.319 119.244,178.716 146.965,150.19 C148.503,148.613 151.033,148.566 152.618,150.112 C154.2,151.651 154.234,154.18 152.696,155.765 C126.435,182.787 111.973,218.411 111.973,256.077 C111.973,335.445 176.54,400.008 255.904,400.008 C293.582,400.008 329.213,385.546 356.223,359.285 C357.808,357.747 360.346,357.786 361.876,359.363 C363.415,360.948 363.384,363.478 361.798,365.016 C333.282,392.738 295.676,408.004 255.905,408.004 Z"></path>
                    <path d="M391.013,320.421 C390.466,320.421 389.911,320.312 389.381,320.077 C387.366,319.172 386.46,316.806 387.366,314.791 C395.643,296.284 399.837,276.536 399.837,256.077 C399.837,176.713 335.266,112.146 255.905,112.146 C235.47,112.146 215.717,116.347 197.191,124.628 C195.165,125.537 192.811,124.616 191.909,122.609 C191.007,120.594 191.913,118.228 193.928,117.326 C213.485,108.584 234.338,104.149 255.906,104.149 C339.678,104.149 407.834,172.303 407.834,256.076 C407.834,277.667 403.406,298.516 394.66,318.055 C393.995,319.547 392.535,320.421 391.013,320.421 Z"></path>
                    <path d="M502.303,511.423 C487.2,511.423 446.939,491.495 341.13,397.384 C339.475,395.916 339.334,393.386 340.794,391.738 C342.278,390.091 344.8,389.934 346.44,391.411 C450.179,483.671 497.75,509.128 503.348,503.505 C513.984,492.862 434.702,383.883 281.409,230.589 C128.123,77.319 19.164,-2.018 8.478,8.649 C2.872,14.263 28.347,61.822 120.584,165.542 C122.052,167.19 121.903,169.716 120.252,171.184 C118.601,172.652 116.074,172.503 114.61,170.852 C0.091,42.082 -4.583,10.414 2.82,2.996 C25.669,-19.778 185.318,123.204 287.062,224.936 C388.787,326.668 531.842,486.311 509.002,509.16 C507.683,510.486 505.583,511.423 502.303,511.423 Z"></path>
                    <path d="M435.679,440.84 C430.204,440.84 415.618,431.595 359.754,383.672 C358.075,382.235 357.88,379.713 359.317,378.034 C360.769,376.363 363.299,376.168 364.955,377.604 C405.334,412.236 422.981,425.487 430.61,430.219 C418.491,408.48 351.695,332.024 265.839,246.159 C182.367,162.696 105.536,101.452 82.762,89.501 C87.607,95.647 96.752,105.544 105.099,114.579 C114.368,124.613 124.875,135.982 134.999,147.766 C136.436,149.441 136.244,151.963 134.569,153.404 C132.902,154.845 130.38,154.654 128.931,152.975 C118.901,141.301 108.449,129.99 99.226,120.006 C73.816,92.504 68.003,85.827 72.84,81.001 C85.888,67.98 207.22,176.244 271.491,240.507 C315.766,284.79 359.721,331.471 392.081,368.577 C446.805,431.337 442.291,435.858 438.988,439.153 C438.131,440.021 437.303,440.84 435.679,440.84 Z"></path>
                </g>
            </g>
        </g>
    </g>
</svg>