<?xml version="1.0" encoding="UTF-8"?>
<svg width="512px" height="480px" viewBox="0 0 512 480" version="1.1" xmlns="http://www.w3.org/2000/svg" xmlns:xlink="http://www.w3.org/1999/xlink">
    <!-- Generator: Sketch 50 (54983) - http://www.bohemiancoding.com/sketch -->
    <title>Group</title>
    <desc>Created with Sketch.</desc>
    <defs></defs>
    <g id="Page-1" stroke="none" stroke-width="1" fill="none" fill-rule="evenodd">
        <g id="noun_1311205_cc" fill="#000000" fill-rule="nonzero">
            <g id="Group">
                <path d="M507.896,240 C505.695,240 503.867,238.212 503.867,236.002 C503.867,233.792 505.617,232.004 507.818,232.004 L507.896,232.004 C510.098,232.004 511.894,233.792 511.894,236.002 C511.894,238.212 510.099,240 507.896,240 Z" id="Shape"></path>
                <path d="M451.924,287.977 C449.722,287.977 447.895,286.189 447.895,283.979 C447.895,281.77 449.644,279.981 451.846,279.981 L451.924,279.981 C454.126,279.981 455.922,281.77 455.922,283.979 C455.922,286.188 454.126,287.977 451.924,287.977 Z" id="Shape"></path>
                <path d="M419.939,375.935 C417.737,375.935 415.91,374.147 415.91,371.937 C415.91,369.727 417.659,367.939 419.861,367.939 L419.939,367.939 C422.14,367.939 423.937,369.727 423.937,371.937 C423.937,374.147 422.141,375.935 419.939,375.935 Z" id="Shape"></path>
                <path d="M355.97,479.885 C353.768,479.885 351.941,478.097 351.941,475.887 C351.941,473.677 353.69,471.889 355.892,471.889 L355.97,471.889 C358.172,471.889 359.968,473.677 359.968,475.887 C359.968,478.097 358.172,479.885 355.97,479.885 Z" id="Shape"></path>
                <path d="M164.066,415.916 C161.856,415.916 160.029,414.127 160.029,411.918 C160.029,409.707 161.779,407.92 163.98,407.92 L164.066,407.92 C166.268,407.92 168.064,409.707 168.064,411.918 C168.064,414.127 166.268,415.916 164.066,415.916 Z" id="Shape"></path>
                <path d="M20.135,343.95 C17.926,343.95 16.098,342.162 16.098,339.952 C16.098,337.742 17.848,335.954 20.05,335.954 L20.135,335.954 C22.337,335.954 24.134,337.742 24.134,339.952 C24.134,342.162 22.337,343.95 20.135,343.95 Z" id="Shape"></path>
                <path d="M60.116,255.992 C57.906,255.992 56.079,254.204 56.079,251.994 C56.079,249.784 57.828,247.996 60.03,247.996 L60.116,247.996 C62.318,247.996 64.114,249.784 64.114,251.994 C64.114,254.204 62.318,255.992 60.116,255.992 Z" id="Shape"></path>
                <path d="M84.104,136.05 C81.894,136.05 80.067,134.262 80.067,132.052 C80.067,129.842 81.816,128.054 84.018,128.054 L84.104,128.054 C86.306,128.054 88.102,129.842 88.102,132.052 C88.102,134.262 86.307,136.05 84.104,136.05 Z" id="Shape"></path>
                <path d="M180.059,64.084 C177.849,64.084 176.022,62.296 176.022,60.086 C176.022,57.877 177.771,56.088 179.973,56.088 L180.059,56.088 C182.261,56.088 184.057,57.877 184.057,60.086 C184.057,62.296 182.26,64.084 180.059,64.084 Z" id="Shape"></path>
                <path d="M307.993,24.104 C305.791,24.104 303.964,22.316 303.964,20.106 C303.964,17.896 305.713,16.108 307.915,16.108 L307.993,16.108 C310.195,16.108 311.991,17.896 311.991,20.106 C311.991,22.316 310.195,24.104 307.993,24.104 Z" id="Shape"></path>
                <path d="M451.924,136.05 C449.722,136.05 447.895,134.262 447.895,132.052 C447.895,129.842 449.644,128.054 451.846,128.054 L451.924,128.054 C454.126,128.054 455.922,129.842 455.922,132.052 C455.922,134.262 454.126,136.05 451.924,136.05 Z" id="Shape"></path>
                <path d="M4.143,168.035 C1.933,168.035 0.106,166.246 0.106,164.037 C0.106,161.827 1.855,160.039 4.057,160.039 L4.143,160.039 C6.345,160.039 8.141,161.827 8.141,164.037 C8.141,166.246 6.345,168.035 4.143,168.035 Z" id="Shape"></path>
                <path d="M292,415.916 C289.799,415.916 287.971,414.127 287.971,411.918 C287.971,409.707 289.721,407.92 291.922,407.92 L292,407.92 C294.203,407.92 295.998,409.707 295.998,411.918 C295.998,414.127 294.203,415.916 292,415.916 Z" id="Shape"></path>
                <path d="M196.051,479.885 C193.841,479.885 192.014,478.097 192.014,475.887 C192.014,473.677 193.763,471.889 195.965,471.889 L196.051,471.889 C198.253,471.889 200.049,473.677 200.049,475.887 C200.049,478.097 198.253,479.885 196.051,479.885 Z" id="Shape"></path>
                <g transform="translate(63.000000, 0.000000)" id="Shape">
                    <path d="M12.866,40.096 C10.656,40.096 8.868,38.307 8.868,36.098 L8.868,4.113 C8.868,1.903 10.656,0.115 12.866,0.115 C15.076,0.115 16.864,1.903 16.864,4.113 L16.864,36.098 C16.864,38.308 15.076,40.096 12.866,40.096 Z"></path>
                    <path d="M20.862,24.104 L4.87,24.104 C2.66,24.104 0.872,22.316 0.872,20.106 C0.872,17.896 2.66,16.108 4.87,16.108 L20.862,16.108 C23.072,16.108 24.86,17.896 24.86,20.106 C24.86,22.316 23.072,24.104 20.862,24.104 Z"></path>
                </g>
                <g transform="translate(447.000000, 415.000000)" id="Shape">
                    <path d="M12.686,40.896 C10.468,40.896 8.688,39.108 8.688,36.898 L8.688,4.914 C8.688,2.703 10.468,0.916 12.686,0.916 C14.888,0.916 16.684,2.703 16.684,4.914 L16.684,36.898 C16.684,39.108 14.888,40.896 12.686,40.896 Z"></path>
                    <path d="M20.682,24.904 L4.69,24.904 C2.472,24.904 0.692,23.115 0.692,20.906 C0.692,18.696 2.472,16.908 4.69,16.908 L20.682,16.908 C22.884,16.908 24.68,18.696 24.68,20.906 C24.68,23.115 22.884,24.904 20.682,24.904 Z"></path>
                </g>
                <g transform="translate(31.000000, 383.000000)" id="Shape">
                    <path d="M36.878,72.896 C17.036,72.896 0.895,56.755 0.895,36.914 C0.895,17.071 17.036,0.931 36.878,0.931 C56.72,0.931 72.86,17.072 72.86,36.914 C72.86,56.756 56.72,72.896 36.878,72.896 Z M36.878,8.927 C21.448,8.927 8.892,21.484 8.892,36.914 C8.892,52.344 21.448,64.9 36.878,64.9 C52.308,64.9 64.864,52.343 64.864,36.914 C64.864,21.483 52.308,8.927 36.878,8.927 Z"></path>
                    <path d="M40.024,54.624 C39.907,54.624 39.353,54.608 39.236,54.593 C37.494,54.437 34.379,53.437 33.114,48.393 C32.684,46.652 32.536,44.887 32.395,43.114 C32.293,41.693 32.207,40.264 31.817,38.866 C31.411,38.398 29.982,38.398 29.443,38.398 C29.427,38.398 28.24,38.398 28.225,38.398 C22.314,38.32 18.183,34.275 17.949,28.309 C17.754,22.905 19.784,19.625 21.526,17.814 C24.798,14.424 29.069,13.722 31.029,14.066 C34.886,14.729 36.753,15.174 37.916,15.69 L48.614,19.094 C49.848,19.485 50.816,20.453 51.207,21.679 C51.316,21.999 51.371,22.327 51.395,22.655 C51.762,22.811 52.386,22.975 53.363,22.975 C53.457,22.967 54.323,22.936 54.417,22.936 C55.854,22.936 57.533,23.881 58.243,25.123 C59.782,27.81 58.321,30.886 54.878,36.79 C54.183,37.992 53.988,38.991 53.769,40.155 C53.48,41.709 53.144,43.489 52.16,45.269 C51.309,46.831 50.192,47.971 49.209,48.979 C48.857,49.345 48.506,49.705 48.178,50.08 C46.896,51.562 44.257,54.624 40.024,54.624 Z M39.946,46.628 L40.024,50.626 L40.024,46.636 C40.001,46.628 39.97,46.628 39.946,46.628 Z M29.444,30.401 C31.935,30.401 37.776,30.401 39.525,36.742 C40.087,38.756 40.235,40.756 40.368,42.505 C40.462,43.754 40.54,44.988 40.813,46.206 C41.305,45.8 41.828,45.199 42.109,44.863 C42.539,44.363 43.015,43.879 43.491,43.394 C44.201,42.661 44.819,42.036 45.139,41.442 C45.521,40.748 45.701,39.787 45.912,38.662 C46.208,37.117 46.576,35.18 47.653,33.298 C48.309,32.166 48.863,31.213 49.309,30.402 C46.833,29.636 44.913,28.153 43.897,26.138 C43.866,26.076 43.842,26.013 43.811,25.958 L35.222,23.225 C34.956,23.139 34.706,23.03 34.464,22.889 C34.355,22.873 33.324,22.577 29.864,21.968 C29.708,21.999 25.733,22.343 25.944,28.004 C26.022,30.089 27.132,30.386 28.318,30.401 L29.123,34.399 L29.444,30.401 Z"></path>
                </g>
                <g transform="translate(423.000000, 0.000000)" id="Shape">
                    <path d="M36.686,72.081 C16.852,72.081 0.704,55.94 0.704,36.098 C0.704,16.256 16.852,0.115 36.686,0.115 C56.536,0.115 72.668,16.256 72.668,36.098 C72.668,55.94 56.535,72.081 36.686,72.081 Z M36.686,8.111 C21.256,8.111 8.7,20.668 8.7,36.098 C8.7,51.528 21.257,64.084 36.686,64.084 C52.115,64.084 64.672,51.528 64.672,36.098 C64.672,20.668 52.115,8.111 36.686,8.111 Z"></path>
                    <path d="M28.689,24.104 L8.996,24.104 C6.778,24.104 4.998,22.316 4.998,20.106 C4.998,17.896 6.778,16.108 8.996,16.108 L28.689,16.108 C30.907,16.108 32.687,17.896 32.687,20.106 C32.687,22.316 30.907,24.104 28.689,24.104 Z"></path>
                    <path d="M40.684,56.088 C31.719,56.088 24.692,50.821 24.692,44.094 C24.692,37.367 31.719,32.1 40.684,32.1 C49.649,32.1 56.676,37.368 56.676,44.095 C56.676,50.822 49.648,56.088 40.684,56.088 Z M40.684,40.096 C35.811,40.096 32.688,42.462 32.688,44.094 C32.688,45.726 35.811,48.092 40.684,48.092 C45.573,48.092 48.68,45.726 48.68,44.094 C48.68,42.462 45.572,40.096 40.684,40.096 Z"></path>
                </g>
                <g transform="translate(103.000000, 80.000000)" id="Shape">
                    <path d="M152.78,303.931 C69.008,303.931 0.853,235.777 0.853,152.004 C0.853,68.231 69.007,0.077 152.78,0.077 C236.556,0.077 304.711,68.231 304.711,152.004 C304.711,235.777 236.556,303.931 152.78,303.931 Z M152.78,8.073 C73.42,8.073 8.849,72.639 8.849,152.004 C8.849,231.372 73.42,295.935 152.78,295.935 C232.136,295.935 296.715,231.373 296.715,152.004 C296.715,72.64 232.136,8.073 152.78,8.073 Z"></path>
                    <path d="M132.773,112.008 C112.931,112.008 96.791,95.867 96.791,76.025 C96.791,56.183 112.932,40.043 132.773,40.043 C152.615,40.043 168.759,56.184 168.759,76.025 C168.76,95.867 152.616,112.008 132.773,112.008 Z M132.773,48.038 C117.343,48.038 104.787,60.595 104.787,76.024 C104.787,91.455 117.344,104.011 132.773,104.011 C148.204,104.011 160.759,91.455 160.759,76.024 C160.76,60.595 148.204,48.038 132.773,48.038 Z"></path>
                    <path d="M236.743,128.016 C230.121,128.016 224.749,122.636 224.749,116.022 C224.749,109.408 230.121,104.027 236.743,104.027 C243.349,104.027 248.737,109.407 248.737,116.022 C248.737,122.635 243.35,128.016 236.743,128.016 Z M236.743,112.023 C234.541,112.023 232.745,113.815 232.745,116.021 C232.745,118.227 234.541,120.019 236.743,120.019 C238.945,120.019 240.741,118.227 240.741,116.021 C240.741,113.815 238.945,112.023 236.743,112.023 Z"></path>
                    <path d="M136.795,263.95 C127.979,263.95 120.803,256.781 120.803,247.958 C120.803,239.134 127.979,231.965 136.795,231.965 C145.611,231.965 152.788,239.134 152.788,247.958 C152.788,256.781 145.611,263.95 136.795,263.95 Z M136.795,239.962 C132.383,239.962 128.799,243.554 128.799,247.958 C128.799,252.361 132.383,255.954 136.795,255.954 C141.207,255.954 144.791,252.361 144.791,247.958 C144.791,243.554 141.207,239.962 136.795,239.962 Z"></path>
                    <path d="M60.824,207.977 C45.393,207.977 32.837,195.42 32.837,179.991 C32.837,164.562 45.393,152.005 60.824,152.005 C76.254,152.005 88.81,164.562 88.81,179.991 C88.81,195.42 76.254,207.977 60.824,207.977 Z M60.824,160 C49.798,160 40.833,168.965 40.833,179.99 C40.833,191.016 49.797,199.98 60.824,199.98 C71.849,199.98 80.814,191.016 80.814,179.99 C80.814,168.965 71.85,160 60.824,160 Z"></path>
                    <path d="M244.739,231.965 C238.117,231.965 232.745,226.585 232.745,219.971 C232.745,213.358 238.117,207.977 244.739,207.977 C251.345,207.977 256.733,213.358 256.733,219.971 C256.733,226.585 251.346,231.965 244.739,231.965 Z M244.739,215.973 C242.537,215.973 240.741,217.77 240.741,219.971 C240.741,222.174 242.537,223.969 244.739,223.969 C246.941,223.969 248.737,222.174 248.737,219.971 C248.737,217.77 246.941,215.973 244.739,215.973 Z"></path>
                    <path d="M172.773,183.988 C161.748,183.988 152.779,175.024 152.779,163.998 C152.779,152.976 161.747,144.008 172.773,144.008 C183.799,144.008 192.764,152.976 192.764,163.998 C192.765,175.024 183.8,183.988 172.773,183.988 Z M172.773,152.004 C166.152,152.004 160.775,157.384 160.775,163.998 C160.775,170.612 166.152,175.992 172.773,175.992 C179.379,175.992 184.768,170.612 184.768,163.998 C184.768,157.384 179.38,152.004 172.773,152.004 Z"></path>
                </g>
            </g>
        </g>
    </g>
</svg>