<?xml version="1.0" encoding="UTF-8"?>
<svg width="496px" height="512px" viewBox="0 0 496 512" version="1.1" xmlns="http://www.w3.org/2000/svg" xmlns:xlink="http://www.w3.org/1999/xlink">
    <!-- Generator: Sketch 50 (54983) - http://www.bohemiancoding.com/sketch -->
    <title>Group</title>
    <desc>Created with Sketch.</desc>
    <defs></defs>
    <g id="Page-1" stroke="none" stroke-width="1" fill="none" fill-rule="evenodd">
        <g id="noun_1311201_cc" fill="#000000" fill-rule="nonzero">
            <g id="Group">
                <g transform="translate(383.000000, 40.000000)" id="Shape">
                    <path d="M36.715,72.054 C16.873,72.054 0.733,55.913 0.733,36.071 C0.733,16.229 16.874,0.088 36.715,0.088 C56.556,0.088 72.697,16.229 72.697,36.071 C72.697,55.913 56.557,72.054 36.715,72.054 Z M36.715,8.084 C21.284,8.084 8.729,20.641 8.729,36.071 C8.729,51.501 21.285,64.058 36.715,64.058 C52.145,64.058 64.701,51.501 64.701,36.071 C64.701,20.641 52.145,8.084 36.715,8.084 Z"></path>
                    <path d="M39.854,53.785 C39.737,53.785 39.182,53.762 39.065,53.75 C37.333,53.598 34.209,52.59 32.944,47.55 C32.514,45.813 32.358,44.048 32.225,42.275 C32.116,40.854 32.03,39.421 31.639,38.024 C31.241,37.555 29.812,37.555 29.274,37.555 C29.258,37.555 28.071,37.555 28.055,37.555 C22.136,37.481 18.013,33.424 17.786,27.458 C17.583,22.066 19.613,18.782 21.354,16.975 C24.626,13.579 28.867,12.883 30.858,13.219 C34.715,13.886 36.582,14.327 37.745,14.847 L48.443,18.251 C49.677,18.646 50.645,19.606 51.036,20.836 C51.145,21.156 51.2,21.484 51.224,21.812 C51.59,21.964 52.207,22.132 53.192,22.132 C53.286,22.124 54.152,22.089 54.246,22.089 C55.683,22.089 57.362,23.038 58.072,24.279 C59.61,26.961 58.15,30.038 54.707,35.946 C54.012,37.148 53.816,38.152 53.599,39.311 C53.31,40.869 52.974,42.641 51.99,44.43 C51.155,45.98 50.03,47.128 49.039,48.139 C48.687,48.498 48.328,48.857 48.008,49.236 C46.726,50.72 44.086,53.785 39.854,53.785 Z M39.768,45.785 L39.854,49.787 L39.854,45.793 C39.83,45.789 39.799,45.789 39.768,45.785 Z M29.273,29.559 C31.763,29.559 37.604,29.559 39.353,35.9 C39.908,37.919 40.064,39.906 40.197,41.663 C40.291,42.908 40.369,44.15 40.642,45.368 C41.134,44.962 41.657,44.357 41.938,44.025 C42.376,43.521 42.844,43.033 43.328,42.545 C44.008,41.85 44.648,41.194 44.961,40.608 C45.352,39.906 45.531,38.941 45.741,37.825 C46.038,36.271 46.405,34.338 47.482,32.456 C48.138,31.328 48.693,30.368 49.138,29.556 C46.662,28.798 44.742,27.319 43.726,25.292 C43.695,25.233 43.671,25.175 43.64,25.116 L35.05,22.383 C34.785,22.297 34.535,22.188 34.293,22.051 C34.184,22.028 33.153,21.731 29.693,21.13 C29.537,21.161 25.562,21.505 25.781,27.158 C25.859,29.243 26.96,29.544 28.147,29.559 L28.952,33.557 L29.273,29.559 Z"></path>
                </g>
                <path d="M299.999,511.877 C297.789,511.877 295.962,510.089 295.962,507.879 C295.962,505.669 297.711,503.881 299.913,503.881 L299.999,503.881 C302.201,503.881 303.997,505.669 303.997,507.879 C303.997,510.089 302.201,511.877 299.999,511.877 Z" id="Shape"></path>
                <path d="M451.926,471.896 C449.716,471.896 447.889,470.108 447.889,467.898 C447.889,465.688 449.638,463.9 451.84,463.9 L451.926,463.9 C454.128,463.9 455.924,465.688 455.924,467.898 C455.924,470.108 454.128,471.896 451.926,471.896 Z" id="Shape"></path>
                <path d="M228.025,455.904 C225.823,455.904 223.988,454.115 223.988,451.906 C223.988,449.696 225.737,447.908 227.947,447.908 L228.025,447.908 C230.235,447.908 232.023,449.696 232.023,451.906 C232.023,454.115 230.235,455.904 228.025,455.904 Z" id="Shape"></path>
                <path d="M475.914,351.954 C473.704,351.954 471.877,350.166 471.877,347.956 C471.877,345.746 473.626,343.958 475.828,343.958 L475.914,343.958 C478.116,343.958 479.912,345.746 479.912,347.956 C479.912,350.166 478.116,351.954 475.914,351.954 Z" id="Shape"></path>
                <path d="M140.068,495.885 C137.866,495.885 136.031,494.097 136.031,491.887 C136.031,489.677 137.78,487.889 139.99,487.889 L140.068,487.889 C142.277,487.889 144.066,489.677 144.066,491.887 C144.066,494.097 142.277,495.885 140.068,495.885 Z" id="Shape"></path>
                <path d="M84.095,383.938 C81.893,383.938 80.058,382.15 80.058,379.94 C80.058,377.73 81.807,375.942 84.017,375.942 L84.095,375.942 C86.305,375.942 88.093,377.73 88.093,379.94 C88.093,382.15 86.305,383.938 84.095,383.938 Z" id="Shape"></path>
                <path d="M20.125,335.962 C17.923,335.962 16.088,334.174 16.088,331.964 C16.088,329.754 17.837,327.965 20.047,327.965 L20.125,327.965 C22.334,327.965 24.123,329.754 24.123,331.964 C24.123,334.174 22.335,335.962 20.125,335.962 Z" id="Shape"></path>
                <path d="M52.11,263.996 C49.908,263.996 48.073,262.208 48.073,259.998 C48.073,257.788 49.822,256 52.032,256 L52.11,256 C54.319,256 56.108,257.788 56.108,259.998 C56.108,262.208 54.32,263.996 52.11,263.996 Z" id="Shape"></path>
                <path d="M76.099,168.042 C73.897,168.042 72.062,166.254 72.062,164.044 C72.062,161.835 73.811,160.046 76.021,160.046 L76.099,160.046 C78.309,160.046 80.097,161.835 80.097,164.044 C80.097,166.254 78.309,168.042 76.099,168.042 Z" id="Shape"></path>
                <path d="M148.064,80.084 C145.862,80.084 144.027,78.296 144.027,76.086 C144.027,73.877 145.776,72.088 147.986,72.088 L148.064,72.088 C150.274,72.088 152.062,73.877 152.062,76.086 C152.062,78.296 150.274,80.084 148.064,80.084 Z" id="Shape"></path>
                <path d="M292.002,72.088 C289.793,72.088 287.965,70.3 287.965,68.09 C287.965,65.88 289.715,64.092 291.917,64.092 L292.002,64.092 C294.205,64.092 296.001,65.88 296.001,68.09 C296.001,70.3 294.205,72.088 292.002,72.088 Z" id="Shape"></path>
                <path d="M356.479,24.111 C354.269,24.111 352.442,22.323 352.442,20.113 C352.442,17.903 354.191,16.115 356.393,16.115 L356.479,16.115 C358.681,16.115 360.477,17.903 360.477,20.113 C360.477,22.323 358.682,24.111 356.479,24.111 Z" id="Shape"></path>
                <path d="M4.133,120.065 C1.931,120.065 0.096,118.277 0.096,116.067 C0.096,113.857 1.846,112.069 4.055,112.069 L4.133,112.069 C6.343,112.069 8.131,113.857 8.131,116.067 C8.131,118.277 6.343,120.065 4.133,120.065 Z" id="Shape"></path>
                <path d="M491.906,168.042 C489.696,168.042 487.869,166.254 487.869,164.044 C487.869,161.835 489.618,160.046 491.82,160.046 L491.906,160.046 C494.108,160.046 495.904,161.835 495.904,164.044 C495.904,166.254 494.108,168.042 491.906,168.042 Z" id="Shape"></path>
                <path d="M435.934,208.039 C433.724,208.039 431.897,206.25 431.897,204.04 C431.897,201.831 433.646,200.042 435.848,200.042 L435.934,200.042 C438.136,200.042 439.932,201.831 439.932,204.04 C439.932,206.25 438.136,208.039 435.934,208.039 Z" id="Shape"></path>
                <path d="M180.049,8.119 C177.847,8.119 176.012,6.331 176.012,4.121 C176.012,1.911 177.761,0.123 179.971,0.123 L180.049,0.123 C182.259,0.123 184.047,1.911 184.047,4.121 C184.047,6.331 182.259,8.119 180.049,8.119 Z" id="Shape"></path>
                <g transform="translate(31.000000, 40.000000)" id="Shape">
                    <path d="M12.88,40.084 C10.67,40.084 8.882,38.296 8.882,36.086 L8.882,4.102 C8.882,1.893 10.67,0.104 12.88,0.104 C15.09,0.104 16.878,1.893 16.878,4.102 L16.878,36.087 C16.878,38.296 15.09,40.084 12.88,40.084 Z"></path>
                    <path d="M20.876,24.092 L4.884,24.092 C2.674,24.092 0.886,22.303 0.886,20.094 C0.886,17.884 2.674,16.096 4.884,16.096 L20.876,16.096 C23.086,16.096 24.874,17.884 24.874,20.094 C24.874,22.304 23.086,24.092 20.876,24.092 Z"></path>
                </g>
                <g transform="translate(39.000000, 431.000000)" id="Shape">
                    <path d="M12.876,40.896 C10.666,40.896 8.878,39.108 8.878,36.898 L8.878,4.914 C8.878,2.703 10.666,0.916 12.876,0.916 C15.086,0.916 16.874,2.703 16.874,4.914 L16.874,36.898 C16.874,39.108 15.086,40.896 12.876,40.896 Z"></path>
                    <path d="M20.872,24.904 L4.88,24.904 C2.67,24.904 0.882,23.115 0.882,20.906 C0.882,18.696 2.67,16.908 4.88,16.908 L20.872,16.908 C23.082,16.908 24.87,18.696 24.87,20.906 C24.87,23.115 23.082,24.904 20.872,24.904 Z"></path>
                </g>
                <path d="M371.723,455.904 C365.109,455.904 359.728,450.523 359.728,443.91 C359.728,437.296 365.109,431.916 371.723,431.916 C378.336,431.916 383.717,437.296 383.717,443.91 C383.717,450.523 378.336,455.904 371.723,455.904 Z M371.723,439.912 C369.52,439.912 367.724,441.708 367.724,443.91 C367.724,446.111 369.52,447.908 371.723,447.908 C373.924,447.908 375.721,446.111 375.721,443.91 C375.721,441.708 373.924,439.912 371.723,439.912 Z" id="Shape"></path>
                <path d="M378.062,443.059 C376.266,443.059 374.634,441.848 374.181,440.03 C373.65,437.889 374.947,435.727 377.078,435.18 C377.444,435.086 401.16,428.503 416.036,394.34 C416.902,392.31 419.284,391.389 421.291,392.263 C423.321,393.153 424.243,395.503 423.36,397.526 C406.774,435.633 380.154,442.661 379.03,442.942 C378.703,443.02 378.383,443.059 378.062,443.059 Z" id="Shape"></path>
                <g transform="translate(95.000000, 104.000000)" id="Shape">
                    <path d="M152.782,303.927 C69.01,303.927 0.855,235.773 0.855,152 C0.855,68.227 69.01,0.073 152.782,0.073 C236.554,0.073 304.709,68.227 304.709,152 C304.709,235.773 236.554,303.927 152.782,303.927 Z M152.782,8.069 C73.414,8.069 8.851,72.635 8.851,152 C8.851,231.368 73.414,295.931 152.782,295.931 C232.142,295.931 296.713,231.369 296.713,152 C296.713,72.636 232.142,8.069 152.782,8.069 Z"></path>
                    <path d="M135.04,52.021 C131.651,52.021 128.254,51.408 125.607,50.178 L123.366,49.163 C120.18,47.675 114.409,47.679 111.223,49.147 L108.935,50.189 C103.695,52.626 95.411,52.637 90.116,50.177 L87.883,49.158 C85.104,47.857 80.309,47.662 76.936,48.681 C76.545,48.802 76.139,48.954 75.772,49.13 L73.492,50.188 C71.477,51.129 69.103,50.25 68.182,48.251 C67.245,46.248 68.112,43.87 70.119,42.941 L72.384,41.886 C73.056,41.566 73.805,41.281 74.586,41.035 C79.888,39.438 86.713,39.793 91.227,41.893 L93.46,42.909 C96.654,44.396 102.424,44.396 105.595,42.925 L107.891,41.878 C113.162,39.438 121.432,39.438 126.71,41.894 L128.943,42.906 C132.16,44.401 137.916,44.405 141.078,42.926 L143.374,41.879 C148.629,39.443 156.898,39.439 162.193,41.883 L164.465,42.942 C167.627,44.386 173.405,44.398 176.576,42.922 L178.856,41.883 C184.127,39.443 192.404,39.443 197.69,41.891 L199.923,42.914 C203.117,44.386 208.896,44.386 212.058,42.922 L214.354,41.879 C218.79,39.81 225.559,39.451 230.807,40.997 C231.659,41.258 232.447,41.551 233.181,41.894 L235.407,42.914 C237.414,43.835 238.296,46.209 237.375,48.216 C236.453,50.231 234.071,51.098 232.08,50.184 L229.831,49.154 C229.402,48.955 228.957,48.795 228.504,48.654 C225.186,47.67 220.422,47.873 217.696,49.142 L215.401,50.188 C210.153,52.632 201.876,52.628 196.582,50.176 L194.341,49.154 C191.155,47.678 185.368,47.678 182.198,49.146 L179.926,50.184 C174.687,52.624 166.409,52.636 161.107,50.196 L158.828,49.134 C155.665,47.674 149.887,47.67 146.716,49.146 L144.42,50.188 C141.803,51.412 138.421,52.021 135.04,52.021 Z"></path>
                    <path d="M135.04,76.009 C131.651,76.009 128.254,75.396 125.607,74.166 L123.366,73.151 C120.18,71.667 114.409,71.667 111.223,73.135 L108.935,74.177 C103.695,76.617 95.411,76.621 90.116,74.165 L87.883,73.146 C84.69,71.662 78.927,71.666 75.748,73.126 L73.492,74.176 C68.174,76.616 59.905,76.616 54.642,74.16 L52.401,73.149 C51.706,72.821 50.87,72.563 49.964,72.379 C47.801,71.942 46.396,69.834 46.833,67.671 C47.27,65.508 49.386,64.079 51.541,64.54 C53.08,64.849 54.485,65.302 55.734,65.879 L57.975,66.894 C61.169,68.377 66.94,68.373 70.133,66.921 L72.382,65.875 C77.676,63.423 85.945,63.427 91.225,65.883 L93.458,66.898 C96.652,68.385 102.422,68.385 105.593,66.914 L107.889,65.868 C113.16,63.428 121.43,63.428 126.708,65.884 L128.941,66.895 C132.158,68.394 137.914,68.39 141.076,66.915 L143.372,65.869 C148.627,63.432 156.896,63.429 162.191,65.873 L164.463,66.931 C167.625,68.379 173.403,68.383 176.574,66.911 L178.854,65.872 C184.125,63.428 192.402,63.432 197.688,65.88 L199.921,66.903 C203.115,68.371 208.894,68.379 212.056,66.911 L214.352,65.869 C219.608,63.432 227.885,63.432 233.171,65.881 L235.404,66.904 C238.59,68.38 244.368,68.38 247.554,66.912 L249.825,65.873 C251.052,65.303 252.472,64.846 254.018,64.53 C256.159,64.092 258.297,65.471 258.743,67.642 C259.181,69.805 257.791,71.917 255.628,72.362 C254.683,72.557 253.863,72.815 253.176,73.135 L250.896,74.173 C245.633,76.621 237.348,76.613 232.061,74.165 L229.828,73.143 C226.627,71.655 220.849,71.663 217.693,73.135 L215.398,74.177 C210.15,76.621 201.873,76.617 196.579,74.165 L194.338,73.143 C191.152,71.667 185.365,71.667 182.195,73.135 L179.923,74.173 C174.684,76.613 166.406,76.625 161.104,74.185 L158.825,73.123 C155.662,71.663 149.884,71.659 146.713,73.135 L144.417,74.177 C141.803,75.4 138.421,76.009 135.04,76.009 Z"></path>
                    <path d="M135.04,99.998 C131.651,99.998 128.254,99.385 125.607,98.155 L123.366,97.14 C120.18,95.657 114.409,95.657 111.223,97.124 L108.935,98.166 C103.695,100.602 95.411,100.614 90.116,98.154 L87.883,97.135 C84.69,95.652 78.927,95.652 75.748,97.115 L73.492,98.165 C68.174,100.609 59.905,100.601 54.642,98.149 L52.401,97.138 C49.199,95.647 43.428,95.651 40.266,97.115 L37.994,98.169 C36.932,98.653 35.761,99.047 34.511,99.344 C32.372,99.871 30.217,98.535 29.701,96.381 C29.185,94.234 30.513,92.078 32.66,91.567 C33.378,91.395 34.05,91.18 34.651,90.907 L36.9,89.861 C42.187,87.421 50.464,87.421 55.734,89.869 L57.975,90.884 C61.169,92.368 66.94,92.364 70.133,90.911 L72.382,89.865 C77.676,87.417 85.945,87.417 91.225,89.873 L93.458,90.888 C96.652,92.376 102.422,92.376 105.593,90.904 L107.889,89.858 C113.16,87.418 121.43,87.418 126.708,89.874 L128.941,90.885 C132.158,92.38 137.914,92.384 141.076,90.905 L143.372,89.859 C148.627,87.423 156.896,87.419 162.191,89.863 L164.463,90.921 C167.625,92.37 173.403,92.374 176.574,90.901 L178.854,89.862 C184.125,87.418 192.402,87.426 197.688,89.87 L199.921,90.893 C203.115,92.361 208.894,92.369 212.056,90.901 L214.352,89.859 C219.608,87.423 227.885,87.427 233.171,89.871 L235.404,90.894 C238.59,92.37 244.368,92.37 247.554,90.902 L249.825,89.863 C255.096,87.419 263.366,87.427 268.652,89.871 L270.893,90.894 C271.502,91.171 272.19,91.394 272.915,91.566 C275.062,92.069 276.398,94.221 275.891,96.372 C275.391,98.515 273.275,99.859 271.088,99.351 C269.816,99.054 268.628,98.652 267.567,98.164 L265.31,97.133 C262.108,95.657 256.331,95.65 253.175,97.125 L250.895,98.164 C245.632,100.612 237.347,100.604 232.06,98.156 L229.827,97.133 C226.626,95.65 220.848,95.65 217.692,97.125 L215.397,98.167 C210.149,100.611 201.872,100.607 196.578,98.155 L194.337,97.132 C191.151,95.656 185.364,95.656 182.194,97.124 L179.922,98.163 C174.683,100.603 166.405,100.615 161.103,98.175 L158.824,97.113 C155.661,95.649 149.883,95.653 146.712,97.125 L144.416,98.167 C141.803,99.389 138.421,99.998 135.04,99.998 Z"></path>
                    <path d="M28.576,124.002 C27.108,124.002 25.632,123.885 24.203,123.647 C22.024,123.288 20.548,121.226 20.915,119.047 C21.274,116.872 23.305,115.361 25.515,115.76 C28.709,116.291 32.379,115.944 34.636,114.901 L36.901,113.851 C42.188,111.411 50.465,111.411 55.735,113.859 L57.976,114.874 C61.17,116.358 66.941,116.354 70.134,114.901 L72.383,113.855 C77.677,111.407 85.946,111.407 91.226,113.863 L93.459,114.878 C96.653,116.366 102.423,116.366 105.594,114.894 L107.89,113.848 C113.161,111.408 121.431,111.408 126.709,113.864 L128.942,114.875 C132.159,116.375 137.915,116.371 141.077,114.895 L143.373,113.849 C148.628,111.412 156.897,111.409 162.192,113.853 L164.464,114.911 C167.626,116.356 173.404,116.368 176.575,114.891 L178.855,113.853 C184.126,111.409 192.403,111.416 197.689,113.861 L199.922,114.883 C203.116,116.355 208.895,116.359 212.057,114.891 L214.353,113.849 C219.609,111.412 227.886,111.416 233.172,113.861 L235.405,114.883 C238.591,116.359 244.369,116.359 247.555,114.891 L249.826,113.853 C255.097,111.409 263.367,111.416 268.653,113.861 L270.894,114.883 C273.182,115.942 276.829,116.297 280.054,115.746 C282.116,115.437 284.286,116.839 284.661,119.021 C285.027,121.2 283.559,123.261 281.381,123.632 C276.587,124.448 271.269,123.882 267.544,122.145 L265.311,121.122 C262.109,119.646 256.332,119.639 253.176,121.114 L250.896,122.153 C245.633,124.597 237.348,124.597 232.061,122.145 L229.828,121.122 C226.627,119.639 220.849,119.639 217.693,121.114 L215.398,122.157 C210.15,124.601 201.873,124.597 196.579,122.145 L194.338,121.122 C191.152,119.646 185.365,119.646 182.195,121.114 L179.923,122.153 C174.684,124.593 166.406,124.605 161.104,122.165 L158.825,121.103 C155.662,119.639 149.884,119.643 146.713,121.115 L144.417,122.158 C139.177,124.61 130.9,124.606 125.606,122.146 L123.365,121.13 C120.179,119.643 114.408,119.651 111.222,121.114 L108.934,122.157 C103.694,124.597 95.41,124.601 90.115,122.145 L87.882,121.125 C84.689,119.642 78.926,119.646 75.747,121.105 L73.491,122.156 C68.173,124.6 59.904,124.592 54.641,122.14 L52.4,121.128 C49.198,119.637 43.427,119.645 40.265,121.105 L37.993,122.16 C35.393,123.361 32.012,124.002 28.576,124.002 Z"></path>
                    <path d="M28.591,147.975 C25.194,147.975 21.798,147.358 19.158,146.128 C17.151,145.195 16.284,142.817 17.221,140.818 C18.151,138.815 20.532,137.956 22.531,138.881 C25.686,140.349 31.456,140.357 34.635,138.889 L36.9,137.839 C42.187,135.399 50.464,135.399 55.734,137.847 L57.975,138.862 C61.169,140.342 66.94,140.346 70.133,138.889 L72.382,137.843 C77.676,135.395 85.945,135.395 91.225,137.851 L93.458,138.866 C96.652,140.354 102.422,140.354 105.593,138.882 L107.889,137.836 C113.16,135.396 121.43,135.396 126.708,137.852 L128.941,138.863 C132.158,140.363 137.914,140.359 141.076,138.883 L143.372,137.837 C148.627,135.404 156.896,135.393 162.191,137.841 L164.463,138.899 C167.625,140.344 173.403,140.356 176.574,138.879 L178.854,137.84 C184.125,135.396 192.402,135.403 197.688,137.848 L199.921,138.871 C203.115,140.343 208.894,140.343 212.056,138.879 L214.352,137.837 C219.608,135.4 227.885,135.404 233.171,137.849 L235.404,138.872 C238.59,140.344 244.368,140.352 247.554,138.88 L249.825,137.841 C255.096,135.397 263.366,135.404 268.652,137.849 L270.893,138.872 C274.08,140.348 279.866,140.348 283.036,138.88 C285.019,137.943 287.409,138.829 288.347,140.824 C289.268,142.831 288.402,145.205 286.395,146.134 C281.116,148.586 272.838,148.586 267.544,146.134 L265.311,145.111 C262.109,143.631 256.332,143.631 253.176,145.103 L250.896,146.142 C245.633,148.586 237.348,148.586 232.061,146.134 L229.828,145.111 C226.627,143.623 220.849,143.631 217.693,145.103 L215.398,146.145 C210.15,148.589 201.873,148.585 196.579,146.133 L194.338,145.11 C191.152,143.634 185.365,143.634 182.195,145.102 L179.923,146.141 C174.684,148.581 166.406,148.593 161.104,146.153 L158.825,145.091 C155.662,143.631 149.884,143.627 146.713,145.103 L144.417,146.145 C139.177,148.597 130.9,148.593 125.606,146.133 L123.365,145.118 C120.179,143.634 114.408,143.634 111.222,145.102 L108.934,146.144 C103.694,148.581 95.41,148.592 90.115,146.132 L87.882,145.113 C84.689,143.633 78.926,143.629 75.747,145.093 L73.491,146.143 C68.173,148.583 59.904,148.583 54.641,146.127 L52.4,145.116 C49.198,143.628 43.427,143.628 40.265,145.093 L37.993,146.147 C35.354,147.365 31.973,147.975 28.591,147.975 Z"></path>
                    <path d="M28.568,171.975 C25.648,171.975 22.719,171.522 20.252,170.585 C18.183,169.804 17.144,167.492 17.925,165.432 C18.706,163.362 21.009,162.308 23.078,163.104 C26.366,164.354 31.668,164.245 34.635,162.878 L36.9,161.823 C42.187,159.383 50.464,159.39 55.734,161.839 L57.975,162.855 C61.169,164.338 66.94,164.331 70.133,162.878 L72.382,161.831 C77.676,159.379 85.945,159.387 91.225,161.839 L93.458,162.855 C96.652,164.338 102.422,164.338 105.593,162.871 L107.889,161.824 C113.16,159.384 121.43,159.384 126.708,161.84 L128.941,162.856 C132.158,164.355 137.914,164.347 141.076,162.872 L143.372,161.825 C148.627,159.388 156.896,159.385 162.191,161.825 L164.463,162.887 C167.625,164.339 173.403,164.339 176.574,162.871 L178.854,161.824 C184.125,159.384 192.402,159.391 197.688,161.84 L199.921,162.856 C203.115,164.324 208.894,164.339 212.056,162.872 L214.352,161.825 C219.608,159.388 227.885,159.392 233.171,161.841 L235.404,162.857 C238.59,164.34 244.368,164.34 247.554,162.873 L249.825,161.826 C255.096,159.386 263.366,159.393 268.652,161.842 L270.893,162.858 C273.876,164.248 279.163,164.349 282.481,163.107 C284.536,162.319 286.854,163.373 287.627,165.435 C288.408,167.511 287.361,169.807 285.292,170.588 C279.936,172.61 272.455,172.4 267.551,170.119 L265.31,169.104 C262.108,167.62 256.331,167.62 253.175,169.088 L250.895,170.134 C245.632,172.571 237.347,172.571 232.06,170.118 L229.827,169.103 C226.626,167.619 220.848,167.619 217.692,169.087 L215.397,170.133 C210.149,172.577 201.872,172.57 196.578,170.117 L194.337,169.102 C191.151,167.618 185.364,167.618 182.194,169.086 L179.922,170.132 C174.683,172.569 166.405,172.584 161.103,170.14 L158.824,169.078 C155.661,167.617 149.883,167.617 146.712,169.086 L144.416,170.132 C139.176,172.584 130.899,172.584 125.605,170.116 L123.364,169.101 C120.178,167.617 114.407,167.617 111.221,169.085 L108.933,170.131 C103.693,172.568 95.409,172.575 90.114,170.115 L87.881,169.1 C84.688,167.616 78.925,167.616 75.746,169.084 L73.49,170.13 C68.172,172.574 59.903,172.567 54.64,170.114 L52.399,169.099 C49.197,167.615 43.426,167.615 40.264,169.083 L37.992,170.129 C35.338,171.357 31.957,171.975 28.568,171.975 Z"></path>
                    <path d="M28.599,195.963 C27.982,195.963 27.365,195.94 26.748,195.901 C24.546,195.753 22.874,193.856 23.023,191.645 C23.164,189.436 25.124,187.803 27.279,187.92 C30.036,188.123 32.839,187.701 34.635,186.874 L36.9,185.812 C42.187,183.374 50.464,183.374 55.734,185.828 L57.975,186.843 C61.169,188.326 66.94,188.319 70.133,186.866 L72.382,185.82 C77.676,183.367 85.945,183.375 91.225,185.828 L93.458,186.843 C96.652,188.326 102.422,188.326 105.593,186.859 L107.889,185.813 C113.16,183.375 121.43,183.375 126.708,185.829 L128.941,186.844 C132.158,188.343 137.914,188.335 141.076,186.86 L143.372,185.814 C148.627,183.376 156.896,183.369 162.191,185.814 L164.463,186.876 C167.625,188.328 173.403,188.328 176.574,186.86 L178.854,185.814 C184.125,183.376 192.402,183.376 197.688,185.83 L199.921,186.845 C203.115,188.313 208.894,188.328 212.056,186.861 L214.352,185.815 C219.608,183.377 227.885,183.377 233.171,185.831 L235.404,186.846 C238.59,188.329 244.368,188.329 247.554,186.862 L249.825,185.816 C255.096,183.378 263.366,183.378 268.652,185.832 L270.893,186.847 C272.72,187.698 275.5,188.127 278.28,187.924 C280.444,187.822 282.387,189.44 282.536,191.649 C282.684,193.86 281.014,195.756 278.811,195.905 C274.68,196.171 270.596,195.522 267.551,194.109 L265.31,193.094 C262.108,191.61 256.331,191.61 253.175,193.078 L250.895,194.124 C245.632,196.561 237.347,196.561 232.06,194.108 L229.827,193.093 C226.626,191.609 220.848,191.609 217.692,193.077 L215.397,194.123 C210.149,196.567 201.872,196.56 196.578,194.107 L194.337,193.092 C191.151,191.608 185.364,191.608 182.194,193.076 L179.922,194.122 C174.683,196.559 166.405,196.574 161.103,194.13 L158.824,193.068 C155.661,191.607 149.883,191.607 146.712,193.076 L144.416,194.122 C139.176,196.574 130.899,196.574 125.605,194.106 L123.364,193.091 C120.178,191.607 114.407,191.614 111.221,193.075 L108.933,194.121 C103.693,196.558 95.409,196.573 90.114,194.105 L87.881,193.09 C84.688,191.606 78.925,191.606 75.746,193.074 L73.49,194.12 C68.172,196.564 59.903,196.557 54.64,194.104 L52.399,193.089 C49.197,191.605 43.426,191.605 40.264,193.073 L37.992,194.119 C35.424,195.315 32.074,195.963 28.599,195.963 Z"></path>
                    <path d="M135.04,219.936 C131.651,219.936 128.254,219.328 125.607,218.094 L123.366,217.078 C120.18,215.595 114.409,215.595 111.223,217.062 L108.935,218.109 C103.695,220.545 95.411,220.552 90.116,218.093 L87.883,217.077 C84.69,215.594 78.927,215.594 75.748,217.061 L73.492,218.108 C68.174,220.544 59.905,220.544 54.642,218.092 L52.401,217.076 C49.199,215.593 43.428,215.593 40.266,217.06 L37.994,218.107 C35.987,219.059 33.621,218.169 32.684,216.169 C31.755,214.163 32.629,211.78 34.628,210.859 L36.9,209.797 C42.187,207.36 50.464,207.36 55.734,209.813 L57.975,210.828 C61.169,212.311 66.94,212.304 70.133,210.851 L72.382,209.805 C77.676,207.353 85.945,207.361 91.225,209.813 L93.458,210.828 C96.652,212.311 102.422,212.311 105.593,210.844 L107.889,209.798 C113.16,207.361 121.43,207.361 126.708,209.814 L128.941,210.829 C132.158,212.32 137.914,212.32 141.076,210.845 L143.372,209.799 C148.627,207.362 156.896,207.362 162.191,209.799 L164.463,210.861 C167.625,212.305 173.403,212.313 176.574,210.845 L178.854,209.799 C184.125,207.362 192.402,207.362 197.688,209.815 L199.921,210.83 C203.115,212.306 208.894,212.306 212.056,210.846 L214.352,209.8 C219.608,207.363 227.885,207.363 233.171,209.816 L235.404,210.831 C238.59,212.314 244.368,212.314 247.554,210.847 L249.825,209.801 C255.096,207.364 263.366,207.364 268.652,209.817 L270.893,210.832 C272.9,211.753 273.783,214.128 272.869,216.126 C271.956,218.142 269.582,219.031 267.567,218.11 L265.31,217.079 C262.108,215.596 256.331,215.596 253.175,217.063 L250.895,218.11 C245.632,220.553 237.347,220.546 232.06,218.094 L229.827,217.078 C226.626,215.595 220.848,215.595 217.692,217.062 L215.397,218.109 C210.149,220.552 201.872,220.545 196.578,218.093 L194.337,217.077 C191.151,215.594 185.364,215.594 182.194,217.061 L179.922,218.108 C174.683,220.544 166.405,220.559 161.103,218.116 L158.824,217.054 C155.661,215.594 149.883,215.594 146.712,217.062 L144.416,218.109 C141.803,219.327 138.421,219.936 135.04,219.936 Z"></path>
                    <path d="M135.04,243.925 C131.651,243.925 128.254,243.316 125.607,242.082 L123.366,241.066 C120.18,239.583 114.409,239.583 111.223,241.05 L108.935,242.097 C103.695,244.533 95.411,244.548 90.116,242.081 L87.883,241.065 C84.69,239.582 78.927,239.582 75.748,241.049 L73.492,242.096 C68.174,244.539 59.905,244.532 54.642,242.08 L52.401,241.064 C51.846,240.814 51.245,240.603 50.597,240.439 C48.465,239.893 47.176,237.707 47.723,235.567 C48.278,233.427 50.449,232.162 52.588,232.693 C53.712,232.982 54.767,233.349 55.719,233.787 L57.976,234.817 C61.17,236.3 66.941,236.293 70.134,234.84 L72.383,233.794 C77.677,231.342 85.946,231.35 91.226,233.802 L93.459,234.817 C96.653,236.3 102.423,236.3 105.594,234.833 L107.89,233.787 C113.161,231.35 121.431,231.35 126.709,233.803 L128.942,234.818 C132.159,236.317 137.915,236.309 141.077,234.834 L143.373,233.788 C148.628,231.351 156.897,231.344 162.192,233.788 L164.464,234.85 C167.626,236.302 173.404,236.302 176.575,234.834 L178.855,233.788 C184.126,231.351 192.403,231.351 197.689,233.804 L199.922,234.819 C203.116,236.287 208.895,236.302 212.057,234.835 L214.353,233.789 C219.609,231.352 227.886,231.352 233.172,233.805 L235.405,234.82 C238.591,236.303 244.369,236.303 247.555,234.836 L249.826,233.79 C250.81,233.352 251.873,232.962 253.013,232.688 C255.192,232.149 257.324,233.477 257.847,235.617 C258.377,237.757 257.066,239.928 254.918,240.45 C254.277,240.614 253.685,240.817 253.146,241.067 L250.897,242.098 C245.634,244.541 237.349,244.534 232.062,242.082 L229.829,241.066 C226.628,239.575 220.85,239.583 217.694,241.05 L215.399,242.097 C210.151,244.533 201.874,244.54 196.58,242.081 L194.339,241.065 C191.153,239.582 185.366,239.582 182.196,241.049 L179.924,242.096 C174.685,244.532 166.407,244.547 161.105,242.104 L158.826,241.042 C155.663,239.582 149.885,239.582 146.714,241.05 L144.418,242.097 C141.803,243.315 138.421,243.925 135.04,243.925 Z"></path>
                    <path d="M135.04,267.913 C131.651,267.913 128.254,267.304 125.607,266.07 L123.366,265.054 C120.18,263.571 114.409,263.578 111.223,265.038 L108.935,266.085 C103.695,268.522 95.411,268.529 90.116,266.069 L87.883,265.053 C85.502,263.952 81.574,263.632 78.31,264.257 C76.139,264.678 74.039,263.257 73.617,261.094 C73.196,258.924 74.609,256.823 76.78,256.402 C81.684,255.449 87.361,255.996 91.226,257.792 L93.459,258.808 C96.653,260.291 102.423,260.291 105.594,258.824 L107.89,257.777 C113.161,255.34 121.431,255.34 126.709,257.793 L128.942,258.809 C132.159,260.3 137.915,260.308 141.077,258.825 L143.373,257.778 C148.628,255.341 156.897,255.341 162.192,257.778 L164.464,258.84 C167.626,260.292 173.404,260.292 176.575,258.824 L178.855,257.777 C184.126,255.34 192.403,255.34 197.689,257.793 L199.922,258.809 C203.116,260.277 208.895,260.292 212.057,258.825 L214.353,257.778 C218.203,255.998 223.701,255.466 228.604,256.381 C230.775,256.786 232.204,258.872 231.798,261.042 C231.392,263.213 229.19,264.634 227.136,264.236 C223.872,263.619 220.006,263.963 217.695,265.04 L215.4,266.087 C210.152,268.524 201.875,268.531 196.581,266.071 L194.34,265.055 C191.154,263.572 185.367,263.572 182.197,265.039 L179.925,266.086 C174.686,268.523 166.408,268.538 161.106,266.094 L158.827,265.032 C155.664,263.572 149.886,263.572 146.715,265.04 L144.419,266.087 C141.803,267.304 138.421,267.913 135.04,267.913 Z"></path>
                </g>
            </g>
        </g>
    </g>
</svg>