<?xml version="1.0" encoding="UTF-8"?>
<svg width="512px" height="464px" viewBox="0 0 512 464" version="1.1" xmlns="http://www.w3.org/2000/svg" xmlns:xlink="http://www.w3.org/1999/xlink">
    <!-- Generator: Sketch 50 (54983) - http://www.bohemiancoding.com/sketch -->
    <title>Group</title>
    <desc>Created with Sketch.</desc>
    <defs></defs>
    <g id="Page-1" stroke="none" stroke-width="1" fill="none" fill-rule="evenodd">
        <g id="noun_1311200_cc" fill="#000000" fill-rule="nonzero">
            <g id="Group">
                <path d="M371.962,24.1 C369.76,24.1 367.933,22.312 367.933,20.102 C367.933,17.893 369.682,16.104 371.884,16.104 L371.962,16.104 C374.18,16.104 375.96,17.893 375.96,20.102 C375.96,22.312 374.18,24.1 371.962,24.1 Z" id="Shape"></path>
                <path d="M236.031,8.107 C233.825,8.107 231.994,6.319 231.994,4.109 C231.994,1.899 233.743,0.111 235.953,0.111 L236.031,0.111 C238.241,0.111 240.029,1.899 240.029,4.109 C240.029,6.319 238.241,8.107 236.031,8.107 Z" id="Shape"></path>
                <path d="M52.12,104.062 C49.914,104.062 48.082,102.274 48.082,100.064 C48.082,97.854 49.832,96.066 52.041,96.066 L52.119,96.066 C54.328,96.066 56.117,97.854 56.117,100.064 C56.117,102.274 54.33,104.062 52.12,104.062 Z" id="Shape"></path>
                <path d="M4.143,160.035 C1.937,160.035 0.106,158.246 0.106,156.037 C0.106,153.827 1.855,152.039 4.065,152.039 L4.143,152.039 C6.353,152.039 8.141,153.827 8.141,156.037 C8.141,158.246 6.353,160.035 4.143,160.035 Z" id="Shape"></path>
                <path d="M100.097,343.946 C97.891,343.946 96.06,342.158 96.06,339.948 C96.06,337.738 97.809,335.95 100.019,335.95 L100.097,335.95 C102.307,335.95 104.095,337.738 104.095,339.948 C104.095,342.158 102.307,343.946 100.097,343.946 Z" id="Shape"></path>
                <path d="M148.074,40.092 C145.868,40.092 144.037,38.303 144.037,36.094 C144.037,33.884 145.786,32.096 147.996,32.096 L148.074,32.096 C150.283,32.096 152.072,33.884 152.072,36.094 C152.072,38.304 150.283,40.092 148.074,40.092 Z" id="Shape"></path>
                <path d="M307.993,40.092 C305.791,40.092 303.964,38.303 303.964,36.094 C303.964,33.884 305.713,32.096 307.915,32.096 L307.993,32.096 C310.211,32.096 311.991,33.884 311.991,36.094 C311.991,38.304 310.211,40.092 307.993,40.092 Z" id="Shape"></path>
                <path d="M36.127,311.962 C33.921,311.962 32.09,310.174 32.09,307.964 C32.09,305.754 33.84,303.965 36.049,303.965 L36.127,303.965 C38.337,303.965 40.125,305.754 40.125,307.964 C40.125,310.174 38.337,311.962 36.127,311.962 Z" id="Shape"></path>
                <path d="M220.039,407.916 C217.833,407.916 216.002,406.127 216.002,403.918 C216.002,401.707 217.751,399.92 219.961,399.92 L220.039,399.92 C222.249,399.92 224.037,401.707 224.037,403.918 C224.037,406.127 222.249,407.916 220.039,407.916 Z" id="Shape"></path>
                <path d="M188.055,463.889 C185.849,463.889 184.018,462.101 184.018,459.891 C184.018,457.681 185.767,455.893 187.977,455.893 L188.055,455.893 C190.265,455.893 192.053,457.681 192.053,459.891 C192.053,462.101 190.265,463.889 188.055,463.889 Z" id="Shape"></path>
                <path d="M411.943,447.896 C409.74,447.896 407.914,446.108 407.914,443.898 C407.914,441.688 409.663,439.9 411.865,439.9 L411.943,439.9 C414.16,439.9 415.941,441.688 415.941,443.898 C415.941,446.108 414.16,447.896 411.943,447.896 Z" id="Shape"></path>
                <path d="M403.947,375.931 C401.744,375.931 399.918,374.143 399.918,371.933 C399.918,369.723 401.666,367.935 403.869,367.935 L403.947,367.935 C406.164,367.935 407.945,369.723 407.945,371.933 C407.945,374.143 406.164,375.931 403.947,375.931 Z" id="Shape"></path>
                <path d="M323.985,439.9 C321.783,439.9 319.956,438.111 319.956,435.902 C319.956,433.692 321.705,431.904 323.907,431.904 L323.985,431.904 C326.203,431.904 327.983,433.692 327.983,435.902 C327.983,438.111 326.203,439.9 323.985,439.9 Z" id="Shape"></path>
                <path d="M435.932,311.962 C433.73,311.962 431.903,310.174 431.903,307.964 C431.903,305.754 433.652,303.965 435.854,303.965 L435.932,303.965 C438.15,303.965 439.93,305.754 439.93,307.964 C439.93,310.174 438.149,311.962 435.932,311.962 Z" id="Shape"></path>
                <path d="M491.904,247.992 C489.702,247.992 487.875,246.204 487.875,243.994 C487.875,241.784 489.624,239.996 491.826,239.996 L491.904,239.996 C494.122,239.996 495.902,241.784 495.902,243.994 C495.902,246.204 494.122,247.992 491.904,247.992 Z" id="Shape"></path>
                <path d="M467.916,176.027 C465.714,176.027 463.887,174.239 463.887,172.029 C463.887,169.82 465.636,168.031 467.838,168.031 L467.916,168.031 C470.134,168.031 471.914,169.82 471.914,172.029 C471.914,174.239 470.134,176.027 467.916,176.027 Z" id="Shape"></path>
                <path d="M507.896,120.054 C505.695,120.054 503.867,118.266 503.867,116.056 C503.867,113.846 505.617,112.058 507.818,112.058 L507.896,112.058 C510.114,112.058 511.894,113.846 511.894,116.056 C511.894,118.266 510.114,120.054 507.896,120.054 Z" id="Shape"></path>
                <path d="M87.864,407.916 C81.25,407.916 75.87,402.535 75.87,395.921 C75.87,389.307 81.25,383.927 87.864,383.927 C94.478,383.927 99.858,389.307 99.858,395.921 C99.858,402.535 94.479,407.916 87.864,407.916 Z M87.864,391.923 C85.658,391.923 83.866,393.719 83.866,395.921 C83.866,398.123 85.658,399.92 87.864,399.92 C90.07,399.92 91.862,398.123 91.862,395.921 C91.862,393.719 90.07,391.923 87.864,391.923 Z" id="Shape"></path>
                <path d="M151.837,439.9 C151.568,439.9 151.298,439.869 151.025,439.822 C111.329,431.623 90.453,405.838 89.582,404.745 C88.212,403.027 88.497,400.513 90.223,399.139 C91.945,397.764 94.459,398.045 95.841,399.764 C96.036,400.013 115.902,424.408 152.642,431.983 C154.805,432.436 156.195,434.544 155.75,436.714 C155.359,438.604 153.696,439.9 151.837,439.9 Z" id="Shape"></path>
                <g transform="translate(103.000000, 72.000000)" id="Shape">
                    <path d="M149.023,223.969 C146.817,223.969 144.986,222.182 144.986,219.971 C144.986,217.762 146.735,215.973 148.945,215.973 L149.023,215.973 C151.233,215.973 153.021,217.762 153.021,219.971 C153.021,222.182 151.233,223.969 149.023,223.969 Z"></path>
                    <path d="M69.062,223.969 C66.856,223.969 65.025,222.182 65.025,219.971 C65.025,217.762 66.775,215.973 68.984,215.973 L69.062,215.973 C71.272,215.973 73.061,217.762 73.061,219.971 C73.061,222.182 71.272,223.969 69.062,223.969 Z"></path>
                    <path d="M69.062,183.988 C66.856,183.988 65.025,182.2 65.025,179.99 C65.025,177.78 66.775,175.992 68.984,175.992 L69.062,175.992 C71.272,175.992 73.061,177.78 73.061,179.99 C73.061,182.2 71.272,183.988 69.062,183.988 Z"></path>
                    <path d="M117.039,160 C114.833,160 113.002,158.212 113.002,156.002 C113.002,153.792 114.751,152.004 116.961,152.004 L117.039,152.004 C119.249,152.004 121.037,153.792 121.037,156.002 C121.037,158.212 119.249,160 117.039,160 Z"></path>
                    <path d="M125.035,263.95 C122.829,263.95 120.998,262.162 120.998,259.952 C120.998,257.742 122.747,255.954 124.957,255.954 L125.035,255.954 C127.245,255.954 129.033,257.742 129.033,259.952 C129.033,262.162 127.245,263.95 125.035,263.95 Z"></path>
                    <path d="M196.997,255.954 C194.795,255.954 192.967,254.166 192.967,251.956 C192.967,249.746 194.717,247.958 196.919,247.958 L196.997,247.958 C199.215,247.958 200.995,249.746 200.995,251.956 C200.995,254.166 199.215,255.954 196.997,255.954 Z"></path>
                    <path d="M212.989,207.977 C210.787,207.977 208.96,206.189 208.96,203.979 C208.96,201.77 210.709,199.981 212.911,199.981 L212.989,199.981 C215.207,199.981 216.987,201.77 216.987,203.979 C216.987,206.188 215.207,207.977 212.989,207.977 Z"></path>
                    <path d="M181.004,199.98 C178.803,199.98 176.975,198.192 176.975,195.982 C176.975,193.773 178.725,191.984 180.926,191.984 L181.004,191.984 C183.223,191.984 185.002,193.773 185.002,195.982 C185.002,198.192 183.223,199.98 181.004,199.98 Z"></path>
                    <path d="M212.989,160 C210.787,160 208.96,158.212 208.96,156.002 C208.96,153.792 210.709,152.004 212.911,152.004 L212.989,152.004 C215.207,152.004 216.987,153.792 216.987,156.002 C216.987,158.212 215.207,160 212.989,160 Z"></path>
                    <path d="M204.993,120.02 C202.791,120.02 200.964,118.231 200.964,116.022 C200.964,113.812 202.713,112.024 204.915,112.024 L204.993,112.024 C207.211,112.024 208.991,113.812 208.991,116.022 C208.991,118.231 207.211,120.02 204.993,120.02 Z"></path>
                    <path d="M101.047,32.062 C98.841,32.062 97.01,30.274 97.01,28.064 C97.01,25.854 98.759,24.066 100.969,24.066 L101.047,24.066 C103.257,24.066 105.045,25.854 105.045,28.064 C105.045,30.274 103.257,32.062 101.047,32.062 Z"></path>
                    <path d="M109.043,72.042 C106.837,72.042 105.006,70.254 105.006,68.044 C105.006,65.835 106.755,64.046 108.965,64.046 L109.043,64.046 C111.253,64.046 113.041,65.835 113.041,68.044 C113.041,70.254 111.253,72.042 109.043,72.042 Z"></path>
                    <path d="M85.055,144.008 C82.849,144.008 81.018,142.22 81.018,140.01 C81.018,137.8 82.767,136.012 84.977,136.012 L85.055,136.012 C87.265,136.012 89.053,137.8 89.053,140.01 C89.053,142.22 87.265,144.008 85.055,144.008 Z"></path>
                    <path d="M37.077,136.012 C34.871,136.012 33.04,134.224 33.04,132.014 C33.04,129.804 34.79,128.016 36.999,128.016 L37.077,128.016 C39.287,128.016 41.075,129.804 41.075,132.014 C41.075,134.224 39.287,136.012 37.077,136.012 Z"></path>
                    <path d="M61.066,72.042 C58.86,72.042 57.029,70.254 57.029,68.044 C57.029,65.835 58.779,64.046 60.988,64.046 L61.066,64.046 C63.276,64.046 65.064,65.835 65.064,68.044 C65.064,70.254 63.276,72.042 61.066,72.042 Z"></path>
                    <path d="M157.02,120.02 C154.815,120.02 152.983,118.231 152.983,116.022 C152.983,113.812 154.733,112.024 156.942,112.024 L157.02,112.024 C159.23,112.024 161.014,113.812 161.014,116.022 C161.014,118.231 159.229,120.02 157.02,120.02 Z"></path>
                    <path d="M260.966,96.031 C258.764,96.031 256.937,94.243 256.937,92.033 C256.937,89.823 258.686,88.035 260.888,88.035 L260.966,88.035 C263.184,88.035 264.964,89.823 264.964,92.033 C264.964,94.243 263.184,96.031 260.966,96.031 Z"></path>
                    <path d="M196.997,48.054 C194.795,48.054 192.967,46.266 192.967,44.056 C192.967,41.846 194.717,40.058 196.919,40.058 L196.997,40.058 C199.215,40.058 200.995,41.846 200.995,44.056 C200.995,46.266 199.215,48.054 196.997,48.054 Z"></path>
                    <path d="M276.958,152.004 C274.756,152.004 272.929,150.216 272.929,148.006 C272.929,145.796 274.678,144.008 276.88,144.008 L276.958,144.008 C279.176,144.008 280.956,145.796 280.956,148.006 C280.956,150.216 279.176,152.004 276.958,152.004 Z"></path>
                    <path d="M260.966,215.973 C258.764,215.973 256.937,214.185 256.937,211.975 C256.937,209.766 258.686,207.977 260.888,207.977 L260.966,207.977 C263.184,207.977 264.964,209.766 264.964,211.975 C264.964,214.185 263.184,215.973 260.966,215.973 Z"></path>
                    <path d="M157.02,287.938 C154.815,287.938 152.983,286.15 152.983,283.94 C152.983,281.73 154.733,279.942 156.942,279.942 L157.02,279.942 C159.23,279.942 161.014,281.73 161.014,283.94 C161.014,286.15 159.229,287.938 157.02,287.938 Z"></path>
                    <path d="M152.784,303.931 C69.012,303.931 0.857,235.777 0.857,152.004 C0.857,68.231 69.011,0.077 152.784,0.077 C236.556,0.077 304.711,68.231 304.711,152.004 C304.711,235.777 236.556,303.931 152.784,303.931 Z M152.784,8.073 C73.42,8.073 8.853,72.639 8.853,152.004 C8.853,231.372 73.42,295.935 152.784,295.935 C232.152,295.935 296.715,231.373 296.715,152.004 C296.715,72.64 232.151,8.073 152.784,8.073 Z"></path>
                    <path d="M144.787,56.05 C135.968,56.05 128.795,48.878 128.795,40.058 C128.795,31.238 135.968,24.066 144.787,24.066 C153.607,24.066 160.779,31.238 160.779,40.058 C160.779,48.878 153.607,56.05 144.787,56.05 Z M144.787,32.062 C140.379,32.062 136.791,35.65 136.791,40.058 C136.791,44.466 140.379,48.054 144.787,48.054 C149.195,48.054 152.784,44.466 152.784,40.058 C152.784,35.65 149.195,32.062 144.787,32.062 Z"></path>
                    <path d="M188.767,88.035 C182.153,88.035 176.772,82.655 176.772,76.04 C176.772,69.426 182.153,64.046 188.767,64.046 C195.381,64.046 200.761,69.426 200.761,76.04 C200.761,82.654 195.381,88.035 188.767,88.035 Z M188.767,72.042 C186.565,72.042 184.769,73.834 184.769,76.04 C184.769,78.246 186.565,80.039 188.767,80.039 C190.969,80.039 192.765,78.247 192.765,76.04 C192.765,73.834 190.969,72.042 188.767,72.042 Z"></path>
                    <path d="M124.797,120.02 C118.183,120.02 112.803,114.639 112.803,108.025 C112.803,101.411 118.183,96.031 124.797,96.031 C131.411,96.031 136.791,101.411 136.791,108.025 C136.791,114.639 131.411,120.02 124.797,120.02 Z M124.797,104.027 C122.591,104.027 120.799,105.819 120.799,108.025 C120.799,110.231 122.591,112.024 124.797,112.024 C127.003,112.024 128.795,110.232 128.795,108.025 C128.795,105.819 127.003,104.027 124.797,104.027 Z"></path>
                    <path d="M172.773,175.992 C161.748,175.992 152.783,167.023 152.783,156.002 C152.783,144.98 161.747,136.012 172.773,136.012 C183.799,136.012 192.764,144.98 192.764,156.002 C192.765,167.023 183.8,175.992 172.773,175.992 Z M172.773,144.008 C166.16,144.008 160.779,149.388 160.779,156.002 C160.779,162.616 166.16,167.996 172.773,167.996 C179.387,167.996 184.768,162.616 184.768,156.002 C184.768,149.388 179.388,144.008 172.773,144.008 Z"></path>
                    <path d="M232.745,247.958 C223.922,247.958 216.753,240.789 216.753,231.965 C216.753,223.142 223.922,215.973 232.745,215.973 C241.569,215.973 248.737,223.142 248.737,231.965 C248.737,240.789 241.569,247.958 232.745,247.958 Z M232.745,223.969 C228.341,223.969 224.749,227.562 224.749,231.965 C224.749,236.369 228.341,239.962 232.745,239.962 C237.149,239.962 240.741,236.369 240.741,231.965 C240.741,227.562 237.149,223.969 232.745,223.969 Z"></path>
                    <path d="M244.739,191.984 C238.125,191.984 232.745,186.604 232.745,179.99 C232.745,173.377 238.125,167.996 244.739,167.996 C251.353,167.996 256.733,173.377 256.733,179.99 C256.733,186.604 251.354,191.984 244.739,191.984 Z M244.739,175.992 C242.537,175.992 240.741,177.788 240.741,179.99 C240.741,182.192 242.537,183.988 244.739,183.988 C246.941,183.988 248.737,182.192 248.737,179.99 C248.737,177.788 246.941,175.992 244.739,175.992 Z"></path>
                    <path d="M244.739,136.012 C238.125,136.012 232.745,130.632 232.745,124.018 C232.745,117.404 238.125,112.024 244.739,112.024 C251.353,112.024 256.733,117.404 256.733,124.018 C256.733,130.631 251.354,136.012 244.739,136.012 Z M244.739,120.02 C242.537,120.02 240.741,121.812 240.741,124.018 C240.741,126.224 242.537,128.016 244.739,128.016 C246.941,128.016 248.737,126.224 248.737,124.018 C248.737,121.812 246.941,120.02 244.739,120.02 Z"></path>
                    <path d="M64.826,120.02 C56.006,120.02 48.833,112.847 48.833,104.027 C48.833,95.207 56.005,88.035 64.826,88.035 C73.645,88.035 80.818,95.207 80.818,104.027 C80.818,112.847 73.646,120.02 64.826,120.02 Z M64.826,96.031 C60.418,96.031 56.829,99.619 56.829,104.027 C56.829,108.435 60.417,112.024 64.826,112.024 C69.234,112.024 72.822,108.436 72.822,104.027 C72.822,99.619 69.234,96.031 64.826,96.031 Z"></path>
                    <path d="M236.743,80.039 C230.129,80.039 224.749,74.659 224.749,68.044 C224.749,61.43 230.129,56.05 236.743,56.05 C243.357,56.05 248.737,61.43 248.737,68.044 C248.737,74.658 243.357,80.039 236.743,80.039 Z M236.743,64.046 C234.541,64.046 232.745,65.838 232.745,68.044 C232.745,70.25 234.541,72.042 236.743,72.042 C238.945,72.042 240.741,70.25 240.741,68.044 C240.741,65.838 238.945,64.046 236.743,64.046 Z"></path>
                    <path d="M112.803,215.973 C103.983,215.973 96.811,208.805 96.811,199.981 C96.811,191.158 103.983,183.989 112.803,183.989 C121.623,183.989 128.795,191.158 128.795,199.981 C128.795,208.805 121.623,215.973 112.803,215.973 Z M112.803,191.984 C108.395,191.984 104.807,195.576 104.807,199.98 C104.807,204.384 108.395,207.976 112.803,207.976 C117.211,207.976 120.799,204.384 120.799,199.98 C120.799,195.576 117.211,191.984 112.803,191.984 Z"></path>
                    <path d="M84.816,263.95 C78.202,263.95 72.822,258.57 72.822,251.956 C72.822,245.342 78.202,239.962 84.816,239.962 C91.43,239.962 96.81,245.342 96.81,251.956 C96.81,258.57 91.43,263.95 84.816,263.95 Z M84.816,247.958 C82.61,247.958 80.818,249.754 80.818,251.956 C80.818,254.158 82.61,255.954 84.816,255.954 C87.022,255.954 88.814,254.158 88.814,251.956 C88.814,249.754 87.022,247.958 84.816,247.958 Z"></path>
                    <path d="M156.781,271.946 C150.168,271.946 144.787,266.566 144.787,259.952 C144.787,253.338 150.168,247.958 156.781,247.958 C163.395,247.958 168.775,253.338 168.775,259.952 C168.775,266.566 163.396,271.946 156.781,271.946 Z M156.781,255.954 C154.576,255.954 152.783,257.75 152.783,259.952 C152.783,262.154 154.575,263.95 156.781,263.95 C158.987,263.95 160.779,262.154 160.779,259.952 C160.779,257.75 158.987,255.954 156.781,255.954 Z"></path>
                    <path d="M36.839,175.992 C30.225,175.992 24.844,170.612 24.844,163.998 C24.844,157.384 30.225,152.004 36.839,152.004 C43.453,152.004 48.833,157.384 48.833,163.998 C48.833,170.612 43.453,175.992 36.839,175.992 Z M36.839,160 C34.633,160 32.841,161.792 32.841,163.998 C32.841,166.204 34.633,167.996 36.839,167.996 C39.045,167.996 40.837,166.204 40.837,163.998 C40.837,161.792 39.045,160 36.839,160 Z"></path>
                </g>
                <g transform="translate(447.000000, 375.000000)" id="Shape">
                    <path d="M12.686,40.912 C10.476,40.912 8.688,39.123 8.688,36.914 L8.688,4.929 C8.688,2.719 10.476,0.931 12.686,0.931 C14.896,0.931 16.684,2.719 16.684,4.929 L16.684,36.914 C16.684,39.123 14.896,40.912 12.686,40.912 Z"></path>
                    <path d="M20.682,24.92 L4.69,24.92 C2.48,24.92 0.692,23.131 0.692,20.921 C0.692,18.711 2.48,16.923 4.69,16.923 L20.682,16.923 C22.892,16.923 24.68,18.711 24.68,20.921 C24.68,23.131 22.892,24.92 20.682,24.92 Z"></path>
                </g>
                <g transform="translate(31.000000, 216.000000)" id="Shape">
                    <path d="M12.886,39.988 C10.676,39.988 8.888,38.2 8.888,35.99 L8.888,4.006 C8.888,1.796 10.676,0.008 12.886,0.008 C15.095,0.008 16.884,1.796 16.884,4.006 L16.884,35.99 C16.884,38.2 15.095,39.988 12.886,39.988 Z"></path>
                    <path d="M20.882,23.996 L4.889,23.996 C2.68,23.996 0.891,22.208 0.891,19.998 C0.891,17.788 2.68,16 4.889,16 L20.882,16 C23.092,16 24.88,17.788 24.88,19.998 C24.88,22.208 23.092,23.996 20.882,23.996 Z"></path>
                </g>
                <path d="M435.697,96.065 C415.855,96.065 399.715,79.924 399.715,60.083 C399.715,40.241 415.856,24.1 435.697,24.1 C455.538,24.1 471.679,40.241 471.679,60.083 C471.68,79.925 455.539,96.065 435.697,96.065 Z M435.697,32.096 C420.267,32.096 407.711,44.652 407.711,60.083 C407.711,75.513 420.268,88.069 435.697,88.069 C451.126,88.069 463.683,75.512 463.683,60.083 C463.684,44.652 451.127,32.096 435.697,32.096 Z" id="Shape"></path>
                <path d="M420.782,59.649 C410.834,59.649 403.353,55.881 402.885,55.639 C400.933,54.627 400.167,52.226 401.167,50.266 C402.174,48.306 404.579,47.525 406.547,48.528 C406.68,48.587 420.47,55.455 433.862,48.532 C450.978,39.689 467.791,48.161 468.509,48.532 C470.461,49.544 471.226,51.945 470.227,53.905 C469.211,55.865 466.822,56.641 464.847,55.642 C464.714,55.58 450.923,48.723 437.532,55.638 C431.707,58.646 425.913,59.649 420.782,59.649 Z" id="Shape"></path>
                <path d="M420.782,75.642 C410.834,75.642 403.353,71.874 402.885,71.632 C400.933,70.621 400.167,68.22 401.167,66.259 C402.174,64.299 404.579,63.514 406.547,64.522 C406.68,64.588 420.47,71.444 433.862,64.526 C450.978,55.679 467.791,64.155 468.509,64.526 C470.461,65.537 471.226,67.939 470.227,69.899 C469.211,71.859 466.822,72.636 464.847,71.636 C464.714,71.574 450.923,64.717 437.532,71.632 C431.707,74.638 425.913,75.642 420.782,75.642 Z" id="Shape"></path>
            </g>
        </g>
    </g>
</svg>